<?xml version="1.0" encoding="UTF-8"?>
<svg xmlns="http://www.w3.org/2000/svg" fill-rule="evenodd" clip-rule="evenodd" image-rendering="optimizeQuality" shape-rendering="geometricPrecision" text-rendering="geometricPrecision" viewBox="0 0 25.4 25.4">
  <defs>
    <style>
      .str1{stroke:#2b2a29;stroke-width:.4233}.fil1{fill:none}.fil0{fill:#2b2a29;fill-rule:nonzero}
    </style>
  </defs>
  <g id="Layer_x0020_1">
    <path d="M17.704 5.1534l-.0876.145.0876-.145zm-.5107.0026h-.0001l.0121-.0187.0128-.0181.0137-.0171.0139-.016.0159-.0163.0157-.0146.016-.0135.0174-.0132.0174-.0119.0177-.0109.0184-.0102.0188-.0092.0193-.0085.0201-.0075.0195-.0063.0197-.0053.021-.0047.0205-.0035.02-.0025.0214-.0016.0214-.0006.0201.0005.0214.0014.0213.0026.0207.0034.0215.0047.0206.0057.0201.0066.0205.0077.0203.009.0199.01.0193.011-.1752.29-.0045-.0026-.0043-.0022-.0041-.0018-.0043-.0017-.0051-.0016-.0048-.0013-.0039-.0009-.0049-.0008-.0045-.0006-.0044-.0002-.0057-.0001h-.0042l-.0042.0004-.0054.0007-.0047.0007-.004.0009-.0051.0015-.0049.0015-.0039.0015-.0041.0017-.0044.0022-.004.0022-.0043.0027-.004.0027-.0034.0026-.0038.0033-.0037.0032-.0025.0027-.0035.004-.0031.0039-.0028.0039-.0027.0043h-.0001l-.2898-.1752zm-.9089 2.159l-.2325.0574-.0573-.2326 1.1987-1.9838.2898.1752-1.1987 1.9838zm-.2325.0574l-.1449-.0876.0876-.145.0573.2326zm.6312-.0145l.0573.2326-.2325.0574-.456-.2755.1752-.29.456.2755zm.0573.2326l-.0876.145-.1449-.0876.2325-.0574zm.9089-2.1589l.2899.1752h-.0001l-1.1987 1.9837-.2898-.1752 1.1987-1.9837zm.1423-.4232v.0001l.0187.012.0181.0128.0171.0137.0163.0142.0159.0156.0143.0154.0139.0163.0132.0174.0119.0174.0109.0177.0105.019.0091.0187.0082.0188.0073.0195.0064.0195.0057.0209.0044.0204.0035.0198.0026.0214.0015.0207.0006.0207-.0004.0215-.0015.0207-.0024.0207-.0035.0213-.0047.0215-.0057.0206-.0066.0201-.0077.0205-.009.0203-.01.0199-.011.0193-.29-.1752.0026-.0045.0022-.0043.0018-.0041.0017-.0043.0016-.0051.0013-.0048.0009-.0039.0007-.0043.0006-.0051.0003-.0051.0002-.0043-.0002-.0049-.0003-.0049-.0006-.004-.0009-.0054-.001-.0046-.0011-.0039-.0016-.0049-.0017-.0045-.002-.0046-.0021-.0045-.0019-.0034-.0027-.0043-.0027-.004-.0026-.0034-.0029-.0035-.0037-.004-.0029-.0028-.0037-.0032-.0039-.0031-.0039-.0028-.0043-.0028v.0001l.1752-.29zM7.8224 5.1362l-.0876-.145.0876.145zm.5107.0026l-.2898.1752h-.0001l-.0027-.0043-.0028-.0039-.0031-.0039-.0035-.004-.0025-.0027-.0037-.0032-.0038-.0033-.0034-.0026-.004-.0027-.0043-.0027-.004-.0022-.0044-.0022-.0041-.0017-.0039-.0015-.0049-.0015-.0051-.0015-.004-.0009-.0047-.0007-.0054-.0007-.0042-.0004h-.0042l-.0057.0001-.0044.0002-.0045.0006-.0049.0008-.0039.0009-.0048.0013-.0051.0016-.0043.0017-.0041.0018-.0043.0022-.0045.0026-.1752-.29.0193-.011.0199-.01.0203-.009.0205-.0077.0201-.0066.0206-.0057.0215-.0047.0207-.0034.0213-.0026.0214-.0014.0201-.0005.0214.0006.0214.0016.02.0025.0205.0035.021.0047.0197.0053.0195.0063.0201.0075.0193.0085.0188.0092.0184.0102.0177.0109.0174.0119.0174.0132.016.0135.0157.0146.0159.0163.0139.016.0137.0171.0128.0181.0121.0187h-.0001zm.9089 2.159L8.0433 5.314l.2898-.1752 1.1987 1.9838-.0573.2326-.2325-.0574zm.2898-.1752l.0876.145-.1449.0876.0573-.2326zm-.6885.2181l.456-.2755.1752.29-.456.2755-.2325-.0574.0573-.2326zm.1752.29l-.1449.0876-.0876-.145.2325.0574zM7.8771 5.4144l1.1987 1.9837-.2898.1752-1.1987-1.9837h-.0001l.2899-.1752zm-.1423-.4232l.1752.29v-.0001l-.0043.0028-.0039.0028-.0039.0031-.0037.0032-.0029.0028-.0037.004-.0029.0035-.0026.0034-.0027.004-.0027.0043-.0019.0034-.0021.0045-.002.0046-.0017.0045-.0016.0049-.0011.0039-.001.0046-.0009.0054-.0006.004-.0003.0049-.0002.0049.0002.0043.0003.0051.0006.0051.0007.0043.0009.0039.0013.0048.0016.0051.0017.0043.0018.0041.0022.0043.0026.0045-.29.1752-.011-.0193-.01-.0199-.009-.0203-.0077-.0205-.0066-.0201-.0057-.0206-.0047-.0215-.0035-.0213-.0024-.0207-.0015-.0207-.0004-.0215.0006-.0207.0015-.0207.0026-.0214.0035-.0198.0044-.0204.0057-.0209.0064-.0195.0073-.0195.0082-.0188.0091-.0187.0105-.019.0109-.0177.0119-.0174.0132-.0174.0139-.0163.0143-.0154.0159-.0156.0163-.0142.0171-.0137.0181-.0128.0187-.012v-.0001zM19.7096 13.6766H5.706v-.6736h14.0036l.3387.3368-.3387.3368zm0-.6736h.3387v.3368l-.3387-.3368zm-.3387 6.2947v-5.9579h.6774v5.9579h-.6774zm-.6484 1.3239v-.6736l.0334-.0009.0327-.0024.032-.0042.0316-.0056.0308-.0072.0304-.0087.0302-.0103.0295-.0116.0284-.0129.0279-.0144.0269-.0155.0264-.017.026-.0185.0244-.0192.0236-.0204.0229-.0219.0216-.0226.0207-.024.0194-.0245.0181-.0256.0172-.0267.0157-.0273.0144-.0279.0131-.0288.0116-.0293.0102-.03.0089-.0312.0072-.031.0057-.0317.0042-.0323.0025-.0331.0008-.0336h.6774l-.0018.0676-.0051.0669-.0084.0661-.0117.0653-.015.0642-.0179.0624-.0208.0616-.024.0603-.0265.0586-.0294.0571-.0319.0553-.0344.0535-.0369.0518-.0394.0501-.0415.0478-.0438.046-.0459.0437-.048.0418-.0502.0394-.0516.0367-.0536.0346-.0557.0321-.0573.0294-.059.0267-.0601.0238-.0614.0209-.063.0181-.0646.015-.0654.0118-.0664.0084-.0673.0052-.0678.0017zM6.5521 19.948h12.1704v.6736H6.5521v-.6736zm-1.1848-.5094h.6774l.0006.0263.002.0258.0033.0253.0044.0249.0058.0247.0068.024.008.0234.0092.0231.0103.0226.0113.0222.0122.0211.0134.021.0143.02.015.019.0163.0188.017.0179.0178.017.0187.0161.0195.0154.0199.0142.0207.0133.0212.0123.0215.011.0227.0103.023.0091.0231.0079.0237.0067.0245.0057.0246.0045.0251.0032.0255.0019.026.0007v.6736l-.0608-.0015-.0601-.0047-.0593-.0076-.0586-.0105-.0571-.0133-.0565-.0161-.0555-.0189-.0536-.0213-.0523-.0237-.0515-.0264-.0496-.0287-.0479-.0307-.0465-.0332-.0445-.035-.0427-.0371-.0412-.0392-.039-.0409-.0371-.0426-.0354-.045-.0329-.0464-.0308-.0478-.0286-.0497-.0261-.0508-.0237-.0522-.0212-.0537-.0188-.0552-.016-.0562-.0132-.0569-.0106-.0583-.0075-.0591-.0046-.0598-.0016-.0605zm.6774-6.0988v6.0988h-.6774v-6.0988l.3387-.3368.3387.3368zm-.6774 0v-.3368h.3387l-.3387.3368z" class="fil0"/>
    <path stroke="#2b2a29" stroke-width=".6773" d="M5.6903 13.3673l14.0121-.0177s.2503-4.8383-4.8781-6.6951c0 0-4.4235-1.6447-7.6928 2.4404 0 0-1.3705 1.3971-1.4412 4.2724z" class="fil1"/>
    <circle cx="9.76113" cy="10.3916" r=".911741" class="fil1 str1"/>
    <circle cx="15.65" cy="10.3916" r=".911741" class="fil1 str1"/>
    <circle cx="12.7" cy="12.7001" r="11.2498" stroke="#e31e24" stroke-width=".8533" class="fil1"/>
  </g>
</svg>
