<?xml version="1.0" encoding="UTF-8"?>
<svg xmlns="http://www.w3.org/2000/svg" fill-rule="evenodd" clip-rule="evenodd" image-rendering="optimizeQuality" shape-rendering="geometricPrecision" text-rendering="geometricPrecision" viewBox="0 0 25.4 25.4">
  <defs>
    <style>
      .str3{stroke:#2b2a29;stroke-width:.4478}.fil0{fill:none}.fil2,.fil3{fill:#2b2a29;fill-rule:nonzero}.fil3{fill:#e31e24}
    </style>
  </defs>
  <g id="Layer_x0020_1">
    <g id="_346448376">
      <path class="fil0" id="_812284424" stroke="#2b2a29" stroke-width=".5812" d="M16.995 6.9175l-.0161-.7412H5.4717v13.5994h8.237l3.2701-2.3537v-4.6748"/>
      <circle class="fil0" id="_812284496" cx="8.56855" cy="8.22265" r=".950717" stroke="#494d4e" stroke-width=".2286"/>
      <path id="_812284736" fill="red" fill-rule="nonzero" d="M10.2714 11.84l-3.4977-.0122.0008-.223 3.4977.0122.0023.223h-.0031zm.0031 0H10.2714h.0031zm.1632-.3958l.2238.0012-.0005.0102-.004.0315-.0055.03-.0072.0289-.0087.0275-.0102.0263-.0117.0248-.0127.0231-.0138.0215-.0148.0202-.0159.0186-.0162.017-.0168.0155-.0171.014-.0174.0127-.0173.0113-.0171.0099-.0167.0086-.0164.0077-.0167.0069-.0154.0056-.015.005-.0146.0041-.0131.0033-.0127.0028-.0115.0022-.0104.0017-.0094.0013-.0083.001-.0066.0006-.005.0004-.0063.0003-.002.0001-.0054-.223-.0006.0001-.0021.0001.0018-.0002.0026-.0002.0033-.0004.004-.0005.005-.0009.0057-.001.0061-.0014.0069-.0017.0066-.0019.0074-.0024.0078-.0028.0071-.0029.0078-.0037.0081-.0042.0077-.0045.0075-.0047.0072-.0053.0071-.0058.007-.0065.0068-.007.0063-.0076.0062-.0084.006-.0093.0057-.0103.0053-.0112.0048-.0125.0045-.0141.0038-.0155.0033-.0174.0024-.0189-.0005.0102zm.2238.0012v.0054l-.0005.0048.0005-.0102zm.0055-.9435l-.0055.9435-.2238-.0012.0055-.9435.2222-.0183.0016.0195zm-.0016-.0195l.0017.0096-.0001.0099-.0016-.0195zM9.355 9.5141l.0794-.2086-.0108-.0034.0979.0284.0928.0317.0879.0346.0831.0372.0786.0398.0739.0419.0693.0438.0651.0456.0608.0469.0566.0478.0526.0488.0487.0493.045.0495.0412.0495.0379.0491.0345.0486.0313.0478.0283.0467.0252.0453.0225.0436.02.0418.0174.0396.0152.0372.0129.0345.011.0317.0091.0286.0073.0251.0057.0211.0043.0175.0031.0135.0018.0092.0008.0046-.2206.0378V10.52l-.001-.0046-.0019-.0089-.0033-.0131-.0045-.0169-.0059-.0203-.0073-.0232-.0092-.0263-.0109-.0291-.0128-.0314-.0148-.0336-.017-.0356-.0193-.0374-.0216-.0387-.0241-.0399-.0269-.041-.0295-.0416-.0325-.0423-.0356-.0425-.0386-.0427-.0419-.0423-.0454-.042-.0488-.0414-.0526-.0407-.0565-.0394-.0605-.0382-.0647-.0367-.069-.035-.0735-.033-.0783-.0308-.083-.0283-.0881-.0256-.0108-.0034zm.0108.0034l-.0061-.0016-.0047-.0018.0108.0034zm-.6364.3212l-.2168-.0562.0117-.0281.0341-.0554.035-.0512.0357-.0473.0364-.0435.0371-.0399.0374-.0361.0378-.0329.0382-.0295.0383-.0262.0379-.0229.038-.0202.0376-.0173.0369-.0145.0363-.0121.0357-.0098.0345-.0076.0333-.0056.0321-.0038.0307-.0023.0293-.0008.0278.0004.0259.0014.0238.0021.0224.0028.0205.0034.0177.0034.0161.0036.014.0037.0104.003.0081.0024.0063.0021.0048.0017-.0794.2086.0022.0007-.0011-.0003-.0043-.0014-.0064-.0018-.0072-.0019-.0093-.002-.0117-.0024-.0125-.002-.0144-.0018-.0162-.0015-.0173-.001-.0184-.0002-.0195.0006-.0207.0015-.0217.0026-.0227.0038-.0233.005-.0241.0066-.0249.0083-.0255.0101-.0262.0119-.0266.0142-.0273.0165-.0277.019-.028.0217-.0286.0247-.0288.0279-.0289.0311-.0292.0349-.0291.0385-.029.0426-.0289.0468.0117-.0281zm-.2168-.0562l.0038-.0147.0079-.0134-.0117.0281zm-.0274.105l.0274-.105.2168.0562-.0274.105-.2173-.0023.0005-.0539zm-.0005.0539l-.0065-.0271.007-.0268-.0005.0539zm.2183.9124l-.2183-.9124.2178-.0516.2183.9124-.0102.0784-.2076-.0268zm.2178-.0516l.0098.0411-.02.0373.0102-.0784zm-.4693.4606l.2617-.4874.1974.1052-.2617.4874-.1996-.0043.0022-.1009zm.1974.1052l-.1041.1939-.0955-.1982.1996.0043zm-.2267-.5758l.2289.4749-.2018.0966-.2289-.4749-.0085-.0718.2103-.0248zm-.2018.0966l-.0166-.0344.0081-.0374.0085.0718zm.4119-.956l-.2016.9312-.2188-.047.2016-.9312.2138-.0168.005.0638zm-.005-.0638l.0121.031-.0071.0328-.005-.0638zm-.9654-.3077l-.054-.2164-.0117.0036.0647-.0213.0633-.0157.0619-.0105.0599-.0052.0582-.0004.0565.0043.054.0086.0517.0126.0493.016.0471.0194.0442.0222.0416.0243.0392.0264.0367.0279.0343.0292.0319.0301.0295.0305.0274.0307.0253.0308.0231.0304.0211.0296.0191.0287.0173.0276.0152.026.0134.0239.0117.0221.0098.0197.008.0167.0064.014.0048.0108.003.0074.0015.0037-.2088.0806-.0001-.0003-.0016-.0038-.0032-.0074-.0048-.0106-.0064-.0133-.0078-.0157-.0093-.0175-.011-.0199-.0124-.021-.0139-.0222-.0155-.0233-.0169-.0238-.0185-.0242-.0199-.0242-.0214-.0241-.0227-.0235-.0241-.0227-.0253-.0216-.0267-.0203-.0278-.0188L8.1 9.5743l-.0304-.0152-.0315-.013-.0329-.0108-.0347-.0084-.036-.0058-.0377-.0029-.04.0004-.0421.0036-.0443.0075-.0471.0117-.0497.0163-.0117.0036zm.0117-.0036l-.0058.0021-.0059.0015.0117-.0036zm-1.0054 1.0108l-.2238.0014.0064-.038.0339-.0893.0363-.0851.0386-.0807.0404-.0767.0422-.0726.0437-.0686.0449-.0647.0459-.0609.0469-.0572.0474-.0535.0477-.0502.048-.0466.0478-.0432.0473-.0402.047-.037.0461-.0341.0452-.031.0438-.0284.0425-.0257.0408-.0231.0386-.0206.0369-.0184.0346-.0161.0318-.0139.029-.0121.0265-.0101.0231-.0083.0193-.0065.0159-.0052.0127-.0037.0078-.0021.0045-.0012.054.2164h.0001l-.0048.0013-.0077.0023-.0121.0038-.0157.0053-.0187.0067-.0213.0083-.0246.0101-.0272.0119-.0294.0137-.0315.0158-.0338.018-.0354.0199-.0367.0223-.0384.0248-.0394.0272-.0403.0297-.041.0324-.0417.0352-.042.038-.042.041-.0421.044-.0418.0473-.0413.0504-.0407.0539-.0399.0575-.0389.061-.0376.0646-.0362.0687-.0346.0725-.0327.0767-.0307.0809.0064-.038zm-.2238.0014l-.0001-.0197.0065-.0183-.0064.038zm.0051.8633l-.0051-.8633.2238-.0014.0051.8633.0001.0007-.2239.0007zm.2238-.0014l.0001.0007v.0162l-.0001-.0169zm.1012.173l-.0008.223h.0004l-.0289-.0012-.028-.0037-.0272-.0061-.026-.0085-.0245-.0107-.0227-.0126-.0209-.0141-.0193-.0157-.0172-.0166-.0152-.0171-.0138-.0179-.0122-.0182-.0106-.0183-.0092-.0179-.0081-.0179-.0071-.0178-.0062-.0174-.0053-.0171-.0044-.0163-.0039-.0157-.0033-.0157-.0026-.0143-.0021-.0134-.0018-.013-.0013-.0117-.001-.0106-.0008-.0093-.0005-.0086-.0003-.0072-.0001-.0039-.0001-.0025-.0001-.0043h.224l-.0001-.0027.0001.0023.0001.0037.0001.0032.0003.0042.0004.0059.0006.0066.0009.0073.001.0078.0015.0088.0016.0091.0019.0089.0023.0097.0026.0095.0029.0093.0032.0092.0035.0088.0039.0085.004.0079.0042.0071.0042.0064.0042.0055.0046.0051.0042.0042.0041.0033.0045.0031.0047.0026.0049.0021.0056.0019.0068.0015.0082.0011.0097.0004h.0004zm-.0004 0h.0004-.0004z"/>
      <path stroke="#2b2a29" stroke-width=".2906" d="M11.158 8.6008h4.3406" class="fil0"/>
      <path d="M13.4035 13.29H6.5942v-.2906h6.8093zM10.4733 17.4092H6.5942v-.2906h3.8791z" class="fil2"/>
      <path d="M14.6252 10.9253h-3.5198v-.2906h3.5198zM12.9578 15.3607h-6.473v-.2906h6.473z" class="fil3"/>
      <path d="M13.6225 16.3159l.1417-2.1031 2.3973-4.5222 1.373.741-2.2666 4.4677z" class="fil0 str3"/>
      <path stroke="#e31e24" stroke-width=".4478" d="M16.4012 9.2329l1.373.7301 1.4166-2.637s.4414-.6375.2561-1.3349c0 0-.207-.5776-.948-.2833 0 0-.3923-.1853-2.0977 3.5251z" class="fil0"/>
      <path stroke="#e31e24" stroke-width=".2239" d="M18.4552 10.4098s-.3813.1308-.3269-.2288l1.3567-2.5717s.0437-.2234-.2942-.3651l.1253-.3214s.2615.0544.5612.3432c0 0 .1308.2016-.0272.534l-1.3949 2.6098z" class="fil0"/>
      <path d="M16.8043 17.3293l-2.8931.0491.007 2.3019" class="fil0 str3"/>
    </g>
    <circle cx="12.7" cy="12.7" r="11.2498" stroke="#e31e24" stroke-width=".8533" class="fil0"/>
  </g>
</svg>
