<?xml version="1.0" encoding="UTF-8"?>
<svg xmlns="http://www.w3.org/2000/svg" fill-rule="evenodd" clip-rule="evenodd" image-rendering="optimizeQuality" shape-rendering="geometricPrecision" text-rendering="geometricPrecision" viewBox="0 0 84.6666 59.2666">
  <defs>
    <style>
      .fil1{fill:red}
    </style>
  </defs>
  <g id="Layer_x0020_1">
    <path fill="none" d="M.419828 1.85333h83.827v55.5599h-83.827z"/>
    <g id="_249098560">
      <path id="_313790424" d="M64.3986 13.4846c8.8618 0 16.0866 6.7718 16.4446 15.2556V30.06c-.008.1898-.0194.3787-.0342.5667l-6.1116-1.3757c-.8718-6.0749-6.3825-10.7575-13.0517-10.7575-7.275 0-13.1727 5.5718-13.1727 12.445 0 .6968.0616 1.3798.1781 2.0454h-.2933c-.2741-1.1519-.4191-2.3515-.4191-3.5838 0-8.79 7.3694-15.9155 16.4599-15.9155z" class="fil1"/>
      <path id="_310051640" d="M80.8061 31.1919l-.001.7865-14.0359-1.0656.5894-2.5434z" class="fil1"/>
      <path id="_310051808" d="M64.2446 25.848c1.9015 0 3.4429 1.5664 3.4429 3.4988 0 1.9322-1.5414 3.4987-3.4429 3.4987-1.9015 0-3.4429-1.5665-3.4429-3.4987 0-1.9324 1.5414-3.4988 3.4429-3.4988zm0 .7041c1.5188 0 2.7501 1.2512 2.7501 2.7947 0 1.5434-1.2313 2.7945-2.7501 2.7945-1.5188 0-2.7501-1.2511-2.7501-2.7945 0-1.5435 1.2313-2.7947 2.7501-2.7947z" class="fil1"/>
      <path id="_249096832" d="M81.3065 16.4183S73.2368 4.2694 58.2182 8.5215c0 0-11.5816 2.5817-14.7198 16.0215 0 0-3.5119 13.5918 8.5926 21.9442 0 0 15.0933 10.8583 28.4681-3.8724 0 0-4.782 7.4412-10.7596 9.2636 0 0-3.5305 1.158-7.4532 1.1959 0 0-6.2765-.3797-8.7048 3.6067 0 0-2.2042-1.9742.0747-4.7457 0 0 .0654-.2278-.4016-.019 0 0-5.3613 2.4678-10.8531.4556 0 0-9.041-4.4041-12.6649-4.5939 0 0-4.5206-.7593-8.406 1.139 0 0 2.2042-6.9856 10.6102-5.543 0 0 .5323.1424.2521-.3512 0 0-1.6252-3.1892-7.4533-3.417 0 0-5.1181-.4177-8.5926-.3037 0 0-9.3774.038-13.076-3.7966 0 0-2.5031-2.5817-2.5778-5.2393 0 0 4.9688 4.8217 10.3487 3.6827 0 0 12.2539-1.3667 9.6013-8.8839 0 0-2.3537-4.7837-9.3026-5.2772 0 0 1.6812-1.5567 6.2391-1.1011 0 0 3.3248.4935 9.0782 1.6705 0 0 7.1731 1.5944 11.4695-2.5058 0 0 .181-.2669-.202-.153 0 0-4.3897.3417-7.8268-.6454 0 0-2.6898-.6074-5.9775-3.0372 0 0-3.1756-2.1641-5.9028-1.7465 0 0 2.0921-2.4298 6.5379-1.8603 0 0 3.8854.2657 7.8829 1.025 0 0 5.9776.8732 12.3661-2.4298 0 0 5.193-2.0882 8.63-1.8983 0 0 .0468-.1519-.5416-.1994 0 0-1.5318-.1803-3.4184-.8827 0 0-1.3823-.5125-4.3898.076 0 0 3.6612-3.5117 12.3287-3.5117 0 0 11.9923-.3418 19.3896 7.3652 0 0 4.1096 4.8216 4.4428 6.465z" class="fil1"/>
      <path id="_249098632" fill="#4a4d4e" d="M64.3499 8.8339c10.9149 0 19.7633 8.9919 19.7633 20.0838s-8.8484 20.0837-19.7633 20.0837c-10.9148 0-19.7632-8.9918-19.7632-20.0837S53.4351 8.8339 64.3499 8.8339zm0 2.3727c9.8407 0 17.8183 7.9424 17.8183 17.7396 0 9.7971-7.9776 17.7394-17.8183 17.7394-9.8406 0-17.8182-7.9423-17.8182-17.7394 0-9.7972 7.9776-17.7396 17.8182-17.7396z"/>
    </g>
  </g>
</svg>
