<?xml version="1.0" encoding="UTF-8"?>
<svg xmlns="http://www.w3.org/2000/svg" fill-rule="evenodd" clip-rule="evenodd" image-rendering="optimizeQuality" shape-rendering="geometricPrecision" text-rendering="geometricPrecision" viewBox="0 0 84.6666 84.6666">
  <path fill="#fe0000" fill-rule="nonzero" d="M13.3138 53.7678L8.9241 39.8966l3.5653-.0671 2.6003 9.0981 2.386-9.3896 3.5453-.3531 2.3122 9.4612 2.654-10.1566 3.6125-.6513-4.4503 15.9296h-3.5318l-2.386-9.2498-2.3523 9.2498h-3.5655zm20.8096 0l-4.3898-15.9551 3.5654-.7754 2.6004 10.7513 2.3859-12.0299 3.5319-1.0538 2.3189 12.2401 2.6473-13.9178 3.619-1.3719-4.4568 22.1125h-3.5253l-2.3791-11.9047-2.3523 11.9047h-3.5655zM54.9195 53.7678l-4.3897-22.162 3.5654-1.4812 2.6004 15.1064 2.3925-17.3746 3.5387-1.7592 2.3122 17.7271 2.654-20.3879 3.619-2.0915-4.4568 32.4229H63.23l-2.3927-17.2083-2.3456 17.2083h-3.5722zm17.2309 0v-8.718l3.6927-.6041v9.3221h-3.6927z"/>
  <path fill="#494d4e" d="M41.569 12.6513c8.5799 0 16.308 3.6418 21.727 9.4622h-2.891v.0164c-4.9347-4.6027-11.5558-7.4204-18.836-7.4204-13.3069 0-24.415 9.4095-27.0366 21.9376h-2.0991c2.6529-13.6724 14.6878-23.9958 29.1357-23.9958zm26.1363 43.7606c-5.015 9.2905-14.8381 15.6034-26.1363 15.6034-11.1224 0-20.8142-6.1187-25.8976-15.1726h2.3888c4.8677 7.87 13.5752 13.1144 23.5088 13.1144 10.1137 0 18.9563-5.4363 23.7695-13.5452h2.3668z"/>
</svg>
