<?xml version="1.0" encoding="UTF-8"?>
<svg xmlns="http://www.w3.org/2000/svg" fill-rule="evenodd" clip-rule="evenodd" image-rendering="optimizeQuality" shape-rendering="geometricPrecision" text-rendering="geometricPrecision" viewBox="0 0 84.6666 84.6666">
  <defs>
    <style>
      .fil1{fill:red}
    </style>
  </defs>
  <g id="Layer_x0020_1">
    <path fill="none" d="M.36473 14.5168h83.9372v55.6329H.36473z"/>
    <g id="_364104144">
      <path id="_366502880" d="M64.1505 26.3661c8.7621 0 15.9058 6.6957 16.2598 15.0841v1.3049c-.008.1876-.0193.3744-.0339.5603l-6.0429-1.3602c-.862-6.0066-6.3107-10.6365-12.9049-10.6365-7.1932 0-13.0246 5.5091-13.0246 12.3051 0 .6889.0609 1.3642.1761 2.0223h-.29c-.271-1.1389-.4143-2.325-.4143-3.5435 0-8.6911 7.2864-15.7365 16.2747-15.7365z" class="fil1"/>
      <path id="_366502712" d="M80.3736 43.8742l-.0011.7777-13.8781-1.0536.5828-2.5148z" class="fil1"/>
      <path id="_366502544" d="M63.9983 38.5904c1.8801 0 3.4042 1.5489 3.4042 3.4595 0 1.9105-1.5241 3.4594-3.4042 3.4594-1.8801 0-3.4042-1.5489-3.4042-3.4594 0-1.9106 1.5241-3.4595 3.4042-3.4595zm0 .6963c1.5017 0 2.7191 1.2371 2.7191 2.7632 0 1.526-1.2174 2.7631-2.7191 2.7631-1.5018 0-2.7192-1.2371-2.7192-2.7631 0-1.5261 1.2174-2.7632 2.7192-2.7632z" class="fil1"/>
      <path id="_241698592" d="M80.8683 29.2668s-7.979-12.0123-22.8287-7.808c0 0-11.4513 2.5527-14.5542 15.8414 0 0-3.4725 13.4389 8.4959 21.6974 0 0 14.9237 10.7362 28.148-3.8289 0 0-4.7282 7.3576-10.6386 9.1594 0 0-3.4908 1.145-7.3694 1.1825 0 0-6.2059-.3755-8.6069 3.5661 0 0-2.1795-1.952.0738-4.6923 0 0 .0647-.2252-.397-.0187 0 0-5.301 2.44-10.7311.4504 0 0-8.9393-4.3545-12.5225-4.5422 0 0-4.4697-.7508-8.3114 1.1262 0 0 2.1794-6.9071 10.4908-5.4807 0 0 .5264.1408.2493-.3472 0 0-1.6069-3.1534-7.3695-3.3786 0 0-5.0606-.413-8.496-.3003 0 0-9.2719.0375-12.9289-3.7539 0 0-2.475-2.5527-2.5488-5.1804 0 0 4.9129 4.7675 10.2323 3.6413 0 0 12.116-1.3514 9.4933-8.784 0 0-2.3272-4.7299-9.198-5.2179 0 0 1.6623-1.5391 6.169-1.0887 0 0 3.2874.488 8.9761 1.6517 0 0 7.0925 1.5765 11.3405-2.4776 0 0 .1789-.2639-.1997-.1513 0 0-4.3404.3378-7.7388-.6382 0 0-2.6596-.6005-5.9103-3.003 0 0-3.1398-2.1398-5.8365-1.7269 0 0 2.0686-2.4024 6.4644-1.8393 0 0 3.8418.2627 7.7944 1.0135 0 0 5.9103.8633 12.2269-2.4026 0 0 5.1347-2.0646 8.5331-1.8769 0 0 .0462-.1502-.5356-.1971 0 0-1.5146-.1783-3.38-.8728 0 0-1.3667-.5068-4.3403.0751 0 0 3.62-3.4722 12.19-3.4722 0 0 11.8575-.3379 19.1715 7.2824 0 0 4.0634 4.7674 4.3929 6.3923z" class="fil1"/>
      <path id="_238920328" fill="#4a4d4e" d="M64.1024 21.7677c10.7922 0 19.541 8.8908 19.541 19.858 0 10.9671-8.7488 19.8578-19.541 19.8578-10.7921 0-19.541-8.8907-19.541-19.8578 0-10.9672 8.7489-19.858 19.541-19.858zm0 2.3461c9.73 0 17.6179 7.853 17.6179 17.54s-7.8879 17.54-17.6179 17.54c-9.73 0-17.6178-7.853-17.6178-17.54s7.8878-17.54 17.6178-17.54z"/>
    </g>
  </g>
</svg>
