<?xml version="1.0" encoding="UTF-8"?>
<svg xmlns="http://www.w3.org/2000/svg" fill-rule="evenodd" clip-rule="evenodd" image-rendering="optimizeQuality" shape-rendering="geometricPrecision" text-rendering="geometricPrecision" viewBox="0 0 84.6666 59.2666">
  <path fill="#fe0000" fill-rule="nonzero" d="M13.5661 40.9684L9.2146 27.2177l3.5344-.0664 2.5777 9.0189 2.3652-9.308 3.5145-.3497 2.292 9.3787 2.631-10.0681 3.581-.6458-4.4115 15.7911h-3.5011l-2.3652-9.1694-2.332 9.1694h-3.5345zm20.6287 0l-4.3517-15.8163 3.5345-.7688 2.5779 10.6579 2.365-11.9253 3.5012-1.0446 2.2987 12.1337 2.6243-13.7968 3.5874-1.36-4.418 21.9202h-3.4944l-2.3586-11.8012-2.3318 11.8012h-3.5345zm20.6153 0l-4.3515-21.9692 3.5344-1.4683 2.5776 14.9749 2.3718-17.2236 3.508-1.7437 2.2919 17.5727 2.631-20.2102 3.5875-2.0737-4.418 32.1411h-3.4946l-2.3718-17.0587-2.3251 17.0587h-3.5412zm17.0808 0v-8.6423l3.6608-.5987v9.241h-3.6608z"/>
  <path fill="#494d4e" d="M41.5756.2094c8.5053 0 16.1663 3.6102 21.5381 9.38h-2.8659v.0163C55.3561 5.043 48.7925 2.2498 41.5756 2.2498c-13.1911 0-24.2026 9.3276-26.8014 21.7468h-2.0809C15.3232 10.4431 27.2534.2094 41.5756.2094zm25.909 43.3801c-4.9714 9.2097-14.709 15.4677-25.909 15.4677-11.0256 0-20.6331-6.0655-25.6724-15.0406h2.3681c4.8254 7.8016 13.4571 13.0003 23.3043 13.0003 10.0258 0 18.7914-5.389 23.5628-13.4274h2.3462z"/>
</svg>
