<?xml version="1.0" encoding="UTF-8"?>
<!DOCTYPE svg PUBLIC "-//W3C//DTD SVG 1.1//EN" "http://www.w3.org/Graphics/SVG/1.1/DTD/svg11.dtd">
<!-- Creator: CorelDRAW X5 -->
<svg xmlns="http://www.w3.org/2000/svg" xml:space="preserve" width="297mm" height="210mm" style="shape-rendering:geometricPrecision; text-rendering:geometricPrecision; image-rendering:optimizeQuality; fill-rule:evenodd; clip-rule:evenodd"
viewBox="0 0 297 210"
 xmlns:xlink="http://www.w3.org/1999/xlink">
 <defs>
  <style type="text/css">
   <![CDATA[
    .str1 {stroke:white;stroke-width:0.0762}
    .str0 {stroke:white;stroke-width:2.1167;stroke-linecap:round;stroke-linejoin:round}
    .fil0 {fill:none}
    .fil5 {fill:#612B36}
    .fil3 {fill:#C44A6B}
    .fil1 {fill:white}
    .fil6 {fill:#612B36;fill-rule:nonzero}
    .fil4 {fill:#969999;fill-rule:nonzero}
    .fil2 {fill:#D1D4D6;fill-rule:nonzero}
    .fil7 {fill:white;fill-rule:nonzero}
   ]]>
  </style>
    <clipPath id="id0">
     <rect x="65.3318" y="11.3268" width="145.872" height="190.128"/>
    </clipPath>
 </defs>
 <g id="Layer_x0020_1">
  <metadata id="CorelCorpID_0Corel-Layer"/>
  <rect class="fil0" x="48.5" y="5" width="200" height="200"/>
  <g id="_256605744">
   <g style="clip-path:url(#id0)">
    <image id="_256607400" transform="matrix(0.577705 -0.06424 0.06424 0.577705 -7.62227 150.335)" x="148.5" y="-199.8" width="218.609" height="304.8" xlink:href="Brochure_1_Images\Brochure_1_ImgID1.png"/>
   </g>
   <g>
    <polygon id="_256690872" class="fil1" points="105.442,8.5452 231.668,22.819 211.616,200.142 85.3903,185.868 "/>
    <path id="_256603872" class="fil2" d="M123.381 190.165c29.9233,-19.9478 49.8809,-38.383 62.6215,-54.7205 -14.7553,-26.0358 -19.2381,-44.6279 -18.187,-56.79 1.3227,-15.306 11.4051,-20.4349 20.8147,-17.4056 9.405,3.0279 18.1377,14.2102 16.7705,31.529 -0.9198,11.65 -6.4139,26.0791 -19.347,42.6702 6.9445,12.25 16.1639,26.1483 28.1509,41.8006l-0.007 0.0619c-11.9963,-15.6615 -21.2226,-29.5685 -28.1723,-41.8263 -12.7382,16.3306 -32.6833,34.7548 -62.5776,54.6882l-0.0667 -0.0075zm62.65 -54.7567c12.9193,-16.5774 18.408,-30.9938 19.327,-42.6339 1.3653,-17.2949 -7.3522,-28.461 -16.7409,-31.4835 -9.3841,-3.0212 -19.4392,2.0969 -20.759,17.3674 -1.0502,12.1529 3.4293,30.7317 18.1729,56.75z"/>
    <path id="_256696176" class="fil2" d="M121.262 189.925c32.1448,-21.3744 52.6605,-40.7506 65.0702,-57.4975 -13.3848,-22.2975 -17.7968,-38.4896 -17.2616,-49.2988 0.7019,-14.1735 9.8964,-19.106 18.513,-16.436 8.6101,2.6681 16.643,12.9333 15.0349,29.1581 -0.9951,10.0391 -5.6868,22.363 -16.2149,36.5799 6.9015,11.4919 16.1858,24.6053 28.4087,39.4429l-0.0094 0.0836c-12.2352,-14.8488 -21.529,-27.973 -28.4379,-39.4746 -12.408,16.7385 -32.9075,36.0996 -65.0098,57.4529l-0.0932 -0.0105zm65.1087 -57.5492c10.5104,-14.1983 15.1947,-26.5051 16.1884,-36.5311 1.6048,-16.1905 -6.406,-26.4326 -14.9929,-29.0934 -8.5804,-2.6589 -17.7366,2.2577 -18.4359,16.3803 -0.5346,10.7965 3.8725,26.9703 17.2404,49.2442z"/>
    <path id="_256599912" class="fil2" d="M119.144 189.685c34.5232,-22.8944 55.4879,-43.1675 67.4024,-60.1721 -11.956,-18.6771 -16.24,-32.4991 -16.1857,-41.945 0.0748,-13.0199 8.3785,-17.741 16.202,-15.4223 7.8152,2.3162 15.1513,11.6649 13.3093,26.7887 -1.0303,8.4583 -4.936,18.726 -13.2339,30.5801 6.8599,10.7093 16.2429,23.0155 28.7797,37.0108l-0.0117 0.1032c-12.5516,-14.0079 -21.9462,-26.3261 -28.8154,-37.0468 -11.9151,16.9961 -32.8608,37.2506 -67.3269,60.1169l-0.1198 -0.0135zm67.4498 -60.2392c8.2772,-11.831 12.174,-22.0783 13.2023,-30.5206 1.8365,-15.0786 -5.4702,-24.3973 -13.2548,-26.7044 -7.7763,-2.3046 -16.0296,2.3945 -16.1041,15.3474 -0.0542,9.4302 4.2223,23.2293 16.1566,41.8776z"/>
    <path id="_256610808" class="fil2" d="M117.025 189.446c37.0908,-24.5281 58.3677,-45.6311 69.6059,-62.7035 -10.4659,-15.2062 -14.5606,-26.7084 -14.9404,-34.783 -0.5568,-11.8377 6.8519,-16.3278 13.8817,-14.35 7.0191,1.9747 13.6608,10.408 11.5935,24.4211 -1.0197,6.9121 -4.1614,15.1844 -10.4231,24.7097 6.8154,9.8935 16.3288,21.356 29.2764,34.4667l-0.0137 0.1211c-12.964,-13.1226 -22.4906,-24.5974 -29.3175,-34.5033 -11.2424,17.0647 -32.4993,38.1463 -69.5163,62.6377l-0.1465 -0.0165zm69.6607 -62.7878c6.2389,-9.4983 9.3707,-17.7474 10.3878,-24.6409 2.0588,-13.9559 -4.5456,-22.3517 -11.5264,-24.3158 -6.9704,-1.9609 -14.316,2.5 -13.7633,14.2531 0.3789,8.0558 4.4636,19.531 14.9019,34.7036z"/>
    <path id="_256690632" class="fil2" d="M114.906 189.206c39.8887,-26.3002 61.2974,-48.132 71.659,-65.034 -8.9204,-11.932 -12.7483,-21.187 -13.499,-27.8889 -1.1892,-10.6172 5.3199,-14.8497 11.5539,-13.1989 6.2209,1.6475 12.1692,9.1662 9.8879,22.0556 -0.957,5.4069 -3.3661,11.762 -7.8106,19.0258 6.7601,9.0312 16.4406,19.5977 29.9189,31.7559l-0.0154 0.1364c-13.4954,-12.1686 -23.1919,-22.7476 -29.9658,-31.7918 -10.3709,16.8973 -31.7591,38.705 -71.5561,64.9595l-0.1728 -0.0196zm71.7212 -65.1346c4.4212,-7.2344 6.8185,-13.5642 7.7719,-18.9509 2.2687,-12.8183 -3.6328,-20.2919 -9.8073,-21.927 -6.1614,-1.6317 -12.5937,2.5629 -11.4161,13.0762 0.7484,6.6809 4.5638,15.9064 13.4515,27.8017z"/>
    <path id="_257177728" class="fil2" d="M112.788 188.967c42.9648,-28.2399 64.2781,-50.6513 73.545,-67.0844 -7.3325,-8.9121 -10.8026,-16.0278 -11.8396,-21.3692 -1.8142,-9.3446 3.7904,-13.2828 9.225,-11.9398 5.4188,1.3392 10.6712,7.9445 8.1913,19.691 -0.8345,3.9524 -2.5474,8.4894 -5.4239,13.6044 6.6815,8.1066 16.564,17.7024 30.7246,28.8049l-0.0171 0.1507c-14.1773,-11.1107 -24.0767,-20.7179 -30.7745,-28.8382 -9.2829,16.4328 -30.5779,38.8193 -73.4313,67.0032l-0.1995 -0.0226zm73.6123 -67.2025c2.8544,-5.0844 4.5551,-9.5951 5.385,-13.5262 2.4619,-11.6605 -2.7337,-18.213 -8.0972,-19.5385 -5.3477,-1.3217 -10.86,2.5682 -9.0701,11.7877 1.0325,5.3185 4.4871,12.4032 11.7823,21.277z"/>
    <path id="_257177752" class="fil2" d="M110.669 188.727c46.3927,-30.3924 67.3042,-53.1637 75.2408,-68.7566 -5.7222,-6.213 -8.7328,-11.3435 -9.9434,-15.3571 -2.4144,-8.0043 2.2825,-11.5983 6.9125,-10.5363 4.6105,1.0577 9.1601,6.752 6.5033,17.3283 -0.6427,2.5582 -1.7107,5.4049 -3.2998,8.5403 6.559,7.1039 16.6728,15.6268 31.7163,25.5226l-0.0185 0.1636c-15.0559,-9.8993 -25.1878,-18.4319 -31.7667,-25.5491 -7.9609,15.5992 -28.8609,38.3467 -75.1182,68.6699l-0.2263 -0.0256zm75.3097 -68.8937c1.5698,-3.1057 2.6268,-5.9269 3.264,-8.4636 2.6309,-10.4729 -1.8501,-16.1061 -6.3959,-17.1489 -4.5263,-1.0383 -9.112,2.4941 -6.7428,10.3489 1.2034,3.9898 4.1939,9.0885 9.8747,15.2636z"/>
    <path id="_257177800" class="fil2" d="M108.55 188.487c50.271,-32.818 70.3598,-55.6212 76.7211,-69.9157 -4.1309,-3.9143 -6.5646,-7.2732 -7.8036,-10.0298 -2.9571,-6.5797 0.8334,-9.7628 4.6524,-8.9444 3.7941,0.8129 7.6259,5.6015 4.8253,14.9665 -0.3711,1.2411 -0.8616,2.5647 -1.4819,3.9688 6.3591,6.0041 16.7246,13.3188 32.9183,21.7795l-0.0197 0.1745c-16.1987,-8.4596 -26.5829,-15.7811 -32.9667,-21.798 -6.3942,14.3094 -26.4809,37.0922 -76.5916,69.8273l-0.2536 -0.0287zm76.7895 -70.0724c0.6062,-1.3781 1.0872,-2.6782 1.452,-3.8982 2.764,-9.2426 -0.9853,-13.9614 -4.705,-14.7585 -3.6945,-0.7917 -7.3503,2.3126 -4.473,8.7146 1.2285,2.7334 3.6394,6.0627 7.726,9.9421z"/>
    <path id="_257178016" class="fil2" d="M106.431 188.248c54.7612,-35.6168 73.417,-57.9531 77.9615,-70.3904 -2.614,-2.0929 -4.3609,-3.9696 -5.4487,-5.5966 -3.3862,-5.0649 -0.4861,-7.7517 2.517,-7.1265 2.9684,0.6179 6.0566,4.5115 3.1649,12.6048 -0.0069,0.0193 -0.0148,0.0394 -0.0218,0.0588 6.0232,4.7955 16.6244,10.7292 34.3541,17.4143l-0.021 0.186c-17.7209,-6.6792 -28.3436,-12.6172 -34.3983,-17.4243 -4.5841,12.4621 -23.2504,34.7855 -77.8269,70.3057l-0.2808 -0.0318zm78.0267 -70.5664l0.0013 -0.0034c2.8404,-7.9499 -0.1496,-11.7654 -3.0345,-12.3659 -2.8502,-0.5933 -5.579,1.9919 -2.334,6.8457 1.0743,1.6068 2.7955,3.4587 5.3672,5.5236z"/>
    <path id="_257177920" class="fil2" d="M104.313 188.008c54.9867,-35.6229 73.3088,-56.3015 77.9776,-67.1626 0.4362,-1.0148 0.7524,-1.9426 0.9681,-2.7879 -1.2611,-0.8139 -2.2359,-1.5802 -2.9698,-2.2875 -3.6183,-3.4867 -1.5615,-5.5805 0.629,-5.0842 1.7949,0.4068 3.7088,2.6022 2.5634,7.2812 5.4463,3.4802 16.1877,7.8321 36.047,12.2097l-0.0225 0.1982c-19.8197,-4.368 -30.5864,-8.7183 -36.0753,-12.207 -0.218,0.8397 -0.5322,1.7569 -0.9619,2.7564 -4.6744,10.8741 -22.9807,31.5511 -77.8477,67.1186l-0.3079 -0.0349zm78.9954 -70.1521c1.0774,-4.4883 -0.7277,-6.5893 -2.4332,-6.9757 -1.9945,-0.4521 -3.8086,1.5112 -0.4527,4.7451 0.7165,0.6904 1.6638,1.4374 2.8859,2.2306z"/>
    <path id="_257177992" class="fil2" d="M102.194 187.769c55.4285,-35.7591 73.3695,-54.5814 78.1737,-63.7766 0.9983,-1.9106 1.4258,-3.3969 1.5056,-4.5281 -0.1981,-0.0967 -0.3848,-0.1922 -0.5579,-0.2865 -3.5967,-1.9568 -2.2312,-3.369 -0.8231,-2.9247 0.8091,0.2553 1.6819,1.1816 1.5966,3.0765 4.4136,2.1058 14.9516,4.7045 37.9996,5.8872l-0.0244 0.2155c-22.9353,-1.1784 -33.5106,-3.7634 -37.9898,-5.8718 -0.0957,1.1548 -0.5338,2.6458 -1.5199,4.5331 -4.8095,9.2052 -22.7332,28.0223 -78.0256,63.7133l-0.3348 -0.0379zm79.6911 -68.5386c0.0503,-1.7063 -0.7262,-2.5403 -1.4561,-2.7706 -1.1318,-0.3571 -2.0048,0.9 0.9861,2.5275 0.1474,0.0801 0.3046,0.1613 0.47,0.2431z"/>
    <path id="_257178256" class="fil2" d="M100.075 187.529c57.1155,-36.6831 74.2307,-53.317 78.8463,-60.5557 1.8142,-2.8453 1.682,-4.1881 1.314,-4.7286 0.0894,0.02 0.1858,0.0412 0.2909,0.0637 0.3111,0.7046 0.2752,2.142 -1.4142,4.7914 -4.6211,7.2475 -21.7189,23.8746 -78.6732,60.4704l-0.3638 -0.0412zm120.538 -66.9459l0.027 -0.2389c-25.1671,3.3151 -35.1612,2.9064 -38.8708,2.2105 -0.4103,-0.0769 -0.7568,-0.1452 -1.0494,-0.2058 0.3097,0.194 0.6713,0.3727 1.0072,0.4357 3.7204,0.6978 13.7281,1.1097 38.886,-2.2015zm-40.3776 1.6616c-0.0622,-0.0914 -0.1312,-0.16 -0.1986,-0.2089l0.0863 -0.1249c-0.2342,-0.2035 -0.2763,-0.2995 0.0458,-0.0662 0.0989,0.0716 0.2017,0.1785 0.2888,0.3285 -0.1324,-0.0947 -0.247,-0.186 -0.3346,-0.2623l-0.0863 0.1249c-0.1911,-0.1383 -1.6819,-0.2136 0.1986,0.2089zm0.2223 -0.0715c0.0242,0.0416 0.0472,0.0868 0.0686,0.1352 0.0613,0.013 0.1265,0.0265 0.1935,0.0405 -0.0927,-0.0581 -0.1807,-0.1175 -0.2621,-0.1757z"/>
    <path id="_257178136" class="fil2" d="M97.9559 187.289c78.7345,-50.3275 81.1781,-58.1544 81.65,-59.6666 0.0628,-0.2013 0.0964,-0.3086 0.2466,-0.3946 0.1416,-0.0811 0.3754,-0.1154 0.8752,-0.1883 2.2843,-0.3338 10.3248,-1.5093 40.4511,-11.463l-0.0308 0.2727c-30.0594,9.928 -38.1013,11.1038 -40.3875,11.438 -0.4666,0.068 -0.685,0.1 -0.7888,0.1596 -0.0654,0.0374 -0.0886,0.1115 -0.1319,0.2504 -0.4758,1.5248 -2.941,9.4117 -81.4921,59.6361l-0.3918 -0.0443z"/>
    <path id="_257178208" class="fil2" d="M95.8374 187.05c58.0644,-36.9257 74.5947,-48.1081 80.2444,-51.9301 1.4449,-0.9773 2.1775,-1.473 2.7201,-1.7999 0.5598,-0.3374 0.9025,-0.4864 1.5977,-0.7885 2.3517,-1.0222 8.7637,-3.8097 41.3042,-21.5971l-0.0365 0.3229c-32.4186,17.7185 -38.817,20.4997 -41.1667,21.521 -0.6872,0.2987 -1.0262,0.4461 -1.5669,0.7719 -0.5274,0.3178 -1.2611,0.8142 -2.7079,1.7929 -5.6363,3.8128 -22.112,14.9582 -79.9692,51.7543l-0.4192 -0.0474z"/>
    <path id="_257178472" class="fil2" d="M93.7178 186.81c70.2935,-44.4582 79.7735,-46.8295 84.3001,-47.9613 1.3994,-0.35 2.3205,-0.5804 4.453,-1.9265 4.1338,-2.6095 12.8031,-9.3944 38.1597,-29.2398l1.5808 -1.2371 -0.0444 0.3928 -1.3675 1.0702c-25.3629,19.8502 -34.0343,26.6369 -38.1836,29.2561 -2.1706,1.3702 -3.1087,1.6048 -4.5339,1.9612 -4.5054,1.1267 -13.9375,3.4875 -83.9149,47.7352l-0.4493 -0.0508z"/>
    <path id="_257178352" class="fil2" d="M91.5993 186.571c64.2231,-40.3799 77.8629,-41.5325 84.5683,-42.0987 2.2535,-0.1903 3.715,-0.3139 6.0752,-1.8684 4.3977,-2.8967 11.9222,-10.735 33.3252,-33.0305 2.2227,-2.3155 4.5952,-4.787 7.1294,-7.4249l-0.0551 0.4869c-2.4346,2.5345 -4.719,4.9143 -6.8641,7.1488 -21.4206,22.3139 -28.9513,30.1587 -33.3766,33.0736 -2.4232,1.596 -3.9137,1.722 -6.2122,1.916 -6.671,0.5634 -20.2321,1.7118 -84.1127,41.8512l-0.4774 -0.054z"/>
    <path id="_257178424" class="fil2" d="M89.4799 186.331c59.5013,-37.1736 75.8803,-36.7065 84.5874,-36.4579 3.3108,0.0946 5.5006,0.157 8.5499,-1.9318 5.8217,-3.9882 14.8121,-15.7765 40.5388,-49.849l-0.0694 0.6141c-25.5053,33.7782 -34.4565,45.4995 -40.2963,49.4999 -3.1336,2.1468 -5.3628,2.0832 -8.7333,1.9868 -8.6583,-0.2472 -24.934,-0.7083 -84.0698,36.1953l-0.5073 -0.0574z"/>
    <path id="_257178640" class="fil2" d="M87.3604 186.091c55.3454,-34.3398 73.7911,-32.2207 84.3438,-31.008 12.3339,1.4172 13.7908,1.5749 51.8751,-60.7337l-0.088 0.7781c-37.842,61.8941 -39.3456,61.7237 -51.8248,60.2897 -10.4887,-1.2052 -28.8078,-3.3063 -83.7687,30.7346l-0.5374 -0.0607z"/>
    <path id="_257178736" class="fil2" d="M85.4035 185.752c51.4258,-31.6362 71.4537,-27.9196 83.6919,-25.6472 15.1029,2.8044 18.2412,3.3865 54.8605,-69.0857l-0.1119 0.9895c-36.3406,71.8635 -39.5593,71.2769 -54.8112,68.4448 -12.1716,-2.2599 -32.0803,-5.9524 -83.2234,25.4622l-0.4191 -0.0474 0.0132 -0.1162z"/>
    <path id="_257178376" class="fil2" d="M85.5877 184.123c46.2789,-27.6553 67.1005,-22.5274 80.6695,-19.1838 17.8537,4.3995 23.0545,5.6656 58.013,-76.6997l-0.1434 1.2675c-34.6541,81.5162 -39.9551,80.2285 -57.9562,75.7927 -13.5362,-3.3356 -34.3179,-8.4562 -80.6347,19.2813l0.0518 -0.458z"/>
    <path id="_257178712" class="fil2" d="M85.7633 182.57c41.5235,-23.7647 62.7625,-17.3943 77.4373,-12.9883 20.56,6.1729 28.1434,8.4308 61.2974,-83.3565l-0.1846 1.6321c-32.8285,90.6207 -40.5254,88.3117 -61.2209,82.098 -14.6405,-4.3956 -35.8411,-10.7563 -77.3829,13.0894l0.0537 -0.4747z"/>
    <path id="_257178808" class="fil2" d="M85.9265 181.127c37.1327,-19.9639 58.4598,-12.5244 74.0093,-7.0962 23.1829,8.0929 33.4326,11.6572 64.667,-88.7318l-0.2352 2.0797c-30.8854,98.7682 -41.2679,95.167 -64.5611,87.0356 -15.5133,-5.4154 -36.8031,-12.8409 -73.9352,7.2016l0.0552 -0.4889z"/>
    <polygon id="_257179048" class="fil3" points="86.7569,173.783 212.983,188.057 212.477,192.532 86.2509,178.258 "/>
    <path id="_257179000" class="fil4" d="M108.201 90.621l0.4281 -3.786 1.389 0.1571c0.2826,0.0319 0.5049,0.0963 0.6668,0.1914 0.1628,0.0961 0.283,0.2293 0.3615,0.3998 0.0786,0.1695 0.1088,0.3418 0.0891,0.5162 -0.0182,0.1613 -0.0786,0.309 -0.1809,0.4421 -0.1015,0.1331 -0.2446,0.2338 -0.4278,0.3025 0.2164,0.0922 0.375,0.2262 0.4774,0.4012 0.1023,0.1758 0.1409,0.374 0.116,0.5943 -0.02,0.1772 -0.0757,0.3379 -0.1662,0.482 -0.0905,0.1443 -0.1942,0.2512 -0.3112,0.322 -0.1172,0.0707 -0.2594,0.1171 -0.4262,0.141 -0.1668,0.0241 -0.3682,0.0227 -0.6042,-0.0039l-1.4114 -0.1597zm0.7385 -2.1395l0.8004 0.0905c0.2163,0.0245 0.374,0.0272 0.472,0.0087 0.1284,-0.0239 0.2294,-0.0758 0.3022,-0.1568 0.0729,-0.0811 0.1173,-0.1876 0.1322,-0.3199 0.0142,-0.1251 -0.0026,-0.2395 -0.0504,-0.3413 -0.0486,-0.1029 -0.1257,-0.1776 -0.2303,-0.2251 -0.1054,-0.0476 -0.2912,-0.0866 -0.5574,-0.1167l-0.7393 -0.0836 -0.1294 1.1442zm-0.1976 1.748l0.921 0.1041c0.1585,0.0179 0.2704,0.0244 0.3354,0.0202 0.1153,-0.0084 0.2131,-0.0322 0.2944,-0.0721 0.0812,-0.039 0.1512,-0.1025 0.2107,-0.1886 0.0587,-0.0871 0.0957,-0.1901 0.1094,-0.3108 0.0159,-0.1411 -0.0056,-0.2676 -0.0644,-0.3806 -0.0589,-0.1119 -0.1488,-0.1962 -0.2698,-0.2528 -0.1203,-0.0555 -0.2988,-0.0972 -0.5341,-0.1238l-0.8555 -0.0967 -0.1471 1.3011zm4.8045 0.1014l0.4629 0.1121c-0.1059,0.2729 -0.2675,0.4751 -0.4849,0.6077 -0.2182,0.1315 -0.4829,0.1801 -0.794,0.1449 -0.3919,-0.0443 -0.6891,-0.2028 -0.8904,-0.4755 -0.2021,-0.2729 -0.2775,-0.6323 -0.2271,-1.0784 0.0523,-0.4618 0.2091,-0.8065 0.4696,-1.0351 0.2615,-0.2285 0.5766,-0.3222 0.9471,-0.2803 0.3584,0.0405 0.6372,0.1988 0.8356,0.4738 0.1993,0.2753 0.2733,0.6398 0.2221,1.092 -0.0032,0.0283 -0.0087,0.0696 -0.0166,0.1241l-1.999 -0.2261c-0.0177,0.3033 0.0398,0.5437 0.1717,0.7202 0.1317,0.1774 0.3088,0.2786 0.5328,0.3039 0.1663,0.0189 0.3135,-0.01 0.4417,-0.0865 0.1281,-0.0757 0.2373,-0.208 0.3285,-0.3968zm-1.4064 -0.9205l1.4966 0.1692c0.0062,-0.2323 -0.0319,-0.4125 -0.1129,-0.5377 -0.1245,-0.1953 -0.3021,-0.3065 -0.5322,-0.3325 -0.2085,-0.0236 -0.3924,0.028 -0.5507,0.1546 -0.1583,0.1268 -0.2583,0.3092 -0.3008,0.5464zm3.3861 1.6175l0.019 0.4182c-0.1306,0.013 -0.2468,0.0141 -0.3476,0.0027 -0.1654,-0.0188 -0.29,-0.0596 -0.3752,-0.1236 -0.0845,-0.0632 -0.1402,-0.1409 -0.1674,-0.2323 -0.0274,-0.0907 -0.0255,-0.2761 0.006,-0.5547l0.1784 -1.5779 -0.3335 -0.0377 0.0409 -0.3614 0.3335 0.0377 0.0769 -0.6797 0.4837 -0.2274 -0.1083 0.9582 0.4567 0.0517 -0.0409 0.3614 -0.4567 -0.0517 -0.1813 1.6035c-0.0151,0.1331 -0.0168,0.2187 -0.0056,0.2582 0.0121,0.0398 0.0345,0.0727 0.0681,0.0997 0.0337,0.0262 0.0842,0.0434 0.1513,0.051 0.0509,0.0058 0.1179,0.0071 0.202,0.0041zm1.4363 0.1624l0.019 0.4182c-0.1305,0.013 -0.2468,0.0141 -0.3476,0.0027 -0.1653,-0.0187 -0.2899,-0.0596 -0.3752,-0.1236 -0.0845,-0.0632 -0.1402,-0.1409 -0.1674,-0.2323 -0.0273,-0.0906 -0.0255,-0.2761 0.006,-0.5547l0.1785 -1.5779 -0.3335 -0.0377 0.0409 -0.3614 0.3334 0.0377 0.0769 -0.6797 0.4838 -0.2273 -0.1084 0.9582 0.4567 0.0516 -0.0409 0.3614 -0.4566 -0.0517 -0.1813 1.6035c-0.0151,0.1331 -0.0169,0.2187 -0.0057,0.2582 0.0121,0.0398 0.0346,0.0728 0.0681,0.0997 0.0337,0.0262 0.0842,0.0435 0.1514,0.0511 0.0508,0.0057 0.1178,0.007 0.2019,0.004zm2.3319 -0.2094l0.4629 0.1121c-0.106,0.2729 -0.2675,0.4751 -0.485,0.6077 -0.2182,0.1315 -0.4828,0.1801 -0.7939,0.1449 -0.392,-0.0443 -0.6891,-0.2028 -0.8904,-0.4756 -0.2021,-0.2728 -0.2776,-0.6322 -0.2271,-1.0783 0.0522,-0.4619 0.209,-0.8065 0.4696,-1.0351 0.2615,-0.2285 0.5766,-0.3223 0.9471,-0.2804 0.3584,0.0406 0.6372,0.1988 0.8356,0.4739 0.1992,0.2753 0.2732,0.6398 0.2221,1.092 -0.0032,0.0283 -0.0088,0.0696 -0.0167,0.124l-1.9989 -0.226c-0.0178,0.3033 0.0397,0.5436 0.1716,0.7202 0.1318,0.1774 0.3088,0.2786 0.5328,0.3039 0.1664,0.0188 0.3136,-0.01 0.4418,-0.0865 0.1281,-0.0757 0.2373,-0.208 0.3285,-0.3968zm-1.4065 -0.9205l1.4967 0.1692c0.0062,-0.2323 -0.0319,-0.4125 -0.1129,-0.5377 -0.1245,-0.1953 -0.3021,-0.3065 -0.5322,-0.3325 -0.2086,-0.0236 -0.3924,0.028 -0.5507,0.1546 -0.1583,0.1267 -0.2583,0.3091 -0.3009,0.5464zm2.3422 1.9209l0.3101 -2.7424 0.4085 0.0462 -0.047 0.4152c0.1262,-0.1822 0.2372,-0.3 0.333,-0.3515 0.0948,-0.0518 0.1958,-0.0726 0.3017,-0.0606 0.1535,0.0174 0.3028,0.0851 0.4501,0.2027l-0.2057 0.4141c-0.1026,-0.0803 -0.2099,-0.1264 -0.3211,-0.139 -0.0999,-0.0113 -0.1922,0.0096 -0.2783,0.0615 -0.0863,0.0526 -0.1518,0.131 -0.1977,0.2356 -0.0695,0.1591 -0.1149,0.337 -0.1371,0.5336l-0.1624 1.436 -0.4541 -0.0514zm4.0307 0.4558l0.3556 -3.1452 -1.0976 -0.1242 0.0724 -0.6408 2.9407 0.3326 -0.0725 0.6408 -1.095 -0.1239 -0.3557 3.1453 -0.7479 -0.0846zm3.5873 -0.4782l0.6937 0.2007c-0.1213,0.255 -0.2871,0.4407 -0.4993,0.5569 -0.2113,0.1172 -0.4646,0.1581 -0.7593,0.1248 -0.4662,-0.0527 -0.7932,-0.2468 -0.982,-0.5842 -0.1484,-0.2694 -0.2015,-0.595 -0.1585,-0.9749 0.0514,-0.4549 0.208,-0.7978 0.4698,-1.0289 0.2608,-0.2312 0.5692,-0.3267 0.9242,-0.2866 0.399,0.0451 0.6981,0.2156 0.8986,0.5114 0.1995,0.2958 0.2631,0.7208 0.1908,1.276l-1.7775 -0.201c-0.0192,0.2155 0.0187,0.3895 0.1147,0.5209 0.0958,0.1322 0.2261,0.2077 0.3889,0.2261 0.1112,0.0126 0.2077,-0.0078 0.2905,-0.0609 0.0829,-0.0541 0.152,-0.1471 0.2054,-0.2803zm0.1234 -0.7289c0.0187,-0.2112 -0.0158,-0.3767 -0.1042,-0.4975 -0.0886,-0.1206 -0.2055,-0.1892 -0.3503,-0.2056 -0.1551,-0.0175 -0.2892,0.0262 -0.4031,0.1303 -0.1137,0.1032 -0.1815,0.2545 -0.2022,0.453l1.0598 0.1198zm3.6573 0.0842l-0.7142 0.0496c-0.0071,-0.1455 -0.0484,-0.259 -0.1238,-0.3408 -0.0753,-0.0818 -0.179,-0.1301 -0.3117,-0.1451 -0.1774,-0.02 -0.325,0.0267 -0.4442,0.1391 -0.1192,0.1134 -0.1954,0.3162 -0.2285,0.6089 -0.0368,0.3253 -0.0094,0.5615 0.0823,0.7074 0.0916,0.1461 0.2271,0.2293 0.4072,0.2496 0.1353,0.0153 0.2491,-0.011 0.3442,-0.0798 0.0949,-0.0687 0.1705,-0.1967 0.2273,-0.3831l0.6835 0.1996c-0.1094,0.3188 -0.277,0.5508 -0.5008,0.6942 -0.2241,0.1443 -0.5083,0.196 -0.8538,0.1569 -0.392,-0.0443 -0.6906,-0.2056 -0.8946,-0.485 -0.2049,-0.2793 -0.2815,-0.6433 -0.2308,-1.0911 0.0511,-0.4523 0.2081,-0.7916 0.4701,-1.0174 0.263,-0.2265 0.5934,-0.3167 0.9924,-0.2716 0.3265,0.0369 0.5777,0.1386 0.7544,0.3041 0.176,0.1653 0.2898,0.4005 0.341,0.7045zm1.4538 -1.714l-0.1574 1.3919c0.2601,-0.2473 0.5488,-0.354 0.8668,-0.318 0.1637,0.0185 0.3066,0.0668 0.4314,0.1434 0.124,0.0765 0.2141,0.1671 0.2696,0.2706 0.0554,0.1046 0.089,0.2163 0.0998,0.3364 0.0119,0.1192 0.0033,0.3029 -0.0245,0.5488l-0.1819 1.6088 -0.7091 -0.0802 0.1639 -1.4493c0.0324,-0.2872 0.0393,-0.4712 0.0213,-0.5519 -0.0187,-0.0807 -0.0592,-0.1468 -0.1221,-0.2003 -0.0629,-0.0537 -0.1456,-0.0862 -0.2481,-0.0978 -0.1181,-0.0134 -0.2265,0.0038 -0.3254,0.0526 -0.0996,0.0476 -0.1776,0.128 -0.2332,0.2413 -0.0564,0.1133 -0.0978,0.2854 -0.1238,0.5154l-0.1554 1.3744 -0.7091 -0.0802 0.4281 -3.7861 0.7091 0.0802zm4.4616 4.339l-0.7091 -0.0802 0.1583 -1.3998c0.0335,-0.2962 0.0396,-0.4892 0.0193,-0.5799 -0.0204,-0.0899 -0.0627,-0.1633 -0.1253,-0.2195 -0.0627,-0.0553 -0.1417,-0.0893 -0.2373,-0.1001 -0.1233,-0.014 -0.2375,0.008 -0.3426,0.0657 -0.1053,0.0587 -0.1827,0.1418 -0.2318,0.2514 -0.049,0.1097 -0.0908,0.3174 -0.1255,0.6242l-0.1405 1.2421 -0.7091 -0.0802 0.3101 -2.7424 0.6583 0.0745 -0.0456 0.4028c0.2695,-0.2838 0.5817,-0.4056 0.9367,-0.3655 0.1559,0.0177 0.2965,0.063 0.4193,0.1349 0.1226,0.0729 0.2126,0.1572 0.2688,0.2545 0.0562,0.0974 0.0912,0.204 0.1042,0.3207 0.0139,0.1168 0.0085,0.2804 -0.0154,0.492l-0.1928 1.7048zm0.7143 -1.3477c0.0272,-0.2406 0.1122,-0.4676 0.2531,-0.6801 0.1418,-0.2117 0.326,-0.3659 0.5521,-0.4599 0.2263,-0.095 0.4708,-0.128 0.7337,-0.0983 0.4049,0.0458 0.7223,0.2183 0.9511,0.5173 0.2289,0.2991 0.3196,0.6539 0.273,1.0656 -0.0469,0.4144 -0.2166,0.7433 -0.5086,0.987 -0.2929,0.2436 -0.6373,0.3422 -1.0345,0.2972 -0.2465,-0.0278 -0.4735,-0.1106 -0.6838,-0.2496 -0.2104,-0.1389 -0.3613,-0.3247 -0.4528,-0.5573 -0.0906,-0.2325 -0.119,-0.5063 -0.0833,-0.8219zm0.7228 0.1211c-0.0308,0.2723 0.0086,0.4875 0.1189,0.6464 0.1094,0.1588 0.2572,0.2486 0.4425,0.2696 0.1852,0.0209 0.3485,-0.0337 0.4898,-0.1642 0.1421,-0.1304 0.2287,-0.333 0.2599,-0.6089 0.0303,-0.268 -0.0091,-0.4823 -0.1186,-0.6411 -0.1086,-0.1586 -0.2555,-0.2485 -0.4407,-0.2694 -0.1853,-0.021 -0.3494,0.0337 -0.4915,0.164 -0.143,0.1302 -0.2296,0.332 -0.2603,0.6036zm2.4401 1.6651l0.4281 -3.7861 0.7091 0.0802 -0.4282 3.786 -0.709 -0.0801zm1.4312 -1.2666c0.0272,-0.2407 0.1122,-0.4677 0.2532,-0.6802 0.1418,-0.2117 0.3259,-0.3659 0.5521,-0.4599 0.2262,-0.095 0.4707,-0.128 0.7336,-0.0983 0.405,0.0458 0.7223,0.2183 0.9511,0.5173 0.2289,0.2991 0.3196,0.654 0.2731,1.0656 -0.0469,0.4144 -0.2167,0.7433 -0.5087,0.987 -0.2928,0.2437 -0.6373,0.3422 -1.0345,0.2973 -0.2464,-0.0279 -0.4735,-0.1107 -0.6838,-0.2497 -0.2103,-0.1389 -0.3612,-0.3247 -0.4528,-0.5573 -0.0906,-0.2325 -0.119,-0.5063 -0.0833,-0.8218zm0.7228 0.121c-0.0308,0.2723 0.0086,0.4875 0.1189,0.6464 0.1094,0.1588 0.2573,0.2486 0.4425,0.2696 0.1852,0.0209 0.3485,-0.0337 0.4898,-0.1642 0.1421,-0.1304 0.2287,-0.333 0.2599,-0.6089 0.0303,-0.268 -0.0091,-0.4823 -0.1186,-0.6411 -0.1085,-0.1586 -0.2555,-0.2485 -0.4407,-0.2694 -0.1853,-0.021 -0.3494,0.0337 -0.4915,0.164 -0.143,0.1302 -0.2296,0.332 -0.2603,0.6036zm2.3542 1.8384l0.7985 0.192c0.0029,0.0985 0.0264,0.1681 0.0706,0.2097 0.0612,0.0596 0.1652,0.0973 0.3091,0.1136 0.1853,0.0209 0.3271,0.0083 0.4267,-0.0384 0.0664,-0.0309 0.1206,-0.0863 0.1621,-0.1674 0.0282,-0.0575 0.052,-0.1672 0.0704,-0.3294l0.0452 -0.4002c-0.2454,0.2721 -0.5301,0.39 -0.8532,0.3535 -0.3602,-0.0408 -0.6278,-0.2291 -0.8028,-0.5641 -0.1366,-0.2653 -0.1848,-0.5807 -0.1433,-0.9473 0.052,-0.4602 0.2002,-0.7987 0.444,-1.0176 0.2437,-0.2179 0.5263,-0.3091 0.8477,-0.2728 0.3308,0.0374 0.588,0.2173 0.7697,0.5397l0.0435 -0.3843 0.6634 0.075 -0.2783 2.461c-0.0366,0.3236 -0.0898,0.5623 -0.1605,0.7167 -0.0698,0.1546 -0.1572,0.2714 -0.2615,0.3526 -0.105,0.0801 -0.2389,0.1372 -0.4016,0.1715 -0.1635,0.0333 -0.3655,0.0372 -0.6059,0.01 -0.4549,-0.0514 -0.7681,-0.168 -0.9397,-0.3482 -0.1724,-0.1811 -0.2443,-0.3937 -0.2167,-0.6379 0.0028,-0.0246 0.007,-0.0536 0.0126,-0.0877zm0.8152 -1.5372c-0.0329,0.2909 -0.0019,0.5104 0.0931,0.6578 0.0951,0.1473 0.2227,0.2305 0.3847,0.2488 0.1732,0.0196 0.3275,-0.0334 0.4629,-0.1583 0.1346,-0.125 0.2181,-0.3236 0.2489,-0.5959 0.0321,-0.2839 -0.0018,-0.501 -0.1008,-0.6516 -0.0982,-0.1512 -0.2351,-0.2364 -0.41,-0.2561 -0.1706,-0.0193 -0.3179,0.0328 -0.4434,0.1552 -0.1256,0.1232 -0.204,0.3225 -0.2354,0.6001zm2.4026 -1.0594l0.7547 0.0853 0.4208 2.0197 0.8466 -1.8763 0.7341 0.083 -1.2444 2.5322 -0.2238 0.4586c-0.0801,0.1525 -0.1534,0.2683 -0.219,0.3466 -0.0664,0.0782 -0.1387,0.1388 -0.2179,0.1833 -0.0791,0.0438 -0.1734,0.0751 -0.2836,0.092 -0.1101,0.0171 -0.2324,0.0184 -0.3677,0.0032 -0.1361,-0.0154 -0.2679,-0.0456 -0.3965,-0.0896l0.0014 -0.5756c0.1085,0.0355 0.2073,0.0574 0.2969,0.0675 0.1646,0.0186 0.2925,-0.017 0.3829,-0.1067 0.0896,-0.0899 0.165,-0.2089 0.2246,-0.3577l-0.7091 -2.8655z"/>
    <path id="_257178928" class="fil4" d="M122.148 98.3176l0.4282 -3.7861 0.7375 0.0834 0.5723 2.7797c0.0528,0.2585 0.0911,0.4522 0.1132,0.5805 0.0578,-0.1327 0.1462,-0.328 0.266,-0.585l1.1836 -2.5337 0.6591 0.0745 -0.4281 3.7861 -0.4722 -0.0534 0.3584 -3.1691 -1.4337 3.0475 -0.442 -0.05 -0.7057 -3.3437 -0.3644 3.2227 -0.4722 -0.0534zm6.0515 0.3415c-0.1855,0.1271 -0.3591,0.212 -0.5211,0.2553 -0.1627,0.0423 -0.3332,0.0534 -0.5116,0.0332 -0.2946,-0.0333 -0.5121,-0.132 -0.654,-0.2972 -0.141,-0.1651 -0.199,-0.3626 -0.1732,-0.5909 0.0153,-0.1348 0.0584,-0.2541 0.1313,-0.3583 0.072,-0.1044 0.1605,-0.1846 0.2646,-0.2407 0.1049,-0.0559 0.2193,-0.0948 0.3446,-0.1154 0.0914,-0.0138 0.2286,-0.0223 0.4112,-0.024 0.3721,-0.0035 0.6486,-0.0257 0.8289,-0.0688 0.0089,-0.0633 0.0143,-0.1037 0.0162,-0.1205 0.0214,-0.1895 -0.0065,-0.3283 -0.084,-0.4148 -0.1035,-0.1188 -0.2708,-0.1904 -0.4991,-0.2162 -0.2137,-0.0242 -0.3756,-0.0041 -0.4868,0.061 -0.1104,0.0652 -0.2007,0.1924 -0.2719,0.3817l-0.4366 -0.1128c0.0624,-0.1894 0.1466,-0.3396 0.2522,-0.4482 0.1059,-0.1094 0.2507,-0.1867 0.4329,-0.2313 0.1822,-0.0446 0.3884,-0.0543 0.6192,-0.0282 0.2292,0.0259 0.4112,0.075 0.5481,0.1459 0.1368,0.0717 0.2341,0.1523 0.2927,0.2437 0.0578,0.0915 0.0924,0.2016 0.1055,0.3325 0.0057,0.081 -0.0027,0.2247 -0.026,0.4309l-0.0701 0.6197c-0.0489,0.4328 -0.0703,0.7072 -0.0634,0.8231 0.006,0.1167 0.0323,0.2313 0.0773,0.3427l-0.4747 -0.0537c-0.0357,-0.1013 -0.0539,-0.2177 -0.0522,-0.3487zm0.0795 -1.0428c-0.1733,0.0511 -0.4272,0.0812 -0.7618,0.0925 -0.1901,0.0062 -0.3263,0.0219 -0.4068,0.0477 -0.0814,0.0256 -0.1475,0.0691 -0.1964,0.1314 -0.0497,0.0613 -0.0795,0.132 -0.0887,0.2131 -0.014,0.1243 0.0209,0.2328 0.1028,0.326 0.0821,0.0922 0.2118,0.1488 0.3885,0.1688 0.1749,0.0198 0.3352,-0.0014 0.4802,-0.0644 0.145,-0.063 0.258,-0.1592 0.3371,-0.2877 0.061,-0.0994 0.1026,-0.2518 0.1258,-0.4563l0.0193 -0.1711zm1.01 1.5088l0.4281 -3.7861 0.455 0.0515 -0.2441 2.1588 1.2014 -0.9935 0.5876 0.0664 -1.1395 0.9014 0.9337 1.8528 -0.561 -0.0634 -0.7271 -1.5026 -0.3562 0.2792 -0.1229 1.0869 -0.455 -0.0514zm4.5174 -0.3838l0.4629 0.1122c-0.1059,0.2728 -0.2675,0.4751 -0.485,0.6077 -0.2182,0.1314 -0.4829,0.1802 -0.7939,0.145 -0.392,-0.0443 -0.6891,-0.203 -0.8904,-0.4758 -0.2021,-0.2727 -0.2775,-0.6322 -0.2271,-1.0782 0.0522,-0.4618 0.209,-0.8067 0.4696,-1.0352 0.2614,-0.2284 0.5766,-0.3222 0.9471,-0.2803 0.3584,0.0406 0.6372,0.1988 0.8356,0.474 0.1992,0.2751 0.2732,0.6397 0.2221,1.0919 -0.0032,0.0282 -0.0088,0.0696 -0.0167,0.124l-1.9989 -0.2261c-0.0177,0.3033 0.0398,0.5438 0.1716,0.7203 0.1318,0.1774 0.3088,0.2786 0.5329,0.304 0.1662,0.0188 0.3135,-0.0101 0.4417,-0.0867 0.1281,-0.0757 0.2373,-0.208 0.3285,-0.3968zm-1.4064 -0.9205l1.4966 0.1693c0.0062,-0.2324 -0.0319,-0.4126 -0.1129,-0.5378 -0.1245,-0.1953 -0.3021,-0.3065 -0.5322,-0.3325 -0.2085,-0.0236 -0.3924,0.028 -0.5507,0.1546 -0.1583,0.1268 -0.2583,0.3092 -0.3008,0.5464zm2.2581 1.082l0.4571 -0.0215c0.0041,0.1871 0.0589,0.3361 0.1632,0.4479 0.1035,0.1108 0.259,0.1784 0.4667,0.2019 0.2084,0.0236 0.3685,-0.003 0.4791,-0.0779 0.1107,-0.076 0.1731,-0.1725 0.1863,-0.2888 0.0119,-0.1058 -0.0236,-0.1927 -0.1064,-0.2637 -0.0573,-0.0485 -0.2065,-0.1181 -0.4467,-0.2095 -0.3228,-0.124 -0.5461,-0.2242 -0.6673,-0.3022 -0.1213,-0.0771 -0.2097,-0.1755 -0.2635,-0.2941 -0.0538,-0.1185 -0.0736,-0.2449 -0.0584,-0.3789 0.0138,-0.1225 0.0542,-0.2323 0.1212,-0.33 0.0661,-0.0987 0.1508,-0.1767 0.2525,-0.2348 0.0766,-0.0449 0.1783,-0.0798 0.304,-0.1031 0.1265,-0.0232 0.2596,-0.0269 0.3992,-0.0111 0.2102,0.0238 0.391,0.0763 0.5434,0.1561 0.1524,0.0797 0.2602,0.1767 0.324,0.291 0.0638,0.1152 0.0995,0.2622 0.1079,0.4426l-0.4508 0.0124c-0.0048,-0.1434 -0.0508,-0.2602 -0.1384,-0.3504 -0.0875,-0.0902 -0.2201,-0.1455 -0.3967,-0.1655 -0.2084,-0.0236 -0.3615,-0.0052 -0.4582,0.0553 -0.0976,0.0604 -0.1518,0.1382 -0.1625,0.2326 -0.0068,0.0608 0.0061,0.1167 0.0376,0.1693 0.0314,0.0545 0.0845,0.1016 0.16,0.144 0.0438,0.022 0.1729,0.0767 0.3882,0.1635 0.3113,0.1246 0.5273,0.2213 0.6476,0.292 0.1212,0.07 0.2119,0.1633 0.2722,0.2782 0.0603,0.1148 0.0816,0.251 0.0636,0.4098 -0.0175,0.1551 -0.0787,0.2955 -0.1822,0.4231 -0.1042,0.1266 -0.2437,0.2179 -0.4185,0.2741 -0.1747,0.0561 -0.3676,0.0718 -0.5778,0.048 -0.349,-0.0395 -0.606,-0.1435 -0.7719,-0.3123 -0.1659,-0.1688 -0.2574,-0.4014 -0.2745,-0.698zm4.1474 1.2984l0.4281 -3.786 0.4903 0.0554 -0.3776 3.3391 1.8223 0.2061 -0.0505 0.447 -2.3126 -0.2616zm3.2075 -2.9297l0.0605 -0.5352 0.4549 0.0515 -0.0605 0.5351 -0.4549 -0.0514zm-0.3676 3.2509l0.3101 -2.7424 0.4549 0.0514 -0.3101 2.7424 -0.4549 -0.0514zm1.2544 0.1418l0.2693 -2.381 -0.4006 -0.0453 0.0408 -0.3613 0.4007 0.0453 0.0329 -0.2918c0.0209,-0.1842 0.0528,-0.3199 0.0948,-0.4053 0.0576,-0.1158 0.1453,-0.205 0.2641,-0.2674 0.1187,-0.0625 0.2771,-0.0821 0.4762,-0.0596 0.1275,0.0145 0.2671,0.0454 0.4186,0.0946l-0.1139 0.3979c-0.0919,-0.0283 -0.1805,-0.0473 -0.2649,-0.0568 -0.1379,-0.0156 -0.2387,0.0034 -0.3024,0.0578 -0.0646,0.0534 -0.1057,0.163 -0.1245,0.3287l-0.0286 0.253 0.5222 0.0591 -0.0409 0.3613 -0.5221 -0.059 -0.2693 2.381 -0.4524 -0.0512zm3.263 -0.5256l0.4628 0.1122c-0.1059,0.2728 -0.2674,0.475 -0.4849,0.6076 -0.2182,0.1315 -0.4829,0.1802 -0.7939,0.1451 -0.392,-0.0444 -0.6891,-0.203 -0.8904,-0.4758 -0.2021,-0.2728 -0.2776,-0.6322 -0.2271,-1.0782 0.0522,-0.4618 0.209,-0.8067 0.4696,-1.0352 0.2615,-0.2284 0.5766,-0.3222 0.9471,-0.2803 0.3584,0.0405 0.6372,0.1988 0.8356,0.474 0.1992,0.2751 0.2733,0.6396 0.2221,1.0918 -0.0032,0.0283 -0.0088,0.0697 -0.0167,0.1241l-1.9989 -0.2261c-0.0177,0.3033 0.0397,0.5438 0.1716,0.7202 0.1318,0.1774 0.3088,0.2787 0.5328,0.3041 0.1663,0.0188 0.3136,-0.0101 0.4418,-0.0867 0.1281,-0.0757 0.2373,-0.208 0.3285,-0.3968zm-1.4065 -0.9205l1.4966 0.1692c0.0063,-0.2323 -0.0318,-0.4125 -0.1128,-0.5377 -0.1245,-0.1953 -0.3022,-0.3065 -0.5323,-0.3325 -0.2085,-0.0236 -0.3923,0.028 -0.5506,0.1546 -0.1583,0.1268 -0.2583,0.3092 -0.3009,0.5464zm3.8518 2.0916l0.4281 -3.786 2.6753 0.3025 -0.0505 0.4469 -2.1859 -0.2472 -0.1311 1.1592 2.0472 0.2315 -0.0503 0.4443 -2.0471 -0.2315 -0.1458 1.2887 2.2721 0.2569 -0.0506 0.447 -2.7614 -0.3123zm5.1675 0.2416c-0.1855,0.1271 -0.3591,0.212 -0.5211,0.2552 -0.1627,0.0423 -0.3333,0.0535 -0.5117,0.0333 -0.2946,-0.0333 -0.5121,-0.132 -0.6539,-0.2972 -0.1411,-0.1651 -0.199,-0.3627 -0.1732,-0.591 0.0152,-0.1347 0.0584,-0.254 0.1313,-0.3582 0.072,-0.1045 0.1605,-0.1846 0.2645,-0.2407 0.105,-0.0559 0.2193,-0.0948 0.3447,-0.1154 0.0914,-0.0138 0.2286,-0.0223 0.4111,-0.024 0.3722,-0.0036 0.6487,-0.0257 0.8289,-0.0688 0.009,-0.0633 0.0144,-0.1037 0.0163,-0.1205 0.0214,-0.1895 -0.0065,-0.3283 -0.084,-0.4148 -0.1035,-0.1188 -0.2708,-0.1904 -0.4992,-0.2162 -0.2137,-0.0242 -0.3756,-0.0041 -0.4868,0.061 -0.1103,0.0652 -0.2006,0.1924 -0.2718,0.3817l-0.4366 -0.1128c0.0624,-0.1894 0.1466,-0.3396 0.2522,-0.4482 0.1058,-0.1094 0.2506,-0.1867 0.4328,-0.2313 0.1822,-0.0446 0.3884,-0.0543 0.6193,-0.0282 0.2292,0.0259 0.4112,0.075 0.5481,0.1459 0.1367,0.0717 0.2341,0.1523 0.2927,0.2437 0.0577,0.0915 0.0924,0.2015 0.1055,0.3325 0.0057,0.081 -0.0027,0.2247 -0.026,0.4309l-0.0701 0.6197c-0.049,0.4328 -0.0704,0.7071 -0.0634,0.8231 0.0059,0.1167 0.0323,0.2313 0.0772,0.3427l-0.4746 -0.0537c-0.0357,-0.1013 -0.054,-0.2177 -0.0522,-0.3487zm0.0795 -1.0428c-0.1734,0.0511 -0.4272,0.0812 -0.7618,0.0924 -0.1901,0.0063 -0.3263,0.022 -0.4069,0.0478 -0.0813,0.0256 -0.1474,0.0691 -0.1963,0.1314 -0.0497,0.0613 -0.0795,0.132 -0.0887,0.2131 -0.014,0.1243 0.0208,0.2328 0.1028,0.326 0.082,0.0922 0.2118,0.1488 0.3884,0.1688 0.1749,0.0197 0.3353,-0.0014 0.4802,-0.0644 0.1451,-0.063 0.258,-0.1592 0.3371,-0.2878 0.061,-0.0993 0.1027,-0.2518 0.1258,-0.4563l0.0194 -0.171zm0.9191 0.6691l0.4571 -0.0215c0.0041,0.187 0.0588,0.3361 0.1631,0.4479 0.1035,0.1108 0.2591,0.1784 0.4667,0.2019 0.2085,0.0235 0.3686,-0.003 0.4791,-0.078 0.1108,-0.0759 0.1732,-0.1724 0.1864,-0.2888 0.0119,-0.1058 -0.0237,-0.1927 -0.1064,-0.2637 -0.0574,-0.0484 -0.2066,-0.118 -0.4467,-0.2094 -0.3228,-0.1241 -0.5462,-0.2243 -0.6674,-0.3023 -0.1213,-0.0771 -0.2096,-0.1754 -0.2634,-0.294 -0.0538,-0.1185 -0.0736,-0.2449 -0.0584,-0.3789 0.0138,-0.1225 0.0542,-0.2323 0.1211,-0.3301 0.0661,-0.0987 0.1509,-0.1766 0.2526,-0.2348 0.0766,-0.0448 0.1782,-0.0797 0.304,-0.1031 0.1265,-0.0231 0.2595,-0.0268 0.3991,-0.011 0.2103,0.0238 0.3911,0.0763 0.5435,0.156 0.1524,0.0798 0.2601,0.1767 0.324,0.2911 0.0637,0.1152 0.0995,0.2621 0.1079,0.4425l-0.4508 0.0124c-0.0048,-0.1433 -0.0508,-0.2602 -0.1384,-0.3504 -0.0875,-0.0902 -0.2201,-0.1455 -0.3967,-0.1654 -0.2085,-0.0236 -0.3615,-0.0052 -0.4583,0.0553 -0.0976,0.0604 -0.1518,0.1382 -0.1624,0.2325 -0.0069,0.0608 0.006,0.1168 0.0376,0.1694 0.0313,0.0545 0.0845,0.1015 0.16,0.1439 0.0437,0.022 0.1728,0.0767 0.3881,0.1636 0.3114,0.1245 0.5274,0.2212 0.6477,0.2919 0.1212,0.07 0.2118,0.1634 0.2722,0.2782 0.0603,0.1148 0.0816,0.2511 0.0636,0.4099 -0.0175,0.155 -0.0788,0.2955 -0.1822,0.423 -0.1043,0.1266 -0.2437,0.218 -0.4185,0.2741 -0.1748,0.0561 -0.3676,0.0718 -0.5778,0.0481 -0.349,-0.0395 -0.606,-0.1436 -0.7719,-0.3123 -0.1659,-0.1689 -0.2575,-0.4015 -0.2745,-0.698zm2.5339 2.1855l-0.0016 -0.4421c0.0969,0.0387 0.1815,0.0625 0.2556,0.0709 0.1008,0.0114 0.1838,0.0029 0.248,-0.0246 0.0651,-0.0275 0.1196,-0.0696 0.1655,-0.1278 0.0344,-0.0425 0.0931,-0.1529 0.1777,-0.3299 0.0116,-0.0255 0.0296,-0.0609 0.0533,-0.1091l-0.7059 -2.8626 0.4894 0.0553 0.3788 1.6507c0.0486,0.2101 0.0902,0.429 0.1219,0.6576 0.0767,-0.2074 0.1623,-0.4084 0.2577,-0.6039l0.7537 -1.5334 0.4541 0.0514 -1.3347 2.6738c-0.1435,0.2891 -0.2523,0.4866 -0.3255,0.5935 -0.0983,0.1442 -0.2031,0.2457 -0.3154,0.3054 -0.1132,0.0594 -0.2414,0.0816 -0.3861,0.0652 -0.0879,-0.0099 -0.1831,-0.0404 -0.2865,-0.0904zm4.2896 -0.5845l0.0599 -0.5297 0.5178 0.0585 -0.0599 0.5298 -0.5178 -0.0586zm1.4363 0.1624l0.0599 -0.5297 0.5179 0.0586 -0.0599 0.5297 -0.5179 -0.0586zm1.4363 0.1625l0.0599 -0.5298 0.5179 0.0586 -0.0599 0.5297 -0.5179 -0.0585z"/>
    <polygon id="_257177296" class="fil1 str0" points="196.044,177.599 196.252,177.724 187.72,193.667 187.018,193.197 "/>
    <polygon id="_257179240" class="fil5" points="196.044,177.599 196.252,177.724 187.72,193.667 187.018,193.197 "/>
    <polygon id="_257179360" class="fil1 str1" points="195.732,171.331 197.857,172.515 199.612,170.326 199.307,172.878 201.898,173.026 199.467,174.404 200.197,176.687 198.12,175.516 196.411,177.534 196.704,175.091 194.058,174.982 196.527,173.631 "/>
    <polygon id="_257179456" class="fil5" points="197.066,173.633 196.6,172.309 197.887,173.017 198.963,171.694 198.728,173.248 200.313,173.346 198.828,174.1 199.289,175.506 198.047,174.811 196.924,176.128 197.191,174.576 195.686,174.499 "/>
    <polygon id="_257179552" class="fil3" points="195.965,167.698 196.483,167.977 196.774,167.474 196.809,168.055 197.423,168.098 196.876,168.429 197.183,169.04 196.605,168.732 196.287,169.252 196.301,168.614 195.657,168.598 196.191,168.275 "/>
    <polygon id="_257179624" class="fil3" points="202.737,166.044 203.389,166.4 203.957,165.722 203.805,166.506 204.628,166.53 203.853,166.941 204.132,167.709 203.452,167.303 202.892,167.983 203.037,167.164 202.188,167.175 202.954,166.736 "/>
    <polygon id="_257179696" class="fil5" points="200.806,170.087 201.317,170.334 201.621,169.852 201.608,170.434 202.186,170.453 201.692,170.776 201.94,171.303 201.428,171.036 201.152,171.532 201.164,170.957 200.571,170.94 201.05,170.606 "/>
    <polygon id="_257179768" class="fil5" points="192.858,172.666 192.668,172.263 193.095,172.471 193.326,172.03 193.366,172.572 193.867,172.566 193.407,172.844 193.655,173.326 193.192,173.055 192.939,173.543 192.956,172.99 192.395,172.989 "/>
    <polygon id="_257179840" class="fil3" points="201.849,174.825 202.285,175.073 202.546,174.569 202.57,175.113 203.119,175.158 202.623,175.439 202.88,175.941 202.413,175.699 202.129,176.182 202.159,175.629 201.594,175.588 202.08,175.289 "/>
    <path id="_257179984" class="fil6" d="M172.345 180.395c0.3723,-0.5158 1.9679,-2.4991 2.1154,-2.6346 0.1465,-0.127 0.348,-0.155 0.4622,-0.1421l0.1794 0.0203c0.049,0.0055 0.069,-0.026 0.0747,-0.076l0.0217 -0.1919c0.0047,-0.0419 -0.0097,-0.0603 -0.0586,-0.0658 -0.0816,-0.0093 -0.2639,-0.0045 -0.7859,-0.0635 -0.571,-0.0646 -0.9108,-0.1284 -0.9923,-0.1376 -0.0327,-0.0037 -0.0509,0.011 -0.0556,0.0529l-0.0236 0.2086c-0.0047,0.0416 0.0088,0.0685 0.0578,0.0741l0.212 0.0239c0.2447,0.0277 0.2766,0.1834 0.2434,0.3319 -0.0399,0.2068 -1.2885,1.8236 -1.6187,2.2596 -0.1673,-0.4923 -0.9367,-2.4557 -0.936,-2.6077 0.0034,-0.177 0.0763,-0.2365 0.2557,-0.2162l0.2121 0.024c0.0489,0.0055 0.069,-0.026 0.0747,-0.076l0.0217 -0.192c0.0047,-0.0418 -0.0098,-0.0602 -0.0586,-0.0658 -0.0816,-0.0092 -0.3781,-0.0173 -1.2101,-0.1114 -0.62,-0.0701 -1.0086,-0.1395 -1.0739,-0.1468 -0.0489,-0.0056 -0.0672,0.0092 -0.0709,0.0426l-0.0255 0.2253c-0.0047,0.0417 0.0097,0.0603 0.0587,0.0658l0.1467 0.0166c0.1306,0.0148 0.3025,0.1019 0.3871,0.2297 0.1954,0.318 1.2451,2.8709 1.3473,3.136l-0.0453 0.4005c-0.0888,0.7845 -0.1787,1.4337 -0.2,1.5495 -0.0223,0.1242 -0.097,0.2003 -0.3091,0.1763l-0.3344 -0.0378c-0.0408,-0.0046 -0.0609,0.027 -0.0647,0.0604l-0.0217 0.1919c-0.0047,0.0417 0.0077,0.0783 0.0485,0.0829 0.0733,0.0083 0.3372,0.0128 1.1366,0.1032 0.7341,0.083 1.0575,0.1449 1.1473,0.1551 0.0409,0.0046 0.0601,-0.02 0.0667,-0.0783l0.0217 -0.192c0.0038,-0.0334 -0.0096,-0.0603 -0.0505,-0.0649l-0.2691 -0.0304c-0.1633,-0.0185 -0.2918,-0.05 -0.2861,-0.3198 0.0023,-0.0926 0.0482,-0.6453 0.0841,-0.9624l0.1151 -1.0181zm3.6135 -0.6141c-0.3344,-0.0378 -0.7661,-0.0191 -1.2036,0.2696 -0.5346,0.3453 -0.7965,0.9073 -0.8418,1.3078 -0.0575,0.5091 -0.0156,0.8687 0.2942,1.3433 0.3161,0.4922 0.7395,0.6935 1.2533,0.7516 0.5466,0.0618 1.0607,-0.1011 1.4385,-0.4472 0.3496,-0.3154 0.5964,-0.744 0.6492,-1.2113 0.0557,-0.4923 -0.0747,-0.9467 -0.4137,-1.3822 -0.2462,-0.3067 -0.6296,-0.5697 -1.1761,-0.6316zm-0.3928 3.3279c-0.3263,-0.0369 -0.4907,-0.1907 -0.6038,-0.4318 -0.1797,-0.3837 -0.1765,-0.7044 -0.1218,-1.1886 0.0689,-0.6091 0.2065,-0.9486 0.4924,-1.2121 0.1566,-0.1428 0.3272,-0.1911 0.5394,-0.1671 0.3751,0.0424 0.7879,0.6299 0.6841,1.548 -0.0963,0.8512 -0.452,1.5125 -0.9903,1.4516zm4.9393 0.8121c0.0005,0.0691 0.0375,0.107 0.1027,0.1143 0.0654,0.0074 0.1161,-0.0036 0.167,-0.0148l1.0447 -0.1791c0.0335,-0.0046 0.0517,-0.0195 0.0492,-0.0704l-0.0094 -0.1363c-0.0043,-0.0344 -0.0279,-0.0454 -0.0941,-0.0445 -0.0998,0.0056 -0.2139,-0.0073 -0.2629,-0.0128 -0.0652,-0.0074 -0.1431,-0.0499 -0.1474,-0.3041 0.0025,-0.1687 0.0478,-0.5693 0.0931,-0.9699l0.068 -0.6008c0.0934,-0.8263 0.1669,-1.0376 0.1764,-1.1211 0.0038,-0.0334 -0.0069,-0.0853 -0.0558,-0.0909 -0.0327,-0.0037 -0.0663,0.0009 -0.108,0.0047 -0.0416,0.0038 -0.0834,0.0075 -0.1405,0.001l-1.0115 -0.1144c-0.0734,-0.0083 -0.0989,-0.0027 -0.1055,0.0558l-0.017 0.1501c-0.0037,0.0335 0.0107,0.052 0.1557,0.0854 0.1938,0.0387 0.3432,0.1063 0.3187,0.3232l-0.2218 1.9612c-0.0113,0.1002 -0.0816,0.2106 -0.12,0.257 -0.1512,0.1688 -0.411,0.2746 -0.6068,0.2524 -0.1795,-0.0203 -0.3608,-0.0238 -0.4957,-0.2926 -0.1805,-0.3754 -0.0592,-0.9365 -0.0215,-1.2702l0.0585 -0.5174c0.0652,-0.5758 0.1412,-0.9561 0.1506,-1.0395 0.0057,-0.0501 -0.0213,-0.1039 -0.0703,-0.1094 -0.0244,-0.0028 -0.058,0.0018 -0.0916,0.0065 -0.0336,0.0047 -0.0753,0.0084 -0.1242,0.0029l-0.9789 -0.1107c-0.0815,-0.0092 -0.0997,0.0056 -0.1054,0.0557l-0.017 0.1502c-0.0056,0.0501 0.0432,0.0557 0.172,0.0871 0.1449,0.0333 0.2506,0.1213 0.2514,0.3327 0.005,0.102 -0.029,0.4023 -0.0516,0.6027 -0.0198,0.1752 -0.0601,0.4581 -0.1054,0.8587 -0.0528,0.4672 -0.0796,0.777 0.1697,1.2025 0.2439,0.4007 0.5049,0.4302 0.7986,0.4634 0.4241,0.048 0.9275,-0.1669 1.141,-0.447l0.0489 0.0055 -0.0039 0.4729zm5.3716 0.6426c0.0151,0.0863 0.0665,0.1428 0.1481,0.1521 0.0978,0.011 0.1879,-0.0549 0.23,-0.1347 0.0431,-0.0894 1.9494,-4.0153 2.0491,-4.2408l0.0327 0.0037 0.98 4.5566c0.0212,0.1053 0.0689,0.1952 0.183,0.2081 0.1142,0.0129 0.1946,-0.1133 0.2368,-0.1944 0.2104,-0.3988 2.4029,-4.884 2.5052,-5.0584 0.1033,-0.1827 0.2596,-0.2496 0.3901,-0.2348l0.1712 0.0193c0.0491,0.0056 0.06,-0.0186 0.0647,-0.0602l0.0255 -0.2253c0.0028,-0.0251 -0.0116,-0.0436 -0.0443,-0.0473 -0.0653,-0.0074 -0.3127,-0.01 -0.7696,-0.0616 -0.5057,-0.0572 -0.7802,-0.1136 -0.8618,-0.1229 -0.0489,-0.0055 -0.0681,0.0177 -0.0728,0.0594l-0.0226 0.2003c-0.0047,0.0416 0.0006,0.0676 0.0495,0.0731l0.2202 0.0249c0.1958,0.0222 0.2642,0.1482 0.2509,0.2651 -0.0519,0.459 -1.2931,3.1079 -1.6209,3.8145l-0.0326 -0.0037 -0.7387 -3.9884c-0.0247,-0.1465 0.0532,-0.3236 0.2162,-0.3051l0.2856 0.0322c0.0408,0.0047 0.0599,-0.0186 0.0646,-0.0602l0.0217 -0.1921c0.0057,-0.0499 0.0004,-0.0758 -0.0485,-0.0814 -0.0734,-0.0083 -0.3862,-0.0183 -1.0714,-0.0958 -0.7016,-0.0793 -0.9924,-0.1376 -1.0577,-0.1449 -0.0489,-0.0056 -0.0681,0.0176 -0.0728,0.0593l-0.0236 0.2086c-0.0047,0.0417 0.018,0.0612 0.0506,0.0649l0.1712 0.0193c0.0979,0.0111 0.2065,0.0742 0.2604,0.1816 0.0693,0.1178 0.1138,0.3088 0.0968,0.4589 -0.0522,0.3152 -1.4844,3.2637 -1.5694,3.4316l-0.0154 -0.0102 -0.763 -3.991c-0.0373,-0.1819 0.0656,-0.2885 0.2287,-0.2701l0.155 0.0175c0.0572,0.0065 0.0763,-0.0167 0.081,-0.0583l0.0236 -0.2087c0.0047,-0.0418 -0.0097,-0.0602 -0.0586,-0.0658 -0.0817,-0.0092 -0.4271,-0.0229 -1.0144,-0.0893 -0.7341,-0.083 -0.9759,-0.1357 -1.0413,-0.1431 -0.0421,-0.0048 -0.0685,0.009 -0.0732,0.0509l-0.0245 0.2168c-0.0038,0.0334 0.0097,0.0603 0.0424,0.064l0.2297 0.026c0.1305,0.0147 0.2535,0.0964 0.3085,0.3392l1.2241 5.5406zm8.413 0.7049c0.0044,0.0342 0.026,0.0621 0.0549,0.0992 0.0813,0.0853 0.4239,0.269 0.8562,0.3178 0.8076,0.0914 1.4191,-0.348 1.4983,-1.0489 0.0321,-0.2838 -0.0105,-0.4914 -0.1692,-0.6954 -0.1856,-0.2575 -0.4028,-0.3836 -0.7666,-0.5261 -0.4744,-0.1889 -0.7077,-0.3167 -0.6691,-0.6588 0.0331,-0.2922 0.3149,-0.4462 0.6167,-0.4121 0.2692,0.0304 0.399,0.1973 0.4846,0.3168l0.3406 0.4949c0.0125,0.0353 0.0361,0.0464 0.0615,0.0408l0.1635 -0.0576c0.0182,-0.0148 0.0229,-0.0565 0.0185,-0.0908l-0.0419 -0.5795c-0.0025,-0.0511 -0.0231,-0.0872 -0.138,-0.1678 -0.1374,-0.1001 -0.3708,-0.2277 -0.7704,-0.2729 -0.3345,-0.0379 -0.5714,0.0113 -0.8795,0.1793 -0.3091,0.1764 -0.4736,0.4621 -0.5151,0.8292 -0.067,0.5926 0.3413,0.9261 0.8772,1.1557 0.5522,0.2315 0.7472,0.4058 0.7095,0.7395 -0.035,0.3089 -0.3187,0.4795 -0.6368,0.4435 -0.3997,-0.0452 -0.532,-0.2628 -0.6505,-0.5299l-0.2163 -0.4978c-0.0126,-0.0352 -0.037,-0.038 -0.0706,-0.0333l-0.1606 0.0325c-0.0255,0.0057 -0.0365,0.0297 -0.0321,0.0641l0.0352 0.8576zm5.6667 -0.4326c-0.0302,0.267 -0.0793,0.701 -0.1088,0.816 -0.0315,0.1317 -0.1494,0.1521 -0.2472,0.141l-0.1388 -0.0156c-0.0407,-0.0047 -0.059,0.0103 -0.0627,0.0436l-0.0227 0.2003c-0.0049,0.043 0.0096,0.0616 0.0585,0.0671 0.0815,0.0093 0.3781,0.0175 0.8675,0.0728 0.4976,0.0563 0.7558,0.1108 0.8047,0.1163 0.0489,0.0056 0.0682,-0.019 0.0729,-0.0607l0.0208 -0.1837c0.0047,-0.0416 -0.0097,-0.0602 -0.075,-0.0676l-0.1468 -0.0166c-0.1304,-0.0147 -0.2754,-0.0479 -0.2621,-0.1648l0.1245 -1.1017 0.0566 -0.5006c0.0538,-0.4758 0.1173,-0.8912 -0.2202,-1.2674 -0.2202,-0.2447 -0.419,-0.3854 -0.778,-0.426 -0.3834,-0.0433 -0.8446,0.0904 -1.1098,0.39l-0.049 -0.0055 0.0585 -0.5174c0.0463,-0.4089 0.2369,-2.0946 0.2702,-2.2431 0.0315,-0.1317 0.0227,-0.2003 -0.0425,-0.2077 -0.0816,-0.0092 -0.1343,0.0186 -0.236,0.041 -0.2761,0.104 -0.8629,0.3251 -1.1151,0.3641 -0.1036,0.039 -0.1218,0.0538 -0.1256,0.0872l-0.0094 0.0835c-0.0038,0.0335 0.0106,0.052 0.0577,0.0741l0.1412 0.0667c0.2641,0.1482 0.3432,0.3261 0.2903,0.7935l-0.3206 2.9812c-0.0434,0.3839 -0.1063,0.8669 -0.1578,1.0302 -0.0358,0.0973 -0.1538,0.1178 -0.2843,0.103l-0.2039 -0.023c-0.0409,-0.0047 -0.0754,0.0084 -0.0801,0.05l-0.0207 0.1837c-0.0058,0.0514 0.0167,0.0709 0.0575,0.0755 0.0653,0.0074 0.378,0.0174 0.8838,0.0746 0.4242,0.048 0.7803,0.1136 0.8455,0.121 0.0489,0.0055 0.0692,-0.0274 0.0748,-0.0774l0.017 -0.1503c0.0066,-0.0584 -0.0241,-0.0788 -0.073,-0.0844l-0.1957 -0.0221c-0.1143,-0.0129 -0.1375,-0.1001 -0.1073,-0.367l0.2038 -1.8027c0.0179,-0.1585 0.1184,-0.3162 0.1932,-0.3923 0.2001,-0.1633 0.4255,-0.2562 0.6375,-0.2322 0.1958,0.0221 0.3187,0.1037 0.4342,0.2521 0.1875,0.2408 0.1347,0.7082 0.0856,1.1422l-0.0632 0.5591z"/>
    <path id="_257179936" class="fil7" d="M180.886 185.776l0.7045 0.0797 -0.0046 0.0404c-0.0614,-0.0008 -0.108,0.0145 -0.1397,0.0459 -0.0318,0.0314 -0.0515,0.0832 -0.0595,0.1543 -0.0001,0.0009 -0.001,0.0139 -0.002,0.0378 -0.0011,0.0244 -0.0022,0.0482 -0.0037,0.0716l-0.0556 1.2645 0.6584 -1.2213 0.0103 -0.0178c0.0495,-0.095 0.0753,-0.1521 0.0775,-0.1715 0.0027,-0.0241 -0.0052,-0.0466 -0.0244,-0.0682 -0.0192,-0.0212 -0.0477,-0.0379 -0.085,-0.0511l0.0048 -0.0421 0.6721 0.076 -0.0047 0.0421c-0.0591,-0.0007 -0.1038,0.0127 -0.1335,0.0403 -0.0298,0.0283 -0.0477,0.0733 -0.0547,0.1359 -0.0012,0.01 -0.0023,0.0258 -0.0032,0.0483 -0.0009,0.0224 -0.0016,0.0483 -0.0015,0.0773l-0.0394 1.3073 0.6934 -1.2813c0.0174,-0.0325 0.0319,-0.062 0.0421,-0.0893 0.0109,-0.0267 0.0171,-0.0477 0.0187,-0.0624 0.0033,-0.0287 -0.0049,-0.0542 -0.0241,-0.0759 -0.0191,-0.0216 -0.0491,-0.0401 -0.0912,-0.0543l0.0048 -0.042 0.6038 0.0683 -0.0046 0.0405c-0.0664,-0.0055 -0.1295,0.0189 -0.1893,0.0737 -0.0594,0.0548 -0.1301,0.1564 -0.2116,0.3048l-0.6395 1.1528c-0.0222,0.0396 -0.0398,0.0771 -0.0537,0.1125 -0.0134,0.0355 -0.0214,0.0622 -0.0233,0.0794 -0.0027,0.0232 -0.0007,0.04 0.0054,0.0496 0.0066,0.0103 0.02,0.0184 0.0415,0.0248l-0.0047 0.0419 -0.6362 -0.0719 0.0048 -0.0419c0.035,-0.0011 0.0603,-0.0097 0.076,-0.0265 0.0163,-0.0167 0.0265,-0.048 0.0316,-0.0935 -0.0008,-0.003 -0.0003,-0.017 0.001,-0.0429 0.0013,-0.0258 0.0032,-0.0626 0.0052,-0.11l0.031 -1.1206 -0.59 1.1014c-0.0175,0.0322 -0.0321,0.0635 -0.0438,0.0937 -0.0118,0.0306 -0.0184,0.0554 -0.0206,0.0746 -0.0023,0.0203 -0.0012,0.0349 0.0038,0.0441 0.0052,0.0085 0.0163,0.0173 0.0336,0.0263l-0.0047 0.0419 -0.6198 -0.0701 0.0064 -0.0417c0.0387,-0.0082 0.0675,-0.024 0.0868,-0.0472 0.0186,-0.0234 0.0309,-0.0586 0.0363,-0.106 0.0009,-0.008 0.002,-0.0278 0.0035,-0.0607 0.0014,-0.0323 0.0039,-0.0731 0.0071,-0.1212l0.0439 -1.2498 0.0001 -0.0014c0.0065,-0.1889 -0.0421,-0.298 -0.1445,-0.3271l0.0047 -0.042zm2.1925 2.25l0.0047 -0.0419c0.0928,-0.008 0.1603,-0.0269 0.2028,-0.0561 0.0421,-0.0298 0.0803,-0.0925 0.1139,-0.1897l0.4522 -1.2577 0.0024 -0.0067c0.0263,-0.0715 0.0408,-0.1204 0.0438,-0.1476 0.0059,-0.0519 -0.0059,-0.0937 -0.0356,-0.1251 -0.0303,-0.031 -0.0783,-0.0518 -0.1441,-0.0623l0.0031 -0.0422 1.364 0.1542c0.0623,0.0071 0.1162,0.0102 0.1628,0.0089 0.0467,-0.0012 0.0937,-0.0058 0.1411,-0.014l-0.0694 0.6135 -0.0465 -0.0053c-0.0258,-0.1525 -0.097,-0.2717 -0.2131,-0.3567 -0.1165,-0.0857 -0.2824,-0.1406 -0.4977,-0.1649 -0.1049,-0.0119 -0.1809,-0.006 -0.2279,0.0183 -0.0471,0.0242 -0.0903,0.0938 -0.1305,0.2093l-0.0493 0.147 0.311 0.0352c0.0994,0.0113 0.1773,0.0025 0.2343,-0.026 0.0564,-0.0291 0.1106,-0.0876 0.1615,-0.1754l0.0383 0.0043 -0.1195 0.7135 -0.0465 -0.0053c0.003,-0.1237 -0.0336,-0.2165 -0.1098,-0.2771 -0.076,-0.0611 -0.2092,-0.1021 -0.3994,-0.1236 -0.0311,-0.0035 -0.0546,-0.0062 -0.0705,-0.0076 -0.0159,-0.0013 -0.0325,-0.0016 -0.0485,-0.0014l-0.2895 0.8217c-0.0146,0.0464 -0.025,0.0793 -0.0295,0.0992 -0.005,0.02 -0.0085,0.0361 -0.0099,0.0489 -0.0061,0.0538 0.0145,0.0967 0.0619,0.1276 0.0474,0.0313 0.123,0.053 0.2279,0.0648 0.2285,0.0259 0.4384,-0.0004 0.6304,-0.0784 0.192,-0.0777 0.3649,-0.2069 0.518,-0.3865l0.045 0.018 -0.441 0.7036c-0.0367,-0.0177 -0.0739,-0.0319 -0.1102,-0.0425 -0.0364,-0.0106 -0.0804,-0.0187 -0.1317,-0.0245l-0.0258 -0.0029 -1.4732 -0.1666zm3.4706 -1.6096l0.7044 0.0797 -0.0045 0.0404c-0.0614,-0.0008 -0.108,0.0145 -0.1397,0.0459 -0.0318,0.0314 -0.0515,0.0832 -0.0595,0.1543 -0.0001,0.0009 -0.001,0.0139 -0.0021,0.0378 -0.001,0.0243 -0.0021,0.0482 -0.0036,0.0716l-0.0556 1.2645 0.6584 -1.2214 0.0103 -0.0177c0.0495,-0.095 0.0753,-0.1521 0.0775,-0.1715 0.0027,-0.0241 -0.0053,-0.0466 -0.0245,-0.0682 -0.0191,-0.0212 -0.0477,-0.0379 -0.0849,-0.0511l0.0048 -0.0421 0.6721 0.076 -0.0047 0.0421c-0.0592,-0.0007 -0.1038,0.0127 -0.1335,0.0403 -0.0298,0.0282 -0.0476,0.0733 -0.0547,0.1359 -0.0012,0.01 -0.0024,0.0258 -0.0033,0.0482 -0.0009,0.0225 -0.0015,0.0484 -0.0014,0.0774l-0.0394 1.3073 0.6933 -1.2813c0.0175,-0.0325 0.0319,-0.062 0.0422,-0.0893 0.0108,-0.0268 0.0171,-0.0477 0.0187,-0.0624 0.0033,-0.0287 -0.0049,-0.0542 -0.0241,-0.0759 -0.0191,-0.0216 -0.0491,-0.0401 -0.0912,-0.0543l0.0048 -0.042 0.6038 0.0683 -0.0046 0.0405c-0.0664,-0.0055 -0.1295,0.0189 -0.1893,0.0737 -0.0594,0.0548 -0.1301,0.1564 -0.2116,0.3048l-0.6396 1.1527c-0.0221,0.0397 -0.0397,0.0772 -0.0536,0.1126 -0.0135,0.0355 -0.0214,0.0621 -0.0234,0.0794 -0.0026,0.0232 -0.0006,0.04 0.0054,0.0496 0.0067,0.0103 0.0201,0.0184 0.0415,0.0248l-0.0048 0.0419 -0.636 -0.0719 0.0047 -0.0419c0.035,-0.0011 0.0604,-0.0097 0.076,-0.0265 0.0164,-0.0167 0.0266,-0.048 0.0317,-0.0935 -0.0008,-0.003 -0.0003,-0.0171 0.0009,-0.043 0.0013,-0.0257 0.0033,-0.0625 0.0053,-0.1099l0.031 -1.1206 -0.59 1.1014c-0.0175,0.0322 -0.0321,0.0635 -0.0438,0.0936 -0.0118,0.0307 -0.0184,0.0555 -0.0206,0.0747 -0.0023,0.0203 -0.0012,0.0349 0.0038,0.0441 0.0052,0.0085 0.0164,0.0173 0.0336,0.0263l-0.0047 0.0419 -0.6198 -0.0701 0.0064 -0.0417c0.0386,-0.0082 0.0675,-0.024 0.0868,-0.0473 0.0186,-0.0233 0.0309,-0.0585 0.0363,-0.1059 0.0009,-0.008 0.002,-0.0278 0.0035,-0.0607 0.0014,-0.0323 0.0039,-0.0731 0.007,-0.1212l0.044 -1.2498 0.0001 -0.0014c0.0065,-0.1889 -0.0421,-0.298 -0.1445,-0.3271l0.0047 -0.042zm5.1515 2.5846l0.0048 -0.0419c0.0915,-0.0072 0.1583,-0.0251 0.2009,-0.0544 0.0421,-0.0288 0.0807,-0.0923 0.1157,-0.1914l0.4517 -1.2577c0.0129,-0.0355 0.023,-0.0659 0.0303,-0.0916 0.0068,-0.0257 0.0116,-0.0488 0.0139,-0.069 0.0056,-0.0499 -0.0064,-0.0903 -0.0357,-0.1206 -0.0298,-0.0298 -0.0768,-0.0502 -0.1415,-0.0605l0.0032 -0.0422 0.8339 0.0943 -0.0047 0.042c-0.0938,0.0069 -0.1612,0.0253 -0.2034,0.0555 -0.0416,0.0299 -0.0797,0.0931 -0.1144,0.1902l-0.4077 1.1671c-0.0143,0.0384 -0.0255,0.0741 -0.0342,0.1067 -0.0087,0.0331 -0.014,0.0605 -0.0165,0.0827 -0.0053,0.0465 0.0072,0.0828 0.0369,0.1097 0.0301,0.0269 0.078,0.0439 0.1442,0.0514 0.1977,0.0223 0.3949,-0.0084 0.5926,-0.0927 0.1977,-0.0841 0.3665,-0.2112 0.5069,-0.3808l0.0417 0.0176 -0.5148 0.6953c-0.0131,-0.0161 -0.0289,-0.0283 -0.0468,-0.0358 -0.0185,-0.0081 -0.046,-0.0143 -0.0831,-0.0185l-0.0656 -0.0074 -1.3083 -0.148zm1.8236 0.2063l0.0047 -0.0419c0.0915,-0.0073 0.1583,-0.0252 0.2009,-0.0545 0.0421,-0.0287 0.0808,-0.0923 0.1158,-0.1914l0.4516 -1.2577c0.0129,-0.0355 0.023,-0.0659 0.0303,-0.0916 0.0068,-0.0257 0.0116,-0.0487 0.0139,-0.069 0.0057,-0.0499 -0.0064,-0.0903 -0.0357,-0.1206 -0.0298,-0.0298 -0.0767,-0.0502 -0.1415,-0.0605l0.0032 -0.0422 0.8339 0.0943 -0.0047 0.042c-0.0938,0.0069 -0.1611,0.0253 -0.2034,0.0555 -0.0415,0.0299 -0.0797,0.0931 -0.1144,0.1903l-0.4076 1.167c-0.0143,0.0384 -0.0256,0.0741 -0.0343,0.1067 -0.0087,0.0331 -0.014,0.0605 -0.0165,0.0827 -0.0052,0.0465 0.0073,0.0828 0.0369,0.1097 0.0301,0.0269 0.078,0.0439 0.1442,0.0514 0.1977,0.0223 0.3949,-0.0084 0.5927,-0.0926 0.1977,-0.0842 0.3664,-0.2112 0.5068,-0.3809l0.0417 0.0176 -0.5147 0.6953c-0.0131,-0.0161 -0.0289,-0.0283 -0.0469,-0.0358 -0.0184,-0.0081 -0.046,-0.0143 -0.0831,-0.0185l-0.0656 -0.0074 -1.3082 -0.1479zm3.5173 0.028c-0.017,0.0471 -0.0291,0.0813 -0.0349,0.1026 -0.0062,0.0214 -0.0106,0.0404 -0.0126,0.0581 -0.0057,0.0499 0.0064,0.0904 0.0362,0.1208 0.0292,0.0298 0.0767,0.0501 0.1414,0.0605l-0.0048 0.0419 -0.8327 -0.0942 0.0047 -0.0419c0.0915,-0.0072 0.1583,-0.0251 0.201,-0.0544 0.042,-0.0288 0.0807,-0.0929 0.1157,-0.1915l0.4516 -1.2577 0.0024 -0.0067c0.0269,-0.0714 0.0413,-0.1204 0.0444,-0.1475 0.0058,-0.0519 -0.006,-0.0937 -0.0362,-0.1251 -0.0298,-0.031 -0.0777,-0.0519 -0.1435,-0.0624l0.0031 -0.0422 1.3448 0.1521c0.0662,0.0075 0.1239,0.011 0.1738,0.0102 0.0499,-0.0009 0.0997,-0.0052 0.1492,-0.0131l-0.0681 0.602 -0.0464 -0.0052c-0.0384,-0.1498 -0.1111,-0.2656 -0.2191,-0.3474 -0.1081,-0.0818 -0.2562,-0.1331 -0.4441,-0.1544 -0.1312,-0.0148 -0.2211,-0.0124 -0.2699,0.0071 -0.0487,0.0195 -0.0898,0.0754 -0.1231,0.1686l-0.0632 0.1876 0.2388 0.027c0.1502,0.017 0.2538,0.0116 0.31,-0.016 0.0569,-0.0281 0.1012,-0.0872 0.133,-0.1771l0.0464 0.0052 -0.0972 0.7185 -0.0462 -0.0083c-0.0052,-0.1257 -0.0456,-0.2182 -0.1217,-0.2789 -0.0757,-0.0601 -0.2062,-0.1007 -0.3909,-0.1216 -0.0317,-0.0036 -0.0563,-0.0064 -0.0727,-0.0078 -0.0164,-0.0014 -0.033,-0.0018 -0.049,-0.0016l-0.3202 0.8928zm3.0927 0.0832c-0.0762,0.2239 -0.1966,0.3819 -0.3612,0.4728 -0.1642,0.0915 -0.383,0.1219 -0.6562,0.091 -0.2295,-0.026 -0.3969,-0.082 -0.5024,-0.1675 -0.1054,-0.0859 -0.1498,-0.2019 -0.1332,-0.3487 0.0039,-0.0345 0.0123,-0.0751 0.0253,-0.1206 0.0124,-0.0462 0.0291,-0.0964 0.0491,-0.1512l0.3319 -0.9134 0.0024 -0.0068c0.0275,-0.0713 0.043,-0.1201 0.046,-0.1473 0.006,-0.0524 -0.0065,-0.0938 -0.0373,-0.1253 -0.0303,-0.031 -0.0783,-0.0525 -0.1439,-0.0639l0.0139 -0.0394 0.8355 0.0945 -0.0173 0.0406c-0.0928,0.008 -0.1602,0.0269 -0.2017,0.0562 -0.0415,0.0294 -0.0803,0.0925 -0.1149,0.1891l-0.3472 0.9808c-0.0186,0.056 -0.0318,0.1 -0.0406,0.1335 -0.0088,0.0331 -0.0143,0.0629 -0.0172,0.0886 -0.0104,0.0919 0.0148,0.1673 0.0756,0.2272 0.0608,0.0595 0.1491,0.0959 0.2643,0.109 0.1706,0.0193 0.3093,-0.0036 0.4162,-0.0681 0.1069,-0.0645 0.1857,-0.1736 0.2363,-0.327l0.3349 -0.9942c0.0138,-0.0394 0.0237,-0.0683 0.0291,-0.0868 0.0054,-0.0183 0.009,-0.0349 0.0106,-0.0493 0.0067,-0.0597 -0.0056,-0.1071 -0.0365,-0.1416 -0.0315,-0.0351 -0.08,-0.0571 -0.1459,-0.0666l0.0046 -0.0405 0.7011 0.0793 -0.0047 0.042c-0.0791,0.0096 -0.1365,0.0276 -0.1733,0.0545 -0.0362,0.0264 -0.0724,0.0918 -0.1078,0.1948l-0.3355 1.0043zm0.164 0.6548l0.0047 -0.0419c0.0915,-0.0073 0.1583,-0.0252 0.2009,-0.0544 0.042,-0.0288 0.0808,-0.0924 0.1158,-0.1915l0.4515 -1.2577c0.0129,-0.0355 0.023,-0.0659 0.0303,-0.0915 0.0068,-0.0258 0.0117,-0.0488 0.014,-0.0691 0.0056,-0.0499 -0.0064,-0.0903 -0.0357,-0.1205 -0.0298,-0.0299 -0.0768,-0.0502 -0.1415,-0.0606l0.0031 -0.0422 0.8339 0.0943 -0.0047 0.042c-0.0938,0.0069 -0.1611,0.0253 -0.2033,0.0556 -0.0415,0.0298 -0.0797,0.093 -0.1144,0.1902l-0.4076 1.1671c-0.0144,0.0383 -0.0256,0.074 -0.0343,0.1066 -0.0087,0.0331 -0.014,0.0605 -0.0166,0.0827 -0.0052,0.0465 0.0073,0.0828 0.0369,0.1098 0.0302,0.0268 0.0781,0.0438 0.1442,0.0513 0.1978,0.0223 0.395,-0.0084 0.5927,-0.0926 0.1978,-0.0842 0.3665,-0.2112 0.5069,-0.3809l0.0417 0.0176 -0.5147 0.6953c-0.0132,-0.016 -0.0289,-0.0282 -0.0469,-0.0358 -0.0184,-0.0081 -0.046,-0.0143 -0.0832,-0.0185l-0.0655 -0.0074 -1.3082 -0.1479zm2.5309 -0.0835c-0.0169,0.0471 -0.0291,0.0813 -0.0348,0.1026 -0.0063,0.0213 -0.0107,0.0403 -0.0128,0.0581 -0.0056,0.0498 0.0064,0.0904 0.0363,0.1208 0.0292,0.0297 0.0767,0.0501 0.1414,0.0604l-0.0047 0.0419 -0.8328 -0.0941 0.0047 -0.0419c0.0916,-0.0073 0.1584,-0.0252 0.201,-0.0544 0.042,-0.0288 0.0807,-0.0929 0.1157,-0.1915l0.4516 -1.2577 0.0024 -0.0067c0.0269,-0.0714 0.0413,-0.1204 0.0444,-0.1476 0.0058,-0.0518 -0.006,-0.0937 -0.0362,-0.1251 -0.0298,-0.0309 -0.0777,-0.0518 -0.1435,-0.0623l0.0031 -0.0422 1.3448 0.1521c0.0662,0.0075 0.1239,0.011 0.1738,0.0101 0.0499,-0.0008 0.0997,-0.0051 0.1493,-0.013l-0.0681 0.602 -0.0465 -0.0052c-0.0384,-0.1499 -0.111,-0.2657 -0.2191,-0.3474 -0.1081,-0.0818 -0.2562,-0.1331 -0.4442,-0.1544 -0.1311,-0.0148 -0.221,-0.0124 -0.2698,0.0071 -0.0486,0.0195 -0.0898,0.0753 -0.1231,0.1686l-0.0633 0.1875 0.2389 0.027c0.1502,0.017 0.2538,0.0116 0.3101,-0.016 0.0568,-0.0281 0.1011,-0.0871 0.1328,-0.1771l0.0465 0.0053 -0.0973 0.7185 -0.0461 -0.0083c-0.0052,-0.1257 -0.0456,-0.2182 -0.1217,-0.2789 -0.0757,-0.0601 -0.2061,-0.1008 -0.3909,-0.1217 -0.0317,-0.0035 -0.0563,-0.0063 -0.0727,-0.0078 -0.0164,-0.0013 -0.033,-0.0017 -0.0491,-0.0015l-0.3201 0.8928zm1.8892 -1.0496c0.0128,-0.0355 0.0229,-0.0659 0.0297,-0.0916 0.0073,-0.0257 0.0121,-0.0487 0.0144,-0.069 0.0057,-0.0499 -0.0064,-0.0902 -0.0356,-0.1205 -0.0298,-0.0299 -0.0768,-0.0502 -0.1415,-0.0606l0.0031 -0.0422 0.834 0.0943 -0.0048 0.042c-0.0927,0.007 -0.16,0.025 -0.2021,0.0542 -0.0425,0.0287 -0.0807,0.0925 -0.1156,0.191l-0.4473 1.2586 -0.0023 0.0053c-0.0269,0.0765 -0.0421,0.1278 -0.0452,0.155 -0.0056,0.0499 0.0065,0.0904 0.0362,0.1208 0.0293,0.0298 0.0763,0.05 0.1415,0.0605l-0.0048 0.0419 -0.8328 -0.0942 0.0047 -0.0419c0.0916,-0.0073 0.1584,-0.0252 0.201,-0.0544 0.042,-0.0288 0.0807,-0.0924 0.1157,-0.1915l0.4517 -1.2577zm0.2433 1.6604l0.0047 -0.0419c0.0916,-0.0072 0.1584,-0.0251 0.201,-0.0544 0.042,-0.0288 0.0807,-0.0923 0.1158,-0.1914l0.4515 -1.2577c0.0129,-0.0355 0.023,-0.0659 0.0303,-0.0916 0.0068,-0.0258 0.0117,-0.0488 0.014,-0.069 0.0056,-0.0499 -0.0065,-0.0903 -0.0357,-0.1206 -0.0298,-0.0298 -0.0768,-0.0502 -0.1415,-0.0605l0.0031 -0.0422 0.834 0.0943 -0.0048 0.042c-0.0938,0.0068 -0.1611,0.0253 -0.2033,0.0555 -0.0416,0.0299 -0.0798,0.093 -0.1145,0.1902l-0.4076 1.1671c-0.0143,0.0384 -0.0256,0.0741 -0.0342,0.1066 -0.0087,0.0331 -0.0141,0.0605 -0.0166,0.0828 -0.0052,0.0464 0.0073,0.0828 0.0369,0.1097 0.0302,0.0269 0.078,0.0438 0.1442,0.0513 0.1978,0.0224 0.395,-0.0083 0.5927,-0.0926 0.1977,-0.0842 0.3665,-0.2112 0.5069,-0.3809l0.0417 0.0177 -0.5148 0.6952c-0.0131,-0.016 -0.0288,-0.0282 -0.0468,-0.0358 -0.0185,-0.0081 -0.0461,-0.0142 -0.0831,-0.0184l-0.0656 -0.0074 -1.3083 -0.148zm1.8235 0.2062l0.0048 -0.0419c0.0916,-0.0072 0.1584,-0.0251 0.2009,-0.0544 0.0421,-0.0288 0.0807,-0.0923 0.1158,-0.1914l0.4515 -1.2577c0.0129,-0.0355 0.023,-0.0659 0.0304,-0.0916 0.0067,-0.0258 0.0116,-0.0488 0.0139,-0.069 0.0057,-0.0499 -0.0064,-0.0903 -0.0357,-0.1206 -0.0298,-0.0298 -0.0768,-0.0502 -0.1415,-0.0605l0.0031 -0.0422 0.834 0.0943 -0.0048 0.042c-0.0937,0.0068 -0.1611,0.0253 -0.2033,0.0555 -0.0416,0.0299 -0.0797,0.093 -0.1144,0.1902l-0.4077 1.1671c-0.0143,0.0384 -0.0255,0.0741 -0.0342,0.1066 -0.0087,0.0331 -0.014,0.0605 -0.0165,0.0828 -0.0053,0.0465 0.0072,0.0828 0.0368,0.1097 0.0302,0.0269 0.0781,0.0439 0.1442,0.0513 0.1978,0.0224 0.395,-0.0083 0.5927,-0.0926 0.1978,-0.0841 0.3665,-0.2112 0.5069,-0.3809l0.0417 0.0177 -0.5147 0.6953c-0.0132,-0.0161 -0.0289,-0.0283 -0.0469,-0.0359 -0.0185,-0.0081 -0.046,-0.0142 -0.0832,-0.0184l-0.0655 -0.0074 -1.3083 -0.148z"/>
   </g>
  </g>
 </g>
</svg>
