<?xml version="1.0" encoding="UTF-8"?>
<!DOCTYPE svg PUBLIC "-//W3C//DTD SVG 1.1//EN" "http://www.w3.org/Graphics/SVG/1.1/DTD/svg11.dtd">
<!-- Creator: CorelDRAW X5 -->
<svg xmlns="http://www.w3.org/2000/svg" xml:space="preserve" width="210mm" height="297mm" style="shape-rendering:geometricPrecision; text-rendering:geometricPrecision; image-rendering:optimizeQuality; fill-rule:evenodd; clip-rule:evenodd"
viewBox="0 0 210 297"
 xmlns:xlink="http://www.w3.org/1999/xlink">
 <defs>
  <style type="text/css">
   <![CDATA[
    .str1 {stroke:white;stroke-width:0.0762}
    .str0 {stroke:white;stroke-width:2.1167;stroke-linecap:round;stroke-linejoin:round}
    .fil0 {fill:none}
    .fil5 {fill:#612B36}
    .fil3 {fill:#C44A6B}
    .fil1 {fill:white}
    .fil6 {fill:#612B36;fill-rule:nonzero}
    .fil4 {fill:#969999;fill-rule:nonzero}
    .fil2 {fill:#D1D4D6;fill-rule:nonzero}
    .fil7 {fill:white;fill-rule:nonzero}
   ]]>
  </style>
 </defs>
 <g id="Layer_x0020_1">
  <metadata id="CorelCorpID_0Corel-Layer"/>
  <rect class="fil0" x="9.2325" y="18.8222" width="191.535" height="259.356"/>
  <g id="_339286936">
   <polygon id="_245394448" class="fil1" points="17.1583,25.0989 192.842,25.0989 192.842,271.901 17.1583,271.901 "/>
   <path id="_245394376" class="fil2" d="M70.0348 271.901c38.0222,-32.0634 62.5839,-60.4993 77.5539,-84.931 -24.3236,-33.4866 -33.3733,-58.3401 -33.8189,-75.2171 -0.5607,-21.2399 12.4978,-29.855 25.8997,-27.1543 13.3953,2.6995 27.134,16.7097 27.9465,40.7224 0.5465,16.153 -4.7614,36.8359 -19.9564,61.646 11.4471,15.7553 26.2766,33.4224 45.1822,53.0696l0 0.0862c-18.9198,-19.6584 -33.7601,-37.3363 -45.2157,-53.1016 -14.9675,24.4218 -39.5139,52.8407 -77.4984,84.8798l-0.0929 0zm77.5874 -84.9852c15.1782,-24.7891 20.4807,-45.4537 19.9346,-61.5929 -0.8114,-23.9797 -14.5266,-37.9699 -27.8987,-40.6646 -13.3655,-2.6935 -26.3885,5.9027 -25.829,27.0932 0.4452,16.8643 9.4884,41.7 33.7931,75.1643z"/>
   <path id="_307494232" class="fil2" d="M67.0858 271.901c40.8532,-34.369 66.0357,-64.1849 80.4872,-89.1278 -21.8591,-28.5622 -30.4385,-50.1285 -31.3828,-65.0663 -1.2381,-19.5868 10.631,-27.7942 22.8872,-25.464 12.2471,2.3286 24.8815,15.1872 25.1929,37.7339 0.1926,13.951 -4.3398,31.6161 -16.5986,52.7898 11.2702,14.7201 26.0669,31.2984 45.1701,49.7894l0 0.1164c-19.1217,-18.5046 -33.9332,-35.0961 -45.2151,-49.8286 -14.4505,24.9311 -39.6131,54.7238 -80.4113,89.0572l-0.1296 0zm80.5321 -89.2048c12.2374,-21.1453 16.7623,-38.7859 16.5699,-52.7184 -0.3106,-22.4993 -12.9112,-35.3295 -25.1252,-37.6517 -12.2048,-2.3206 -24.0235,5.859 -22.7899,25.3756 0.9431,14.9202 9.5131,36.4621 31.3452,64.9945z"/>
   <path id="_307494160" class="fil2" d="M64.1369 271.901c43.8856,-36.8275 69.5458,-67.9457 83.2767,-93.1658 -19.3329,-23.8089 -27.3682,-42.138 -28.7615,-55.1275 -1.9205,-17.9041 8.7571,-25.6826 19.8689,-23.7119 11.0999,1.9685 22.6344,13.676 22.4532,34.746 -0.1013,11.7839 -3.8731,26.5013 -13.4343,44.0812 11.0914,13.6512 25.8984,29.1048 45.3019,46.3895l0 0.1437c-19.4258,-17.2998 -34.2507,-32.768 -45.3566,-46.4335 -13.7331,25.2086 -39.3701,56.2983 -83.1815,93.0783l-0.1668 0zm83.3314 -93.2654c9.5364,-17.545 13.2991,-32.2329 13.4002,-43.9944 0.1807,-21.0072 -11.3087,-32.6779 -22.3652,-34.6387 -11.0447,-1.9587 -21.6565,5.7816 -19.7461,23.5937 1.3911,12.9679 9.4125,31.2667 28.7111,55.0394z"/>
   <path id="_307494088" class="fil2" d="M61.188 271.901c47.1601,-39.4716 73.1204,-71.7789 85.9114,-96.9869 -16.7459,-19.2708 -24.1605,-34.4413 -25.9372,-45.4787 -2.6047,-16.1814 6.8788,-23.5033 16.8469,-21.8778 9.9529,1.623 20.3908,12.1803 19.7274,31.7591 -0.3271,9.6573 -3.3591,21.5137 -10.484,35.5769 10.9036,12.537 25.7586,26.8109 45.5893,42.8162l0 0.1685c-19.855,-16.0191 -34.7302,-30.3078 -45.6514,-42.8601 -12.798,25.1983 -38.7341,57.473 -85.7986,96.8828l-0.2038 0zm85.9736 -97.1114c7.0977,-14.0225 10.1197,-25.8456 10.4461,-35.4769 0.6606,-19.4988 -9.7202,-30.0103 -19.6189,-31.6247 -9.8837,-1.6116 -19.2852,5.6604 -16.6991,21.7261 1.7725,11.0118 9.1691,26.1467 25.8719,45.3755z"/>
   <path id="_307494016" class="fil2" d="M58.2395 271.901c50.7298,-42.3418 76.758,-75.671 88.3707,-100.509 -14.1131,-15.0112 -20.8117,-27.1351 -22.8849,-36.2285 -3.2843,-14.4059 5.0031,-21.2338 13.8267,-19.934 8.8052,1.2973 18.1479,10.7055 17.0159,28.7732 -0.4749,7.5792 -2.7979,16.687 -7.777,27.36 10.6935,11.3605 25.6389,24.3772 46.0509,38.991l0 0.1898c-20.4371,-14.6254 -35.4064,-27.6568 -46.1209,-39.033 -11.6263,24.8326 -37.63,58.1256 -88.2409,100.39l-0.2405 0zm88.4405 -100.657c4.9517,-10.6288 7.2624,-19.7001 7.7356,-27.2509 1.1257,-17.968 -8.1459,-27.3216 -16.8852,-28.6091 -8.7209,-1.2848 -16.9085,5.4792 -13.6564,19.744 2.0666,9.0649 8.7437,21.1502 22.806,36.116z"/>
   <path id="_307493944" class="fil2" d="M55.2906 271.901c54.6556,-45.4855 80.4625,-79.5963 90.6438,-103.62 -11.4615,-11.108 -17.3362,-20.3475 -19.5914,-27.5267 -3.9453,-12.5598 3.1449,-18.8429 10.822,-17.8418 7.655,0.9982 15.8995,9.2594 14.3169,25.7874 -0.5325,5.5611 -2.1814,12.0623 -5.3397,19.5386 10.4419,10.1021 25.5141,21.7533 46.6996,34.8104l0 0.2098c-21.2098,-13.0657 -36.3069,-24.73 -46.7733,-34.8485 -10.2033,24.0254 -35.9891,58.0992 -90.5003,103.49l-0.2776 0zm90.7179 -103.792c3.1326,-7.4308 4.7688,-13.894 5.2984,-19.4252 1.5711,-16.4069 -6.5872,-24.6044 -14.1639,-25.5923 -7.5545,-0.9853 -14.5252,5.2169 -10.6327,17.6086 2.2454,7.1485 8.0938,16.3477 19.4982,27.4089z"/>
   <path id="_307493872" class="fil2" d="M52.3416 271.901c59.032,-48.9762 84.2309,-83.5193 92.7145,-106.181 -8.8291,-7.6488 -13.7637,-14.2316 -16.0512,-19.5591 -4.5617,-10.6247 1.3343,-16.2937 7.8622,-15.5537 6.5003,0.737 13.6374,7.8554 11.63,22.8027 -0.4857,3.6155 -1.511,7.6935 -3.2075,12.2492 10.1176,8.7433 25.3409,18.8842 47.5522,30.1456l0 0.2277c-22.2288,-11.2644 -37.4785,-21.4156 -47.6256,-30.1741 -8.5162,22.6743 -33.703,57.1829 -92.5596,106.043l-0.315 0zm92.788 -106.38c1.6747,-4.512 2.6888,-8.5532 3.1703,-12.1382 1.9879,-14.8012 -5.0455,-21.8464 -11.4546,-22.573 -6.3816,-0.7234 -12.1346,4.8436 -7.658,15.2698 2.2738,5.296 7.1758,11.8382 15.9423,19.4414z"/>
   <path id="_307493800" class="fil2" d="M49.3926 271.901c63.9847,-52.9124 88.0481,-87.3714 94.5686,-108.004 -6.2851,-4.7373 -10.1517,-8.975 -12.2826,-12.5708 -5.0864,-8.5826 -0.372,-13.546 5.0035,-13.0148 5.3403,0.5276 11.3503,6.5127 8.9569,19.8178 -0.3171,1.7633 -0.7855,3.6584 -1.4197,5.6845 9.672,7.2629 25.0536,15.7043 48.6225,24.8148l0 0.2428c-23.5756,-9.1082 -38.9839,-17.5561 -48.6919,-24.8327 -6.5635,20.6583 -30.627,55.0891 -94.4044,107.863l-0.3529 0zm94.6383 -108.23c0.6189,-1.988 1.0778,-3.8494 1.3896,-5.5828 2.3621,-13.131 -3.5238,-19.0333 -8.7593,-19.5506 -5.2003,-0.5138 -9.7418,4.3203 -4.7928,12.6712 2.113,3.5654 5.9436,7.766 12.1625,12.4622z"/>
   <path id="_307493728" class="fil2" d="M46.4437 271.901c69.7205,-57.4564 91.887,-91.0511 96.1996,-108.849 -3.9176,-2.4699 -6.61,-4.7775 -8.3577,-6.8443 -5.4405,-6.4342 -1.8727,-10.5772 2.3515,-10.1847 4.1753,0.3878 9.0243,5.2587 6.3082,16.8302 -0.0065,0.0277 -0.0142,0.0565 -0.0209,0.0842 9.0227,5.6541 24.5134,12.1612 49.9174,18.5928l0 0.2589c-25.3909,-6.425 -40.9119,-12.9344 -49.9796,-18.5997 -4.363,17.8385 -26.546,51.4171 -96.0278,108.712l-0.3907 0zm96.2618 -109.101l0.0012 -0.0049c2.668,-11.3665 -2.0339,-16.1454 -6.0918,-16.5223 -4.009,-0.3723 -7.3574,3.6044 -2.1436,9.7704 1.726,2.0412 4.3792,4.3187 8.2342,6.7568z"/>
   <path id="_307493656" class="fil2" d="M43.4947 271.901c70.0294,-57.4999 91.995,-88.7646 96.7233,-104.416 0.4417,-1.4624 0.7321,-2.7866 0.8972,-3.9818 -1.8597,-0.9225 -3.3184,-1.8241 -4.4369,-2.6821 -5.5142,-4.2292 -3.013,-7.4263 0.0743,-7.0846 2.53,0.2801 5.5013,2.9996 4.6544,9.6078 8.0254,3.9363 23.463,8.2476 51.4348,11.1773l0 0.2759c-27.916,-2.9227 -43.3882,-7.2279 -51.4735,-11.1693 -0.169,1.1879 -0.4583,2.4971 -0.8935,3.9375 -4.7339,15.6701 -26.678,46.9302 -96.5515,104.335l-0.4286 0zm97.6575 -108.682c0.783,-6.3355 -2.0242,-8.9423 -4.4279,-9.2083 -2.8113,-0.3113 -4.9992,2.6687 0.1153,6.5913 1.0919,0.8375 2.5097,1.7169 4.3126,2.617z"/>
   <path id="_307493584" class="fil2" d="M40.5463 271.901c70.6155,-57.7556 92.3458,-86.4101 97.5191,-99.7932 1.0749,-2.7808 1.4314,-4.8898 1.3653,-6.4568 -0.2873,-0.1019 -0.5587,-0.2043 -0.8112,-0.3069 -5.2468,-2.1302 -3.5898,-4.2832 -1.5856,-3.8914 1.1515,0.2252 2.495,1.3625 2.6722,3.9798 6.3926,2.208 21.2782,4.1416 53.1357,2.1853l0 0.2998c-31.7019,1.9448 -46.6367,0.0358 -53.1198,-2.1655 0.0479,1.6019 -0.3226,3.7189 -1.3843,6.4658 -5.1789,13.3976 -26.8864,42.0423 -97.3254,99.6831l-0.466 0zm98.8643 -106.573c-0.196,-2.3528 -1.3928,-3.3782 -2.4316,-3.5813 -1.6109,-0.3148 -2.6152,1.5484 1.748,3.3201 0.2149,0.0872 0.4435,0.1745 0.6836,0.2612z"/>
   <path id="_307493512" class="fil2" d="M37.5964 271.901c72.7902,-59.2876 93.7258,-84.8064 98.9438,-95.4714 2.0511,-4.1921 1.6607,-6.017 1.071,-6.7025 0.126,0.0137 0.2617,0.0278 0.4096,0.0424 0.537,0.9199 0.7111,2.9008 -1.1988,6.8042 -5.2243,10.678 -26.137,36.1848 -98.7192,95.3273l-0.5064 0zm155.245 -110.732l0 -0.3325c-34.0707,8.4668 -47.8686,9.4582 -53.0746,9.0784 -0.5758,-0.0419 -1.0627,-0.082 -1.4742,-0.1198 0.4558,0.2185 0.9805,0.4078 1.4519,0.4422 5.2211,0.3809 19.0382,-0.6084 53.0969,-9.0683zm-55.2306 8.5582c-0.0998,-0.1159 -0.2052,-0.1994 -0.3055,-0.2562l0.0992 -0.185c-0.3534,-0.2434 -0.4261,-0.3687 0.0528,-0.0981 0.1469,0.0829 0.3048,0.214 0.4479,0.4065 -0.1967,-0.1096 -0.3684,-0.2172 -0.5007,-0.3084l-0.0992 0.185c-0.2841,-0.1604 -2.3444,-0.0322 0.3055,0.2562zm0.2944 -0.1328c0.0397,0.0534 0.0783,0.112 0.1152,0.1752 0.0863,0.0083 0.1779,0.0168 0.2722,0.0255 -0.1364,-0.0655 -0.2666,-0.1334 -0.3874,-0.2007z"/>
   <path id="_307493440" class="fil2" d="M34.6474 271.901c100.38,-81.3979 102.521,-92.5338 102.935,-94.6853 0.0551,-0.2864 0.0845,-0.4391 0.2776,-0.5806 0.1821,-0.1335 0.4981,-0.2169 1.1735,-0.3948 3.0873,-0.8137 13.9543,-3.6786 53.8085,-22.0391l0 0.3795c-39.7663,18.3149 -50.635,21.1804 -53.725,21.9949 -0.6305,0.1661 -0.9257,0.2439 -1.0592,0.3419 -0.084,0.0616 -0.1043,0.1671 -0.1423,0.3647 -0.4169,2.1693 -2.579,13.3911 -102.723,94.6188l-0.5453 0z"/>
   <path id="_307493368" class="fil2" d="M31.6988 271.901c74.0564,-59.7684 95.0353,-77.7045 102.206,-83.8349 1.8337,-1.5677 2.7635,-2.3627 3.4583,-2.8963 0.7168,-0.5506 1.1647,-0.8087 2.073,-1.3318 3.073,-1.7703 11.4516,-6.5974 53.4061,-36.0985l0 0.4493c-41.7977,29.3876 -50.1586,34.204 -53.2289,35.9726 -0.8979,0.5173 -1.3409,0.7726 -2.0333,1.3043 -0.6754,0.5188 -1.6065,1.3149 -3.4427,2.8847 -7.1532,6.1157 -28.0628,23.9926 -101.855,83.5506l-0.5834 0z"/>
   <path id="_307493296" class="fil2" d="M28.7486 271.901c89.6918,-72.0204 102.351,-76.7522 108.396,-79.0111 1.8687,-0.6984 3.0988,-1.1582 5.8201,-3.3395 5.2755,-4.2284 16.1347,-14.8999 47.897,-46.1127l1.9802 -1.9458 0 0.5467 -1.713 1.6833c-31.7702,31.2205 -42.6321,41.8946 -47.9273,46.1388 -2.7699,2.2203 -4.0227,2.6885 -5.9258,3.3998 -6.0165,2.2485 -18.6117,6.9586 -107.902,78.6405l-0.6254 0z"/>
   <path id="_307493224" class="fil2" d="M25.8001 271.901c81.9832,-65.4724 100.549,-69.1759 109.675,-70.9961 3.0674,-0.6118 5.0566,-1.0087 8.0586,-3.5118 5.5933,-4.6642 14.7157,-16.6052 40.6639,-50.5709 2.6949,-3.5274 5.5711,-7.2925 8.6438,-11.3115l0 0.6777c-2.9519,3.8613 -5.7215,7.4868 -8.3221,10.8908 -25.9695,33.9937 -35.0995,45.9446 -40.728,50.6381 -3.082,2.5699 -5.1108,2.9747 -8.2393,3.5986 -9.08,1.8109 -27.5379,5.4964 -109.088,70.5851l-0.6644 0z"/>
   <path id="_307493152" class="fil2" d="M22.8503 271.901c75.9926,-60.3325 98.574,-62.2359 110.578,-63.2473 4.5646,-0.3845 7.5835,-0.639 11.4494,-3.9835 7.3807,-6.3855 17.9039,-23.9826 47.9638,-74.8046l0 0.8547c-29.8013,50.3832 -40.281,67.8822 -47.6847,74.2873 -3.9727,3.4371 -7.0461,3.6961 -11.693,4.0875 -11.9371,1.0057 -34.3756,2.9013 -109.908,62.8059l-0.7059 0z"/>
   <path id="_307493080" class="fil2" d="M19.9003 271.901c70.7217,-55.7922 96.4,-55.7465 111.091,-55.7199 17.1699,0.0309 19.1965,0.0213 61.8509,-91.5246l0 1.083c-42.3857,90.9385 -44.4786,90.9381 -61.8509,90.9067 -14.6014,-0.0263 -40.1029,-0.0669 -110.343,55.2548l-0.7479 0z"/>
   <path id="_307493008" class="fil2" d="M17.1583 271.739c65.7555,-51.4677 93.8563,-49.4725 111.028,-48.2516 21.191,1.507 25.5942,1.8192 64.6558,-103.466l0 1.3772c-38.7732,104.406 -43.2876,104.1 -64.6876,102.578 -17.0779,-1.2142 -45.0113,-3.1948 -110.413,47.9244l-0.5832 0 0 -0.1617z"/>
   <path id="_307492936" class="fil2" d="M17.1583 269.472c59.3009,-45.197 88.7119,-41.3857 107.879,-38.8995 25.2191,3.2715 32.5631,4.2033 67.8049,-114.42l0 1.7642c-34.9555,117.409 -42.4405,116.463 -67.8678,113.164 -19.1205,-2.4804 -48.4754,-6.2878 -107.816,39.0281l0 -0.6375z"/>
   <path id="_307492864" class="fil2" d="M17.1583 267.31c53.3704,-39.1115 83.5481,-33.6575 104.4,-29.8831 29.2138,5.2881 39.9861,7.2125 71.2839,-124.078l0 2.2716c-31.0317,129.637 -41.9681,127.66 -71.3744,122.337 -20.8027,-3.7655 -50.9261,-9.212 -104.309,30.0135l0 -0.6607z"/>
   <path id="_307492792" class="fil2" d="M17.1583 265.301c47.9269,-33.2058 78.3918,-26.2964 100.604,-21.2531 33.1166,7.5189 47.7562,10.8243 75.0792,-131.989l0 2.8946c-27.0954,140.531 -41.9231,137.196 -75.1973,129.641 -22.1607,-5.0314 -52.5721,-11.9274 -100.486,21.3865l0 -0.6805z"/>
   <polygon id="_307492720" class="fil3" points="17.1583,255.081 192.842,255.081 192.842,261.309 17.1583,261.309 "/>
   <path id="_307492648" class="fil4" d="M33.704 137.463l0 -5.2695 1.9332 0c0.3933,0 0.7087,0.0539 0.9461,0.1595 0.2387,0.1067 0.4246,0.2711 0.5589,0.4932 0.1343,0.2207 0.2027,0.4528 0.2027,0.6956 0,0.2245 -0.06,0.4368 -0.1799,0.6356 -0.1188,0.1987 -0.2998,0.3594 -0.5409,0.4822 0.3117,0.0931 0.5505,0.2527 0.7183,0.4772 0.1679,0.2257 0.2519,0.492 0.2519,0.7987 0,0.2466 -0.0516,0.4761 -0.1535,0.6882 -0.102,0.2124 -0.2279,0.3754 -0.3777,0.4908 -0.15,0.1153 -0.3383,0.2013 -0.5637,0.2601 -0.2255,0.059 -0.5025,0.0884 -0.831,0.0884l-1.9644 0zm0.6824 -3.055l1.1141 0c0.301,0 0.5181,-0.0208 0.6499,-0.0614 0.1727,-0.0528 0.3035,-0.1398 0.391,-0.2624 0.0875,-0.1228 0.1319,-0.2761 0.1319,-0.4603 0,-0.1741 -0.0408,-0.3287 -0.1223,-0.4611 -0.0828,-0.1339 -0.2003,-0.2245 -0.3515,-0.2737 -0.1522,-0.049 -0.4136,-0.0737 -0.7841,-0.0737l-1.029 0 0 1.5926zm0 2.4328l1.282 0c0.2206,0 0.3753,-0.0085 0.464,-0.0243 0.1571,-0.0296 0.2878,-0.0774 0.3934,-0.1448 0.1055,-0.0663 0.1919,-0.1644 0.2602,-0.292 0.0672,-0.1289 0.102,-0.2761 0.102,-0.4442 0,-0.1963 -0.0492,-0.3668 -0.1476,-0.5129 -0.0983,-0.1447 -0.235,-0.2466 -0.41,-0.3055 -0.174,-0.0577 -0.4258,-0.0871 -0.7532,-0.0871l-1.1908 0 0 1.8108zm6.6184 -0.6072l0.6536 0.0822c-0.1032,0.3914 -0.2938,0.6944 -0.572,0.9104 -0.2794,0.2146 -0.6356,0.3226 -1.0685,0.3226 -0.5456,0 -0.9786,-0.1717 -1.2976,-0.5152 -0.3201,-0.3436 -0.4797,-0.8258 -0.4797,-1.4466 0,-0.6429 0.162,-1.1409 0.4845,-1.4956 0.3239,-0.3546 0.7423,-0.5324 1.258,-0.5324 0.4988,0 0.9066,0.1742 1.222,0.5214 0.3166,0.3473 0.4749,0.8367 0.4749,1.4662 0,0.0393 -0.0012,0.0969 -0.0036,0.173l-2.7822 0c0.0228,0.4195 0.1391,0.7409 0.3478,0.963 0.2086,0.2234 0.4676,0.3349 0.7795,0.3349 0.2314,0 0.4293,-0.0625 0.5935,-0.1876 0.1643,-0.1239 0.2939,-0.3226 0.3898,-0.5963zm-2.0758 -1.0464l2.083 0c-0.0275,-0.3203 -0.1079,-0.562 -0.2387,-0.7215 -0.2014,-0.249 -0.4628,-0.3743 -0.7831,-0.3743 -0.2902,0 -0.5348,0.0995 -0.7327,0.2981 -0.1978,0.1988 -0.3069,0.465 -0.3285,0.7977zm4.9048 1.6966l0.0911 0.5718c-0.1775,0.038 -0.337,0.0576 -0.4773,0.0576 -0.2303,0 -0.4078,-0.0368 -0.5349,-0.1115 -0.1259,-0.0737 -0.2146,-0.1719 -0.2662,-0.2932 -0.0516,-0.1204 -0.0779,-0.3755 -0.0779,-0.7632l0 -2.1962 -0.4641 0 0 -0.503 0.4641 0 0 -0.946 0.6295 -0.3876 0 1.3336 0.6357 0 0 0.503 -0.6357 0 0 2.2317c0,0.1853 0.0109,0.3032 0.0325,0.3558 0.0227,0.0528 0.0587,0.0945 0.109,0.1264 0.0504,0.0307 0.1224,0.0466 0.2159,0.0466 0.0708,0 0.1631,-0.0086 0.2783,-0.0258zm1.999 0l0.0912 0.5718c-0.1775,0.038 -0.337,0.0576 -0.4773,0.0576 -0.2302,0 -0.4077,-0.0368 -0.5349,-0.1115 -0.1259,-0.0737 -0.2146,-0.1719 -0.2662,-0.2932 -0.0515,-0.1204 -0.0779,-0.3755 -0.0779,-0.7632l0 -2.1962 -0.4641 0 0 -0.503 0.4641 0 0 -0.946 0.6296 -0.3876 0 1.3336 0.6355 0 0 0.503 -0.6355 0 0 2.2317c0,0.1853 0.0108,0.3032 0.0323,0.3558 0.0228,0.0528 0.0589,0.0945 0.1091,0.1264 0.0504,0.0307 0.1224,0.0466 0.216,0.0466 0.0707,0 0.163,-0.0086 0.2781,-0.0258zm3.172 -0.6502l0.6536 0.0822c-0.1032,0.3914 -0.2938,0.6944 -0.572,0.9104 -0.2795,0.2146 -0.6356,0.3226 -1.0686,0.3226 -0.5455,0 -0.9785,-0.1717 -1.2976,-0.5152 -0.32,-0.3436 -0.4796,-0.8258 -0.4796,-1.4466 0,-0.6429 0.162,-1.1409 0.4845,-1.4956 0.3239,-0.3546 0.7423,-0.5324 1.258,-0.5324 0.4988,0 0.9066,0.1742 1.222,0.5214 0.3166,0.3473 0.4748,0.8367 0.4748,1.4662 0,0.0393 -0.0011,0.0969 -0.0035,0.173l-2.7822 0c0.0227,0.4195 0.1391,0.7409 0.3478,0.963 0.2086,0.2234 0.4676,0.3349 0.7794,0.3349 0.2315,0 0.4294,-0.0625 0.5936,-0.1876 0.1643,-0.1239 0.2938,-0.3226 0.3898,-0.5963zm-2.0758 -1.0464l2.083 0c-0.0275,-0.3203 -0.1079,-0.562 -0.2387,-0.7215 -0.2015,-0.249 -0.4628,-0.3743 -0.7831,-0.3743 -0.2902,0 -0.5348,0.0995 -0.7327,0.2981 -0.1978,0.1988 -0.3069,0.465 -0.3285,0.7977zm3.5172 2.2758l0 -3.8169 0.5685 0 0 0.5779c0.1451,-0.27 0.2793,-0.4491 0.4029,-0.5349 0.1223,-0.0859 0.2578,-0.1301 0.4053,-0.1301 0.2135,0 0.4293,0.07 0.65,0.2086l-0.2183 0.6011c-0.1535,-0.0945 -0.3082,-0.1411 -0.4629,-0.1411 -0.1391,0 -0.2626,0.043 -0.3729,0.1277 -0.1104,0.0858 -0.1883,0.2036 -0.235,0.3545 -0.0708,0.2295 -0.1055,0.481 -0.1055,0.7546l0 1.9986 -0.6321 0zm5.6099 0l0 -4.3776 -1.5277 0 0 -0.8919 4.0929 0 0 0.8919 -1.5242 0 0 4.3776 -1.041 0zm4.8556 -1.2147l0.9845 0.1681c-0.1271,0.3693 -0.3261,0.6502 -0.5996,0.8429 -0.2722,0.1938 -0.6139,0.2895 -1.0241,0.2895 -0.6488,0 -1.1284,-0.2159 -1.4402,-0.6503 -0.2458,-0.3471 -0.3694,-0.7863 -0.3694,-1.3151 0,-0.6331 0.1619,-1.1287 0.4858,-1.4869 0.3225,-0.3583 0.7314,-0.5375 1.2255,-0.5375 0.5553,0 0.9929,0.1878 1.3143,0.5631 0.3202,0.3755 0.4737,0.9497 0.4605,1.7239l-2.4739 0c0.0072,0.2992 0.0863,0.5323 0.2386,0.6981 0.1522,0.1667 0.343,0.2502 0.5696,0.2502 0.1547,0 0.2842,-0.043 0.3897,-0.1288 0.1056,-0.0872 0.186,-0.2258 0.2387,-0.4172zm0.0564 -1.0208c-0.0072,-0.2932 -0.0803,-0.5153 -0.2206,-0.6675 -0.1404,-0.152 -0.3118,-0.2281 -0.5133,-0.2281 -0.2158,0 -0.3934,0.081 -0.5337,0.2417 -0.1403,0.1594 -0.2099,0.378 -0.2075,0.6539l1.4751 0zm5.039 -0.4526l-0.9737 0.1791c-0.0324,-0.1988 -0.1068,-0.3485 -0.2231,-0.4491 -0.1163,-0.1006 -0.2662,-0.1509 -0.4509,-0.1509 -0.247,0 -0.4425,0.0871 -0.5888,0.2601 -0.1463,0.1743 -0.2195,0.465 -0.2195,0.8723 0,0.4528 0.0744,0.7731 0.2231,0.9594 0.1487,0.1865 0.3478,0.2797 0.5984,0.2797 0.1883,0 0.3406,-0.0538 0.4606,-0.1631 0.1198,-0.1092 0.2038,-0.2969 0.2529,-0.5619l0.9702 0.1682c-0.1007,0.455 -0.295,0.7999 -0.5804,1.0318 -0.2854,0.2331 -0.6679,0.3483 -1.1489,0.3483 -0.5455,0 -0.9809,-0.1753 -1.3047,-0.5275 -0.325,-0.3521 -0.4868,-0.8404 -0.4868,-1.4636 0,-0.6295 0.163,-1.1202 0.488,-1.4712 0.3262,-0.3521 0.7662,-0.5275 1.3215,-0.5275 0.4545,0 0.8155,0.1007 1.0841,0.3006 0.2675,0.2 0.4605,0.5055 0.578,0.9153zm1.7316 -2.5814l0 1.9373c0.319,-0.3804 0.6992,-0.5718 1.1417,-0.5718 0.2279,0 0.4318,0.0442 0.6152,0.1301 0.1823,0.0858 0.3202,0.1963 0.4126,0.33 0.0923,0.135 0.1558,0.2833 0.1894,0.4466 0.0348,0.162 0.0516,0.4159 0.0516,0.7581l0 2.2392 -0.9869 0 0 -2.0172c0,-0.3998 -0.0193,-0.6537 -0.0564,-0.7618 -0.0384,-0.1079 -0.1043,-0.1925 -0.1991,-0.2563 -0.0948,-0.0639 -0.2135,-0.0958 -0.3561,-0.0958 -0.1643,0 -0.3107,0.0405 -0.439,0.1228 -0.1295,0.0809 -0.2242,0.2036 -0.283,0.3679 -0.0599,0.1644 -0.09,0.4074 -0.09,0.7276l0 1.9128 -0.9869 0 0 -5.2695 0.9869 0zm6.8056 5.2695l-0.987 0 0 -1.9483c0,-0.4123 -0.0215,-0.6785 -0.0635,-0.8 -0.042,-0.1203 -0.1116,-0.2147 -0.2064,-0.2822 -0.0947,-0.0662 -0.2085,-0.1006 -0.3416,-0.1006 -0.1716,0 -0.3251,0.0479 -0.4606,0.1436 -0.1355,0.0969 -0.2291,0.2232 -0.2794,0.3815 -0.0504,0.1583 -0.0756,0.4503 -0.0756,0.8772l0 1.7288 -0.9869 0 0 -3.8169 0.9162 0 0 0.5607c0.3262,-0.4319 0.7363,-0.6478 1.2304,-0.6478 0.217,0 0.4173,0.0405 0.5971,0.1202 0.1799,0.0811 0.3167,0.1829 0.409,0.308 0.0923,0.1251 0.1571,0.2661 0.1931,0.4245 0.0372,0.1583 0.0552,0.384 0.0552,0.6785l0 2.3728zm0.7722 -1.963c0,-0.3349 0.0816,-0.6601 0.2422,-0.9741 0.162,-0.313 0.391,-0.5534 0.6872,-0.7178 0.2962,-0.1657 0.6271,-0.2491 0.993,-0.2491 0.5636,0 1.0265,0.1878 1.3874,0.5631 0.361,0.3755 0.5408,0.849 0.5408,1.422 0,0.5767 -0.1822,1.0552 -0.5456,1.4354 -0.3646,0.3804 -0.8226,0.5693 -1.3754,0.5693 -0.343,0 -0.668,-0.0785 -0.9785,-0.2368 -0.3108,-0.1582 -0.5469,-0.3901 -0.7089,-0.6956 -0.1606,-0.3054 -0.2422,-0.6772 -0.2422,-1.1164zm1.0121 0.054c0,0.379 0.0876,0.6686 0.2639,0.8699 0.175,0.2012 0.3921,0.3016 0.65,0.3016 0.2577,0 0.4737,-0.1004 0.6475,-0.3016 0.1751,-0.2013 0.2626,-0.4933 0.2626,-0.8773 0,-0.373 -0.0875,-0.6614 -0.2626,-0.8626 -0.1738,-0.2011 -0.3898,-0.3017 -0.6475,-0.3017 -0.2579,0 -0.475,0.1006 -0.65,0.3017 -0.1763,0.2012 -0.2639,0.492 -0.2639,0.87zm3.612 1.909l0 -5.2695 0.9869 0 0 5.2695 -0.9869 0zm1.7701 -1.963c0,-0.3349 0.0815,-0.6601 0.2422,-0.9741 0.1619,-0.313 0.391,-0.5534 0.6873,-0.7178 0.296,-0.1657 0.627,-0.2491 0.9929,-0.2491 0.5636,0 1.0265,0.1878 1.3874,0.5631 0.361,0.3755 0.5409,0.849 0.5409,1.422 0,0.5767 -0.1823,1.0552 -0.5457,1.4354 -0.3646,0.3804 -0.8226,0.5693 -1.3755,0.5693 -0.343,0 -0.6679,-0.0785 -0.9785,-0.2368 -0.3106,-0.1582 -0.5469,-0.3901 -0.7088,-0.6956 -0.1607,-0.3054 -0.2422,-0.6772 -0.2422,-1.1164zm1.0121 0.054c0,0.379 0.0876,0.6686 0.2639,0.8699 0.175,0.2012 0.3921,0.3016 0.6499,0.3016 0.2578,0 0.4737,-0.1004 0.6476,-0.3016 0.1751,-0.2013 0.2626,-0.4933 0.2626,-0.8773 0,-0.373 -0.0875,-0.6614 -0.2626,-0.8626 -0.1739,-0.2011 -0.3898,-0.3017 -0.6476,-0.3017 -0.2578,0 -0.4749,0.1006 -0.6499,0.3017 -0.1763,0.2012 -0.2639,0.492 -0.2639,0.87zm3.5209 2.1606l1.1272 0.1397c0.0192,0.1349 0.0624,0.227 0.1296,0.2773 0.0934,0.0723 0.2422,0.108 0.4425,0.108 0.2578,0 0.4508,-0.0394 0.5804,-0.1191 0.0864,-0.0528 0.1523,-0.1374 0.1967,-0.2552 0.0299,-0.0834 0.0455,-0.2379 0.0455,-0.4636l0 -0.557c-0.295,0.4121 -0.6679,0.6183 -1.1176,0.6183 -0.5013,0 -0.8983,-0.2173 -1.1909,-0.6504 -0.2289,-0.3434 -0.3441,-0.7692 -0.3441,-1.2796 0,-0.6405 0.151,-1.1287 0.4521,-1.4673 0.301,-0.3374 0.6751,-0.5067 1.1224,-0.5067 0.4605,0 0.8419,0.2073 1.1417,0.622l0 -0.5349 0.9234 0 0 3.4254c0,0.4503 -0.036,0.7866 -0.1092,1.0098 -0.0719,0.2233 -0.1739,0.3974 -0.3045,0.5251 -0.132,0.1264 -0.3071,0.2258 -0.5253,0.2982 -0.2195,0.0711 -0.4965,0.1079 -0.8311,0.1079 -0.6332,0 -1.0817,-0.1116 -1.3455,-0.3325 -0.265,-0.2221 -0.3969,-0.503 -0.3969,-0.8429 0,-0.0343 0.0012,-0.0748 0.0036,-0.1225zm0.8814 -2.2392c0,0.4049 0.0768,0.7017 0.2302,0.8895 0.1535,0.1876 0.3419,0.2822 0.5673,0.2822 0.2411,0 0.445,-0.0969 0.6115,-0.2895 0.1656,-0.1927 0.2495,-0.4786 0.2495,-0.8576 0,-0.3952 -0.0803,-0.6883 -0.2398,-0.8798 -0.1583,-0.1925 -0.3598,-0.2883 -0.6033,-0.2883 -0.2374,0 -0.4317,0.0944 -0.5852,0.2822 -0.1534,0.1889 -0.2302,0.4749 -0.2302,0.8613zm3.1371 -1.8293l1.0505 0 0.8922 2.7102 0.8718 -2.7102 1.0218 0 -1.3167 3.6733 -0.2364 0.665c-0.0863,0.222 -0.1689,0.3925 -0.247,0.5103 -0.0791,0.1178 -0.169,0.2124 -0.271,0.2859 -0.1019,0.0724 -0.2266,0.1301 -0.3754,0.1705 -0.1486,0.0405 -0.3166,0.0614 -0.5048,0.0614 -0.1895,0 -0.3753,-0.0209 -0.5588,-0.0614l-0.0876 -0.7913c0.1547,0.0319 0.2939,0.0466 0.4185,0.0466 0.2292,0 0.3994,-0.0687 0.5097,-0.206 0.1092,-0.1376 0.1943,-0.3128 0.2531,-0.5265l-1.4199 -3.8278z"/>
   <path id="_307492576" class="fil4" d="M54.067 145.872l0 -5.2695 1.0265 0 1.2185 3.731c0.1127,0.3471 0.1954,0.6073 0.2458,0.7802 0.0587,-0.1913 0.1499,-0.4735 0.2746,-0.8453l1.2328 -3.6659 0.9173 0 0 5.2695 -0.6571 0 0 -4.4107 -1.4966 4.4107 -0.6152 0 -1.4894 -4.4854 0 4.4854 -0.6572 0zm8.3693 -0.4711c-0.2351,0.2036 -0.4606,0.3472 -0.6764,0.4318 -0.2171,0.0834 -0.4497,0.1252 -0.6979,0.1252 -0.4102,0 -0.7244,-0.1019 -0.945,-0.3067 -0.2194,-0.205 -0.3298,-0.4675 -0.3298,-0.7853 0,-0.1876 0.0407,-0.3582 0.1247,-0.5128 0.0827,-0.1546 0.1919,-0.2786 0.3262,-0.3718 0.1355,-0.0931 0.2867,-0.1644 0.4557,-0.2121 0.1234,-0.0332 0.3106,-0.0663 0.5612,-0.097 0.5109,-0.0626 0.8874,-0.1361 1.1285,-0.2233 0.0024,-0.0884 0.0036,-0.1447 0.0036,-0.1681 0,-0.2637 -0.0599,-0.4501 -0.1799,-0.557 -0.1607,-0.1472 -0.4017,-0.2196 -0.7196,-0.2196 -0.2973,0 -0.5168,0.0528 -0.6595,0.1596 -0.1415,0.1067 -0.2459,0.2955 -0.3142,0.5667l-0.6176 -0.0871c0.0564,-0.27 0.1487,-0.4895 0.277,-0.6552 0.1284,-0.1668 0.3154,-0.2955 0.5589,-0.3851 0.2434,-0.0896 0.5253,-0.135 0.8466,-0.135 0.319,0 0.5768,0.0392 0.7759,0.1153 0.1991,0.0773 0.3454,0.173 0.4401,0.2895 0.0936,0.1167 0.1583,0.2626 0.1966,0.4405 0.0205,0.1105 0.0313,0.3092 0.0313,0.5962l0 0.8626c0,0.6023 0.0132,0.9826 0.0408,1.1409 0.0263,0.1595 0.0803,0.3128 0.1594,0.4589l-0.6607 0c-0.0648,-0.1337 -0.1079,-0.2908 -0.1259,-0.4711zm-0.0528 -1.4453c-0.2303,0.097 -0.5744,0.1779 -1.0325,0.2454 -0.2603,0.038 -0.445,0.0809 -0.5517,0.1288 -0.1079,0.0479 -0.1919,0.1179 -0.2494,0.2111 -0.0588,0.092 -0.0888,0.1937 -0.0888,0.3066 0,0.173 0.0648,0.3167 0.1919,0.432 0.1271,0.114 0.3143,0.1716 0.56,0.1716 0.2435,0 0.4605,-0.0539 0.65,-0.163 0.1895,-0.1092 0.3298,-0.259 0.4186,-0.4479 0.0683,-0.146 0.1019,-0.362 0.1019,-0.6466l0 -0.238zm1.6224 1.9164l0 -5.2695 0.6333 0 0 3.0047 1.4966 -1.5521 0.8179 0 -1.4259 1.4158 1.571 2.4011 -0.7807 0 -1.2329 -1.9519 -0.446 0.4391 0 1.5128 -0.6333 0zm6.1484 -1.2294l0.6536 0.0823c-0.1032,0.3913 -0.2938,0.6943 -0.572,0.9104 -0.2795,0.2146 -0.6357,0.3226 -1.0685,0.3226 -0.5457,0 -0.9786,-0.1718 -1.2976,-0.5154 -0.3202,-0.3434 -0.4797,-0.8257 -0.4797,-1.4464 0,-0.6428 0.1619,-1.1411 0.4845,-1.4956 0.3238,-0.3546 0.7423,-0.5324 1.258,-0.5324 0.4988,0 0.9066,0.1741 1.222,0.5215 0.3165,0.3472 0.4749,0.8366 0.4749,1.466 0,0.0393 -0.0013,0.097 -0.0037,0.173l-2.7821 0c0.0228,0.4196 0.1391,0.7411 0.3478,0.9631 0.2086,0.2233 0.4676,0.335 0.7795,0.335 0.2314,0 0.4292,-0.0626 0.5935,-0.1877 0.1643,-0.124 0.2939,-0.3227 0.3898,-0.5964zm-2.0758 -1.0464l2.083 0c-0.0276,-0.3203 -0.1079,-0.562 -0.2387,-0.7214 -0.2014,-0.2491 -0.4628,-0.3743 -0.7831,-0.3743 -0.2902,0 -0.5348,0.0994 -0.7327,0.298 -0.1978,0.1988 -0.3069,0.465 -0.3285,0.7977zm3.2714 1.136l0.6248 -0.1006c0.0347,0.2564 0.1331,0.4527 0.2938,0.5902 0.1595,0.1361 0.3837,0.2049 0.6728,0.2049 0.2901,0 0.506,-0.0614 0.6463,-0.1816 0.1403,-0.1215 0.2111,-0.2639 0.2111,-0.4258 0,-0.1472 -0.0623,-0.2612 -0.1872,-0.3459 -0.0863,-0.0576 -0.3021,-0.1301 -0.6463,-0.2184 -0.4629,-0.1203 -0.7854,-0.2233 -0.9641,-0.3116 -0.1787,-0.0871 -0.3154,-0.2086 -0.4078,-0.3632 -0.0923,-0.1545 -0.1391,-0.3251 -0.1391,-0.5116 0,-0.1705 0.0384,-0.3277 0.1152,-0.4724 0.0755,-0.1459 0.1798,-0.2662 0.3105,-0.362 0.0984,-0.0735 0.2327,-0.1372 0.4018,-0.1889 0.1702,-0.0514 0.3525,-0.0772 0.5469,-0.0772 0.2925,0 0.5492,0.0441 0.771,0.13 0.2219,0.0859 0.385,0.2024 0.4905,0.3496 0.1055,0.1485 0.1774,0.3448 0.217,0.5915l-0.6176 0.087c-0.0288,-0.1962 -0.1102,-0.3497 -0.2446,-0.46 -0.1343,-0.1104 -0.325,-0.1657 -0.5708,-0.1657 -0.2902,0 -0.4976,0.0491 -0.6212,0.1472 -0.1248,0.0981 -0.1871,0.2135 -0.1871,0.3449 0,0.0845 0.0265,0.1594 0.0779,0.2268 0.0516,0.0701 0.1319,0.1265 0.2423,0.173 0.0636,0.0234 0.2495,0.0785 0.5588,0.1645 0.4473,0.1227 0.7591,0.222 0.9354,0.3005 0.1774,0.0774 0.3166,0.1915 0.4174,0.34 0.1007,0.1484 0.1511,0.3324 0.1511,0.5533 0,0.2158 -0.0624,0.4184 -0.1848,0.6097 -0.1234,0.1902 -0.3009,0.3374 -0.5324,0.4418 -0.2315,0.1042 -0.4941,0.1557 -0.7867,0.1557 -0.4857,0 -0.855,-0.103 -1.1092,-0.3092 -0.2543,-0.2062 -0.4162,-0.5116 -0.4857,-0.9165zm5.9013 1.1398l0 -5.2695 0.6823 0 0 4.6474 2.5364 0 0 0.6221 -3.2187 0zm3.9526 -4.5247l0 -0.7448 0.6331 0 0 0.7448 -0.6331 0zm0 4.5247l0 -3.8169 0.6331 0 0 3.8169 -0.6331 0zm1.746 0l0 -3.3139 -0.5576 0 0 -0.503 0.5576 0 0 -0.4061c0,-0.2563 0.0227,-0.4477 0.0672,-0.5717 0.0612,-0.1681 0.1679,-0.3042 0.3214,-0.4085 0.1534,-0.1043 0.3681,-0.1558 0.6451,-0.1558 0.1775,0 0.3741,0.0208 0.5901,0.0649l-0.0947 0.5645c-0.1308,-0.0246 -0.2555,-0.0369 -0.373,-0.0369 -0.1919,0 -0.3274,0.0418 -0.4066,0.1265 -0.0804,0.0834 -0.1199,0.2403 -0.1199,0.471l0 0.3521 0.7268 0 0 0.503 -0.7268 0 0 3.3139 -0.6296 0zm4.4023 -1.2294l0.6536 0.0823c-0.1031,0.3913 -0.2937,0.6943 -0.572,0.9104 -0.2794,0.2146 -0.6356,0.3226 -1.0685,0.3226 -0.5456,0 -0.9785,-0.1718 -1.2976,-0.5154 -0.3201,-0.3434 -0.4796,-0.8257 -0.4796,-1.4464 0,-0.6428 0.1619,-1.1411 0.4845,-1.4956 0.3238,-0.3546 0.7423,-0.5324 1.258,-0.5324 0.4988,0 0.9065,0.1741 1.2219,0.5215 0.3166,0.3472 0.475,0.8366 0.475,1.466 0,0.0393 -0.0013,0.097 -0.0037,0.173l-2.7821 0c0.0228,0.4196 0.1391,0.7411 0.3477,0.9631 0.2087,0.2233 0.4677,0.335 0.7795,0.335 0.2315,0 0.4293,-0.0626 0.5936,-0.1877 0.1643,-0.124 0.2938,-0.3227 0.3897,-0.5964zm-2.0758 -1.0464l2.083 0c-0.0275,-0.3203 -0.1079,-0.562 -0.2386,-0.7214 -0.2015,-0.2491 -0.4629,-0.3743 -0.7831,-0.3743 -0.2902,0 -0.5349,0.0994 -0.7327,0.298 -0.1979,0.1988 -0.307,0.465 -0.3286,0.7977zm5.6183 2.2758l0 -5.2695 3.7236 0 0 0.622 -3.0424 0 0 1.6134 2.8493 0 0 0.6183 -2.8493 0 0 1.7937 3.1623 0 0 0.6221 -3.8435 0zm7.139 -0.4711c-0.2351,0.2036 -0.4606,0.3472 -0.6764,0.4318 -0.217,0.0834 -0.4497,0.1252 -0.698,0.1252 -0.41,0 -0.7243,-0.1019 -0.9449,-0.3067 -0.2195,-0.205 -0.3299,-0.4675 -0.3299,-0.7853 0,-0.1876 0.0409,-0.3582 0.1248,-0.5128 0.0827,-0.1546 0.1919,-0.2786 0.3262,-0.3718 0.1355,-0.0931 0.2866,-0.1644 0.4557,-0.2121 0.1235,-0.0332 0.3106,-0.0663 0.5613,-0.097 0.5108,-0.0626 0.8874,-0.1361 1.1284,-0.2233 0.0024,-0.0884 0.0036,-0.1447 0.0036,-0.1681 0,-0.2637 -0.06,-0.4501 -0.1799,-0.557 -0.1607,-0.1472 -0.4017,-0.2196 -0.7196,-0.2196 -0.2974,0 -0.5168,0.0528 -0.6595,0.1596 -0.1415,0.1067 -0.2459,0.2955 -0.3142,0.5667l-0.6176 -0.0871c0.0564,-0.27 0.1488,-0.4895 0.277,-0.6552 0.1283,-0.1668 0.3154,-0.2955 0.5589,-0.3851 0.2434,-0.0896 0.5252,-0.135 0.8466,-0.135 0.319,0 0.5768,0.0392 0.7759,0.1153 0.199,0.0773 0.3454,0.173 0.4401,0.2895 0.0935,0.1167 0.1583,0.2626 0.1967,0.4405 0.0204,0.1105 0.0312,0.3092 0.0312,0.5962l0 0.8626c0,0.6023 0.0132,0.9826 0.0407,1.1409 0.0264,0.1595 0.0804,0.3128 0.1595,0.4589l-0.6607 0c-0.0648,-0.1337 -0.1079,-0.2908 -0.1259,-0.4711zm-0.0528 -1.4453c-0.2303,0.097 -0.5744,0.1779 -1.0326,0.2454 -0.2602,0.038 -0.4449,0.0809 -0.5516,0.1288 -0.1079,0.0479 -0.1919,0.1179 -0.2494,0.2111 -0.0588,0.092 -0.0888,0.1937 -0.0888,0.3066 0,0.173 0.0648,0.3167 0.1919,0.432 0.1271,0.114 0.3142,0.1716 0.56,0.1716 0.2435,0 0.4605,-0.0539 0.6499,-0.163 0.1896,-0.1092 0.3298,-0.259 0.4186,-0.4479 0.0684,-0.146 0.102,-0.362 0.102,-0.6466l0 -0.238zm1.3671 0.7766l0.6248 -0.1006c0.0347,0.2564 0.1331,0.4527 0.2937,0.5902 0.1595,0.1361 0.3838,0.2049 0.6727,0.2049 0.2903,0 0.5061,-0.0614 0.6464,-0.1816 0.1404,-0.1215 0.2112,-0.2639 0.2112,-0.4258 0,-0.1472 -0.0624,-0.2612 -0.1872,-0.3459 -0.0863,-0.0576 -0.3022,-0.1301 -0.6463,-0.2184 -0.4629,-0.1203 -0.7855,-0.2233 -0.9642,-0.3116 -0.1787,-0.0871 -0.3154,-0.2086 -0.4077,-0.3632 -0.0923,-0.1545 -0.1392,-0.3251 -0.1392,-0.5116 0,-0.1705 0.0384,-0.3277 0.1152,-0.4724 0.0755,-0.1459 0.1799,-0.2662 0.3106,-0.362 0.0983,-0.0735 0.2326,-0.1372 0.4017,-0.1889 0.1703,-0.0514 0.3526,-0.0772 0.5469,-0.0772 0.2926,0 0.5493,0.0441 0.7711,0.13 0.2218,0.0859 0.3849,0.2024 0.4905,0.3496 0.1055,0.1485 0.1774,0.3448 0.217,0.5915l-0.6176 0.087c-0.0288,-0.1962 -0.1103,-0.3497 -0.2446,-0.46 -0.1343,-0.1104 -0.3251,-0.1657 -0.5709,-0.1657 -0.2902,0 -0.4976,0.0491 -0.6211,0.1472 -0.1248,0.0981 -0.1872,0.2135 -0.1872,0.3449 0,0.0845 0.0264,0.1594 0.078,0.2268 0.0516,0.0701 0.1319,0.1265 0.2423,0.173 0.0635,0.0234 0.2494,0.0785 0.5588,0.1645 0.4473,0.1227 0.7591,0.222 0.9354,0.3005 0.1774,0.0774 0.3165,0.1915 0.4173,0.34 0.1008,0.1484 0.1511,0.3324 0.1511,0.5533 0,0.2158 -0.0624,0.4184 -0.1847,0.6097 -0.1235,0.1902 -0.301,0.3374 -0.5324,0.4418 -0.2315,0.1042 -0.4941,0.1557 -0.7867,0.1557 -0.4857,0 -0.8551,-0.103 -1.1092,-0.3092 -0.2543,-0.2062 -0.4163,-0.5116 -0.4857,-0.9165zm3.8218 2.6097l-0.0708 -0.6073c0.1391,0.038 0.2591,0.0576 0.3622,0.0576 0.1403,0 0.253,-0.0246 0.3369,-0.0724 0.0852,-0.0478 0.1536,-0.1141 0.2076,-0.2012 0.0407,-0.0638 0.1042,-0.2246 0.193,-0.481 0.012,-0.0368 0.0312,-0.0883 0.0563,-0.1583l-1.415 -3.8242 0.6811 0 0.7772 2.2096c0.0994,0.2811 0.1906,0.5755 0.2697,0.8847 0.0732,-0.2969 0.1595,-0.5864 0.2603,-0.8699l0.7975 -2.2244 0.632 0 -1.4187 3.8819c-0.1523,0.4197 -0.2711,0.708 -0.355,0.8662 -0.1127,0.2135 -0.2411,0.3693 -0.3861,0.4687 -0.1463,0.0993 -0.319,0.1497 -0.5205,0.1497 -0.1223,0 -0.2578,-0.0271 -0.4077,-0.0797zm5.8041 -1.4699l0 -0.7373 0.7207 0 0 0.7373 -0.7207 0zm1.9991 0l0 -0.7373 0.7208 0 0 0.7373 -0.7208 0zm1.9991 0l0 -0.7373 0.7208 0 0 0.7373 -0.7208 0z"/>
   <polygon id="_307492504" class="fil1 str0" points="167.939,243.341 168.244,243.48 158.996,266.716 157.959,266.18 "/>
   <polygon id="_307492432" class="fil5" points="167.939,243.341 168.244,243.48 158.996,266.716 157.959,266.18 "/>
   <polygon id="_307492360" class="fil1 str1" points="166.536,234.776 169.64,236.072 171.711,232.792 171.69,236.346 175.272,236.146 172.146,238.418 173.505,241.442 170.468,240.156 168.434,243.194 168.455,239.792 164.803,240.053 167.985,237.814 "/>
   <polygon id="_307492288" class="fil5" points="168.727,237.731 167.881,235.985 169.76,236.757 171.032,234.773 170.951,236.944 173.144,236.834 171.221,238.1 172.072,239.96 170.258,239.198 168.919,241.183 169.046,239.008 166.965,239.136 "/>
   <polygon id="_339287392" class="fil3" points="166.292,229.746 167.047,230.05 167.369,229.313 167.506,230.107 168.358,230.07 167.658,230.61 168.173,231.401 167.332,231.069 166.976,231.832 166.896,230.954 166.009,231.031 166.692,230.505 "/>
   <polygon id="_339287320" class="fil3" points="175.34,226.422 176.292,226.81 176.967,225.789 176.88,226.89 178.015,226.795 177.014,227.48 177.517,228.493 176.519,228.04 175.855,229.063 175.927,227.913 174.762,228.06 175.747,227.339 "/>
   <polygon id="_339287248" class="fil5" points="173.316,232.277 174.056,232.537 174.399,231.828 174.471,232.629 175.269,232.566 174.64,233.087 175.062,233.772 174.317,233.485 174.016,234.21 173.942,233.417 173.126,233.487 173.731,232.953 "/>
   <polygon id="_339287176" class="fil5" points="162.794,237.058 162.47,236.533 163.088,236.752 163.338,236.111 163.477,236.849 164.165,236.763 163.575,237.217 163.992,237.841 163.314,237.54 163.042,238.25 162.978,237.487 162.207,237.573 "/>
   <polygon id="_339287104" class="fil3" points="175.486,238.626 176.123,238.9 176.402,238.166 176.52,238.911 177.282,238.887 176.644,239.35 177.075,240 176.396,239.74 176.081,240.448 176.035,239.684 175.253,239.714 175.874,239.229 "/>
   <path id="_339286960" class="fil6" d="M135.805 250.867c0.4315,-0.7668 2.316,-3.7403 2.4977,-3.9494 0.1816,-0.1973 0.4542,-0.2671 0.613,-0.2671l0.2499 0c0.0681,0 0.0907,-0.0464 0.0907,-0.1161l0 -0.2671c0,-0.0582 -0.0226,-0.0813 -0.0907,-0.0813 -0.1136,0 -0.3634,0.0349 -1.0899,0.0349 -0.7947,0 -1.2716,-0.0349 -1.3851,-0.0349 -0.0454,0 -0.0682,0.0231 -0.0682,0.0813l0 0.2904c0,0.0579 0.0228,0.0928 0.0909,0.0928l0.2951 0c0.3406,0 0.4087,0.2091 0.3861,0.4182 -0.0227,0.2904 -1.4873,2.7063 -1.8733,3.3568 -0.3065,-0.6505 -1.6689,-3.2291 -1.6916,-3.4381 -0.0227,-0.2439 0.0681,-0.3369 0.3178,-0.3369l0.2953 0c0.068,0 0.0908,-0.0464 0.0908,-0.1161l0 -0.2671c0,-0.0582 -0.0228,-0.0813 -0.0908,-0.0813 -0.1135,0 -0.5222,0.0349 -1.6803,0.0349 -0.8629,0 -1.4078,-0.0349 -1.4986,-0.0349 -0.0681,0 -0.0909,0.0231 -0.0909,0.0696l0 0.3136c0,0.058 0.0228,0.0813 0.0909,0.0813l0.2043 0c0.1817,0 0.4314,0.093 0.5676,0.2555 0.3179,0.4067 2.1572,3.7518 2.3388,4.1002l0 0.5576c0,1.0918 -0.0228,1.9979 -0.0341,2.1604 -0.0112,0.1741 -0.102,0.2904 -0.3973,0.2904l-0.4655 0c-0.0567,0 -0.0794,0.0466 -0.0794,0.0929l0 0.2671c0,0.0581 0.0227,0.1065 0.0794,0.1065 0.1021,0 0.4655,-0.0349 1.5781,-0.0349 1.0217,0 1.4758,0.0349 1.6008,0.0349 0.0568,0 0.0794,-0.0368 0.0794,-0.118l0 -0.2672c0,-0.0465 -0.0226,-0.0813 -0.0794,-0.0813l-0.3746 0c-0.2272,0 -0.4088,-0.0233 -0.4428,-0.395 -0.0113,-0.1277 -0.0341,-0.8943 -0.0341,-1.3357l0 -1.4169zm4.8705 -1.4055c-0.4654,0 -1.0558,0.0928 -1.6122,0.5575 -0.6811,0.5576 -0.9536,1.3706 -0.9536,1.9281 0,0.7085 0.1136,1.1962 0.613,1.8003 0.511,0.6272 1.124,0.8381 1.8393,0.8381 0.7606,0 1.4419,-0.3037 1.9073,-0.8381 0.4314,-0.4878 0.7039,-1.1151 0.7039,-1.7656 0,-0.6852 -0.2497,-1.2893 -0.7833,-1.8352 -0.386,-0.3831 -0.9538,-0.6851 -1.7144,-0.6851zm-0.0227 4.6344c-0.4542,0 -0.704,-0.1859 -0.8968,-0.4997 -0.3067,-0.4993 -0.3521,-0.9406 -0.3521,-1.6144 0,-0.8478 0.1363,-1.3357 0.4883,-1.7422 0.193,-0.2206 0.4199,-0.3136 0.7153,-0.3136 0.5221,0 1.1806,0.7433 1.1806,2.0211 0,1.1847 -0.386,2.1488 -1.1353,2.1488zm6.9141 0.3484c0.0113,0.0949 0.0681,0.1412 0.1588,0.1412 0.0911,0 0.1591,-0.023 0.2272,-0.0463l1.4078 -0.4086c0.0454,-0.0115 0.0681,-0.0347 0.0568,-0.1043l-0.0341 -0.1859c-0.0114,-0.0465 -0.0454,-0.0581 -0.1363,-0.0465 -0.1363,0.0232 -0.2951,0.0232 -0.3632,0.0232 -0.0908,0 -0.2044,-0.0463 -0.2498,-0.395 -0.0228,-0.2322 -0.0228,-0.7898 -0.0228,-1.3473l0 -0.8362c0,-1.15 0.0682,-1.4519 0.0682,-1.5681 0,-0.0465 -0.0228,-0.1162 -0.0908,-0.1162 -0.0455,0 -0.0909,0.0115 -0.1477,0.0232 -0.0566,0.0117 -0.1135,0.0232 -0.193,0.0232l-1.4077 0c-0.1022,0 -0.1363,0.0116 -0.1363,0.093l0 0.209c0,0.0466 0.0227,0.0698 0.2271,0.0931 0.2724,0.0232 0.4883,0.0928 0.4883,0.3947l0 2.7296c0,0.1395 -0.0795,0.302 -0.125,0.3718 -0.1817,0.2555 -0.5222,0.4413 -0.7947,0.4413 -0.2498,0 -0.4995,0.0232 -0.7267,-0.3252 -0.3064,-0.4879 -0.2269,-1.2777 -0.2269,-1.7422l0 -0.7202c0,-0.8014 0.0453,-1.3358 0.0453,-1.4519 0,-0.0697 -0.0453,-0.1394 -0.1135,-0.1394 -0.034,0 -0.0795,0.0115 -0.1249,0.0232 -0.0454,0.0117 -0.1022,0.0232 -0.1702,0.0232l-1.3625 0c-0.1135,0 -0.1362,0.0233 -0.1362,0.093l0 0.209c0,0.0698 0.068,0.0698 0.2498,0.0931 0.2043,0.0232 0.3633,0.1276 0.3973,0.418 0.0227,0.1395 0.0227,0.5575 0.0227,0.8363 0,0.2439 -0.0114,0.6389 -0.0114,1.1965 0,0.6503 0.0114,1.0801 0.4201,1.6261 0.3974,0.5128 0.7607,0.5128 1.1694,0.5128 0.5904,0 1.2488,-0.3735 1.4987,-0.7916l0.0681 0 0.0681 0.6504zm7.4817 0.0484c0.0341,0.1162 0.1136,0.1859 0.2271,0.1859 0.1362,0 0.2497,-0.1046 0.2952,-0.2208 0.0454,-0.1296 2.0549,-5.821 2.157,-6.1463l0.0454 0 2.0549 6.1095c0.0455,0.1415 0.125,0.2576 0.2839,0.2576 0.159,0 0.2497,-0.1859 0.2952,-0.304 0.2271,-0.5807 2.5431,-7.0852 2.6566,-7.3408 0.1136,-0.267 0.318,-0.3833 0.4996,-0.3833l0.2383 0c0.0683,0 0.0796,-0.0349 0.0796,-0.0928l0 -0.3136c0,-0.035 -0.0228,-0.0581 -0.0682,-0.0581 -0.0908,0 -0.4313,0.0349 -1.0672,0.0349 -0.7038,0 -1.0898,-0.0349 -1.2034,-0.0349 -0.0681,0 -0.0908,0.0349 -0.0908,0.0929l0 0.2788c0,0.0579 0.0114,0.0928 0.0795,0.0928l0.3064 0c0.2725,0 0.386,0.1625 0.386,0.3253 0,0.6388 -1.2941,4.4719 -1.6347,5.4939l-0.0454 0 -1.635 -5.3663c-0.0567,-0.1974 0.0228,-0.4529 0.2498,-0.4529l0.3974 0c0.0568,0 0.0794,-0.0349 0.0794,-0.0928l0 -0.2674c0,-0.0694 -0.0113,-0.1043 -0.0794,-0.1043 -0.1021,0 -0.5336,0.0349 -1.4872,0.0349 -0.9764,0 -1.3852,-0.0349 -1.476,-0.0349 -0.0681,0 -0.0908,0.0349 -0.0908,0.0929l0 0.2903c0,0.058 0.0341,0.0813 0.0795,0.0813l0.2384 0c0.1362,0 0.2952,0.0698 0.386,0.2091 0.1135,0.151 0.2043,0.4066 0.2043,0.6155 -0.0227,0.4414 -1.5327,4.7159 -1.6235,4.9598l-0.0226 -0.0116 -1.6689 -5.3661c-0.0795,-0.2442 0.0454,-0.4067 0.2724,-0.4067l0.2158 0c0.0795,0 0.1021,-0.0349 0.1021,-0.0928l0 -0.2904c0,-0.0582 -0.0226,-0.0813 -0.0908,-0.0813 -0.1136,0 -0.5905,0.0349 -1.4078,0.0349 -1.0218,0 -1.3623,-0.0349 -1.4532,-0.0349 -0.0587,0 -0.0927,0.0231 -0.0927,0.0813l0 0.3019c0,0.0464 0.0226,0.0813 0.0682,0.0813l0.3197 0c0.1816,0 0.3634,0.093 0.4767,0.4182l2.5432 7.424zm11.671 -0.3388c0.0114,0.0464 0.0455,0.0814 0.091,0.1279 0.1249,0.1045 0.6243,0.3037 1.226,0.3037 1.124,0 1.8961,-0.6989 1.8961,-1.6744 0,-0.395 -0.0909,-0.6736 -0.3407,-0.9293 -0.2951,-0.3251 -0.6131,-0.4646 -1.1353,-0.6038 -0.6812,-0.186 -1.0218,-0.3253 -1.0218,-0.8014 0,-0.4067 0.3634,-0.6622 0.7834,-0.6622 0.3747,0 0.5791,0.209 0.7153,0.3601l0.5449 0.6271c0.0227,0.0466 0.0568,0.0581 0.0908,0.0466l0.2158 -0.1046c0.0227,-0.0232 0.0227,-0.0813 0.0113,-0.1277l-0.1476 -0.7899c-0.0114,-0.0698 -0.0454,-0.1162 -0.2158,-0.2091 -0.2043,-0.1162 -0.5449,-0.2554 -1.1011,-0.2554 -0.4655,0 -0.7834,0.1043 -1.1808,0.3832 -0.3973,0.2904 -0.579,0.7086 -0.579,1.2195 0,0.8248 0.613,1.2197 1.385,1.4519 0.7949,0.2324 1.09,0.4416 1.09,0.906 0,0.43 -0.3634,0.7085 -0.8061,0.7085 -0.5563,0 -0.772,-0.2785 -0.9763,-0.6271l-0.3747 -0.6506c-0.0227,-0.0464 -0.0568,-0.0464 -0.1022,-0.0347l-0.2157 0.0696c-0.034,0.0117 -0.0454,0.0465 -0.034,0.0931l0.1815 1.173zm7.7202 -1.4751c0,0.3716 0,0.9757 -0.0226,1.1383 -0.0228,0.1858 -0.1817,0.2323 -0.3179,0.2323l-0.1931 0c-0.0567,0 -0.0794,0.0233 -0.0794,0.0697l0 0.2787c0,0.06 0.0227,0.0833 0.0907,0.0833 0.1136,0 0.5223,-0.0349 1.2036,-0.0349 0.6925,0 1.0558,0.0349 1.1239,0.0349 0.068,0 0.0908,-0.0368 0.0908,-0.0948l0 -0.2557c0,-0.0579 -0.0228,-0.0812 -0.1135,-0.0812l-0.2043 0c-0.1817,0 -0.386,-0.0231 -0.386,-0.1858l0 -1.5333 0 -0.6968c0,-0.6622 0.0226,-1.243 -0.4996,-1.7075 -0.3406,-0.302 -0.6358,-0.4645 -1.1354,-0.4645 -0.5336,0 -1.1466,0.2554 -1.4645,0.7084l-0.0682 0 0 -0.7201c0,-0.5691 0,-2.9154 0.0228,-3.1245 0.0227,-0.1859 0,-0.2789 -0.0908,-0.2789 -0.1135,0 -0.1817,0.0465 -0.3179,0.093 -0.3633,0.1859 -1.1353,0.5809 -1.4759,0.6736 -0.1363,0.0698 -0.1589,0.093 -0.1589,0.1395l0 0.1162c0,0.0465 0.0226,0.0698 0.0907,0.0928l0.2045 0.0698c0.3859,0.1625 0.5222,0.3948 0.5222,1.0453l0.0227 4.1467c0,0.5344 -0.0114,1.2079 -0.0567,1.4403 -0.0342,0.1393 -0.1931,0.1858 -0.3747,0.1858l-0.2838 0c-0.0569,0 -0.1023,0.0233 -0.1023,0.0812l0 0.2557c0,0.0715 0.0341,0.0948 0.0908,0.0948 0.0909,0 0.5222,-0.0349 1.2262,-0.0349 0.5904,0 1.09,0.0349 1.1808,0.0349 0.068,0 0.0907,-0.0484 0.0907,-0.118l0 -0.2092c0,-0.0812 -0.0454,-0.1045 -0.1135,-0.1045l-0.2723 0c-0.1591,0 -0.2046,-0.1162 -0.2046,-0.4877l0 -2.509c0,-0.2206 0.1136,-0.453 0.2046,-0.5692 0.2496,-0.2555 0.5449,-0.4182 0.84,-0.4182 0.2725,0 0.4541,0.093 0.6358,0.2789 0.2951,0.3019 0.2951,0.9524 0.2951,1.5564l0 0.7782z"/>
   <path id="_339287008" class="fil7" d="M148.379 256.934l0.9805 0 0 0.0563c-0.0845,0.0084 -0.1462,0.0367 -0.1849,0.0848 -0.0388,0.0481 -0.0578,0.1223 -0.0578,0.2213 0,0.0013 0.0007,0.0192 0.0031,0.0522 0.0022,0.0337 0.0045,0.0666 0.0061,0.099l0.12 1.7464 0.7151 -1.7808 0.0114 -0.026c0.0532,-0.1382 0.0798,-0.2207 0.0798,-0.2476 0,-0.0337 -0.0143,-0.0633 -0.0441,-0.09 -0.0296,-0.0262 -0.0715,-0.0447 -0.1247,-0.0571l0 -0.0585 0.9355 0 0 0.0585c-0.0814,0.0083 -0.1407,0.0336 -0.1772,0.0762 -0.0365,0.0434 -0.0541,0.1081 -0.0541,0.1953 0,0.0139 0.0009,0.0358 0.0031,0.0667 0.0023,0.0311 0.0054,0.0667 0.01,0.1066l0.1491 1.8027 0.7537 -1.8686c0.0189,-0.0474 0.0342,-0.0902 0.0441,-0.1293 0.0107,-0.0384 0.0159,-0.0681 0.0159,-0.0887 0,-0.0398 -0.0152,-0.0736 -0.0449,-0.1005 -0.0297,-0.0268 -0.0737,-0.0474 -0.1338,-0.0604l0 -0.0585 0.8404 0 0 0.0563c-0.092,0.0029 -0.1749,0.0462 -0.2487,0.1308 -0.073,0.0846 -0.1544,0.2352 -0.2434,0.4517l-0.6996 1.6836c-0.0245,0.0579 -0.0427,0.1122 -0.0564,0.163 -0.0129,0.0509 -0.0197,0.0887 -0.0197,0.1127 0,0.0323 0.0053,0.0551 0.0151,0.0674 0.0108,0.013 0.0304,0.0221 0.061,0.0276l0 0.0583 -0.8854 0 0 -0.0583c0.0479,-0.007 0.0814,-0.0227 0.1004,-0.0482 0.0197,-0.0255 0.0289,-0.0701 0.0289,-0.1334 -0.0016,-0.0041 -0.0031,-0.0234 -0.0054,-0.0592 -0.0022,-0.0355 -0.0053,-0.0865 -0.0099,-0.1518l-0.1315 -1.5449 -0.6397 1.6053c-0.019,0.0469 -0.0342,0.0922 -0.0457,0.1355 -0.0114,0.044 -0.0166,0.0791 -0.0166,0.1058 0,0.0282 0.0038,0.0481 0.0121,0.0599 0.0085,0.0109 0.0251,0.0213 0.0502,0.031l0 0.0583 -0.8626 0 0.0024 -0.0583c0.0518,-0.0172 0.089,-0.0434 0.1118,-0.0784 0.022,-0.0351 0.0334,-0.0853 0.0334,-0.1513 0,-0.0111 -0.0015,-0.0385 -0.0045,-0.084 -0.0031,-0.0445 -0.006,-0.101 -0.0091,-0.1676l-0.134 -1.7243 0 -0.002c-0.0204,-0.2606 -0.1041,-0.403 -0.2494,-0.427l0 -0.0585zm3.3626 2.7514l0 -0.0583c0.1262,-0.0254 0.2161,-0.062 0.27,-0.1087 0.0533,-0.0474 0.0959,-0.1396 0.127,-0.2784l0.426 -1.7986 0.0022 -0.0096c0.0251,-0.1023 0.0373,-0.1718 0.0373,-0.2097 0,-0.0722 -0.0227,-0.1278 -0.0684,-0.1663 -0.0464,-0.0379 -0.1156,-0.0591 -0.2077,-0.0633l-0.0023 -0.0585 1.8985 0c0.0867,0 0.1612,-0.0041 0.2251,-0.013 0.0639,-0.0089 0.1278,-0.0226 0.1917,-0.0412l0 0.8539 -0.0647 0c-0.0592,-0.2056 -0.1756,-0.3584 -0.3483,-0.4573 -0.1734,-0.0996 -0.41,-0.1492 -0.7097,-0.1492 -0.146,0 -0.2495,0.0199 -0.3103,0.0606 -0.0609,0.0405 -0.1095,0.1429 -0.1467,0.3079l-0.045 0.2098 0.4328 0c0.1385,0 0.2441,-0.0242 0.318,-0.0722 0.073,-0.0488 0.1384,-0.1376 0.1947,-0.2662l0.0533 0 -0.0533 0.9991 -0.0648 0c-0.015,-0.1706 -0.0798,-0.2923 -0.1939,-0.3637 -0.114,-0.0722 -0.3034,-0.1079 -0.5681,-0.1079 -0.0433,0 -0.076,0 -0.0981,0.0006 -0.022,0.0007 -0.0448,0.0028 -0.0669,0.0055l-0.2701 1.1743c-0.0129,0.0659 -0.022,0.1128 -0.0251,0.1409 -0.0037,0.0282 -0.0061,0.0509 -0.0061,0.0687 0,0.0749 0.0351,0.1306 0.105,0.1658 0.07,0.0356 0.1772,0.0536 0.3232,0.0536 0.318,0 0.6024,-0.0688 0.8542,-0.2057 0.2518,-0.1367 0.4693,-0.341 0.6518,-0.6117l0.0647 0.0177 -0.4967 1.0355c-0.0532,-0.0186 -0.1065,-0.0323 -0.1582,-0.0413 -0.0517,-0.0089 -0.1133,-0.0131 -0.1848,-0.0131l-0.0358 0 -2.0505 0zm4.5194 -2.7514l0.9804 0 0 0.0563c-0.0844,0.0084 -0.1461,0.0367 -0.1848,0.0848 -0.0388,0.0481 -0.0578,0.1223 -0.0578,0.2213 0,0.0013 0.0008,0.0192 0.003,0.0522 0.0024,0.0337 0.0046,0.0666 0.0062,0.099l0.1201 1.7464 0.715 -1.7808 0.0114 -0.026c0.0532,-0.1382 0.0798,-0.2207 0.0798,-0.2476 0,-0.0337 -0.0145,-0.0633 -0.0442,-0.09 -0.0296,-0.0262 -0.0714,-0.0447 -0.1246,-0.0571l0 -0.0585 0.9355 0 0 0.0585c-0.0814,0.0083 -0.1407,0.0336 -0.1772,0.0762 -0.0366,0.0434 -0.0541,0.1081 -0.0541,0.1953 0,0.0139 0.0008,0.0358 0.0031,0.0667 0.0022,0.0311 0.0054,0.0667 0.01,0.1066l0.149 1.8027 0.7537 -1.8686c0.019,-0.0474 0.0342,-0.0902 0.0442,-0.1293 0.0106,-0.0384 0.016,-0.0681 0.016,-0.0887 0,-0.0398 -0.0153,-0.0736 -0.045,-0.1005 -0.0297,-0.0268 -0.0738,-0.0474 -0.1337,-0.0604l0 -0.0585 0.8403 0 0 0.0563c-0.092,0.0029 -0.1749,0.0462 -0.2487,0.1308 -0.073,0.0846 -0.1544,0.2352 -0.2434,0.4517l-0.6998 1.6836c-0.0243,0.0579 -0.0425,0.1122 -0.0562,0.163 -0.013,0.0509 -0.0198,0.0887 -0.0198,0.1127 0,0.0323 0.0054,0.0551 0.0152,0.0674 0.0107,0.013 0.0304,0.0221 0.0608,0.0276l0 0.0583 -0.8853 0 0 -0.0583c0.0479,-0.007 0.0815,-0.0227 0.1004,-0.0482 0.0198,-0.0255 0.029,-0.0701 0.029,-0.1334 -0.0016,-0.0041 -0.0032,-0.0234 -0.0054,-0.0592 -0.0023,-0.0355 -0.0053,-0.0865 -0.0099,-0.1518l-0.1315 -1.5449 -0.6397 1.6053c-0.019,0.0469 -0.0342,0.0922 -0.0457,0.1355 -0.0113,0.044 -0.0166,0.0791 -0.0166,0.1058 0,0.0282 0.0038,0.0481 0.0121,0.0599 0.0085,0.0109 0.0251,0.0213 0.0502,0.031l0 0.0583 -0.8625 0 0.0022 -0.0583c0.0518,-0.0172 0.089,-0.0434 0.112,-0.0784 0.022,-0.0351 0.0333,-0.0853 0.0333,-0.1513 0,-0.0111 -0.0015,-0.0385 -0.0045,-0.084 -0.0031,-0.0445 -0.0061,-0.101 -0.0092,-0.1676l-0.1338 -1.7243 0 -0.002c-0.0205,-0.2606 -0.1043,-0.403 -0.2495,-0.427l0 -0.0585zm7.4811 2.7514l0 -0.0583c0.1247,-0.0242 0.2137,-0.0592 0.2677,-0.106 0.0533,-0.0461 0.0966,-0.1395 0.1293,-0.2811l0.4252 -1.7986c0.0122,-0.0508 0.0214,-0.0941 0.0274,-0.1305 0.0053,-0.0365 0.0084,-0.0688 0.0084,-0.097 0,-0.0695 -0.0229,-0.1231 -0.0677,-0.1602 -0.0456,-0.0364 -0.1134,-0.057 -0.2039,-0.0612l-0.0023 -0.0585 1.1608 0 0 0.0585c-0.1279,0.024 -0.2177,0.0598 -0.2709,0.1079 -0.0525,0.0475 -0.0951,0.1402 -0.1277,0.2792l-0.3788 1.6672c-0.0138,0.055 -0.0235,0.1058 -0.0305,0.1519 -0.0068,0.0468 -0.0099,0.0853 -0.0099,0.1162 0,0.0647 0.0229,0.1127 0.0678,0.1451 0.0456,0.0322 0.114,0.0481 0.2061,0.0481 0.2753,0 0.5415,-0.0729 0.8001,-0.2193 0.2586,-0.1465 0.4708,-0.3472 0.6373,-0.6022l0.0602 0.0177 -0.5994 1.0355c-0.0205,-0.02 -0.0441,-0.0343 -0.0699,-0.0419 -0.0267,-0.0083 -0.0655,-0.0125 -0.1171,-0.0125l-0.0914 0 -1.8208 0zm2.538 0l0 -0.0583c0.1247,-0.0242 0.2137,-0.0592 0.2677,-0.106 0.0534,-0.0461 0.0967,-0.1395 0.1293,-0.2811l0.4252 -1.7986c0.0122,-0.0508 0.0213,-0.0941 0.0274,-0.1305 0.0053,-0.0365 0.0084,-0.0688 0.0084,-0.097 0,-0.0695 -0.0228,-0.1231 -0.0678,-0.1602 -0.0456,-0.0364 -0.1132,-0.057 -0.2039,-0.0612l-0.0022 -0.0585 1.1607 0 0 0.0585c-0.1277,0.024 -0.2174,0.0598 -0.2708,0.1079 -0.0525,0.0475 -0.095,0.1402 -0.1277,0.2792l-0.3788 1.6672c-0.0136,0.055 -0.0236,0.1058 -0.0305,0.1519 -0.0068,0.0468 -0.0098,0.0853 -0.0098,0.1162 0,0.0647 0.0228,0.1127 0.0677,0.1451 0.0456,0.0322 0.114,0.0481 0.2061,0.0481 0.2753,0 0.5415,-0.0729 0.8002,-0.2193 0.2585,-0.1465 0.4707,-0.3472 0.6373,-0.6022l0.0601 0.0177 -0.5994 1.0355c-0.0205,-0.02 -0.0441,-0.0343 -0.0699,-0.0419 -0.0266,-0.0083 -0.0655,-0.0125 -0.1172,-0.0125l-0.0912 0 -1.8209 0zm4.838 -0.508c-0.0159,0.0674 -0.0273,0.1162 -0.0319,0.1463 -0.0053,0.0304 -0.0084,0.0572 -0.0084,0.0819 0,0.0694 0.0229,0.1232 0.0685,0.1603 0.0449,0.0364 0.1133,0.057 0.2037,0.0612l0 0.0583 -1.159 0 0 -0.0583c0.1247,-0.0242 0.2137,-0.0592 0.2677,-0.106 0.0533,-0.0461 0.0966,-0.1402 0.1293,-0.2811l0.4252 -1.7986 0.0023 -0.0096c0.0258,-0.1023 0.038,-0.1718 0.038,-0.2097 0,-0.0722 -0.0228,-0.1278 -0.0691,-0.1663 -0.0458,-0.0379 -0.1149,-0.0591 -0.207,-0.0633l-0.0023 -0.0585 1.8718 0c0.0921,0 0.1719,-0.0041 0.2404,-0.013 0.0684,-0.0089 0.1361,-0.0226 0.203,-0.0412l0 0.838 -0.0647 0c-0.0759,-0.2 -0.1938,-0.3478 -0.355,-0.4434 -0.1613,-0.0956 -0.3727,-0.1431 -0.6344,-0.1431 -0.1825,0 -0.3057,0.0172 -0.3697,0.0516 -0.0639,0.0344 -0.1117,0.1176 -0.143,0.2509l-0.0577 0.2676 0.3323 0c0.2091,0 0.3507,-0.0235 0.4236,-0.0702 0.0738,-0.0475 0.1256,-0.1355 0.1552,-0.2641l0.0647 0 -0.022 1.0025 -0.0648 -0.0042c-0.0266,-0.1719 -0.0965,-0.2927 -0.2106,-0.3644 -0.1133,-0.0707 -0.299,-0.1064 -0.5561,-0.1064 -0.044,0 -0.0783,0 -0.1011,0.0006 -0.0228,0.0007 -0.0456,0.0028 -0.0676,0.0055l-0.3013 1.2767zm4.2631 -0.3664c-0.0699,0.3196 -0.2107,0.5555 -0.4228,0.706 -0.2115,0.1512 -0.5074,0.227 -0.8877,0.227 -0.3195,0 -0.5582,-0.051 -0.7165,-0.1521 -0.1582,-0.1018 -0.2372,-0.2543 -0.2372,-0.4585 0,-0.0481 0.0053,-0.1052 0.016,-0.1698 0.0098,-0.0654 0.025,-0.1369 0.0441,-0.2153l0.314 -1.3069 0.0024 -0.0096c0.0266,-0.1023 0.0403,-0.1718 0.0403,-0.2097 0,-0.0728 -0.0236,-0.1278 -0.0708,-0.1663 -0.0464,-0.0379 -0.1157,-0.06 -0.2076,-0.0655l0.0129 -0.0563 1.1629 0 -0.0175 0.0585c-0.1263,0.0254 -0.216,0.0619 -0.2684,0.1086 -0.0526,0.0468 -0.096,0.1395 -0.1285,0.2777l-0.3248 1.4019c-0.0168,0.0798 -0.0282,0.1423 -0.0351,0.1897 -0.0068,0.0469 -0.0098,0.0887 -0.0098,0.1245 0,0.1279 0.0464,0.2276 0.1392,0.3004 0.0928,0.0723 0.2198,0.1087 0.3802,0.1087 0.2374,0 0.4245,-0.0529 0.5613,-0.1582 0.137,-0.1052 0.2282,-0.2675 0.2739,-0.4861l0.3058 -1.4183c0.0129,-0.0563 0.022,-0.0976 0.0265,-0.1238 0.0046,-0.026 0.0069,-0.0494 0.0069,-0.0694 0,-0.0831 -0.0244,-0.1464 -0.0722,-0.1889 -0.0487,-0.0434 -0.1187,-0.0661 -0.2108,-0.069l0 -0.0563 0.9759 0 0 0.0585c-0.1073,0.0254 -0.1833,0.0591 -0.2298,0.1018 -0.0455,0.0419 -0.0851,0.1375 -0.1178,0.2845l-0.305 1.4322zm0.3271 0.8744l0 -0.0583c0.1247,-0.0242 0.2137,-0.0592 0.2677,-0.106 0.0532,-0.0461 0.0966,-0.1395 0.1293,-0.2811l0.4251 -1.7986c0.0122,-0.0508 0.0213,-0.0941 0.0274,-0.1305 0.0053,-0.0365 0.0085,-0.0688 0.0085,-0.097 0,-0.0695 -0.0229,-0.1231 -0.0678,-0.1602 -0.0456,-0.0364 -0.1134,-0.057 -0.2039,-0.0612l-0.0022 -0.0585 1.1606 0 0 0.0585c-0.1277,0.024 -0.2174,0.0598 -0.2707,0.1079 -0.0525,0.0475 -0.0951,0.1402 -0.1277,0.2792l-0.3788 1.6672c-0.0137,0.055 -0.0237,0.1058 -0.0306,0.1519 -0.0067,0.0468 -0.0098,0.0853 -0.0098,0.1162 0,0.0647 0.0228,0.1127 0.0677,0.1451 0.0456,0.0322 0.1141,0.0481 0.2062,0.0481 0.2752,0 0.5414,-0.0729 0.8,-0.2193 0.2587,-0.1465 0.4709,-0.3472 0.6375,-0.6022l0.06 0.0177 -0.5993 1.0355c-0.0206,-0.02 -0.0441,-0.0343 -0.07,-0.0419 -0.0266,-0.0083 -0.0654,-0.0125 -0.1172,-0.0125l-0.0912 0 -1.8208 0zm3.4651 -0.508c-0.0159,0.0674 -0.0273,0.1162 -0.0319,0.1463 -0.0053,0.0304 -0.0084,0.0572 -0.0084,0.0819 0,0.0694 0.0228,0.1232 0.0685,0.1603 0.0449,0.0364 0.1133,0.057 0.2038,0.0612l0 0.0583 -1.1591 0 0 -0.0583c0.1247,-0.0242 0.2137,-0.0592 0.2677,-0.106 0.0533,-0.0461 0.0965,-0.1402 0.1293,-0.2811l0.4252 -1.7986 0.0023 -0.0096c0.0258,-0.1023 0.038,-0.1718 0.038,-0.2097 0,-0.0722 -0.0228,-0.1278 -0.0692,-0.1663 -0.0457,-0.0379 -0.1148,-0.0591 -0.2069,-0.0633l-0.0023 -0.0585 1.8718 0c0.0921,0 0.1719,-0.0041 0.2404,-0.013 0.0685,-0.0089 0.1361,-0.0226 0.2031,-0.0412l0 0.838 -0.0648 0c-0.076,-0.2 -0.1938,-0.3478 -0.3551,-0.4434 -0.1612,-0.0956 -0.3727,-0.1431 -0.6343,-0.1431 -0.1825,0 -0.3057,0.0172 -0.3697,0.0516 -0.0638,0.0344 -0.1117,0.1176 -0.143,0.2509l-0.0578 0.2676 0.3324 0c0.2091,0 0.3506,-0.0235 0.4237,-0.0702 0.0737,-0.0475 0.1255,-0.1355 0.1551,-0.2641l0.0647 0 -0.0221 1.0025 -0.0646 -0.0042c-0.0267,-0.1719 -0.0966,-0.2927 -0.2107,-0.3644 -0.1132,-0.0707 -0.2989,-0.1064 -0.556,-0.1064 -0.0442,0 -0.0784,0 -0.1012,0.0006 -0.0228,0.0007 -0.0455,0.0028 -0.0676,0.0055l-0.3013 1.2767zm2.4332 -1.736c0.0121,-0.0508 0.0213,-0.0941 0.0266,-0.1305 0.0061,-0.0365 0.0091,-0.0688 0.0091,-0.097 0,-0.0695 -0.0229,-0.1231 -0.0677,-0.1602 -0.0456,-0.0364 -0.1134,-0.057 -0.2039,-0.0612l-0.0022 -0.0585 1.1607 0 0 0.0585c-0.1264,0.024 -0.216,0.0591 -0.2694,0.1059 -0.0539,0.046 -0.0966,0.1396 -0.1292,0.2804l-0.4191 1.7992 -0.0024 0.0076c-0.025,0.1093 -0.038,0.1821 -0.038,0.22 0,0.0694 0.023,0.1232 0.0686,0.1603 0.0448,0.0364 0.1126,0.057 0.2038,0.0612l0 0.0583 -1.1592 0 0 -0.0583c0.1247,-0.0242 0.2137,-0.0592 0.2677,-0.106 0.0533,-0.0461 0.0966,-0.1395 0.1293,-0.2811l0.4253 -1.7986zm0.5924 2.244l0 -0.0583c0.1247,-0.0242 0.2137,-0.0592 0.2677,-0.106 0.0533,-0.0461 0.0966,-0.1395 0.1293,-0.2811l0.4251 -1.7986c0.0122,-0.0508 0.0214,-0.0941 0.0274,-0.1305 0.0054,-0.0365 0.0085,-0.0688 0.0085,-0.097 0,-0.0695 -0.0229,-0.1231 -0.0678,-0.1602 -0.0456,-0.0364 -0.1133,-0.057 -0.2038,-0.0612l-0.0023 -0.0585 1.1607 0 0 0.0585c-0.1278,0.024 -0.2175,0.0598 -0.2708,0.1079 -0.0525,0.0475 -0.0951,0.1402 -0.1278,0.2792l-0.3788 1.6672c-0.0136,0.055 -0.0236,0.1058 -0.0303,0.1519 -0.0069,0.0468 -0.01,0.0853 -0.01,0.1162 0,0.0647 0.0228,0.1127 0.0678,0.1451 0.0456,0.0322 0.114,0.0481 0.2061,0.0481 0.2753,0 0.5415,-0.0729 0.8001,-0.2193 0.2586,-0.1465 0.4708,-0.3472 0.6374,-0.6022l0.0601 0.0177 -0.5994 1.0355c-0.0206,-0.02 -0.0441,-0.0343 -0.0699,-0.0419 -0.0267,-0.0083 -0.0655,-0.0125 -0.1172,-0.0125l-0.0912 0 -1.8209 0zm2.538 0l0 -0.0583c0.1247,-0.0242 0.2138,-0.0592 0.2677,-0.106 0.0533,-0.0461 0.0966,-0.1395 0.1294,-0.2811l0.4251 -1.7986c0.0121,-0.0508 0.0213,-0.0941 0.0274,-0.1305 0.0053,-0.0365 0.0084,-0.0688 0.0084,-0.097 0,-0.0695 -0.0228,-0.1231 -0.0678,-0.1602 -0.0456,-0.0364 -0.1133,-0.057 -0.2038,-0.0612l-0.0023 -0.0585 1.1607 0 0 0.0585c-0.1278,0.024 -0.2175,0.0598 -0.2708,0.1079 -0.0525,0.0475 -0.0951,0.1402 -0.1277,0.2792l-0.3788 1.6672c-0.0137,0.055 -0.0236,0.1058 -0.0305,0.1519 -0.0068,0.0468 -0.0099,0.0853 -0.0099,0.1162 0,0.0647 0.0229,0.1127 0.0677,0.1451 0.0456,0.0322 0.1141,0.0481 0.2062,0.0481 0.2753,0 0.5415,-0.0729 0.8001,-0.2193 0.2587,-0.1465 0.4708,-0.3472 0.6374,-0.6022l0.0601 0.0177 -0.5994 1.0355c-0.0205,-0.02 -0.044,-0.0343 -0.07,-0.0419 -0.0266,-0.0083 -0.0654,-0.0125 -0.1171,-0.0125l-0.0912 0 -1.8209 0z"/>
  </g>
 </g>
</svg>
