<?xml version="1.0" encoding="UTF-8"?>
<!DOCTYPE svg PUBLIC "-//W3C//DTD SVG 1.1//EN" "http://www.w3.org/Graphics/SVG/1.1/DTD/svg11.dtd">
<!-- Creator: CorelDRAW X5 -->
<svg xmlns="http://www.w3.org/2000/svg" xml:space="preserve" width="297mm" height="210mm" style="shape-rendering:geometricPrecision; text-rendering:geometricPrecision; image-rendering:optimizeQuality; fill-rule:evenodd; clip-rule:evenodd"
viewBox="0 0 297 210"
 xmlns:xlink="http://www.w3.org/1999/xlink">
 <defs>
  <style type="text/css">
   <![CDATA[
    .fil0 {fill:none}
    .fil1 {fill:#4A4D4E}
    .fil2 {fill:red}
   ]]>
  </style>
 </defs>
 <g id="Layer_x0020_1">
  <metadata id="CorelCorpID_0Corel-Layer"/>
  <rect class="fil0" x="48.5" y="5" width="200" height="200"/>
  <path class="fil1" d="M150.801 68.7244c41.6388,0 75.5862,31.3111 77.2684,70.5377l0 6.1023c-0.0376,0.8774 -0.0913,1.7509 -0.1607,2.6202l-28.7166 -6.361c-4.0965,-28.0884 -29.9896,-49.7392 -61.3258,-49.7392 -34.1833,0 -61.8945,25.7623 -61.8945,57.542 0,3.2215 0.2893,6.3797 0.8367,9.457l-1.378 0c-1.2881,-5.3259 -1.9692,-10.8723 -1.9692,-16.5702 0,-40.6422 34.6262,-73.5888 77.3397,-73.5888z"/>
  <g id="_256603416">
   <path id="_256604616" class="fil2" d="M148.5 51.1165c51.0932,0 92.5126,41.0223 92.5126,91.6259 0,5.5074 -0.4916,10.901 -1.4319,16.141l-7.6655 0c1.3582,-5.7882 2.0795,-11.8066 2.0795,-17.9868 0,-45.1665 -38.2774,-81.7812 -85.4947,-81.7812 -47.2173,0 -85.4947,36.6147 -85.4947,81.7812 0,6.1802 0.7213,12.1986 2.0795,17.9868l-7.6655 0c-0.9403,-5.24 -1.4319,-10.6336 -1.4319,-16.141 0,-50.6036 41.4194,-91.6259 92.5126,-91.6259z"/>
   <path id="_256604448" class="fil2" d="M63.5698 154.15c0.5409,-0.0917 6.0029,-1.4245 6.0029,-1.4245l-0.2035 -4.1716 -7.8344 -0.7122 2.035 6.3083z"/>
   <path id="_256604280" class="fil2" d="M69.7561 108.355c0.5142,0.1912 5.9106,1.769 5.9106,1.769l1.9103 -3.714 -6.4278 -4.5353 -1.3931 6.4803z"/>
   <path id="_256604112" class="fil2" d="M229.954 115.114c-0.5424,0.0816 -6.1476,0.5196 -6.1476,0.5196l-1.1083 -4.0268 7.2211 -3.1211 0.0348 6.6283z"/>
   <path id="_256603944" class="fil2" d="M100.034 73.4015c0.3282,0.4395 4.0053,4.6926 4.0053,4.6926l3.6197 -2.0836 -2.9391 -7.297 -4.6859 4.688z"/>
   <path id="_256603656" class="fil2" d="M200.574 75.8733c-0.3282,0.4395 -4.0054,4.6927 -4.0054,4.6927l-3.6196 -2.0836 2.9391 -7.297 4.6859 4.6879z"/>
   <path id="_256603464" class="fil2" d="M146.528 58.6143c0.0854,0.5851 1.3861,6.5047 1.3861,6.5047l4.5007 -0.1157 0.9621 -8.4254 -6.8489 2.0364z"/>
  </g>
  <polygon class="fil1" points="227.896,150.598 227.891,154.235 161.94,149.308 164.71,137.548 "/>
  <path class="fil2" d="M150.078 125.889c8.9345,0 16.1773,7.2428 16.1773,16.1773 0,8.9344 -7.2428,16.1772 -16.1773,16.1772 -8.9344,0 -16.1772,-7.2428 -16.1772,-16.1772 0,-8.9345 7.2428,-16.1773 16.1772,-16.1773zm0 3.2558c7.1365,0 12.9217,5.7851 12.9217,12.9215 0,7.1362 -5.7852,12.9213 -12.9217,12.9213 -7.1364,0 -12.9216,-5.7851 -12.9216,-12.9213 0,-7.1364 5.7852,-12.9215 12.9216,-12.9215z"/>
 </g>
</svg>
