<?xml version="1.0" encoding="UTF-8"?>
<svg xmlns="http://www.w3.org/2000/svg" fill-rule="evenodd" clip-rule="evenodd" image-rendering="optimizeQuality" shape-rendering="geometricPrecision" text-rendering="geometricPrecision" viewBox="0 0 84.6666 84.6666">
  <path fill="#fe0000" fill-rule="nonzero" d="M8.618500000000001 55.6179L3.5184 39.5022l4.1424-.0779 3.021 10.5703 2.772-10.9089 4.1189-.4102 2.6863 10.9921 3.0834-11.8 4.1968-.7567-5.1701 18.507h-4.1034l-2.7719-10.7464-2.733 10.7464H8.6185zM32.795 55.6179l-5.1-18.5366 4.1423-.9009 3.0211 12.4909 2.7719-13.9764 4.1034-1.2242 2.694 14.2205 3.0757-16.1696 4.2045-1.5939L46.53 55.6179h-4.0956l-2.764-13.8309-2.733 13.8309H32.795zm24.161 0L51.8558 29.87l4.1424-1.7207 3.0211 17.5505 2.7797-20.1856 4.1112-2.0439 2.6863 20.5952 3.0833-23.6865 4.2046-2.43-5.1778 37.6689H66.611l-2.7798-19.9926-2.7252 19.9926h-4.15zm20.0185 0V45.4894l4.2904-.7019v10.8304h-4.2904z"/>
  <path fill="#494d4e" d="M41.4453 7.8488c9.9681 0 18.9466 4.2311 25.2424 10.9932h-3.3588v.0191C57.5958 13.5137 49.9034 10.24 41.4453 10.24c-15.4599 0-28.3653 10.932-31.4111 25.4871H7.5955C10.6777 19.8425 24.6597 7.8488 41.4453 7.8488zm30.3651 50.841c-5.8264 10.7937-17.2389 18.128-30.3651 18.128-12.922 0-24.1819-7.1087-30.0878-17.6275h2.7754c5.6552 9.1434 15.7715 15.2363 27.3124 15.2363 11.75 0 22.0233-6.3159 27.6153-15.7368h2.7498z"/>
</svg>
