<?xml version="1.0" encoding="UTF-8"?>
<!DOCTYPE svg PUBLIC "-//W3C//DTD SVG 1.1//EN" "http://www.w3.org/Graphics/SVG/1.1/DTD/svg11.dtd">
<!-- Creator: CorelDRAW X5 -->
<svg xmlns="http://www.w3.org/2000/svg" xml:space="preserve" width="297mm" height="210mm" style="shape-rendering:geometricPrecision; text-rendering:geometricPrecision; image-rendering:optimizeQuality; fill-rule:evenodd; clip-rule:evenodd"
viewBox="0 0 297 210"
 xmlns:xlink="http://www.w3.org/1999/xlink">
 <defs>
  <style type="text/css">
   <![CDATA[
    .fil0 {fill:none}
    .fil2 {fill:#494D4E}
    .fil1 {fill:#FE0000;fill-rule:nonzero}
   ]]>
  </style>
 </defs>
 <g id="Layer_x0020_1">
  <metadata id="CorelCorpID_0Corel-Layer"/>
  <polygon class="fil0" points="80.2374,47.3869 216.762,47.3869 216.762,162.613 80.2374,162.613 "/>
  <path class="fil1" d="M88.0433 126.111m8.2903 0l-8.1046 -25.61 6.5827 -0.1238 4.8009 16.7976 4.405 -17.3359 6.5456 -0.6517 4.2689 17.4678 4.8999 -18.7517 6.6694 -1.2025 -8.2161 29.4102 -6.5208 0 -4.405 -17.0775 -4.3431 17.0775 -6.5828 0zm30.0925 0m8.3274 0l-8.1046 -29.4572 6.5827 -1.4317 4.8009 19.8497 4.405 -22.2103 6.5208 -1.9455 4.2812 22.5984 4.8876 -25.6958 6.6817 -2.533 -8.2284 40.8254 -6.5085 0 -4.3925 -21.9793 -4.3431 21.9793 -6.5828 0zm30.0801 0m8.315 0l-8.1047 -40.9169 6.5827 -2.7346 4.801 27.8902 4.4174 -32.0778 6.5332 -3.2479 4.2689 32.7286 4.8999 -37.6411 6.6817 -3.8616 -8.2284 59.8611 -6.5085 0 -4.4174 -31.771 -4.3307 31.771 -6.5951 0zm28.2612 0m3.5512 0l0 -16.0957 6.8179 -1.1153 0 17.211 -6.8179 0z"/>
  <path class="fil2" d="M148.5 50.1993c15.8407,0 30.1089,6.7238 40.1138,17.4698l-5.3377 0 0 0.0303c-9.1106,-8.4978 -21.3349,-13.7001 -34.7761,-13.7001 -24.5679,0 -45.0763,17.3724 -49.9165,40.5025l-3.8755 0c4.898,-25.2428 27.1174,-44.3025 53.792,-44.3025zm48.2544 80.7935c-9.259,17.1526 -27.395,28.8079 -48.2544,28.8079 -20.5348,0 -38.4283,-11.2967 -47.8137,-28.0125l4.4105 0c8.987,14.5301 25.0632,24.2125 43.4032,24.2125 18.6725,0 34.9982,-10.0368 43.8847,-25.0079l4.3697 0z"/>
 </g>
</svg>
