<?xml version="1.0" encoding="UTF-8"?>
<!DOCTYPE svg PUBLIC "-//W3C//DTD SVG 1.1//EN" "http://www.w3.org/Graphics/SVG/1.1/DTD/svg11.dtd">
<!-- Creator: CorelDRAW X5 -->
<svg xmlns="http://www.w3.org/2000/svg" xml:space="preserve" width="297mm" height="210mm" style="shape-rendering:geometricPrecision; text-rendering:geometricPrecision; image-rendering:optimizeQuality; fill-rule:evenodd; clip-rule:evenodd"
viewBox="0 0 297 210"
 xmlns:xlink="http://www.w3.org/1999/xlink">
 <defs>
  <style type="text/css">
   <![CDATA[
    .fil0 {fill:none}
    .fil2 {fill:#4A4D4E}
    .fil1 {fill:red}
   ]]>
  </style>
 </defs>
 <g id="Layer_x0020_1">
  <metadata id="CorelCorpID_0Corel-Layer"/>
  <rect class="fil0" x="80.2374" y="47.3869" width="136.525" height="115.226"/>
  <g id="_308045680">
   <path id="_308046016" class="fil1" d="M126.087 158.683l0.4171 -17.9404c0,0 0.4188,-6.1181 6.3991,-6.3973l32.407 -0.0017c0,0 6.9542,-0.4156 5.9113,5.9128l-0.6257 18.7059c0,0 35.186,-4.1736 41.3074,-22.8104l-0.5551 -41.1695c0,0 -2.4963,-8.3454 -17.2406,-3.3392 0,0 -3.1978,1.6688 -3.8942,6.3973 0,0 -0.5585,2.3635 -5.9819,-2.0875 0,0 -9.0417,-4.0321 -16.2733,-3.3375l-0.1381 -9.3192c0,0 1.8084,-6.2577 -5.0078,-6.1198l-28.2352 0c0,0 -5.1441,-1.3894 -5.2148,5.2165l-0.2103 10.2225c0,0 -11.1276,-0.4172 -18.0817,4.4511 0,0 -3.6167,1.8083 -4.8682,-0.9741l-0.4172 -4.451c0,0 -9.1796,-5.0078 -18.9161,0 0,0 -1.3911,0.9725 -1.3911,2.9203l-0.2776 41.5884c0,0 4.7253,17.3837 40.887,22.5328zm22.8969 -53.6167c6.8341,0 12.3743,5.5402 12.3743,12.3743 0,6.8341 -5.5402,12.3743 -12.3743,12.3743 -6.8341,0 -12.3743,-5.5402 -12.3743,-12.3743 0,-6.8341 5.5402,-12.3743 12.3743,-12.3743z"/>
   <ellipse id="_308045920" class="fil2" cx="96.2028" cy="73.8461" rx="11.4674" ry="11.4035"/>
   <ellipse id="_308045824" class="fil2" cx="148.221" cy="62.4409" rx="11.4674" ry="11.4035"/>
   <ellipse id="_308045752" class="fil2" cx="200.797" cy="74.1236" rx="11.4674" ry="11.4035"/>
  </g>
 </g>
</svg>
