<?xml version="1.0" encoding="UTF-8"?>
<svg xmlns="http://www.w3.org/2000/svg" fill-rule="evenodd" clip-rule="evenodd" image-rendering="optimizeQuality" shape-rendering="geometricPrecision" text-rendering="geometricPrecision" viewBox="0 0 297 210">
  <defs>
    <style>
      .fil1{fill:red}
    </style>
  </defs>
  <g id="Layer_x0020_1">
    <path fill="none" d="M80.2374 47.3869h136.525v115.226H80.2374z"/>
    <g id="_307196408">
      <path id="_307489896" d="M183.216 79.9983c13.9424 0 25.3094 10.4842 25.8726 23.6189v2.0433c-.0126.2938-.0305.5862-.0538.8773l-9.6155-2.1299c-1.3716-9.4051-10.0417-16.6547-20.5343-16.6547-11.446 0-20.7248 8.6263-20.7248 19.2674 0 1.0787.0968 2.1362.2801 3.1666h-.4614c-.4313-1.7833-.6594-3.6405-.6594-5.5484 0-13.6087 11.5943-24.6405 25.8965-24.6405z" class="fil1"/>
      <path id="_307489728" d="M209.03 107.413l-.002 1.218-22.083-1.65.928-3.938z" class="fil1"/>
      <path id="_307489488" d="M182.974 99.1394c2.9916 0 5.4168 2.4252 5.4168 5.4168 0 2.9916-2.4252 5.4168-5.4168 5.4168-2.9916 0-5.4168-2.4252-5.4168-5.4168 0-2.9916 2.4252-5.4168 5.4168-5.4168zm0 1.0902c2.3896 0 4.3267 1.9371 4.3267 4.3266s-1.9371 4.3266-4.3267 4.3266c-2.3896 0-4.3267-1.9371-4.3267-4.3266s1.9371-4.3266 4.3267-4.3266z" class="fil1"/>
      <path id="_307489344" d="M209.817 84.5403s-12.6962-18.809-36.3251-12.2258c0 0-18.2215 3.997-23.1588 24.8046 0 0-5.5255 21.0428 13.5188 33.9741 0 0 23.7465 16.8108 44.7892-5.9954 0 0-7.5236 11.5206-16.9282 14.342 0 0-5.5546 1.7928-11.7263 1.8515 0 0-9.8749-.5879-13.6954 5.5839 0 0-3.4679-3.0565.1176-7.3473 0 0 .1029-.3527-.6318-.0294 0 0-8.435 3.8206-17.0754.7053 0 0-14.2243-6.8184-19.9259-7.1122 0 0-7.1122-1.1756-13.2252 1.7634 0 0 3.4679-10.8152 16.6932-8.5817 0 0 .8375.2204.3966-.5437 0 0-2.5569-4.9376-11.7263-5.2903 0 0-8.0525-.6466-13.5189-.4702 0 0-14.7536.0588-20.5726-5.8779 0 0-3.9383-3.997-4.0558-8.1114 0 0 7.8176 7.4649 16.2817 5.7015 0 0 19.2792-2.116 15.1059-13.7541 0 0-3.7031-7.4061-14.6359-8.1702 0 0 2.6451-2.41 9.8161-1.7047 0 0 5.231.7641 14.2829 2.5862 0 0 11.2855 2.4686 18.0451-3.8795 0 0 .2847-.4132-.3178-.2369 0 0-6.9064.529-12.314-.9992 0 0-4.232-.9403-9.4045-4.7022 0 0-4.9962-3.3505-9.2871-2.7039 0 0 3.2916-3.7618 10.2862-2.8801 0 0 6.1131.4114 12.4024 1.587 0 0 9.4046 1.3517 19.4556-3.762 0 0 8.1703-3.2329 13.5779-2.9389 0 0 .0735-.2351-.8522-.3086 0 0-2.41-.2792-5.3783-1.3666 0 0-2.1747-.7936-6.9064.1175 0 0 5.7602-5.4368 19.3968-5.4368 0 0 18.8678-.5291 30.5059 11.4029 0 0 6.4657 7.4649 6.99 10.0091z" class="fil1"/>
      <path id="_307489176" fill="#4a4d4e" d="M183.139 72.7981c17.1725 0 31.0938 13.9213 31.0938 31.0939 0 17.1724-13.9213 31.0937-31.0938 31.0937s-31.0937-13.9213-31.0937-31.0937c0-17.1726 13.9212-31.0939 31.0937-31.0939zm0 3.6735c15.4825 0 28.0337 12.2963 28.0337 27.4644 0 15.168-12.5512 27.4644-28.0337 27.4644-15.4824 0-28.0336-12.2964-28.0336-27.4644 0-15.1681 12.5512-27.4644 28.0336-27.4644z"/>
    </g>
  </g>
</svg>
