<?xml version="1.0" encoding="UTF-8"?>
<!DOCTYPE svg PUBLIC "-//W3C//DTD SVG 1.1//EN" "http://www.w3.org/Graphics/SVG/1.1/DTD/svg11.dtd">
<!-- Creator: CorelDRAW X5 -->
<svg xmlns="http://www.w3.org/2000/svg" xml:space="preserve" width="297mm" height="210mm" style="shape-rendering:geometricPrecision; text-rendering:geometricPrecision; image-rendering:optimizeQuality; fill-rule:evenodd; clip-rule:evenodd"
viewBox="0 0 297 210"
 xmlns:xlink="http://www.w3.org/1999/xlink">
 <defs>
  <style type="text/css">
   <![CDATA[
    .fil0 {fill:none}
    .fil2 {fill:#4A4D4E}
    .fil1 {fill:red}
   ]]>
  </style>
 </defs>
 <g id="Layer_x0020_1">
  <metadata id="CorelCorpID_0Corel-Layer"/>
  <rect class="fil0" x="48.5" y="5" width="200" height="200"/>
  <g id="_330349216">
   <path id="_330349672" class="fil1" d="M186.222 67.2066c15.69,0 28.4817,11.7984 29.1156,26.5794l0 2.2994c-0.0142,0.3306 -0.0344,0.6598 -0.0606,0.9873l-10.8207 -2.3969c-1.5436,-10.584 -11.3004,-18.7422 -23.1082,-18.7422 -12.8806,0 -23.3225,9.7075 -23.3225,21.6824 0,1.2139 0.109,2.4039 0.3153,3.5635l-0.5193 0c-0.4853,-2.0069 -0.742,-4.0968 -0.742,-6.2438 0,-15.3144 13.0475,-27.7291 29.1424,-27.7291z"/>
   <polygon id="_330359272" class="fil1" points="215.272,98.0574 215.27,99.4277 190.419,97.5712 191.463,93.1399 "/>
   <path id="_330343912" class="fil1" d="M185.949 88.7469c3.3666,0 6.0958,2.7292 6.0958,6.0958 0,3.3666 -2.7292,6.0957 -6.0958,6.0957 -3.3666,0 -6.0957,-2.7291 -6.0957,-6.0957 0,-3.3666 2.7291,-6.0958 6.0957,-6.0958zm0 1.2269c2.6891,0 4.8691,2.1799 4.8691,4.8689 0,2.689 -2.18,4.8689 -4.8691,4.8689 -2.6891,0 -4.869,-2.1799 -4.869,-4.8689 0,-2.689 2.1799,-4.8689 4.869,-4.8689z"/>
  </g>
  <path class="fil1" d="M216.158 72.318c0,0 -14.2876,-21.1666 -40.8782,-13.7583 0,0 -20.5054,4.498 -26.0616,27.9137 0,0 -6.218,23.6804 15.2133,38.2325 0,0 26.723,18.9179 50.4032,-6.7468 0,0 -8.4666,12.9646 -19.05,16.1396 0,0 -6.2508,2.0175 -13.1961,2.0836 0,0 -11.1126,-0.6616 -15.412,6.2838 0,0 -3.9026,-3.4396 0.1323,-8.2682 0,0 0.1158,-0.3969 -0.711,-0.0331 0,0 -9.4923,4.2995 -19.2157,0.7937 0,0 -16.0072,-7.673 -22.4234,-8.0037 0,0 -8.0037,-1.3229 -14.8829,1.9844 0,0 3.9026,-12.1708 18.7855,-9.6573 0,0 0.9425,0.248 0.4464,-0.6119 0,0 -2.8774,-5.5564 -13.1962,-5.9533 0,0 -9.0618,-0.7277 -15.2134,-0.5292 0,0 -16.6028,0.0662 -23.1512,-6.6146 0,0 -4.4319,-4.498 -4.5641,-9.1282 0,0 8.7974,8.4006 18.3225,6.4162 0,0 21.6957,-2.3812 16.9993,-15.4781 0,0 -4.1673,-8.3344 -16.4704,-9.1943 0,0 2.9766,-2.7121 11.0464,-1.9183 0,0 5.8867,0.8598 16.0732,2.9103 0,0 12.7001,2.778 20.3069,-4.3657 0,0 0.3204,-0.465 -0.3576,-0.2666 0,0 -7.7721,0.5953 -13.8575,-1.1245 0,0 -4.7624,-1.0582 -10.5833,-5.2916 0,0 -5.6224,-3.7704 -10.4511,-3.0428 0,0 3.7041,-4.2333 11.5755,-3.2411 0,0 6.8793,0.463 13.9569,1.7859 0,0 10.5834,1.5212 21.8943,-4.2335 0,0 9.1943,-3.6381 15.2797,-3.3073 0,0 0.0828,-0.2646 -0.959,-0.3473 0,0 -2.7121,-0.3142 -6.0524,-1.5379 0,0 -2.4473,-0.893 -7.7721,0.1323 0,0 6.4822,-6.1183 21.8281,-6.1183 0,0 21.2327,-0.5954 34.3296,12.8322 0,0 7.2761,8.4005 7.8661,11.2637z"/>
  <path class="fil2" d="M186.136 59.104c19.325,0 34.9912,15.6662 34.9912,34.9912 0,19.3249 -15.6662,34.9911 -34.9912,34.9911 -19.3249,0 -34.9911,-15.6662 -34.9911,-34.9911 0,-19.325 15.6662,-34.9912 34.9911,-34.9912zm0 4.1339c17.4231,0 31.5475,13.8376 31.5475,30.9069 0,17.0692 -14.1244,30.9068 -31.5475,30.9068 -17.423,0 -31.5474,-13.8376 -31.5474,-30.9068 0,-17.0693 14.1244,-30.9069 31.5474,-30.9069z"/>
 </g>
</svg>
