<?xml version="1.0" encoding="UTF-8"?>
<svg xmlns="http://www.w3.org/2000/svg" fill-rule="evenodd" clip-rule="evenodd" image-rendering="optimizeQuality" shape-rendering="geometricPrecision" text-rendering="geometricPrecision" viewBox="0 0 297 210">
  <path fill="none" d="M80.2374 47.3869H216.762V162.613H80.2374z"/>
  <path fill="#fe0000" fill-rule="nonzero" d="M96.3336 126.111l-8.1046-25.61 6.5827-.1238 4.8009 16.7976 4.405-17.3359 6.5456-.6517 4.2689 17.4678 4.8999-18.7517 6.6694-1.2025-8.2161 29.4102h-6.5208l-4.405-17.0775-4.3431 17.0775h-6.5828zm38.4199 0l-8.1046-29.4572 6.5827-1.4317 4.8009 19.8497 4.405-22.2103 6.5208-1.9455 4.2812 22.5984 4.8876-25.6958 6.6817-2.533-8.2284 40.8254h-6.5085l-4.3925-21.9793-4.3431 21.9793h-6.5828zm38.3951 0l-8.1047-40.9169 6.5827-2.7346 4.801 27.8902 4.4174-32.0778 6.5332-3.2479 4.2689 32.7286 4.8999-37.6411 6.6817-3.8616-8.2284 59.8611h-6.5085l-4.4174-31.771-4.3307 31.771h-6.5951zm31.8124 0v-16.0957l6.8179-1.1153v17.211h-6.8179z"/>
  <path fill="#494d4e" d="M148.5 50.1993c15.8407 0 30.1089 6.7238 40.1138 17.4698h-5.3377v.0303c-9.1106-8.4978-21.3349-13.7001-34.7761-13.7001-24.5679 0-45.0763 17.3724-49.9165 40.5025H94.708c4.898-25.2428 27.1174-44.3025 53.792-44.3025zm48.2544 80.7935c-9.259 17.1526-27.395 28.8079-48.2544 28.8079-20.5348 0-38.4283-11.2967-47.8137-28.0125h4.4105c8.987 14.5301 25.0632 24.2125 43.4032 24.2125 18.6725 0 34.9982-10.0368 43.8847-25.0079h4.3697z"/>
</svg>
