<?xml version="1.0" encoding="UTF-8"?>
<svg xmlns="http://www.w3.org/2000/svg" fill-rule="evenodd" clip-rule="evenodd" image-rendering="optimizeQuality" shape-rendering="geometricPrecision" text-rendering="geometricPrecision" viewBox="0 0 297 210">
  <defs>
    <style>
      .fil1,.fil2{fill:#0992a3;fill-rule:nonzero}.fil1{fill:#1b4660}
    </style>
  </defs>
  <g id="Layer_x0020_1">
    <path fill="none" d="M80.2376 65.069h136.525v79.8622H80.2376z"/>
    <g id="_270403944">
      <path id="_270403680" d="M107.455 102.405c-.2043 3.3516-.4202 6.3977-.6473 9.1568-.2385 2.7591-.4543 4.9627-.6474 6.6015l-2.0328 16.3878H91.0788l-5.4172-41.2844h11.0047l.8403 13.0177c.2613 4.2127.4429 7.6754.5338 10.3882.0795 2.7128.1249 5.2867.1249 7.7032v3.0646h.5679c.2838-4.37.5792-8.3513.8857-11.9344.2954-3.5738.5906-6.6477.8746-9.2216l1.5671-13.0177h11.1182l1.5672 13.0177c.3067 2.5739.6132 5.6478.9086 9.2216.3066 3.5831.5904 7.5644.8517 11.9344h.5678v-3.0646c0-2.4165.0454-4.9904.1477-7.7032.1022-2.7128.2725-6.1755.511-10.3882l.8404-13.0177h11.0387l-5.4513 41.2844H111.146l-2.067-16.4064c-.193-1.7036-.4088-3.9256-.6472-6.6755-.2272-2.7498-.443-5.7774-.6474-9.092l-.3294.0278z" class="fil1"/>
      <path id="_270401400" d="M144.649 94.4334c0 1.1573-.4883 2.0091-1.4651 2.5646-.9766.5463-2.487.8241-4.5199.8241-2.0442 0-3.5546-.2778-4.5312-.8241-.9768-.5555-1.4651-1.4073-1.4651-2.5646 0-1.1481.477-1.9814 1.4424-2.5276.9653-.5463 2.487-.8148 4.5539-.8148 2.0329 0 3.5433.2685 4.5199.8148.9768.5462 1.4651 1.3795 1.4651 2.5276zm-11.5157 40.1178V99.2849c.795.2685 1.6467.4722 2.544.6111.8971.1389 1.9192.2037 3.0435.2037.9766 0 1.9307-.0648 2.8505-.2037.92-.1389 1.8057-.3426 2.6461-.6111l.0341 35.2663h-11.1182z" class="fil2"/>
      <path id="_270403008" d="M161.015 113.154c2.1918-.0555 3.7476-.5555 4.6676-1.5091.9198-.9444 1.3854-2.5369 1.3854-4.759 0-1.611-.4201-2.7869-1.2606-3.5368-.8517-.75-2.1691-1.1296-3.9635-1.1296h-.8289v10.9345zm-10.9137 21.3968V93.2664h14.3661c4.3723 0 7.643 1.1203 9.8007 3.3609 2.1691 2.2499 3.248 5.6293 3.248 10.1475 0 5.1941-1.2946 9.0087-3.8953 11.4437-2.5893 2.4443-6.6436 3.6664-12.1402 3.6664h-.2045v12.6659h-11.1748z" class="fil2"/>
      <path id="_270404184" d="M182.344 134.551V93.2655h10.557v31.7395l19.334.072-2.088 9.474z" class="fil1"/>
      <path id="_270402696" fill="#0992a3" d="M160.468 74.4631c36.2612 6.7309 57.8947 28.7954 48.3193 49.2828-2.4508 5.244-6.7123 9.8742-12.2996 13.7516 1.1142-1.2483 2.1189-2.5556 2.9961-3.9247 12.4833-19.4847-4.783-43.6148-38.5649-53.8968-20.6477-6.2842-42.6852-5.9397-59.5514-.2737 16.1516-6.6697 37.7796-8.8967 59.1005-4.9392z"/>
      <path id="_270402672" d="M183.017 125.243V93.2651h10.5574v31.7397l.9787.0028c-.1687.0341-.3367.0708-.5036.1103h-9.0054c-.6891 0-1.3663.0428-2.0271.1251z" class="fil1"/>
    </g>
  </g>
</svg>
