<?xml version="1.0" encoding="UTF-8"?>
<!DOCTYPE svg PUBLIC "-//W3C//DTD SVG 1.1//EN" "http://www.w3.org/Graphics/SVG/1.1/DTD/svg11.dtd">
<!-- Creator: CorelDRAW X5 -->
<svg xmlns="http://www.w3.org/2000/svg" xml:space="preserve" width="297mm" height="210mm" style="shape-rendering:geometricPrecision; text-rendering:geometricPrecision; image-rendering:optimizeQuality; fill-rule:evenodd; clip-rule:evenodd"
viewBox="0 0 297 210"
 xmlns:xlink="http://www.w3.org/1999/xlink">
 <defs>
  <style type="text/css">
   <![CDATA[
    .fil0 {fill:none}
    .fil5 {fill:#65272D}
    .fil3 {fill:#C63D61}
    .fil2 {fill:#D02452}
    .fil1 {fill:#F091AF}
    .fil4 {fill:#65272D;fill-rule:nonzero}
    .fil6 {fill:#D02452;fill-rule:nonzero}
   ]]>
  </style>
 </defs>
 <g id="Layer_x0020_1">
  <metadata id="CorelCorpID_0Corel-Layer"/>
  <rect class="fil0" x="80.2374" y="65.0689" width="136.525" height="79.8623"/>
  <g id="_249224128">
   <path id="_247459456" class="fil1" d="M154.967 76.154c31.4935,0 57.0333,12.9175 57.0333,28.846 0,15.9286 -25.5398,28.8461 -57.0333,28.8461 -31.4931,0 -57.0329,-12.9175 -57.0329,-28.8461 0,-15.9285 25.5398,-28.846 57.0329,-28.846zm4.4485 1.734c28.9131,0 52.3605,12.1261 52.3605,27.0787 0,14.953 -23.4474,27.0792 -52.3605,27.0792 -28.9133,0 -52.3608,-12.1262 -52.3608,-27.0792 0,-14.9526 23.4475,-27.0787 52.3608,-27.0787z"/>
   <path id="_247461424" class="fil2" d="M182.647 84.1397l0.2849 0.2856 -0.803 0.0894 -1.0619 0.2013 -1.3469 0.3355 -0.8547 0.4697 -0.8288 0.4474 0.9064 0.2013 1.2952 0.246 0.8806 0.2237 -0.3367 -0.492 2.124 -0.9395 1.5022 0 2.3829 0.3131 0.7511 -0.4921 2.0721 -0.2013 3.5226 0 1.2174 0.2685 1.7095 0.5815 1.4505 0.5368 -1.8908 -0.067 1.3727 0.4473 2.2017 0.7829 2.2016 1.1183 1.6577 1.1408 1.4246 1.3644 1.7095 1.834 1.3987 1.9236 -0.5699 -0.4697 -0.8288 0.2014 0.1555 0.8499 0.8287 0.0894 0.2331 0.2237 0.4404 1.4762 0.1813 0.5145 -0.6475 -0.1566 -0.0778 1.0737 -1.4505 1.2973 0.3627 1.2749 -1.2433 0.9842 -0.6734 -2.1025 -1.0102 0.492 0.259 2.7512 0.0778 1.5881 -5.4135 3.2432 1.4764 2.0578 -2.5384 1.4539 -0.9842 -1.767 -0.6993 0.1789 0.4921 2.0354 2.0203 1.1184 -0.6475 0.6486 -1.3728 -0.2013 0.1813 0.8723 1.1397 0.0672 0.5439 1.6551 2.5384 0.4921 0 0.7381 -3.0564 0.0224 -4.6623 -4.3169 2.098 0.0448 -0.6475 -1.4987 -2.331 -4.451 0.0516 -1.7447 -0.9064 -0.0448 -0.4662 1.6105 -3.3414 2.2143 -0.0518 2.0578 -2.4606 0.5592 -1.7354 -3.8024 -1.1397 -0.2907 0.1554 -2.3263 -4.0405 -0.6486 -4.8696 -0.7605 1.2434 1.9907 1.554 -0.4026 1.6577 1.6104 -1.6836 1.7895 -3.5744 1.0959 -3.6003 -6.7997 -0.9324 0.0224 -0.0777 1.3868 2.2533 4.5853 1.865 1.4762 2.9269 -0.0671 -4.1702 5.9497 0.6994 0.7829 0.1036 0.4473 0.4921 1.1855 -0.9584 0.5145 0.3368 1.0289 -0.9325 0.9169 -1.2692 -0.671 -1.3209 -1.2748 -1.3988 -1.4316 -1.3208 -1.7446 -0.2591 -0.7382 -0.4144 -0.9171 -1.3728 -2.1471 0.1295 -0.2461 -1.321 -1.9907 -0.518 -1.767 -0.3763 -1.8788 0 -3.1314 0.2208 -0.3355 0 -0.783 -0.0516 -0.2459 0.3625 -2.0355 0.285 -0.2012 0.2072 -1.1632 0.2589 -0.3803 0.2591 -0.8052 0 -0.3579 0.3884 -0.9393 -0.2954 1.1752 0.5838 -0.9027 0.4463 -0.6816 0.0864 -0.4164 0.3525 -0.5926 0.173 -0.1388 -0.0618 0.3577 1.4653 -0.8169 0.2535 -0.4538 0.1051 -0.2295 0.8902 -0.6781 1.5024 -0.9343 -0.1731 -0.3203 -1.5641 0.9557 0.0494 -0.6514 1.2798 -1.1478 -0.2288 -0.1817 -1.8176 1.8901 0.0927 0.2776 -0.4204 0.8275 -0.7172 0.6941 -0.3771 0.3363 0.0865 -0.5499 -0.5317 0.5393 0.4576 -0.7421 0.2473 -0.4646 0.612 -0.7154 1.3108 -1.5108 0.7913 -0.8489 0.7604 -0.5179 1.1191 -0.881 0.6862 -0.3843 1.0696 -0.3845 0.8037 -0.1495 1.4962 -0.2882 -1.3293 1.1158 -1.6321 0.4058 0.6987 0.5445 2.1638 -1.2493 1.9227 -1.0784 0.7048 -0.283 0.8471 -0.1549 1.6816 -0.2028 0.0681 -0.0855 -1.4406 -0.7634 0.5007 -0.2616 0.9213 -0.5019 0.7357 -0.3203 0.7418 -0.2776 0.7172 -0.1816 0.847 -0.1708 1.3136 -0.2576zm-4.582 12.9842l0.8143 -0.1117 0.1293 1.161 -0.9306 0.1227 -0.013 -1.172zm-3.9036 0.3794l0.9694 -0.7032 0.4137 0.4243 -1.0212 1.1496 1.0083 2.0093 -1.3572 0.3796 -0.013 -3.2596zm-8.1232 1.1217l1.2775 -1.5494 0.4879 0.8181 0.8899 -0.1983 0.0143 -0.7809 0.8469 0.0248 0.8612 1.5618 -3.1864 0.0867 -1.0334 1.004 -0.1579 -0.9668zm-2.2677 1.3386l-0.4737 -1.5494 0.1867 -0.3842 0.7319 1.6485 0.0287 1.6113 1.0909 1.0908 0 -2.1815 1.2199 2.0823 1.2775 -1.7849 -0.1148 1.7228 -0.5311 0.5455 -2.6554 0.0247 -0.5022 -0.6817 -0.8326 1.0536 -1.019 -0.533 0.0287 -0.5825 -0.1578 -0.8057 -0.8039 0.5082 -0.1866 0.4834 0.2584 -1.227 0.531 -1.2148 0.0719 0.1736 0.5597 -0.8181 0.488 0.7933 0.0144 1.5741 0.7894 -1.5493z"/>
   <polygon id="_247461664" class="fil3" points="208.789,96.9348 209.204,97.8808 209.154,98.0959 209.436,98.7839 209.137,99.0849 208.706,98.3395 209.076,98.0489 209.102,97.8065 "/>
   <polygon id="_247461832" class="fil3" points="207.857,98.4732 208.874,99.619 208.675,100.898 208.366,102.178 206.53,103.477 205.778,102.484 207.791,101.032 "/>
   <polygon id="_247461976" class="fil3" points="208.277,103.438 208.587,103.648 209.162,105.329 208.72,106.035 "/>
   <polygon id="_247462192" class="fil3" points="199.263,113.801 201.522,111.905 202.572,113.581 201.013,115.861 198.913,115.669 "/>
   <polygon id="_247461088" class="fil3" points="203.59,113.361 204.449,113.636 203.017,115.696 202.126,115.669 "/>
   <polygon id="_247460056" class="fil3" points="205.467,113.608 206.612,113.746 207.694,113.691 208.139,113.581 207.757,114.652 207.535,115.009 205.658,115.421 205.117,115.421 "/>
   <polygon id="_247462456" class="fil3" points="206.835,115.779 206.644,116.438 205.689,117.62 204.64,118.828 203.208,120.12 202.126,120.999 201.394,121.411 200.026,122.208 198.467,123.005 197.608,123.423 198.69,122.4 197.958,122.345 198.34,121.906 198.658,120.999 200.408,119.955 202.349,118.636 204.162,117.262 204.799,116.685 205.753,117.098 206.23,116.438 "/>
   <polygon id="_247461136" class="fil3" points="186.769,111.905 187.836,111.324 188.79,112.389 187.443,113.163 "/>
   <polygon id="_247463272" class="fil3" points="172.398,119.5 174.195,118.678 175.037,119.21 174.419,121.919 172.342,120.661 "/>
   <path id="_247463008" class="fil4" d="M85.1497 99.1933c0.9723,0 1.9484,0 2.9206,0 0.9723,0 1.9483,0 2.9244,0 -0.0531,0.1426 -0.1065,0.2851 -0.1597,0.4275 -0.3411,0.0216 -0.59,0.1047 -0.7453,0.249 -0.154,0.1432 -0.2459,0.3813 -0.2722,0.7118 -0.0092,0.1142 -0.0139,0.2019 -0.0159,0.2644 -0.0019,0.0636 -0.0025,0.1237 -0.0019,0.1821 0.009,0.7116 0.0206,1.4244 0.0296,2.1353 0.0088,0.7106 0.0218,1.4227 0.0354,2.1334 0.4516,-0.7356 0.9009,-1.4726 1.3448,-2.2089 0.4433,-0.7352 0.8803,-1.4739 1.3175,-2.21 0.04,-0.0675 0.0994,-0.162 0.1754,-0.2833 0.1606,-0.2565 0.2503,-0.4269 0.2564,-0.5152 0.0076,-0.1089 -0.0517,-0.2033 -0.1598,-0.2825 -0.1087,-0.0794 -0.272,-0.1373 -0.4811,-0.1761 0.0453,-0.1424 0.0907,-0.2849 0.136,-0.4275 0.8618,0 1.7235,0 2.5833,0 0.8619,0 1.7255,0 2.5871,0 -0.0354,0.1426 -0.0707,0.2851 -0.1063,0.4275 -0.3432,0.0216 -0.5858,0.1076 -0.7356,0.255 -0.1496,0.1477 -0.231,0.3881 -0.2445,0.7188 -0.0041,0.1053 -0.0068,0.1871 -0.0059,0.2428 0.001,0.0549 0.0067,0.1066 0.0098,0.1539 0.054,0.8017 0.1075,1.6037 0.1638,2.4046 0.056,0.801 0.1143,1.6023 0.1734,2.4031 0.4574,-0.8001 0.9118,-1.6 1.3588,-2.4004 0.4463,-0.7999 0.8928,-1.5991 1.3271,-2.4005 0.1374,-0.2538 0.2308,-0.4594 0.2958,-0.6071 0.065,-0.1483 0.099,-0.2575 0.1005,-0.3246 0.0025,-0.109 -0.0596,-0.1987 -0.1834,-0.2721 -0.1226,-0.0725 -0.3154,-0.1305 -0.5778,-0.1735 0.0197,-0.1424 0.0415,-0.2849 0.0631,-0.4275 1.3055,0 2.615,0 3.9243,0 -0.0336,0.1409 -0.0631,0.2807 -0.0927,0.4207 -0.3608,0.0086 -0.6739,0.1275 -0.9446,0.3564 -0.2697,0.2277 -0.6135,0.7116 -1.043,1.4483 -0.4774,0.8181 -0.9649,1.6337 -1.4534,2.4486 -0.4895,0.8163 -0.9848,1.6338 -1.4909,2.447 -0.119,0.1912 -0.2224,0.3576 -0.2919,0.5065 -0.0684,0.1471 -0.1008,0.261 -0.1044,0.3427 -0.0044,0.1029 0.0203,0.1798 0.073,0.2257 0.0535,0.0467 0.1497,0.0773 0.2897,0.0944 -0.0218,0.0987 -0.0432,0.1975 -0.0631,0.2953 -0.9563,0 -1.9147,0 -2.8691,0 -0.9544,0 -1.9129,0 -2.8672,0 0.0177,-0.0978 0.0354,-0.1966 0.0531,-0.2953 0.1932,-0.0257 0.3324,-0.0764 0.4181,-0.1545 0.0838,-0.0763 0.1296,-0.1975 0.14,-0.3606 0.0012,-0.0172 0.001,-0.0876 -0.002,-0.2147 -0.0027,-0.1243 -0.0066,-0.2937 -0.0118,-0.5022 -0.0144,-0.5683 -0.0277,-1.1376 -0.0375,-1.706 -0.0096,-0.5681 -0.0196,-1.1376 -0.0296,-1.7069 -0.3726,0.601 -0.7472,1.2022 -1.1241,1.8013 -0.378,0.6011 -0.7656,1.1985 -1.1436,1.8005 -0.1405,0.2238 -0.2297,0.3894 -0.282,0.4877 -0.0522,0.0982 -0.0853,0.1708 -0.0868,0.2223 -0.0024,0.084 0.0231,0.1533 0.0672,0.2043 0.0446,0.0518 0.1202,0.0945 0.2247,0.1288 -0.0256,0.0987 -0.0513,0.1975 -0.0749,0.2953 -0.8715,0 -1.7434,0 -2.6148,0 -0.8717,0 -1.7433,0 -2.6148,0 0.0216,-0.0978 0.0452,-0.1966 0.0689,-0.2953 0.2208,-0.0499 0.3872,-0.1311 0.493,-0.243 0.1051,-0.1112 0.1697,-0.2698 0.1893,-0.4799 0.0059,-0.0628 0.0107,-0.213 0.0059,-0.4464 -0.003,-0.1417 0.0014,-0.2533 0,-0.3322 -0.016,-0.8484 -0.0413,-1.6967 -0.0572,-2.545 -0.0155,-0.8481 -0.0297,-1.6972 -0.0414,-2.5464 -0.0001,-0.0127 -0.0037,-0.037 -0.0039,-0.0687 -0.0037,-0.7785 -0.2899,-1.2036 -0.8657,-1.2698 0.0493,-0.1194 0.0986,-0.2387 0.1498,-0.3589z"/>
   <path id="_247462696" class="fil4" d="M107.761 107.802l0.5318 -3.5509 0.5282 0c0.1018,0.892 0.5317,1.5856 1.2931,2.0807 0.758,0.4929 1.7786,0.7404 3.0618,0.7404 0.873,0 1.5915,-0.1238 2.1593,-0.3714 0.5677,-0.2495 0.8499,-0.5569 0.8499,-0.9239 0,-0.4503 -0.8303,-0.8941 -2.4909,-1.3316l-0.0097 0 -1.3651 -0.35c-0.0691,-0.017 -0.1839,-0.047 -0.3349,-0.0874 -0.9057,-0.2263 -1.5291,-0.4823 -1.877,-0.7704 -0.2101,-0.1622 -0.3642,-0.3393 -0.466,-0.5335 -0.0987,-0.1942 -0.1478,-0.4075 -0.1478,-0.6402 0,-0.8515 0.5022,-1.5407 1.5098,-2.072 1.004,-0.5313 2.3265,-0.7981 3.9609,-0.7981 0.6594,0 1.4439,0.0619 2.3495,0.1878 0.9058,0.1258 1.4801,0.1877 1.7263,0.1877 0.1476,0 0.2919,-0.017 0.4363,-0.0491 0.1445,-0.034 0.2955,-0.0874 0.4563,-0.1579l-0.4988 2.6376 -0.548 -0.0257c-0.1871,-0.5909 -0.5679,-1.0285 -1.1388,-1.3079 -0.5744,-0.2818 -1.3718,-0.4226 -2.3892,-0.4226 -0.6038,0 -1.0795,0.0768 -1.4341,0.2283 -0.3511,0.1515 -0.5282,0.3522 -0.5282,0.6039 0,0.3414 0.6038,0.67 1.8082,0.986 0.082,0.0212 0.1477,0.0384 0.1935,0.051l2.1529 0.5507c0.9024,0.2326 1.5588,0.5185 1.9655,0.8599 0.4072,0.3394 0.6106,0.764 0.6106,1.2783 0,0.9454 -0.6431,1.7306 -1.9329,2.3558 -1.2897,0.6253 -2.9435,0.9389 -4.9619,0.9389 -0.9483,0 -1.9264,-0.081 -2.9372,-0.2453 -1.0106,-0.1621 -1.5455,-0.2433 -1.6111,-0.2433 -0.1149,0 -0.2462,0.015 -0.3939,0.047 -0.1476,0.032 -0.3215,0.081 -0.5284,0.1472zm20.0676 0.1131l0.0951 -0.3564c0.3872,-0.049 0.6629,-0.1323 0.8333,-0.2475 0.1709,-0.1131 0.3251,-0.382 0.4662,-0.8023l1.3062 -3.9202 -3.6822 0 -1.2208 3.7515c-0.0591,0.1665 -0.0951,0.286 -0.1149,0.3586 -0.0195,0.0725 -0.0295,0.1365 -0.0295,0.192 0,0.207 0.0788,0.3692 0.2364,0.4844 0.1575,0.1131 0.3742,0.1751 0.6496,0.1835l-0.118 0.3564 -5.9201 0 0.0951 -0.3564c0.3806,-0.049 0.6563,-0.1344 0.8271,-0.2539 0.1739,-0.1173 0.3314,-0.3841 0.4724,-0.7959l1.7952 -5.559 0 -0.0171c0.0918,-0.271 0.1344,-0.4481 0.1344,-0.5334 0,-0.2071 -0.0753,-0.3692 -0.2297,-0.4844 -0.1541,-0.1131 -0.3708,-0.1751 -0.6529,-0.1836l0.1148 -0.3564 5.9234 0 -0.0951 0.3564c-0.6629,0.0875 -1.0962,0.4375 -1.3095,1.0499l-0.0098 0.0128 -0.3183 0.9005 3.705 0 0.2592 -0.7447c0.0559,-0.1664 0.092,-0.2859 0.1082,-0.3585 0.0166,-0.0725 0.0265,-0.1365 0.0265,-0.192 0,-0.2071 -0.0788,-0.3692 -0.2332,-0.4844 -0.1541,-0.1131 -0.3708,-0.1751 -0.6531,-0.1836l0.1151 -0.3564 5.9527 0 -0.0951 0.3564c-0.3806,0.0491 -0.6563,0.1345 -0.8269,0.256 -0.1739,0.1217 -0.3348,0.3906 -0.4826,0.8067l-1.808 5.5461c-0.0067,0.0172 -0.0131,0.0363 -0.0165,0.0619 -0.0789,0.2411 -0.118,0.4034 -0.118,0.4887 0,0.207 0.0786,0.3692 0.233,0.4844 0.1541,0.1131 0.3708,0.1751 0.653,0.1835l-0.115 0.3564 -5.9527 0z"/>
   <path id="_247462744" class="fil4" d="M151.914 99.3125l-0.115 0.2945c-0.2952,0.032 -0.5152,0.0853 -0.6628,0.1557 -0.1477,0.0705 -0.2198,0.1601 -0.2198,0.269 0,0.0704 0.0295,0.1557 0.0918,0.2539 0.059,0.0961 0.1476,0.2005 0.2626,0.3094l2.2019 2.1126 0.5777 -1.8202c0.0524,-0.1665 0.0853,-0.286 0.105,-0.3586 0.0196,-0.0725 0.0296,-0.1365 0.0296,-0.192 0,-0.2071 -0.0755,-0.3692 -0.2298,-0.4844 -0.1544,-0.1131 -0.3741,-0.1751 -0.6562,-0.1835l0.118 -0.3564 3.7968 0 -0.1148 0.3564c-0.3774,0.049 -0.653,0.1344 -0.8269,0.2559 -0.1739,0.1217 -0.3315,0.3906 -0.4726,0.8067l-1.7982 5.5462 0 0.0171c-0.0887,0.271 -0.1348,0.4481 -0.1348,0.5334 0,0.2071 0.0787,0.3692 0.2332,0.4844 0.1542,0.1131 0.3708,0.1751 0.653,0.1835l-0.115 0.3564 -3.8 0 0.1148 -0.3307c0.4363,-0.0469 0.7548,-0.1537 0.9483,-0.3222 0.1971,-0.1687 0.2922,-0.4161 0.2922,-0.7405 0,-0.2539 -0.2331,-0.5997 -0.699,-1.0329 -0.1052,-0.0959 -0.1773,-0.1664 -0.2232,-0.2112l-4.5484 -4.3639 -1.7197 5.4266c-0.0525,0.1664 -0.0884,0.2859 -0.1082,0.3585 -0.0164,0.0725 -0.0262,0.1365 -0.0262,0.192 0,0.2027 0.0787,0.3628 0.2395,0.4802 0.1609,0.1173 0.3806,0.1793 0.6629,0.1877l-0.1148 0.3564 -3.797 0 0.0951 -0.3564c0.3808,-0.049 0.6565,-0.1344 0.8272,-0.2539 0.174,-0.1173 0.3315,-0.384 0.4725,-0.7959l1.795 -5.5589 0 -0.0193c0.092,-0.2689 0.1346,-0.446 0.1346,-0.5313 0,-0.2071 -0.0755,-0.3692 -0.2297,-0.4844 -0.1542,-0.1131 -0.3708,-0.1751 -0.653,-0.1835l0.1147 -0.3564 7.4987 0zm5.7888 7.1338l1.795 -5.5569 0 -0.0192c0.092,-0.271 0.1346,-0.4481 0.1346,-0.5313 0,-0.2092 -0.0755,-0.3713 -0.2297,-0.4865 -0.1541,-0.1131 -0.3708,-0.1751 -0.6529,-0.1835l0.1146 -0.3564 8.0007 0c0.5711,0 1.0372,-0.0086 1.3982,-0.0256 0.3609,-0.0171 0.6859,-0.0406 0.9745,-0.0747l0.1837 2.8018 -0.5381 0c-0.1542,-0.6124 -0.5512,-1.0734 -1.188,-1.3828 -0.6366,-0.3094 -1.5128,-0.463 -2.6286,-0.463 -1.0008,0 -1.6178,0.3714 -1.8573,1.114l-0.0098 0.0256 -0.2398 0.7062 1.2405 0c0.7811,0 1.3259,-0.0704 1.631,-0.2091 0.3019,-0.1409 0.4956,-0.3948 0.5712,-0.766l0.5576 0 0 3.1133 -0.5576 0c-0.0658,-0.416 -0.3086,-0.7276 -0.7318,-0.9345 -0.4235,-0.2071 -1.0305,-0.3096 -1.8247,-0.3096 -0.1609,0 -0.338,0.0044 -0.5317,0.015 -0.1902,0.0106 -0.4136,0.0278 -0.6728,0.0534l-0.6989 2.1617c-0.0722,0.2177 -0.1248,0.4096 -0.1641,0.5783 -0.0395,0.1707 -0.0591,0.2966 -0.0591,0.3798 0,0.2796 0.128,0.4801 0.3874,0.606 0.256,0.1259 0.6661,0.1879 1.2306,0.1879 1.0959,0 2.0935,-0.1815 2.9929,-0.5421 0.9022,-0.3606 1.7949,-0.9389 2.6779,-1.7348l0.4723 0.1365 -2.2315 3.2713c-0.2198,-0.0575 -0.4528,-0.1003 -0.7021,-0.128 -0.2496,-0.0278 -0.5581,-0.0406 -0.9223,-0.0406l-9.3166 0 0.095 -0.3564c0.3808,-0.049 0.6566,-0.1344 0.8273,-0.2539 0.1739,-0.1173 0.3314,-0.384 0.4724,-0.7959zm17.1893 -6.0584c-0.9615,0.0256 -1.8148,0.1901 -2.553,0.4973 -0.7418,0.3073 -1.3357,0.7384 -1.7854,1.2975l-0.5086 -0.0128 1.7492 -3.0388c0.1674,0.0619 0.3247,0.1088 0.4757,0.1366 0.151,0.0298 0.2985,0.0448 0.4399,0.0448l8.3256 0c0.1739,0 0.3708,-0.015 0.5905,-0.047 0.2232,-0.032 0.4628,-0.0767 0.7254,-0.1344l0.0591 3.0024 -0.5481 -0.0192c-0.1216,-0.5462 -0.4497,-0.9646 -0.9844,-1.2568 -0.535,-0.2923 -1.2636,-0.4482 -2.1792,-0.4696l-1.8936 5.8898c-0.0457,0.128 -0.0787,0.2391 -0.0984,0.3307 -0.0164,0.0919 -0.0262,0.1643 -0.0262,0.2198 0,0.2071 0.0755,0.3692 0.2297,0.4844 0.1543,0.1131 0.3708,0.1751 0.6529,0.1835l-0.1148 0.3564 -5.943 0 0.118 -0.3564c0.3776,-0.049 0.6532,-0.1344 0.8271,-0.2539 0.1707,-0.1173 0.3283,-0.384 0.4693,-0.7959l1.9723 -6.0584z"/>
   <polygon id="_247463224" class="fil5" points="105.592,99.2377 105.906,99.3121 100.359,119.314 99.2845,119.011 "/>
   <polygon id="_247463200" class="fil5" points="105.452,93.9441 104.391,92.6431 106.301,93.0279 107.234,91.2664 107.468,93.0279 109.552,92.6615 107.892,93.9258 108.974,95.3184 107.128,94.9335 106.131,96.7035 105.94,94.9335 103.967,95.3001 "/>
   <polygon id="_249222208" class="fil2" points="101.975,87.8122 102.741,87.9617 102.943,87.3261 103.189,87.9493 103.999,87.8122 103.406,88.3356 104.013,88.9089 103.16,88.7469 102.929,89.4074 102.726,88.7095 101.888,88.884 102.466,88.373 "/>
   <polygon id="_249222184" class="fil2" points="110.161,83.986 111.128,84.1787 111.628,83.27 111.702,84.1695 112.776,83.9493 111.915,84.6285 112.542,85.381 111.522,85.1424 111.033,86.0511 110.937,85.1149 109.842,85.381 110.682,84.6743 "/>
   <polygon id="_249224776" class="fil5" points="109.063,88.9651 109.809,89.0809 110.035,88.4653 110.22,89.1026 110.975,88.9505 110.446,89.4502 110.949,89.9498 110.195,89.8123 110.01,90.435 109.826,89.805 109.054,89.9644 109.557,89.4574 "/>
   <polygon id="_249221200" class="fil5" points="99.6743,94.1513 99.2886,93.7693 99.9125,93.8672 100.06,93.3187 100.298,93.8966 100.945,93.7399 100.446,94.1806 100.933,94.6312 100.241,94.4745 100.083,95.0818 99.9125,94.4745 99.1866,94.641 "/>
   <polygon id="_249234784" class="fil2" points="112.051,93.8109 112.701,93.9512 112.863,93.3243 113.083,93.9099 113.809,93.7945 113.264,94.2481 113.77,94.7182 113.083,94.5945 112.882,95.2048 112.729,94.5945 111.984,94.7182 112.51,94.2481 "/>
   <path id="_249220984" class="fil6" d="M202.71 87.3796l-0.2739 0 0 -2.1675 -0.5576 0 0 -0.236 1.389 0 0 0.236 -0.5575 0 0 2.1675zm0.8557 0l0 -2.4035 0.4041 0 0.9649 2.0898 0.9616 -2.0898 0.4041 0 0 2.4035 -0.2622 0 0 -2.1229 -0.9806 2.1229 -0.2472 0 -0.9806 -2.1229 0 2.1229 -0.2641 0z"/>
   <path id="_249220648" class="fil6" d="M110.975 110.428c0.0803,0 0.1655,0 0.2508,0 0.1606,0 0.281,-0.0036 0.3612,-0.0109 0.0802,-0.0071 0.1498,-0.0207 0.2006,-0.0359 0.0996,-0.0299 0.1837,-0.0699 0.2408,-0.1307 0.0533,-0.0565 0.0819,-0.1271 0.0903,-0.2049 0.0066,-0.0598 0,-0.1121 -0.03,-0.1569 -0.0303,-0.045 -0.0757,-0.0805 -0.1456,-0.1089 -0.0454,-0.0183 -0.1003,-0.0331 -0.1655,-0.0413 -0.0651,-0.008 -0.1654,-0.0124 -0.3059,-0.0124 -0.0402,0 -0.0802,0 -0.1155,0 -0.0551,0 -0.1103,0 -0.1556,0 -0.04,0.1172 -0.0798,0.2332 -0.1202,0.3512 -0.0398,0.1158 -0.0653,0.2339 -0.1054,0.3507zm-0.7124 1.0967c0.1003,-0.3357 0.2084,-0.672 0.306,-1.007 0.0979,-0.3364 0.2107,-0.6716 0.3161,-1.0075 0.1706,0 0.3411,0 0.5068,0 0.2808,0 0.4765,0.0093 0.5918,0.0276 0.1153,0.0184 0.2119,0.0476 0.2958,0.0936 0.0818,0.0448 0.1427,0.1039 0.1858,0.1739 0.042,0.0684 0.0542,0.1464 0.0451,0.2318 -0.0108,0.1019 -0.047,0.1952 -0.1103,0.2729 -0.067,0.0824 -0.165,0.149 -0.2759,0.203 -0.0947,0.0461 -0.2107,0.0779 -0.3362,0.0972 -0.1302,0.02 -0.3259,0.0297 -0.5969,0.0297 -0.0502,0 -0.1003,0 -0.1505,0 -0.0451,0 -0.0903,0 -0.1305,0 -0.0451,0.1476 -0.0902,0.2954 -0.1354,0.4427 -0.0451,0.1473 -0.0902,0.2948 -0.1355,0.4421 -0.1254,0 -0.2507,0 -0.3762,0zm4.3043 -1.116c0.0852,0 0.1705,0 0.2558,0 0.1555,0 0.271,-0.0032 0.351,-0.0107 0.0753,-0.0069 0.1503,-0.0205 0.2108,-0.0377 0.095,-0.027 0.1756,-0.0682 0.2308,-0.125 0.055,-0.0567 0.0903,-0.1229 0.1003,-0.1982 0.015,-0.1135 -0.0306,-0.1932 -0.1405,-0.241 -0.1055,-0.0458 -0.311,-0.07 -0.6221,-0.07 -0.0601,0 -0.1153,0 -0.1705,0 -0.04,0.114 -0.0802,0.2278 -0.1153,0.3414 -0.0352,0.1136 -0.0703,0.2276 -0.1003,0.3412zm-0.7224 1.116c0.1003,-0.3357 0.211,-0.6725 0.311,-1.007 0.1007,-0.3368 0.2156,-0.6716 0.3261,-1.0075 0.1606,0 0.3311,0 0.5017,0 0.2759,0 0.4714,0.0096 0.5818,0.0276 0.1154,0.0187 0.211,0.0492 0.2959,0.0936 0.0905,0.0473 0.1488,0.107 0.1908,0.1752 0.0432,0.0703 0.0601,0.1464 0.05,0.2305 -0.0199,0.1681 -0.126,0.3013 -0.3109,0.4023 -0.1812,0.0991 -0.4264,0.1506 -0.7175,0.1525 0.1405,0.1555 0.2861,0.3111 0.4266,0.4665 0.1403,0.1553 0.2858,0.311 0.4363,0.4663 -0.1555,0 -0.306,0 -0.4564,0 -0.1354,-0.155 -0.2812,-0.3098 -0.4114,-0.4648 -0.1305,-0.1549 -0.271,-0.3101 -0.4062,-0.4653 -0.0554,0 -0.1056,0 -0.1556,0 -0.0553,0.1552 -0.1079,0.3099 -0.1555,0.4653 -0.0474,0.1544 -0.0903,0.3098 -0.1405,0.4648 -0.1204,0 -0.2458,0 -0.3662,0zm3.6771 0c0.1053,-0.3357 0.2161,-0.6725 0.3161,-1.007 0.1004,-0.3368 0.2207,-0.6716 0.3311,-1.0075 0.1304,0 0.2607,0 0.3912,0 -0.1104,0.3359 -0.2283,0.6711 -0.3311,1.0075 -0.1027,0.335 -0.2156,0.6713 -0.321,1.007 -0.1304,0 -0.256,0 -0.3863,0zm2.5936 -2.0145c0.1304,0 0.2658,0 0.4012,0 0.0654,0.2516 0.1279,0.5029 0.1958,0.7548 0.0675,0.2511 0.1252,0.5034 0.1955,0.7547 0.2258,-0.2513 0.4682,-0.5023 0.6974,-0.7547 0.2273,-0.2503 0.4566,-0.5032 0.6923,-0.7548 0.1405,0 0.2808,0 0.4213,0 -0.336,0.349 -0.6673,0.6979 -0.9932,1.0468 -0.3261,0.3486 -0.6572,0.6975 -0.9882,1.0461 -0.1005,-0.3486 -0.2085,-0.6979 -0.311,-1.0461 -0.103,-0.3493 -0.2059,-0.6978 -0.3111,-1.0468zm3.1653 2.0145c0.3463,-0.349 0.706,-0.6993 1.0535,-1.0472 0.3497,-0.35 0.7074,-0.6981 1.0637,-1.0474 0.1202,0.3493 0.2435,0.6991 0.361,1.0474 0.1182,0.3497 0.2458,0.6982 0.3713,1.0472 -0.1405,0 -0.2759,0 -0.4164,0 -0.0501,-0.169 -0.0952,-0.3383 -0.1454,-0.5076 -0.4566,0 -0.913,0 -1.3696,0 -0.1655,0.1693 -0.3311,0.3386 -0.4916,0.5076 -0.1455,0 -0.286,0 -0.4265,0zm1.1087 -0.7153c0.3763,0 0.7474,0 1.1238,0 -0.0502,-0.1338 -0.1005,-0.2679 -0.1405,-0.4018 -0.04,-0.1337 -0.0903,-0.2679 -0.1304,-0.4019 -0.1455,0.134 -0.2895,0.2692 -0.4265,0.4019 -0.139,0.1349 -0.2859,0.268 -0.4264,0.4018zm3.7774 0.7153c0.1005,-0.2992 0.1981,-0.5978 0.3011,-0.8976 0.1027,-0.2986 0.2008,-0.5987 0.306,-0.898 -0.2607,0 -0.5267,0 -0.7876,0 0.0252,-0.0728 0.0502,-0.1459 0.0753,-0.2189 0.6571,0 1.3193,0 1.9814,0 -0.025,0.073 -0.05,0.1461 -0.0751,0.2189 -0.2709,0 -0.5368,0 -0.8026,0 -0.1054,0.2993 -0.2158,0.5988 -0.3161,0.898 -0.1003,0.2991 -0.2008,0.5984 -0.3011,0.8976 -0.1304,0 -0.2607,0 -0.3813,0zm4.6756 -0.2229c-0.0301,0.0743 -0.0552,0.1485 -0.0802,0.2229 -0.562,0 -1.1187,0 -1.6756,0 0.1104,-0.3357 0.2311,-0.6725 0.3411,-1.007 0.1107,-0.3369 0.2357,-0.6716 0.3563,-1.0075 0.5417,0 1.0785,0 1.6252,0 -0.0251,0.073 -0.0552,0.1461 -0.0802,0.2189 -0.4164,0 -0.8379,0 -1.2492,0 -0.0351,0.1004 -0.0655,0.2017 -0.1003,0.3006 -0.0355,0.1014 -0.0753,0.2004 -0.1054,0.3005 0.4114,0 0.8278,0 1.2442,0 -0.0252,0.0722 -0.0502,0.1444 -0.0752,0.2163 -0.4214,0 -0.8328,0 -1.2492,0 -0.0452,0.126 -0.0954,0.2522 -0.1354,0.3779 -0.04,0.1257 -0.0903,0.2516 -0.1305,0.3774 0.4365,0 0.8779,0 1.3144,0zm4.2941 0.2229c0.1155,-0.3357 0.2413,-0.6726 0.3563,-1.007 0.1156,-0.3369 0.2458,-0.6716 0.3711,-1.0075 0.1204,0 0.2459,0 0.3762,0 -0.1102,0.2987 -0.2185,0.5979 -0.326,0.896 -0.1079,0.299 -0.2157,0.5971 -0.321,0.8956 0.3762,0 0.7524,0 1.1337,0 -0.0301,0.0743 -0.0552,0.1485 -0.0802,0.2229 -0.5017,0 -1.0084,0 -1.5101,0zm3.1855 0c0.1155,-0.3357 0.2464,-0.6726 0.3614,-1.007 0.1156,-0.3369 0.2457,-0.6716 0.3762,-1.0075 0.1253,0 0.2558,0 0.3862,0 -0.1255,0.3359 -0.2559,0.6717 -0.3712,1.0075 -0.1155,0.3355 -0.2459,0.6713 -0.3662,1.007 -0.1306,0 -0.2559,0 -0.3864,0zm2.2073 0c0.2157,-0.349 0.4296,-0.6991 0.6473,-1.0472 0.2186,-0.3497 0.4414,-0.6981 0.6671,-1.0474 0.1003,0.2765 0.2079,0.5526 0.3109,0.8294 0.1027,0.2755 0.2058,0.5527 0.3061,0.8289 0.2961,-0.2762 0.5948,-0.5507 0.893,-0.8289 0.2936,-0.274 0.5918,-0.5529 0.898,-0.8294 -0.0402,0.3493 -0.0703,0.6986 -0.1054,1.0474 -0.0351,0.349 -0.0753,0.6982 -0.1054,1.0472 -0.1254,0 -0.2458,0 -0.3711,0 0.03,-0.2326 0.0527,-0.4652 0.0853,-0.6975 0.0324,-0.2327 0.0651,-0.4653 0.1003,-0.698 -0.2658,0.2458 -0.5368,0.4916 -0.7977,0.7371 -0.2608,0.2455 -0.5318,0.4913 -0.7927,0.7368 -0.0901,-0.2459 -0.1759,-0.4933 -0.2608,-0.7381 -0.0857,-0.2471 -0.1806,-0.4923 -0.2608,-0.7385 -0.1406,0.2331 -0.286,0.4664 -0.4164,0.6992 -0.1303,0.2329 -0.2759,0.4662 -0.4113,0.699 -0.1255,0 -0.256,0 -0.3864,0zm5.2774 0c0.1255,-0.3357 0.2565,-0.6726 0.3764,-1.007 0.1207,-0.3371 0.2558,-0.6716 0.3862,-1.0075 0.1305,0 0.2609,0 0.3963,0 -0.1304,0.3359 -0.2609,0.6717 -0.3864,1.0075 -0.1253,0.3355 -0.2556,0.6713 -0.3862,1.007 -0.1254,0 -0.2558,0 -0.3863,0zm2.9096 0c0.1155,-0.2992 0.2259,-0.5984 0.3413,-0.8976 0.1153,-0.2992 0.2306,-0.5987 0.346,-0.898 -0.2658,0 -0.5318,0 -0.7927,0 0.0252,-0.0728 0.0553,-0.1459 0.0804,-0.2189 0.6623,0 1.3244,0 1.9916,0 -0.0352,0.073 -0.0652,0.1461 -0.0953,0.2189 -0.2659,0 -0.5317,0 -0.7977,0 -0.1153,0.2993 -0.2357,0.5988 -0.351,0.898 -0.1154,0.2992 -0.2258,0.5984 -0.3413,0.8976 -0.1253,0 -0.2558,0 -0.3813,0zm4.6906 -0.2229c-0.0402,0.0743 -0.0652,0.1485 -0.0954,0.2229 -0.5618,0 -1.1187,0 -1.6754,0 0.1254,-0.3357 0.2614,-0.6728 0.3861,-1.007 0.126,-0.3371 0.266,-0.6716 0.4014,-1.0075 0.5368,0 1.0785,0 1.6204,0 -0.0252,0.073 -0.0552,0.1461 -0.0853,0.2189 -0.4214,0 -0.8379,0 -1.2541,0 -0.0402,0.1004 -0.0731,0.2011 -0.1104,0.3006 -0.0379,0.1009 -0.0802,0.2004 -0.1204,0.3005 0.4164,0 0.8277,0 1.2492,0 -0.0302,0.0722 -0.0603,0.1444 -0.0903,0.2163 -0.4165,0 -0.8278,0 -1.2442,0 -0.0552,0.126 -0.1077,0.2514 -0.1555,0.3779 -0.0475,0.1252 -0.0953,0.2516 -0.1405,0.3774 0.4365,0 0.8728,0 1.3144,0zm2.2173 0.0026c0.0652,0 0.1354,0 0.2057,0 0.3161,0 0.5418,-0.0057 0.6722,-0.0172 0.1303,-0.0115 0.2411,-0.0306 0.3362,-0.0582 0.2259,-0.0658 0.4135,-0.1682 0.5518,-0.2994 0.1425,-0.1353 0.2405,-0.2901 0.2758,-0.47 0.0299,-0.1512 0.012,-0.2851 -0.0601,-0.3983 -0.0733,-0.1153 -0.1973,-0.1971 -0.3612,-0.2579 -0.0669,-0.0247 -0.1606,-0.0482 -0.2709,-0.0594 -0.1204,-0.0122 -0.286,-0.0179 -0.5017,-0.0179 -0.0753,0 -0.1506,0 -0.2158,0 -0.1052,0.2633 -0.2107,0.5264 -0.3161,0.7894 -0.1052,0.2628 -0.2105,0.5261 -0.3159,0.7889zm-0.4615 0.2203c0.1304,-0.3357 0.2659,-0.6715 0.3912,-1.007 0.1253,-0.3358 0.266,-0.6716 0.4065,-1.0075 0.1403,0 0.2757,0 0.4213,0 0.3561,0 0.607,0.0065 0.7475,0.0206 0.1304,0.0133 0.2461,0.0361 0.3411,0.0686 0.2209,0.0752 0.3847,0.1884 0.4865,0.3359 0.1037,0.1497 0.1392,0.3194 0.1005,0.5106 -0.0367,0.1812 -0.1321,0.3475 -0.2709,0.503 -0.1371,0.1535 -0.3108,0.2797 -0.5219,0.3735 -0.165,0.0734 -0.3512,0.1239 -0.5517,0.1554 -0.1959,0.0307 -0.5218,0.0469 -0.9581,0.0469 -0.2008,0 -0.3963,0 -0.592,0z"/>
  </g>
 </g>
</svg>
