<?xml version="1.0" encoding="UTF-8"?>
<!DOCTYPE svg PUBLIC "-//W3C//DTD SVG 1.1//EN" "http://www.w3.org/Graphics/SVG/1.1/DTD/svg11.dtd">
<!-- Creator: CorelDRAW X5 -->
<svg xmlns="http://www.w3.org/2000/svg" xml:space="preserve" width="127mm" height="50.8mm" style="shape-rendering:geometricPrecision; text-rendering:geometricPrecision; image-rendering:optimizeQuality; fill-rule:evenodd; clip-rule:evenodd"
viewBox="0 0 127 50.8"
 xmlns:xlink="http://www.w3.org/1999/xlink">
 <defs>
  <style type="text/css">
   <![CDATA[
    .fil1 {fill:white}
    .fil0 {fill:white;fill-rule:nonzero}
   ]]>
  </style>
 </defs>
 <g id="Layer_x0020_1">
  <metadata id="CorelCorpID_0Corel-Layer"/>
  <g id="_282424552">
   <path id="_282426360" class="fil0" d="M2.1918 22.6615c1.2277,0 2.4602,0 3.6877,0 1.2276,0 2.46,0 3.6926,0 -0.0672,0.1901 -0.1346,0.38 -0.2017,0.5699 -0.4307,0.0287 -0.745,0.1394 -0.9411,0.3318 -0.1945,0.1909 -0.3105,0.5082 -0.3437,0.9487 -0.0116,0.1522 -0.0175,0.269 -0.0201,0.3524 -0.0023,0.0847 -0.0032,0.1649 -0.0023,0.2426 0.0113,0.9485 0.026,1.8985 0.0373,2.8459 0.0111,0.9471 0.0275,1.8961 0.0448,2.8434 0.5701,-0.9804 1.1374,-1.9626 1.698,-2.944 0.5596,-0.9799 1.1114,-1.9644 1.6634,-2.9454 0.0506,-0.09 0.1256,-0.2159 0.2215,-0.3777 0.2028,-0.3417 0.316,-0.5688 0.3237,-0.6866 0.0096,-0.145 -0.0652,-0.2709 -0.2017,-0.3764 -0.1373,-0.1059 -0.3435,-0.1831 -0.6074,-0.2347 0.0571,-0.1899 0.1145,-0.3798 0.1716,-0.5699 1.0882,0 2.1762,0 3.2619,0 1.0882,0 2.1786,0 3.2666,0 -0.0448,0.1901 -0.0893,0.38 -0.1343,0.5699 -0.4333,0.0287 -0.7397,0.1433 -0.9288,0.3398 -0.1889,0.1969 -0.2916,0.5173 -0.3087,0.9579 -0.0051,0.1405 -0.0085,0.2495 -0.0075,0.3237 0.0013,0.0732 0.0086,0.142 0.0124,0.2051 0.0682,1.0685 0.1358,2.1373 0.2068,3.2049 0.0708,1.0675 0.1444,2.1354 0.219,3.2028 0.5776,-1.0664 1.1513,-2.1326 1.7157,-3.1993 0.5635,-1.066 1.1272,-2.1312 1.6756,-3.1993 0.1736,-0.3383 0.2915,-0.6123 0.3735,-0.8092 0.0821,-0.1977 0.125,-0.3431 0.1269,-0.4325 0.0032,-0.1453 -0.0753,-0.265 -0.2315,-0.3627 -0.1548,-0.0966 -0.3983,-0.174 -0.7296,-0.2312 0.0249,-0.1899 0.0524,-0.3798 0.0797,-0.5699 1.6483,0 3.3018,0 4.955,0 -0.0424,0.1878 -0.0797,0.3742 -0.1171,0.5608 -0.4556,0.0114 -0.8509,0.1699 -1.1927,0.475 -0.3404,0.3035 -0.7745,0.9484 -1.317,1.9302 -0.6027,1.0904 -1.2182,2.1773 -1.835,3.2635 -0.6181,1.0879 -1.2435,2.1775 -1.8825,3.2614 -0.1503,0.2548 -0.2808,0.4765 -0.3686,0.6749 -0.0864,0.1961 -0.1273,0.348 -0.1318,0.4568 -0.0055,0.1371 0.0256,0.2397 0.0921,0.3008 0.0676,0.0623 0.1891,0.103 0.3659,0.1259 -0.0275,0.1315 -0.0546,0.2632 -0.0797,0.3935 -1.2075,0 -2.4176,0 -3.6227,0 -1.2051,0 -2.4152,0 -3.6203,0 0.0224,-0.1303 0.0448,-0.262 0.0672,-0.3935 0.2439,-0.0343 0.4196,-0.1018 0.5279,-0.206 0.1057,-0.1016 0.1635,-0.2632 0.1767,-0.4806 0.0015,-0.0229 0.0013,-0.1168 -0.0025,-0.2861 -0.0035,-0.1656 -0.0084,-0.3914 -0.015,-0.6693 -0.0181,-0.7574 -0.0349,-1.5162 -0.0473,-2.2738 -0.0122,-0.7572 -0.0247,-1.5161 -0.0373,-2.2749 -0.4706,0.8011 -0.9435,1.6023 -1.4194,2.4008 -0.4773,0.801 -0.9666,1.5972 -1.444,2.3996 -0.1774,0.2983 -0.29,0.519 -0.3561,0.65 -0.0659,0.1309 -0.1077,0.2277 -0.1096,0.2963 -0.003,0.1119 0.0292,0.2043 0.0849,0.2723 0.0563,0.0691 0.1518,0.1259 0.2838,0.1717 -0.0324,0.1315 -0.0648,0.2632 -0.0947,0.3935 -1.1004,0 -2.2012,0 -3.3016,0 -1.1005,0 -2.2011,0 -3.3015,0 0.0273,-0.1303 0.0571,-0.262 0.087,-0.3935 0.2789,-0.0665 0.4889,-0.1748 0.6226,-0.3239 0.1326,-0.1482 0.2142,-0.3596 0.239,-0.6397 0.0074,-0.0836 0.0134,-0.2837 0.0074,-0.5948 -0.0038,-0.189 0.0017,-0.3377 0,-0.4428 -0.0202,-1.1308 -0.0522,-2.2614 -0.0723,-3.3919 -0.0196,-1.1304 -0.0375,-2.2621 -0.0522,-3.3939 -0.0002,-0.0168 -0.0047,-0.0492 -0.0049,-0.0915 -0.0047,-1.0377 -0.3661,-1.6042 -1.0931,-1.6925 0.0622,-0.159 0.1245,-0.3181 0.1891,-0.4783z"/>
   <path id="_282426336" class="fil0" d="M30.7415 34.1352l0.6714 -4.7327 0.6669 0c0.1285,1.1889 0.6714,2.1133 1.6327,2.7731 0.9571,0.657 2.2458,0.9869 3.866,0.9869 1.1023,0 2.0095,-0.1651 2.7265,-0.495 0.7168,-0.3326 1.0731,-0.7423 1.0731,-1.2314 0,-0.6001 -1.0484,-1.1917 -3.1451,-1.7747l-0.0123 0 -1.7236 -0.4665c-0.0872,-0.0227 -0.2322,-0.0626 -0.4228,-0.1165 -1.1437,-0.3016 -1.9309,-0.6428 -2.3701,-1.0268 -0.2652,-0.2161 -0.4599,-0.4522 -0.5884,-0.7111 -0.1245,-0.2587 -0.1866,-0.5431 -0.1866,-0.8532 0,-1.1348 0.6341,-2.0534 1.9063,-2.7615 1.2678,-0.7082 2.9376,-1.0637 5.0013,-1.0637 0.8326,0 1.8231,0.0824 2.9666,0.2502 1.1436,0.1678 1.8688,0.2502 2.1796,0.2502 0.1864,0 0.3687,-0.0227 0.551,-0.0653 0.1825,-0.0454 0.3731,-0.1166 0.5761,-0.2105l-0.6299 3.5153 -0.6918 -0.0342c-0.2363,-0.7876 -0.7171,-1.3708 -1.4379,-1.7432 -0.7254,-0.3755 -1.7321,-0.5633 -3.0167,-0.5633 -0.7625,0 -1.3631,0.1024 -1.8108,0.3043 -0.4433,0.2019 -0.6669,0.4694 -0.6669,0.8049 0,0.4551 0.7624,0.893 2.283,1.3141 0.1036,0.0283 0.1866,0.0512 0.2444,0.0681l2.7184 0.7339c1.1394,0.3099 1.9681,0.6911 2.4817,1.1461 0.5141,0.4523 0.771,1.0182 0.771,1.7037 0,1.2599 -0.8121,2.3065 -2.4406,3.1397 -1.6285,0.8335 -3.7167,1.2514 -6.2652,1.2514 -1.1974,0 -2.4323,-0.108 -3.7085,-0.327 -1.2761,-0.216 -1.9516,-0.3243 -2.0343,-0.3243 -0.1452,0 -0.3108,0.02 -0.4974,0.0627 -0.1864,0.0427 -0.406,0.108 -0.6671,0.1963zm25.3383 0.1507l0.12 -0.475c0.4889,-0.0654 0.8371,-0.1763 1.0522,-0.3299 0.2158,-0.1507 0.4104,-0.5092 0.5887,-1.0693l1.6491 -5.2248 -4.6492 0 -1.5415 5c-0.0746,0.2219 -0.1201,0.3811 -0.145,0.4779 -0.0247,0.0966 -0.0373,0.1819 -0.0373,0.2558 0,0.276 0.0996,0.4921 0.2985,0.6457 0.1989,0.1507 0.4724,0.2333 0.8202,0.2446l-0.149 0.475 -7.475 0 0.1201 -0.475c0.4805,-0.0654 0.8287,-0.1792 1.0443,-0.3385 0.2196,-0.1563 0.4185,-0.5118 0.5965,-1.0607l2.2667 -7.4089 0 -0.0229c0.116,-0.3612 0.1697,-0.5972 0.1697,-0.7109 0,-0.276 -0.0951,-0.492 -0.29,-0.6456 -0.1946,-0.1507 -0.4682,-0.2334 -0.8245,-0.2446l0.145 -0.475 7.4792 0 -0.12 0.475c-0.8371,0.1166 -1.3842,0.583 -1.6535,1.3992l-0.0123 0.017 -0.4019 1.2002 4.678 0 0.3273 -0.9924c0.0706,-0.2219 0.1162,-0.3812 0.1366,-0.4779 0.0209,-0.0966 0.0335,-0.182 0.0335,-0.2559 0,-0.276 -0.0995,-0.492 -0.2944,-0.6456 -0.1947,-0.1507 -0.4682,-0.2334 -0.8247,-0.2446l0.1454 -0.475 7.5161 0 -0.1201 0.475c-0.4805,0.0653 -0.8287,0.1792 -1.0441,0.3412 -0.2196,0.1621 -0.4228,0.5205 -0.6093,1.075l-2.2828 7.3919c-0.0086,0.0229 -0.0167,0.0483 -0.0209,0.0824 -0.0996,0.3214 -0.1491,0.5377 -0.1491,0.6513 0,0.276 0.0994,0.4921 0.2943,0.6457 0.1946,0.1507 0.4682,0.2333 0.8244,0.2446l-0.1452 0.475 -7.516 0z"/>
   <path id="_282426456" class="fil0" d="M86.491 22.8204l-0.1452 0.3926c-0.3727,0.0426 -0.6505,0.1136 -0.8369,0.2075 -0.1865,0.0939 -0.2776,0.2133 -0.2776,0.3584 0,0.0939 0.0373,0.2075 0.116,0.3385 0.0744,0.128 0.1864,0.2672 0.3315,0.4123l2.7803 2.8157 0.7294 -2.426c0.0661,-0.2219 0.1077,-0.3812 0.1326,-0.4779 0.0247,-0.0966 0.0373,-0.182 0.0373,-0.2559 0,-0.276 -0.0953,-0.492 -0.2902,-0.6456 -0.1948,-0.1507 -0.4722,-0.2334 -0.8285,-0.2446l0.149 -0.475 4.7941 0 -0.145 0.475c-0.4765,0.0653 -0.8245,0.1792 -1.0441,0.3411 -0.2196,0.1622 -0.4185,0.5206 -0.5968,1.0751l-2.2704 7.3919 0 0.0229c-0.112,0.3611 -0.1702,0.5972 -0.1702,0.7108 0,0.276 0.0994,0.4921 0.2945,0.6457 0.1946,0.1507 0.4682,0.2333 0.8244,0.2446l-0.1452 0.475 -4.798 0 0.1449 -0.4409c0.551,-0.0624 0.9531,-0.2048 1.1974,-0.4294 0.2489,-0.2248 0.3689,-0.5545 0.3689,-0.9869 0,-0.3384 -0.2942,-0.7992 -0.8825,-1.3767 -0.1328,-0.1278 -0.2239,-0.2216 -0.2819,-0.2814l-5.743 -5.8161 -2.1713 7.2324c-0.0663,0.2219 -0.1117,0.3811 -0.1367,0.4779 -0.0207,0.0966 -0.033,0.1819 -0.033,0.2558 0,0.2702 0.0993,0.4835 0.3023,0.6401 0.2032,0.1563 0.4806,0.2389 0.8371,0.2502l-0.145 0.475 -4.7942 0 0.12 -0.475c0.4808,-0.0654 0.8289,-0.1792 1.0445,-0.3385 0.2196,-0.1563 0.4185,-0.5118 0.5966,-1.0607l2.2664 -7.4089 0 -0.0256c0.1162,-0.3585 0.1699,-0.5945 0.1699,-0.7082 0,-0.276 -0.0953,-0.492 -0.2899,-0.6456 -0.1947,-0.1507 -0.4683,-0.2334 -0.8245,-0.2446l0.1447 -0.475 9.4683 0zm7.3092 9.5079l2.2665 -7.4062 0 -0.0256c0.1162,-0.3612 0.1699,-0.5972 0.1699,-0.7081 0,-0.2788 -0.0953,-0.4948 -0.29,-0.6484 -0.1946,-0.1507 -0.4682,-0.2334 -0.8245,-0.2446l0.1448 -0.475 10.1021 0c0.7211,0 1.3095,-0.0115 1.7654,-0.0342 0.4556,-0.0226 0.866,-0.0541 1.2304,-0.0995l0.232 3.7343 -0.6795 0c-0.1947,-0.8162 -0.6959,-1.4306 -1.4999,-1.843 -0.8038,-0.4123 -1.9102,-0.6172 -3.3191,-0.6172 -1.2637,0 -2.0427,0.495 -2.3451,1.4848l-0.0123 0.0341 -0.3028 0.9413 1.5662 0c0.9863,0 1.6742,-0.0939 2.0594,-0.2787 0.3813,-0.1878 0.6258,-0.5262 0.7213,-1.021l0.704 0 0 4.1495 -0.704 0c-0.0831,-0.5546 -0.3897,-0.9698 -0.924,-1.2456 -0.5348,-0.276 -1.3013,-0.4126 -2.304,-0.4126 -0.2032,0 -0.4268,0.0059 -0.6714,0.02 -0.2401,0.0142 -0.5221,0.0371 -0.8494,0.0712l-0.8825 2.881c-0.0912,0.2902 -0.1575,0.546 -0.2072,0.7708 -0.0499,0.2275 -0.0746,0.3953 -0.0746,0.5062 0,0.3726 0.1616,0.6399 0.4891,0.8076 0.3232,0.1678 0.8411,0.2504 1.5538,0.2504 1.3838,0 2.6434,-0.2418 3.779,-0.7224 1.1391,-0.4807 2.2664,-1.2514 3.3813,-2.3122l0.5963 0.1819 -2.8176 4.36c-0.2776,-0.0766 -0.5718,-0.1337 -0.8865,-0.1705 -0.3151,-0.0371 -0.7046,-0.0541 -1.1645,-0.0541l-11.7637 0 0.1201 -0.475c0.4807,-0.0654 0.8289,-0.1792 1.0445,-0.3385 0.2196,-0.1563 0.4185,-0.5118 0.5965,-1.0607zm21.704 -8.0746c-1.2141,0.0342 -2.2914,0.2533 -3.2236,0.6628 -0.9366,0.4096 -1.6865,0.9841 -2.2542,1.7293l-0.6422 -0.0171 2.2086 -4.05c0.2113,0.0824 0.41,0.1449 0.6006,0.1819 0.1906,0.0398 0.377,0.0598 0.5554,0.0598l10.5124 0c0.2196,0 0.4682,-0.02 0.7456,-0.0627 0.2818,-0.0426 0.5844,-0.1022 0.9159,-0.179l0.0746 4.0015 -0.6921 -0.0256c-0.1535,-0.7279 -0.5677,-1.2855 -1.243,-1.675 -0.6754,-0.3896 -1.5954,-0.5974 -2.7514,-0.6259l-2.391 7.8498c-0.0578,0.1707 -0.0993,0.3187 -0.1243,0.4408 -0.0207,0.1224 -0.033,0.219 -0.033,0.2929 0,0.276 0.0953,0.4921 0.2899,0.6457 0.1949,0.1507 0.4682,0.2333 0.8245,0.2446l-0.145 0.475 -7.5039 0 0.149 -0.475c0.4768,-0.0654 0.8247,-0.1792 1.0443,-0.3385 0.2156,-0.1563 0.4145,-0.5118 0.5926,-1.0607l2.4903 -8.0746z"/>
   <polygon id="_282426624" class="fil1" points="29.632,22.6265 29.9963,22.7996 16.9521,47.5067 15.72,46.8506 "/>
   <polygon id="_282426216" class="fil1" points="28.6398,12.3404 32.3349,13.9583 35.1027,10.5375 34.8171,14.3948 39.2052,14.4206 35.2228,16.6747 36.6611,20.0484 33.0485,18.4465 30.3429,21.6068 30.6176,17.9156 26.1397,17.9506 30.1881,15.7357 "/>
   <polygon id="_325947400" class="fil1" points="31.0998,15.6968 30.1937,13.7444 32.4311,14.7096 34.1291,12.6419 33.8713,14.9932 36.5569,15.0222 34.1167,16.2659 35.0206,18.3429 32.8618,17.393 31.0824,19.4563 31.3954,17.1042 28.8466,17.1023 "/>
   <polygon id="_325948720" class="fil1" points="28.7089,6.8643 29.6084,7.2453 30.0553,6.4666 30.1655,7.338 31.2074,7.3562 30.3135,7.894 30.8853,8.7884 29.8826,8.37 29.3924,9.1742 29.3588,8.2159 28.2697,8.2394 29.1419,7.7143 "/>
   <polygon id="_325947136" class="fil1" points="39.9977,3.8694 41.1316,4.3555 42.0297,3.2932 41.8426,4.4829 43.2357,4.4569 41.9628,5.1325 42.5034,6.2651 41.3182,5.7064 40.4332,6.7712 40.6053,5.5285 39.1719,5.6092 40.427,4.8926 "/>
   <polygon id="_325946896" class="fil1" points="37.0988,10.0883 37.9839,10.4206 38.4542,9.6738 38.4843,10.5487 39.4628,10.5339 38.6559,11.0565 39.122,11.8296 38.2332,11.467 37.8126,12.2334 37.7802,11.3679 36.7787,11.388 37.5567,10.8499 "/>
   <polygon id="_325946872" class="fil1" points="23.9056,14.5629 23.5481,13.9716 24.2877,14.2508 24.6396,13.572 24.7544,14.3828 25.6008,14.3357 24.8483,14.7885 25.3106,15.494 24.5053,15.1217 24.1212,15.8742 24.0995,15.0418 23.152,15.0824 "/>
   <polygon id="_325947112" class="fil1" points="39.285,17.1268 40.043,17.4673 40.4377,16.6902 40.5273,17.5064 41.4588,17.5324 40.6464,17.991 41.1254,18.7264 40.3152,18.3981 39.8784,19.1445 39.879,18.3122 38.9213,18.2924 39.7153,17.8077 "/>
  </g>
 </g>
</svg>
