<?xml version="1.0" encoding="UTF-8"?>
<!DOCTYPE svg PUBLIC "-//W3C//DTD SVG 1.1//EN" "http://www.w3.org/Graphics/SVG/1.1/DTD/svg11.dtd">
<!-- Creator: CorelDRAW X5 -->
<svg xmlns="http://www.w3.org/2000/svg" xml:space="preserve" width="297mm" height="210mm" style="shape-rendering:geometricPrecision; text-rendering:geometricPrecision; image-rendering:optimizeQuality; fill-rule:evenodd; clip-rule:evenodd"
viewBox="0 0 297 210"
 xmlns:xlink="http://www.w3.org/1999/xlink">
 <defs>
  <style type="text/css">
   <![CDATA[
    .fil0 {fill:none}
    .fil3 {fill:#0992A3}
    .fil2 {fill:#0992A3;fill-rule:nonzero}
    .fil1 {fill:#1B4660;fill-rule:nonzero}
   ]]>
  </style>
 </defs>
 <g id="Layer_x0020_1">
  <metadata id="CorelCorpID_0Corel-Layer"/>
  <rect class="fil0" x="80.2376" y="65.069" width="136.525" height="79.8622"/>
  <g id="_270403944">
   <path id="_270403680" class="fil1" d="M107.455 102.405c-0.2043,3.3516 -0.4202,6.3977 -0.6473,9.1568 -0.2385,2.7591 -0.4543,4.9627 -0.6474,6.6015l-2.0328 16.3878 -13.0487 0 -5.4172 -41.2844 11.0047 0 0.8403 13.0177c0.2613,4.2127 0.4429,7.6754 0.5338,10.3882 0.0795,2.7128 0.1249,5.2867 0.1249,7.7032l0 3.0646 0.5679 0c0.2838,-4.37 0.5792,-8.3513 0.8857,-11.9344 0.2954,-3.5738 0.5906,-6.6477 0.8746,-9.2216l1.5671 -13.0177 11.1182 0 1.5672 13.0177c0.3067,2.5739 0.6132,5.6478 0.9086,9.2216 0.3066,3.5831 0.5904,7.5644 0.8517,11.9344l0.5678 0 0 -3.0646c0,-2.4165 0.0454,-4.9904 0.1477,-7.7032 0.1022,-2.7128 0.2725,-6.1755 0.511,-10.3882l0.8404 -13.0177 11.0387 0 -5.4513 41.2844 -13.0146 0 -2.067 -16.4064c-0.193,-1.7036 -0.4088,-3.9256 -0.6472,-6.6755 -0.2272,-2.7498 -0.443,-5.7774 -0.6474,-9.092l-0.3294 0.0278z"/>
   <path id="_270401400" class="fil2" d="M144.649 94.4334c0,1.1573 -0.4883,2.0091 -1.4651,2.5646 -0.9766,0.5463 -2.487,0.8241 -4.5199,0.8241 -2.0442,0 -3.5546,-0.2778 -4.5312,-0.8241 -0.9768,-0.5555 -1.4651,-1.4073 -1.4651,-2.5646 0,-1.1481 0.477,-1.9814 1.4424,-2.5276 0.9653,-0.5463 2.487,-0.8148 4.5539,-0.8148 2.0329,0 3.5433,0.2685 4.5199,0.8148 0.9768,0.5462 1.4651,1.3795 1.4651,2.5276zm-11.5157 40.1178l0 -35.2663c0.795,0.2685 1.6467,0.4722 2.544,0.6111 0.8971,0.1389 1.9192,0.2037 3.0435,0.2037 0.9766,0 1.9307,-0.0648 2.8505,-0.2037 0.92,-0.1389 1.8057,-0.3426 2.6461,-0.6111l0.0341 35.2663 -11.1182 0z"/>
   <path id="_270403008" class="fil2" d="M161.015 113.154c2.1918,-0.0555 3.7476,-0.5555 4.6676,-1.5091 0.9198,-0.9444 1.3854,-2.5369 1.3854,-4.759 0,-1.611 -0.4201,-2.7869 -1.2606,-3.5368 -0.8517,-0.75 -2.1691,-1.1296 -3.9635,-1.1296l-0.8289 0 0 10.9345zm-10.9137 21.3968l0 -41.2844 14.3661 0c4.3723,0 7.643,1.1203 9.8007,3.3609 2.1691,2.2499 3.248,5.6293 3.248,10.1475 0,5.1941 -1.2946,9.0087 -3.8953,11.4437 -2.5893,2.4443 -6.6436,3.6664 -12.1402,3.6664l-0.2045 0 0 12.6659 -11.1748 0z"/>
   <polygon id="_270404184" class="fil1" points="182.344,134.551 182.344,93.2655 192.901,93.2655 192.901,125.005 212.235,125.077 210.147,134.551 "/>
   <g>
    <path id="_270402696" class="fil3" d="M160.468 74.4631c36.2612,6.7309 57.8947,28.7954 48.3193,49.2828 -2.4508,5.244 -6.7123,9.8742 -12.2996,13.7516 1.1142,-1.2483 2.1189,-2.5556 2.9961,-3.9247 12.4833,-19.4847 -4.783,-43.6148 -38.5649,-53.8968 -20.6477,-6.2842 -42.6852,-5.9397 -59.5514,-0.2737 16.1516,-6.6697 37.7796,-8.8967 59.1005,-4.9392z"/>
    <path id="_270402672" class="fil1" d="M183.017 125.243l0 -31.9779 10.5574 0 0 31.7397 0.9787 0.0028c-0.1687,0.0341 -0.3367,0.0708 -0.5036,0.1103l-9.0054 0c-0.6891,0 -1.3663,0.0428 -2.0271,0.1251z"/>
   </g>
  </g>
 </g>
</svg>
