<?xml version="1.0" encoding="UTF-8"?>
<!DOCTYPE svg PUBLIC "-//W3C//DTD SVG 1.1//EN" "http://www.w3.org/Graphics/SVG/1.1/DTD/svg11.dtd">
<!-- Creator: CorelDRAW X5 -->
<svg xmlns="http://www.w3.org/2000/svg" xml:space="preserve" width="297mm" height="210mm" style="shape-rendering:geometricPrecision; text-rendering:geometricPrecision; image-rendering:optimizeQuality; fill-rule:evenodd; clip-rule:evenodd"
viewBox="0 0 297 210"
 xmlns:xlink="http://www.w3.org/1999/xlink">
 <defs>
  <style type="text/css">
   <![CDATA[
    .fil0 {fill:none}
    .fil1 {fill:#356700}
    .fil3 {fill:#A1D46A}
    .fil2 {fill:#478A00;fill-rule:nonzero}
   ]]>
  </style>
 </defs>
 <g id="Layer_x0020_1">
  <metadata id="CorelCorpID_0Corel-Layer"/>
  <rect class="fil0" x="80.2374" y="65.0689" width="136.525" height="79.8623"/>
  <g id="_292827312">
   <path id="_292829088" class="fil1" d="M85.7584 121.704c0,0 6.5304,-4.6876 14.3623,-6.4037 0,0 7.9815,-2.5223 19.6833,-0.8177 0,0 5.4592,0.8062 7.636,1.4397 0,0 4.3191,1.002 9.3868,2.4532 0,0 6.9333,1.5923 13.2219,2.1221 0,0 7.3021,0.8754 13.2221,-0.7832 0,0 2.8218,-0.8062 3.7432,-1.313 0,0 -1.5318,1.267 -4.8028,2.7412 0,0 -3.3862,1.5664 -9.5596,2.0502 0,0 -5.6665,0.3685 -13.4985,-1.0827 -8.5933,-1.9998 -17.5077,-5.7212 -26.1966,-6.202 0,0 -4.2846,-0.2303 -7.1179,-0.046 0,0 -5.2749,0.3224 -9.1448,1.6124 0,0 -2.1423,0.5068 -4.25,1.3706 0,0 -3.4437,1.267 -4.6646,1.9234l-2.0208 0.9355z"/>
   <path id="_292828944" class="fil2" d="M87.4868 113.233l-3.9795 -20.4972 3.9523 0 2.5031 15.5319 2.6757 -15.5319 3.1663 0 2.9438 15.8408 2.1805 -15.8408 3.9114 0 -3.7251 20.4972 -4.5247 0 -2.3668 -12.9516 -2.1851 12.9516 -4.5519 0zm19.3797 -17.3036l0 -3.1936 3.5389 0 0 3.1936 -3.5389 0zm0 17.3036l0 -15.4001 3.5389 0 0 15.4001 -3.5389 0zm6.0828 -5.1243l3.2073 0 0 0.4407c0,0.8858 0.1363,1.5173 0.4043,1.8898 0.2726,0.3725 0.7223,0.5587 1.3537,0.5587 0.4952,0 0.8859,-0.1317 1.1676,-0.3997 0.2861,-0.2681 0.427,-0.636 0.427,-1.1039 0,-0.5861 -0.5724,-1.2584 -1.7172,-2.0216 -0.2907,-0.1953 -0.5179,-0.3498 -0.6769,-0.4543l-0.159 -0.1181c-2.6212,-1.7944 -3.9295,-3.5525 -3.9295,-5.2697 0,-1.3673 0.4225,-2.4122 1.272,-3.13 0.8449,-0.7177 2.076,-1.0766 3.6933,-1.0766 1.5627,0 2.7302,0.3952 3.5116,1.1902 0.7813,0.795 1.172,1.9989 1.172,3.6161l0 0.318 -3.1391 0 0 -0.318c0,-0.745 -0.1408,-1.2947 -0.427,-1.64 -0.2816,-0.3452 -0.7314,-0.5178 -1.3447,-0.5178 -0.4406,0 -0.7995,0.1226 -1.063,0.3679 -0.268,0.2408 -0.3998,0.5633 -0.3998,0.9631 0,0.3725 0.1182,0.7087 0.3544,1.0131 0.2317,0.2998 0.7586,0.7268 1.5763,1.2765 0.1863,0.1226 0.4543,0.3044 0.8087,0.5451 2.5848,1.7036 3.875,3.4117 3.875,5.1243 0,1.3629 -0.4361,2.4213 -1.3129,3.1664 -0.8722,0.745 -2.1169,1.1175 -3.7296,1.1175 -1.6945,0 -2.9438,-0.3998 -3.7479,-1.1993 -0.804,-0.7995 -1.2038,-2.0443 -1.2038,-3.7387 0,-0.0636 0.0045,-0.159 0.0136,-0.2953 0.0091,-0.1318 0.0136,-0.2317 0.0136,-0.3044zm12.5382 5.1243l0 -20.4972 3.5388 0 0 6.5644c0.309,-0.5951 0.7405,-1.054 1.2902,-1.3856 0.5497,-0.3271 1.1766,-0.4906 1.8762,-0.4906 1.1175,0 1.9761,0.318 2.5712,0.9585 0.5951,0.6406 0.8904,1.5582 0.8904,2.7575l0 12.093 -3.4344 0 0 -10.3258c0,-0.9676 -0.1044,-1.6127 -0.3134,-1.9353 -0.209,-0.3225 -0.5679,-0.486 -1.0857,-0.486 -0.6451,0 -1.1085,0.2135 -1.3811,0.645 -0.2771,0.4316 -0.4134,1.1948 -0.4134,2.2942l0 9.8079 -3.5388 0zm23.132 0l0 -17.1173 -4.3929 0 0 -3.3799 12.6063 0 0 3.3799 -4.3929 0 0 17.1173 -3.8205 0zm8.2134 0l0 -15.4001 3.4072 0 0 2.4985c0.4906,-1.0358 1.0085,-1.7762 1.5627,-2.2214 0.5542,-0.4407 1.2311,-0.6678 2.0306,-0.6769l0 4.3247c-0.1317,-0.0181 -0.268,-0.0318 -0.3997,-0.0408 -0.1318,-0.0091 -0.2953,-0.0137 -0.4907,-0.0137 -0.7632,0 -1.3674,0.2272 -1.8171,0.6769 -0.4497,0.4543 -0.6723,1.063 -0.6723,1.8262l0 9.0266 -3.6207 0zm9.1538 -17.3036l0 -3.1936 3.5389 0 0 3.1936 -3.5389 0zm0 17.3036l0 -15.4001 3.5389 0 0 15.4001 -3.5389 0zm10.0896 -8.3452c0,2.4941 0.1272,4.075 0.3907,4.7473 0.2635,0.6678 0.745,1.004 1.4582,1.004 0.6269,0 1.0585,-0.2862 1.2902,-0.8632 0.2317,-0.5769 0.3453,-2.0079 0.3453,-4.2884 0,-2.2078 -0.1136,-3.6161 -0.3453,-4.2203 -0.2317,-0.6042 -0.6633,-0.904 -1.2902,-0.904 -0.7132,0 -1.1947,0.2771 -1.4582,0.8268 -0.2635,0.5497 -0.3907,1.7808 -0.3907,3.6978zm-3.4616 13.524l0 -20.5789 3.3798 0 0 1.6127c0.2862,-0.6769 0.6906,-1.1812 1.2175,-1.5173 0.527,-0.3362 1.163,-0.5043 1.908,-0.5043 1.4946,0 2.544,0.5906 3.1482,1.7717 0.6087,1.1766 0.9131,3.2663 0.9131,6.2645 0,3.1073 -0.2953,5.247 -0.8859,6.4236 -0.5905,1.1766 -1.6218,1.7626 -3.0936,1.7626 -0.7269,0 -1.3356,-0.1408 -1.8308,-0.427 -0.4906,-0.2817 -0.8904,-0.7133 -1.1902,-1.2902l0 6.4826 -3.5661 0z"/>
   <path id="_292828776" class="fil3" d="M179.06 89.4078l2.4088 0.1742 1.1782 -2.621 0.9656 2.8424 2.237 0.1803c0,0 -1.9885,-7.9642 -2.011,-17.5834l-0.2667 -0.1133c0,0 -2.4945,14.4553 -4.5119,17.1208z"/>
   <path id="_292828608" class="fil1" d="M200.167 108.769c0.7004,-9.0965 -6.6615,-17.0816 -16.4437,-17.8349 -4.7157,-0.3631 -9.1323,1.021 -12.5212,3.5709 2.7728,-1.4721 6.0741,-2.2085 9.5559,-1.9404 8.9669,0.6904 15.733,7.7775 15.1129,15.8295 -0.62,8.0521 -8.3913,14.0198 -17.3581,13.3293 -3.6362,-0.2799 -6.9107,-1.6122 -9.4773,-3.6338 2.9755,3.2263 7.261,5.4103 12.1512,5.7869 9.7822,0.7532 18.2798,-6.0107 18.9803,-15.1075z"/>
   <path id="_292828440" class="fil1" d="M200.999 111.51l0.4324 -5.6132c0,0 1.7948,1.6111 12.5522,3.4963l-0.0236 0.3097c0,0 -9.854,0.2763 -12.961,1.8072z"/>
   <path id="_292828272" class="fil1" d="M177.875 125.294l6.0599 0.3023c0,0 -2.1076,2.6147 -3.6024,12.117l-0.3024 -0.014c0,0 -0.5695,-9.4624 -2.1551,-12.4053z"/>
   <path id="_292827168" class="fil3" d="M194.069 108.327c0.5417,-7.0363 -5.1773,-13.2142 -12.7748,-13.7992 -2.0118,-0.1549 -3.9536,0.0982 -5.7313,0.6843 1.1177,-0.1765 2.2787,-0.2269 3.4642,-0.1356 7.5974,0.585 13.3165,6.7629 12.7747,13.7991 -0.3983,5.1729 -4.07,9.369 -9.0055,10.9963 6.0448,-0.9551 10.8154,-5.6067 11.2727,-11.5449z"/>
  </g>
 </g>
</svg>
