<?xml version="1.0" encoding="UTF-8"?>
<!DOCTYPE svg PUBLIC "-//W3C//DTD SVG 1.1//EN" "http://www.w3.org/Graphics/SVG/1.1/DTD/svg11.dtd">
<!-- Creator: CorelDRAW X5 -->
<svg xmlns="http://www.w3.org/2000/svg" xml:space="preserve" width="199mm" height="72mm" style="shape-rendering:geometricPrecision; text-rendering:geometricPrecision; image-rendering:optimizeQuality; fill-rule:evenodd; clip-rule:evenodd"
viewBox="0 0 199 72"
 xmlns:xlink="http://www.w3.org/1999/xlink">
 <defs>
  <style type="text/css">
   <![CDATA[
    .fil1 {fill:red}
    .fil0 {fill:red;fill-rule:nonzero}
   ]]>
  </style>
 </defs>
 <g id="Layer_x0020_1">
  <metadata id="CorelCorpID_0Corel-Layer"/>
  <g id="_183981464">
   <path id="_179042920" class="fil0" d="M0.7813 31.5906c1.9767,0 3.9614,0 5.9379,0 1.9768,0 3.9611,0 5.9458,0 -0.1082,0.3061 -0.2166,0.6118 -0.3248,0.9176 -0.6935,0.0462 -1.1995,0.2245 -1.5154,0.5343 -0.3131,0.3073 -0.4998,0.8183 -0.5534,1.5275 -0.0185,0.2452 -0.0281,0.4332 -0.0323,0.5675 -0.0037,0.1365 -0.0051,0.2654 -0.0037,0.3907 0.0182,1.5272 0.0419,3.0568 0.0601,4.5825 0.0178,1.525 0.0442,3.0531 0.072,4.5784 0.9181,-1.5787 1.8316,-3.1602 2.7342,-4.7405 0.9012,-1.5778 1.7897,-3.1631 2.6785,-4.7427 0.0814,-0.1449 0.2022,-0.3476 0.3567,-0.6081 0.3265,-0.5503 0.5088,-0.916 0.5211,-1.1056 0.0155,-0.2336 -0.105,-0.4363 -0.3247,-0.6062 -0.2211,-0.1705 -0.5531,-0.2948 -0.9781,-0.3778 0.092,-0.3058 0.1843,-0.6115 0.2763,-0.9176 1.7523,0 3.5042,0 5.2524,0 1.7522,0 3.5079,0 5.2599,0 -0.0721,0.3061 -0.1439,0.6118 -0.2163,0.9176 -0.6976,0.0462 -1.191,0.2307 -1.4955,0.5471 -0.3042,0.317 -0.4697,0.8329 -0.4971,1.5425 -0.0083,0.2261 -0.0137,0.4016 -0.012,0.5212 0.002,0.1178 0.0137,0.2287 0.0199,0.3302 0.1098,1.7205 0.2187,3.4416 0.333,5.1605 0.114,1.719 0.2324,3.4385 0.3526,5.1572 0.93,-1.7171 1.8539,-3.4338 2.7626,-5.1515 0.9074,-1.7165 1.8151,-3.4317 2.6981,-5.1516 0.2794,-0.5446 0.4693,-0.9859 0.6015,-1.3029 0.1321,-0.3183 0.2012,-0.5525 0.2042,-0.6965 0.0052,-0.2339 -0.1211,-0.4266 -0.3728,-0.584 -0.2492,-0.1555 -0.6413,-0.2801 -1.1748,-0.3722 0.0402,-0.3058 0.0844,-0.6115 0.1284,-0.9176 2.6541,0 5.3165,0 7.9786,0 -0.0684,0.3023 -0.1284,0.6024 -0.1885,0.9029 -0.7337,0.0184 -1.3702,0.2736 -1.9205,0.7648 -0.5483,0.4888 -1.2473,1.5272 -2.1206,3.1081 -0.9706,1.7558 -1.9617,3.506 -2.9549,5.2549 -0.9953,1.7517 -2.0022,3.5063 -3.0311,5.2515 -0.2421,0.4103 -0.4522,0.7673 -0.5936,1.0868 -0.1391,0.3157 -0.205,0.5603 -0.2122,0.7355 -0.0089,0.2208 0.0412,0.386 0.1483,0.4844 0.1089,0.1002 0.3045,0.1658 0.5892,0.2027 -0.0443,0.2117 -0.0879,0.4238 -0.1284,0.6336 -1.9442,0 -3.8929,0 -5.8333,0 -1.9404,0 -3.889,0 -5.8294,0 0.0361,-0.2098 0.0721,-0.4219 0.1082,-0.6336 0.3927,-0.0553 0.6756,-0.164 0.85,-0.3317 0.1703,-0.1637 0.2633,-0.4238 0.2846,-0.7739 0.0024,-0.0369 0.0021,-0.188 -0.0041,-0.4607 -0.0055,-0.2667 -0.0134,-0.6302 -0.0241,-1.0777 -0.0291,-1.2196 -0.0563,-2.4414 -0.0762,-3.6612 -0.0195,-1.2193 -0.0398,-2.4413 -0.06,-3.6631 -0.7577,1.2898 -1.5192,2.58 -2.2855,3.8658 -0.7686,1.2898 -1.5565,2.5718 -2.3252,3.8638 -0.2857,0.4804 -0.4669,0.8358 -0.5734,1.0466 -0.106,0.2108 -0.1733,0.3666 -0.1764,0.4772 -0.0048,0.1802 0.047,0.3288 0.1366,0.4385 0.0907,0.1111 0.2445,0.2027 0.457,0.2764 -0.0522,0.2117 -0.1044,0.4238 -0.1525,0.6336 -1.7718,0 -3.5443,0 -5.3161,0 -1.7722,0 -3.5444,0 -5.3162,0 0.0439,-0.2098 0.092,-0.4219 0.14,-0.6336 0.4491,-0.1072 0.7873,-0.2814 1.0025,-0.5216 0.2136,-0.2386 0.345,-0.579 0.3849,-1.03 0.012,-0.1346 0.0216,-0.4569 0.012,-0.9578 -0.0062,-0.3042 0.0027,-0.5438 0,-0.713 -0.0326,-1.8208 -0.0841,-3.6412 -0.1164,-5.4617 -0.0316,-1.8201 -0.0604,-3.6424 -0.0841,-5.4647 -0.0004,-0.0272 -0.0076,-0.0794 -0.0079,-0.1475 -0.0076,-1.6708 -0.5895,-2.5831 -1.7602,-2.7252 0.1003,-0.2561 0.2005,-0.5121 0.3046,-0.7701z"/>
   <path id="_179047432" class="fil0" d="M46.7521 50.0655l1.0811 -7.6206 1.0738 0c0.2071,1.9144 1.0811,3.4029 2.6291,4.4653 1.5411,1.0578 3.6161,1.5891 6.225,1.5891 1.7749,0 3.2357,-0.2658 4.3902,-0.797 1.1542,-0.5357 1.7279,-1.1952 1.7279,-1.9829 0,-0.9663 -1.6881,-1.9188 -5.0642,-2.8576l-0.0199 0 -2.7753 -0.7511c-0.1404,-0.0365 -0.3739,-0.1009 -0.6808,-0.1877 -1.8415,-0.4856 -3.109,-1.035 -3.8163,-1.6534 -0.427,-0.3479 -0.7405,-0.728 -0.9475,-1.1449 -0.2005,-0.4166 -0.3004,-0.8745 -0.3004,-1.3738 0,-1.8273 1.021,-3.3064 3.0695,-4.4467 2.0414,-1.1402 4.7302,-1.7127 8.0531,-1.7127 1.3406,0 2.9357,0.1328 4.7768,0.4029 1.8416,0.2702 3.0092,0.4029 3.5097,0.4029 0.3001,0 0.5936,-0.0366 0.8871,-0.1053 0.2939,-0.073 0.6008,-0.1877 0.9277,-0.3388l-1.0142 5.6603 -1.114 -0.055c-0.3804,-1.2683 -1.1546,-2.2074 -2.3153,-2.807 -1.168,-0.6047 -2.7891,-0.907 -4.8575,-0.907 -1.2277,0 -2.1948,0.1649 -2.9158,0.49 -0.7137,0.3251 -1.0739,0.7558 -1.0739,1.2961 0,0.7327 1.2277,1.4379 3.6762,2.1159 0.1669,0.0456 0.3004,0.0824 0.3935,0.1096l4.3772 1.1818c1.8346,0.4991 3.1691,1.1127 3.9961,1.8454 0.8278,0.7283 1.2415,1.6396 1.2415,2.7433 0,2.0288 -1.3077,3.714 -3.9299,5.0557 -2.6223,1.342 -5.9847,2.015 -10.0883,2.015 -1.928,0 -3.9165,-0.174 -5.9715,-0.5266 -2.0547,-0.3479 -3.1424,-0.5221 -3.2756,-0.5221 -0.2338,0 -0.5005,0.0321 -0.8009,0.1008 -0.3001,0.0687 -0.6537,0.174 -1.0742,0.3161zm40.7998 0.2427l0.1933 -0.7649c0.7872,-0.1052 1.3479,-0.2839 1.6943,-0.5312 0.3474,-0.2427 0.6608,-0.8198 0.9478,-1.7218l2.6556 -8.4129 -7.4863 0 -2.4821 8.051c-0.1202,0.3572 -0.1933,0.6136 -0.2335,0.7695 -0.0398,0.1555 -0.0601,0.2929 -0.0601,0.4119 0,0.4444 0.1604,0.7923 0.4807,1.0397 0.3203,0.2427 0.7607,0.3757 1.3207,0.3938l-0.24 0.7649 -12.0362 0 0.1933 -0.7649c0.7738,-0.1052 1.3345,-0.2886 1.6816,-0.545 0.3536,-0.2517 0.6739,-0.8241 0.9606,-1.708l3.6497 -11.9298 0 -0.0369c0.1868,-0.5815 0.2733,-0.9616 0.2733,-1.1446 0,-0.4444 -0.1531,-0.7923 -0.4669,-1.0397 -0.3135,-0.2426 -0.7539,-0.3757 -1.3276,-0.3938l0.2334 -0.7648 12.0431 0 -0.1933 0.7648c-1.3479,0.1877 -2.2288,0.9388 -2.6624,2.253l-0.0199 0.0275 -0.6472 1.9325 7.5327 0 0.5269 -1.598c0.1137,-0.3573 0.1871,-0.6137 0.2201,-0.7696 0.0336,-0.1555 0.0539,-0.2929 0.0539,-0.4119 0,-0.4444 -0.1603,-0.7923 -0.4741,-1.0397 -0.3135,-0.2426 -0.7539,-0.3757 -1.3279,-0.3938l0.2341 -0.7648 12.1024 0 -0.1933 0.7648c-0.7738,0.1053 -1.3344,0.2886 -1.6812,0.5494 -0.3536,0.261 -0.6807,0.8382 -0.9811,1.7311l-3.6759 11.9024c-0.0137,0.0368 -0.0268,0.0777 -0.0336,0.1327 -0.1604,0.5175 -0.24,0.8657 -0.24,1.0487 0,0.4444 0.16,0.7923 0.4738,1.0397 0.3134,0.2427 0.7539,0.3757 1.3276,0.3938l-0.2338 0.7649 -12.1025 0z"/>
   <path id="_179047408" class="fil0" d="M136.52 31.8464l-0.2338 0.6321c-0.6001,0.0687 -1.0474,0.183 -1.3475,0.3342 -0.3004,0.1511 -0.447,0.3435 -0.447,0.5771 0,0.1512 0.0601,0.3342 0.1868,0.545 0.1198,0.2061 0.3,0.4303 0.5338,0.6639l4.4768 4.5338 1.1745 -3.9063c0.1064,-0.3573 0.1734,-0.6137 0.2135,-0.7696 0.0398,-0.1555 0.0601,-0.2929 0.0601,-0.4119 0,-0.4444 -0.1535,-0.7923 -0.4672,-1.0397 -0.3138,-0.2426 -0.7605,-0.3757 -1.3342,-0.3938l0.24 -0.7648 7.7194 0 -0.2335 0.7648c-0.7673,0.1053 -1.3276,0.2886 -1.6812,0.5494 -0.3536,0.2611 -0.6739,0.8382 -0.9609,1.7311l-3.6559 11.9024 0 0.0368c-0.1803,0.5815 -0.274,0.9616 -0.274,1.1446 0,0.4444 0.16,0.7924 0.4741,1.0397 0.3135,0.2427 0.7539,0.3757 1.3276,0.3938l-0.2338 0.7649 -7.7259 0 0.2335 -0.7099c0.8871,-0.1006 1.5346,-0.3298 1.928,-0.6915 0.4007,-0.3619 0.594,-0.8929 0.594,-1.589 0,-0.545 -0.4738,-1.287 -1.421,-2.2168 -0.2139,-0.2058 -0.3605,-0.3569 -0.4539,-0.4531l-9.2474 -9.3652 -3.4963 11.6457c-0.1068,0.3572 -0.1799,0.6136 -0.2201,0.7695 -0.0333,0.1555 -0.0532,0.2929 -0.0532,0.4119 0,0.4351 0.16,0.7786 0.4868,1.0306 0.3272,0.2518 0.7739,0.3848 1.3479,0.4029l-0.2335 0.7649 -7.7197 0 0.1933 -0.7649c0.7742,-0.1052 1.3348,-0.2886 1.6819,-0.545 0.3536,-0.2517 0.6739,-0.8241 0.9606,-1.708l3.6494 -11.9298 0 -0.0413c0.1871,-0.5771 0.2736,-0.9572 0.2736,-1.1402 0,-0.4444 -0.1535,-0.7923 -0.4669,-1.0397 -0.3135,-0.2426 -0.7539,-0.3757 -1.3276,-0.3938l0.2331 -0.7648 15.2458 0zm11.7694 15.3096l3.6494 -11.9255 0 -0.0412c0.1871,-0.5815 0.2736,-0.9616 0.2736,-1.1402 0,-0.4488 -0.1534,-0.7967 -0.4669,-1.0441 -0.3134,-0.2426 -0.7539,-0.3757 -1.3275,-0.3938l0.2331 -0.7648 16.2664 0c1.1611,0 2.1086,-0.0185 2.8426,-0.055 0.7337,-0.0365 1.3946,-0.0871 1.9813,-0.1602l0.3735 6.0129 -1.0941 0c-0.3135,-1.3142 -1.1206,-2.3036 -2.4152,-2.9676 -1.2943,-0.664 -3.0758,-0.9938 -5.3444,-0.9938 -2.0348,0 -3.2892,0.7971 -3.776,2.3908l-0.02 0.0549 -0.4875 1.5157 2.522 0c1.5882,0 2.6957,-0.1512 3.3161,-0.4488 0.6138,-0.3023 1.0076,-0.8473 1.1614,-1.644l1.1336 0 0 6.6815 -1.1336 0c-0.1339,-0.8929 -0.6276,-1.5615 -1.4879,-2.0056 -0.8611,-0.4445 -2.0953,-0.6643 -3.7099,-0.6643 -0.3271,0 -0.6873,0.0093 -1.081,0.0321 -0.3866,0.0228 -0.8408,0.0597 -1.3678,0.1147l-1.421 4.639c-0.1469,0.4672 -0.2537,0.8791 -0.3337,1.2411 -0.0803,0.3663 -0.1201,0.6365 -0.1201,0.8151 0,0.6 0.2602,1.0303 0.7875,1.3005 0.5205,0.2701 1.3544,0.4032 2.5021,0.4032 2.2281,0 4.2564,-0.3895 6.0848,-1.1634 1.8344,-0.7739 3.6495,-2.015 5.4446,-3.723l0.9603 0.2929 -4.5369 7.0204c-0.447,-0.1233 -0.9208,-0.2152 -1.4275,-0.2745 -0.5074,-0.0597 -1.1346,-0.0871 -1.8752,-0.0871l-18.9418 0 0.1932 -0.7649c0.7742,-0.1052 1.3348,-0.2886 1.6819,-0.545 0.3536,-0.2517 0.674,-0.8241 0.9606,-1.708zm34.9478 -13.0017c-1.9548,0.055 -3.6896,0.4079 -5.1905,1.0672 -1.5082,0.6596 -2.7156,1.5846 -3.6299,2.7845l-1.034 -0.0275 3.5563 -6.5213c0.3403,0.1328 0.6602,0.2333 0.9671,0.293 0.307,0.064 0.607,0.0962 0.8944,0.0962l16.927 0c0.3536,0 0.7539,-0.0322 1.2005,-0.1009 0.4539,-0.0687 0.941,-0.1646 1.4749,-0.2883l0.1201 6.4433 -1.1143 -0.0413c-0.2472,-1.1721 -0.9143,-2.0699 -2.0016,-2.6971 -1.0876,-0.6274 -2.569,-0.9619 -4.4304,-1.0078l-3.8499 12.6398c-0.093,0.2748 -0.16,0.5131 -0.2001,0.7098 -0.0333,0.1971 -0.0533,0.3526 -0.0533,0.4716 0,0.4444 0.1535,0.7924 0.4669,1.0397 0.3138,0.2427 0.754,0.3757 1.3276,0.3938l-0.2334 0.7649 -12.0829 0 0.24 -0.7649c0.7676,-0.1052 1.3279,-0.2886 1.6815,-0.545 0.3471,-0.2517 0.6674,-0.8241 0.9541,-1.708l4.0099 -13.0017z"/>
   <polygon id="_179047264" class="fil1" points="44.9656,31.5341 45.5522,31.8129 24.5484,71.5964 22.5644,70.54 "/>
   <polygon id="_179045896" class="fil1" points="43.368,14.9714 49.3178,17.5766 53.7746,12.0684 53.3147,18.2794 60.3804,18.321 53.9679,21.9506 56.2839,27.3829 50.4669,24.8036 46.1102,29.8922 46.5527,23.9487 39.3423,24.005 45.8611,20.4386 "/>
   <polygon id="_185580048" class="fil1" points="47.3291,20.3759 45.8701,17.2321 49.4728,18.7864 52.2069,15.4569 51.7918,19.243 56.1161,19.2898 52.1869,21.2923 53.6424,24.6367 50.1663,23.1071 47.3011,26.4294 47.805,22.6422 43.701,22.639 "/>
   <polygon id="_185580336" class="fil1" points="43.4793,6.1538 44.9277,6.7673 45.6472,5.5134 45.8247,6.9166 47.5023,6.9459 46.0629,7.8118 46.9837,9.2519 45.3692,8.5783 44.5798,9.8732 44.5258,8.3301 42.772,8.3679 44.1764,7.5225 "/>
   <polygon id="_185580624" class="fil1" points="61.6564,1.3315 63.4823,2.114 64.9284,0.4036 64.6272,2.3193 66.8704,2.2774 64.8208,3.3652 65.6912,5.189 63.7827,4.2893 62.3578,6.0039 62.6348,4.0029 60.3268,4.1328 62.3478,2.979 "/>
   <polygon id="_185579184" class="fil1" points="56.9887,11.3451 58.4139,11.8801 59.1711,10.6776 59.2196,12.0865 60.7951,12.0627 59.496,12.9041 60.2465,14.1489 58.8154,13.5651 58.138,14.7991 58.0859,13.4055 56.4732,13.4379 57.7261,12.5714 "/>
   <polygon id="_185575296" class="fil1" points="35.745,18.5502 35.1693,17.598 36.3601,18.0475 36.9268,16.9547 37.1117,18.26 38.4746,18.1842 37.2629,18.9134 38.0073,20.0493 36.7106,19.4499 36.092,20.6616 36.0571,19.3212 34.5315,19.3866 "/>
   <polygon id="_185579472" class="fil1" points="60.5089,22.6785 61.7294,23.2269 62.365,21.9755 62.5093,23.2898 64.0093,23.3316 62.7011,24.07 63.4724,25.2542 62.1677,24.7256 61.4645,25.9274 61.4653,24.5873 59.9233,24.5555 61.2018,23.7749 "/>
  </g>
 </g>
</svg>
