<?xml version="1.0" encoding="UTF-8"?>
<svg xmlns="http://www.w3.org/2000/svg" fill-rule="evenodd" clip-rule="evenodd" image-rendering="optimizeQuality" shape-rendering="geometricPrecision" text-rendering="geometricPrecision" viewBox="0 0 297 210">
  <defs>
    <style>
      .fil1{fill:#356700}.fil3{fill:#a1d46a}
    </style>
  </defs>
  <g id="Layer_x0020_1">
    <path fill="none" d="M80.2374 65.0689h136.525v79.8623H80.2374z"/>
    <g id="_292827312">
      <path id="_292829088" d="M85.7584 121.704s6.5304-4.6876 14.3623-6.4037c0 0 7.9815-2.5223 19.6833-.8177 0 0 5.4592.8062 7.636 1.4397 0 0 4.3191 1.002 9.3868 2.4532 0 0 6.9333 1.5923 13.2219 2.1221 0 0 7.3021.8754 13.2221-.7832 0 0 2.8218-.8062 3.7432-1.313 0 0-1.5318 1.267-4.8028 2.7412 0 0-3.3862 1.5664-9.5596 2.0502 0 0-5.6665.3685-13.4985-1.0827-8.5933-1.9998-17.5077-5.7212-26.1966-6.202 0 0-4.2846-.2303-7.1179-.046 0 0-5.2749.3224-9.1448 1.6124 0 0-2.1423.5068-4.25 1.3706 0 0-3.4437 1.267-4.6646 1.9234l-2.0208.9355z" class="fil1"/>
      <path id="_292828944" fill="#478a00" fill-rule="nonzero" d="M87.4868 113.233l-3.9795-20.4972h3.9523l2.5031 15.5319 2.6757-15.5319h3.1663l2.9438 15.8408 2.1805-15.8408h3.9114l-3.7251 20.4972h-4.5247l-2.3668-12.9516-2.1851 12.9516h-4.5519zm19.3797-17.3036v-3.1936h3.5389v3.1936h-3.5389zm0 17.3036V97.8329h3.5389v15.4001h-3.5389zm6.0828-5.1243h3.2073v.4407c0 .8858.1363 1.5173.4043 1.8898.2726.3725.7223.5587 1.3537.5587.4952 0 .8859-.1317 1.1676-.3997.2861-.2681.427-.636.427-1.1039 0-.5861-.5724-1.2584-1.7172-2.0216-.2907-.1953-.5179-.3498-.6769-.4543l-.159-.1181c-2.6212-1.7944-3.9295-3.5525-3.9295-5.2697 0-1.3673.4225-2.4122 1.272-3.13.8449-.7177 2.076-1.0766 3.6933-1.0766 1.5627 0 2.7302.3952 3.5116 1.1902.7813.795 1.172 1.9989 1.172 3.6161v.318h-3.1391v-.318c0-.745-.1408-1.2947-.427-1.64-.2816-.3452-.7314-.5178-1.3447-.5178-.4406 0-.7995.1226-1.063.3679-.268.2408-.3998.5633-.3998.9631 0 .3725.1182.7087.3544 1.0131.2317.2998.7586.7268 1.5763 1.2765.1863.1226.4543.3044.8087.5451 2.5848 1.7036 3.875 3.4117 3.875 5.1243 0 1.3629-.4361 2.4213-1.3129 3.1664-.8722.745-2.1169 1.1175-3.7296 1.1175-1.6945 0-2.9438-.3998-3.7479-1.1993-.804-.7995-1.2038-2.0443-1.2038-3.7387 0-.0636.0045-.159.0136-.2953.0091-.1318.0136-.2317.0136-.3044zm12.5382 5.1243V92.7358h3.5388v6.5644c.309-.5951.7405-1.054 1.2902-1.3856.5497-.3271 1.1766-.4906 1.8762-.4906 1.1175 0 1.9761.318 2.5712.9585.5951.6406.8904 1.5582.8904 2.7575v12.093h-3.4344v-10.3258c0-.9676-.1044-1.6127-.3134-1.9353-.209-.3225-.5679-.486-1.0857-.486-.6451 0-1.1085.2135-1.3811.645-.2771.4316-.4134 1.1948-.4134 2.2942v9.8079h-3.5388zm23.132 0V96.1157h-4.3929v-3.3799h12.6063v3.3799H152.44v17.1173h-3.8205zm8.2134 0V97.8329h3.4072v2.4985c.4906-1.0358 1.0085-1.7762 1.5627-2.2214.5542-.4407 1.2311-.6678 2.0306-.6769v4.3247c-.1317-.0181-.268-.0318-.3997-.0408-.1318-.0091-.2953-.0137-.4907-.0137-.7632 0-1.3674.2272-1.8171.6769-.4497.4543-.6723 1.063-.6723 1.8262v9.0266h-3.6207zm9.1538-17.3036v-3.1936h3.5389v3.1936h-3.5389zm0 17.3036V97.8329h3.5389v15.4001h-3.5389zm10.0896-8.3452c0 2.4941.1272 4.075.3907 4.7473.2635.6678.745 1.004 1.4582 1.004.6269 0 1.0585-.2862 1.2902-.8632.2317-.5769.3453-2.0079.3453-4.2884 0-2.2078-.1136-3.6161-.3453-4.2203-.2317-.6042-.6633-.904-1.2902-.904-.7132 0-1.1947.2771-1.4582.8268-.2635.5497-.3907 1.7808-.3907 3.6978zm-3.4616 13.524V97.8329h3.3798v1.6127c.2862-.6769.6906-1.1812 1.2175-1.5173.527-.3362 1.163-.5043 1.908-.5043 1.4946 0 2.544.5906 3.1482 1.7717.6087 1.1766.9131 3.2663.9131 6.2645 0 3.1073-.2953 5.247-.8859 6.4236-.5905 1.1766-1.6218 1.7626-3.0936 1.7626-.7269 0-1.3356-.1408-1.8308-.427-.4906-.2817-.8904-.7133-1.1902-1.2902v6.4826h-3.5661z"/>
      <path id="_292828776" d="M179.06 89.4078l2.4088.1742 1.1782-2.621.9656 2.8424 2.237.1803s-1.9885-7.9642-2.011-17.5834l-.2667-.1133s-2.4945 14.4553-4.5119 17.1208z" class="fil3"/>
      <path id="_292828608" d="M200.167 108.769c.7004-9.0965-6.6615-17.0816-16.4437-17.8349-4.7157-.3631-9.1323 1.021-12.5212 3.5709 2.7728-1.4721 6.0741-2.2085 9.5559-1.9404 8.9669.6904 15.733 7.7775 15.1129 15.8295-.62 8.0521-8.3913 14.0198-17.3581 13.3293-3.6362-.2799-6.9107-1.6122-9.4773-3.6338 2.9755 3.2263 7.261 5.4103 12.1512 5.7869 9.7822.7532 18.2798-6.0107 18.9803-15.1075z" class="fil1"/>
      <path id="_292828440" d="M200.999 111.51l.4324-5.6132s1.7948 1.6111 12.5522 3.4963l-.0236.3097s-9.854.2763-12.961 1.8072z" class="fil1"/>
      <path id="_292828272" d="M177.875 125.294l6.0599.3023s-2.1076 2.6147-3.6024 12.117l-.3024-.014s-.5695-9.4624-2.1551-12.4053z" class="fil1"/>
      <path id="_292827168" d="M194.069 108.327c.5417-7.0363-5.1773-13.2142-12.7748-13.7992-2.0118-.1549-3.9536.0982-5.7313.6843 1.1177-.1765 2.2787-.2269 3.4642-.1356 7.5974.585 13.3165 6.7629 12.7747 13.7991-.3983 5.1729-4.07 9.369-9.0055 10.9963 6.0448-.9551 10.8154-5.6067 11.2727-11.5449z" class="fil3"/>
    </g>
  </g>
</svg>
