<?xml version="1.0" encoding="UTF-8"?>
<svg xmlns="http://www.w3.org/2000/svg" fill-rule="evenodd" clip-rule="evenodd" image-rendering="optimizeQuality" shape-rendering="geometricPrecision" text-rendering="geometricPrecision" viewBox="0 0 199 72">
  <defs>
    <style>
      .fil0,.fil1{fill:red}.fil0{fill-rule:nonzero}
    </style>
  </defs>
  <g id="Layer_x0020_1">
    <g id="_183981464">
      <path id="_179042920" d="M.7813 31.5906H12.665c-.1082.3061-.2166.6118-.3248.9176-.6935.0462-1.1995.2245-1.5154.5343-.3131.3073-.4998.8183-.5534 1.5275-.0185.2452-.0281.4332-.0323.5675-.0037.1365-.0051.2654-.0037.3907.0182 1.5272.0419 3.0568.0601 4.5825.0178 1.525.0442 3.0531.072 4.5784.9181-1.5787 1.8316-3.1602 2.7342-4.7405.9012-1.5778 1.7897-3.1631 2.6785-4.7427.0814-.1449.2022-.3476.3567-.6081.3265-.5503.5088-.916.5211-1.1056.0155-.2336-.105-.4363-.3247-.6062-.2211-.1705-.5531-.2948-.9781-.3778.092-.3058.1843-.6115.2763-.9176h10.5123c-.0721.3061-.1439.6118-.2163.9176-.6976.0462-1.191.2307-1.4955.5471-.3042.317-.4697.8329-.4971 1.5425-.0083.2261-.0137.4016-.012.5212.002.1178.0137.2287.0199.3302.1098 1.7205.2187 3.4416.333 5.1605.114 1.719.2324 3.4385.3526 5.1572.93-1.7171 1.8539-3.4338 2.7626-5.1515.9074-1.7165 1.8151-3.4317 2.6981-5.1516.2794-.5446.4693-.9859.6015-1.3029.1321-.3183.2012-.5525.2042-.6965.0052-.2339-.1211-.4266-.3728-.584-.2492-.1555-.6413-.2801-1.1748-.3722.0402-.3058.0844-.6115.1284-.9176h7.9786c-.0684.3023-.1284.6024-.1885.9029-.7337.0184-1.3702.2736-1.9205.7648-.5483.4888-1.2473 1.5272-2.1206 3.1081-.9706 1.7558-1.9617 3.506-2.9549 5.2549-.9953 1.7517-2.0022 3.5063-3.0311 5.2515-.2421.4103-.4522.7673-.5936 1.0868-.1391.3157-.205.5603-.2122.7355-.0089.2208.0412.386.1483.4844.1089.1002.3045.1658.5892.2027-.0443.2117-.0879.4238-.1284.6336H15.3792c.0361-.2098.0721-.4219.1082-.6336.3927-.0553.6756-.164.85-.3317.1703-.1637.2633-.4238.2846-.7739.0024-.0369.0021-.188-.0041-.4607-.0055-.2667-.0134-.6302-.0241-1.0777-.0291-1.2196-.0563-2.4414-.0762-3.6612-.0195-1.2193-.0398-2.4413-.06-3.6631-.7577 1.2898-1.5192 2.58-2.2855 3.8658-.7686 1.2898-1.5565 2.5718-2.3252 3.8638-.2857.4804-.4669.8358-.5734 1.0466-.106.2108-.1733.3666-.1764.4772-.0048.1802.047.3288.1366.4385.0907.1111.2445.2027.457.2764-.0522.2117-.1044.4238-.1525.6336H.9059c.0439-.2098.092-.4219.14-.6336.4491-.1072.7873-.2814 1.0025-.5216.2136-.2386.345-.579.3849-1.03.012-.1346.0216-.4569.012-.9578-.0062-.3042.0027-.5438 0-.713-.0326-1.8208-.0841-3.6412-.1164-5.4617-.0316-1.8201-.0604-3.6424-.0841-5.4647-.0004-.0272-.0076-.0794-.0079-.1475-.0076-1.6708-.5895-2.5831-1.7602-2.7252.1003-.2561.2005-.5121.3046-.7701z" class="fil0"/>
      <path id="_179047432" d="M46.7521 50.0655l1.0811-7.6206h1.0738c.2071 1.9144 1.0811 3.4029 2.6291 4.4653 1.5411 1.0578 3.6161 1.5891 6.225 1.5891 1.7749 0 3.2357-.2658 4.3902-.797 1.1542-.5357 1.7279-1.1952 1.7279-1.9829 0-.9663-1.6881-1.9188-5.0642-2.8576h-.0199l-2.7753-.7511c-.1404-.0365-.3739-.1009-.6808-.1877-1.8415-.4856-3.109-1.035-3.8163-1.6534-.427-.3479-.7405-.728-.9475-1.1449-.2005-.4166-.3004-.8745-.3004-1.3738 0-1.8273 1.021-3.3064 3.0695-4.4467 2.0414-1.1402 4.7302-1.7127 8.0531-1.7127 1.3406 0 2.9357.1328 4.7768.4029 1.8416.2702 3.0092.4029 3.5097.4029.3001 0 .5936-.0366.8871-.1053.2939-.073.6008-.1877.9277-.3388l-1.0142 5.6603-1.114-.055c-.3804-1.2683-1.1546-2.2074-2.3153-2.807-1.168-.6047-2.7891-.907-4.8575-.907-1.2277 0-2.1948.1649-2.9158.49-.7137.3251-1.0739.7558-1.0739 1.2961 0 .7327 1.2277 1.4379 3.6762 2.1159.1669.0456.3004.0824.3935.1096l4.3772 1.1818c1.8346.4991 3.1691 1.1127 3.9961 1.8454.8278.7283 1.2415 1.6396 1.2415 2.7433 0 2.0288-1.3077 3.714-3.9299 5.0557-2.6223 1.342-5.9847 2.015-10.0883 2.015-1.928 0-3.9165-.174-5.9715-.5266-2.0547-.3479-3.1424-.5221-3.2756-.5221-.2338 0-.5005.0321-.8009.1008-.3001.0687-.6537.174-1.0742.3161zm40.7998.2427l.1933-.7649c.7872-.1052 1.3479-.2839 1.6943-.5312.3474-.2427.6608-.8198.9478-1.7218l2.6556-8.4129h-7.4863l-2.4821 8.051c-.1202.3572-.1933.6136-.2335.7695-.0398.1555-.0601.2929-.0601.4119 0 .4444.1604.7923.4807 1.0397.3203.2427.7607.3757 1.3207.3938l-.24.7649H72.3061l.1933-.7649c.7738-.1052 1.3345-.2886 1.6816-.545.3536-.2517.6739-.8241.9606-1.708l3.6497-11.9298v-.0369c.1868-.5815.2733-.9616.2733-1.1446 0-.4444-.1531-.7923-.4669-1.0397-.3135-.2426-.7539-.3757-1.3276-.3938l.2334-.7648h12.0431l-.1933.7648c-1.3479.1877-2.2288.9388-2.6624 2.253l-.0199.0275-.6472 1.9325h7.5327l.5269-1.598c.1137-.3573.1871-.6137.2201-.7696.0336-.1555.0539-.2929.0539-.4119 0-.4444-.1603-.7923-.4741-1.0397-.3135-.2426-.7539-.3757-1.3279-.3938l.2341-.7648h12.1024l-.1933.7648c-.7738.1053-1.3344.2886-1.6812.5494-.3536.261-.6807.8382-.9811 1.7311l-3.6759 11.9024c-.0137.0368-.0268.0777-.0336.1327-.1604.5175-.24.8657-.24 1.0487 0 .4444.16.7923.4738 1.0397.3134.2427.7539.3757 1.3276.3938l-.2338.7649H87.5519z" class="fil0"/>
      <path id="_179047408" d="M136.52 31.8464l-.2338.6321c-.6001.0687-1.0474.183-1.3475.3342-.3004.1511-.447.3435-.447.5771 0 .1512.0601.3342.1868.545.1198.2061.3.4303.5338.6639l4.4768 4.5338 1.1745-3.9063c.1064-.3573.1734-.6137.2135-.7696.0398-.1555.0601-.2929.0601-.4119 0-.4444-.1535-.7923-.4672-1.0397-.3138-.2426-.7605-.3757-1.3342-.3938l.24-.7648h7.7194l-.2335.7648c-.7673.1053-1.3276.2886-1.6812.5494-.3536.2611-.6739.8382-.9609 1.7311l-3.6559 11.9024v.0368c-.1803.5815-.274.9616-.274 1.1446 0 .4444.16.7924.4741 1.0397.3135.2427.7539.3757 1.3276.3938l-.2338.7649h-7.7259l.2335-.7099c.8871-.1006 1.5346-.3298 1.928-.6915.4007-.3619.594-.8929.594-1.589 0-.545-.4738-1.287-1.421-2.2168-.2139-.2058-.3605-.3569-.4539-.4531l-9.2474-9.3652-3.4963 11.6457c-.1068.3572-.1799.6136-.2201.7695-.0333.1555-.0532.2929-.0532.4119 0 .4351.16.7786.4868 1.0306.3272.2518.7739.3848 1.3479.4029l-.2335.7649h-7.7197l.1933-.7649c.7742-.1052 1.3348-.2886 1.6819-.545.3536-.2517.6739-.8241.9606-1.708l3.6494-11.9298v-.0413c.1871-.5771.2736-.9572.2736-1.1402 0-.4444-.1535-.7923-.4669-1.0397-.3135-.2426-.7539-.3757-1.3276-.3938l.2331-.7648H136.52zm11.7694 15.3096l3.6494-11.9255v-.0412c.1871-.5815.2736-.9616.2736-1.1402 0-.4488-.1534-.7967-.4669-1.0441-.3134-.2426-.7539-.3757-1.3275-.3938l.2331-.7648h16.2664c1.1611 0 2.1086-.0185 2.8426-.055.7337-.0365 1.3946-.0871 1.9813-.1602l.3735 6.0129h-1.0941c-.3135-1.3142-1.1206-2.3036-2.4152-2.9676-1.2943-.664-3.0758-.9938-5.3444-.9938-2.0348 0-3.2892.7971-3.776 2.3908l-.02.0549-.4875 1.5157h2.522c1.5882 0 2.6957-.1512 3.3161-.4488.6138-.3023 1.0076-.8473 1.1614-1.644h1.1336v6.6815h-1.1336c-.1339-.8929-.6276-1.5615-1.4879-2.0056-.8611-.4445-2.0953-.6643-3.7099-.6643-.3271 0-.6873.0093-1.081.0321-.3866.0228-.8408.0597-1.3678.1147l-1.421 4.639c-.1469.4672-.2537.8791-.3337 1.2411-.0803.3663-.1201.6365-.1201.8151 0 .6.2602 1.0303.7875 1.3005.5205.2701 1.3544.4032 2.5021.4032 2.2281 0 4.2564-.3895 6.0848-1.1634 1.8344-.7739 3.6495-2.015 5.4446-3.723l.9603.2929-4.5369 7.0204c-.447-.1233-.9208-.2152-1.4275-.2745-.5074-.0597-1.1346-.0871-1.8752-.0871h-18.9418l.1932-.7649c.7742-.1052 1.3348-.2886 1.6819-.545.3536-.2517.674-.8241.9606-1.708zm34.9478-13.0017c-1.9548.055-3.6896.4079-5.1905 1.0672-1.5082.6596-2.7156 1.5846-3.6299 2.7845l-1.034-.0275 3.5563-6.5213c.3403.1328.6602.2333.9671.293.307.064.607.0962.8944.0962h16.927c.3536 0 .7539-.0322 1.2005-.1009.4539-.0687.941-.1646 1.4749-.2883l.1201 6.4433-1.1143-.0413c-.2472-1.1721-.9143-2.0699-2.0016-2.6971-1.0876-.6274-2.569-.9619-4.4304-1.0078l-3.8499 12.6398c-.093.2748-.16.5131-.2001.7098-.0333.1971-.0533.3526-.0533.4716 0 .4444.1535.7924.4669 1.0397.3138.2427.754.3757 1.3276.3938l-.2334.7649h-12.0829l.24-.7649c.7676-.1052 1.3279-.2886 1.6815-.545.3471-.2517.6674-.8241.9541-1.708l4.0099-13.0017z" class="fil0"/>
      <path id="_179047264" d="M44.9656 31.5341l.5866.2788-21.0038 39.7835-1.984-1.0564z" class="fil1"/>
      <path id="_179045896" d="M43.368 14.9714l5.9498 2.6052 4.4568-5.5082-.4599 6.211 7.0657.0416-6.4125 3.6296 2.316 5.4323-5.817-2.5793-4.3567 5.0886.4425-5.9435-7.2104.0563 6.5188-3.5664z" class="fil1"/>
      <path id="_185580048" d="M47.3291 20.3759l-1.459-3.1438 3.6027 1.5543 2.7341-3.3295-.4151 3.7861 4.3243.0468-3.9292 2.0025 1.4555 3.3444-3.4761-1.5296-2.8652 3.3223.5039-3.7872-4.104-.0032z" class="fil1"/>
      <path id="_185580336" d="M43.4793 6.1538l1.4484.6135.7195-1.2539.1775 1.4032 1.6776.0293-1.4394.8659.9208 1.4401-1.6145-.6736-.7894 1.2949-.054-1.5431-1.7538.0378 1.4044-.8454z" class="fil1"/>
      <path id="_185580624" d="M61.6564 1.3315l1.8259.7825L64.9284.4036l-.3012 1.9157 2.2432-.0419-2.0496 1.0878.8704 1.8238-1.9085-.8997-1.4249 1.7146.277-2.001-2.308.1299 2.021-1.1538z" class="fil1"/>
      <path id="_185579184" d="M56.9887 11.3451l1.4252.535.7572-1.2025.0485 1.4089 1.5755-.0238-1.2991.8414.7505 1.2448-1.4311-.5838-.6774 1.234-.0521-1.3936-1.6127.0324 1.2529-.8665z" class="fil1"/>
      <path id="_185575296" d="M35.745 18.5502l-.5757-.9522 1.1908.4495.5667-1.0928.1849 1.3053 1.3629-.0758-1.2117.7292.7444 1.1359-1.2967-.5994-.6186 1.2117-.0349-1.3404-1.5256.0654z" class="fil1"/>
      <path id="_185579472" d="M60.5089 22.6785l1.2205.5484.6356-1.2514.1443 1.3143 1.5.0418-1.3082.7384.7713 1.1842-1.3047-.5286-.7032 1.2018.0008-1.3401-1.542-.0318 1.2785-.7806z" class="fil1"/>
    </g>
  </g>
</svg>
