<?xml version="1.0" encoding="UTF-8"?>
<svg xmlns="http://www.w3.org/2000/svg" fill-rule="evenodd" clip-rule="evenodd" image-rendering="optimizeQuality" shape-rendering="geometricPrecision" text-rendering="geometricPrecision" viewBox="0 0 165.1 38.1">
  <defs>
    <style>
      .fil0{fill:#00baf2}.fil1{fill:#042d6f}
    </style>
  </defs>
  <g id="Layer_x0020_1">
    <g id="_283058816">
      <path id="_286278040" d="M115.73 8.2235c-.0465-2.0919-2.1624-1.5081-5.8442-1.5081-.6889 0-1.5081.5201-1.5081 1.1312v27.713c0 .4395.503.9427.9425.9427h5.4672c.4534 0 .5543-.3055.9426-.5655v-17.533c-.0002-3.8324-.0532-4.3361 2.6395-4.3361 2.0775 0 1.6968 2.63 1.6968 4.7133l-.0136 16.038c-.0025 2.4217 1.3807 1.8717 5.6694 1.8717.6833 0 1.0523-.1583 1.5081-.377.4583-1.967.1888-14.1807.1886-17.9099-.0004-3.8324-.0534-4.3361 2.6393-4.3361 2.1198 0 1.6967 2.4333 1.6967 4.5247v12.4425c0 6.4389-1.1794 5.4674 6.4098 5.4674.4398 0 .9428-.5032.9428-.9427V13.1252c0-1.7155-1.2884-3.5017-2.3993-4.5761-2.5088-2.4265-6.5213-2.5972-9.4467-.6714-.5066.3336-.7106.6088-1.1624.9114-.4526-.3033-.531-.4783-1.0492-.8361-3.6115-2.493-6.4322-1.2574-9.3198.2705z" class="fil0"/>
      <path id="_276988288" d="M49.5579 8.2235c0 6.4788-.6025 5.6558 4.3361 5.6558 3.3836 0 5.0452-.5932 4.336 2.4507-3.3734.7861-11.6886-1.6557-11.6886 8.8607 0 3.076-.2696 6.7652 1.6491 8.9081 1.2329 1.3773 2.7978 2.4035 5.3262 2.4035h9.4265c1.4739 0 3.0163-1.2509 3.0163-2.6395V14.0677c0-1.1552-.2598-2.1314-.5883-2.9936-1.0674-2.8014-3.8018-4.1703-7.1412-4.1703h-7.3526c-.8799 0-1.3195.4395-1.3195 1.3197zm5.7811 15.0544h1.8207c.745 0 1.3545.6095 1.3545 1.3545v3.895c0 .745-.6095 1.3545-1.3545 1.3545H55.339c-.745 0-1.3545-.6095-1.3545-1.3545v-3.895c0-.745.6095-1.3545 1.3545-1.3545z" class="fil1"/>
      <path id="_282141240" d="M68.4104 8.2235v11.123c0 2.9642 1.4456 5.3149 3.3261 6.4773 3.1278 1.9339 4.9049.6353 8.3625 1.4406.2583 1.0789.3044.3902 0 1.6968-3.9441.9189-9.4262-1.1686-9.4262 1.6967 0 7.3345-1.4523 6.0328 9.4262 6.0328 4.2673 0 7.5412-3.0831 7.5412-7.3523V7.8466c0-.4398-.503-.9428-.9428-.9428h-5.4672c-.4531 0-.5542.3055-.9426.5655 0 .8037.0299 1.6609.006 2.457-.0964 3.228-.2144 1.0216-.0051 4.8947.3013 5.5801-.3128 4.7139-3.206 4.7139-.509 0-.5197-.0899-.9425-.1884-.7032-3.0185.5397-9.9506-.5656-12.2541-1.6927-.3944-4.0435-.1886-5.8442-.1886-.8802 0-1.3198.4395-1.3198 1.3197z" class="fil1"/>
      <path id="_276988864" d="M25.9921 7.8466v27.9016c0 1.4279 3.7498.9425 5.8442.9425.6889 0 1.5082-.5201 1.5082-1.1311V27.83h5.2788c3.5847 0 6.41-3.0906 6.41-6.7867v-7.3526c0-3.7778-2.8716-6.7869-6.41-6.7869H26.9347c-.4396 0-.9426.503-.9426.9428zm7.2479 6.4818h3.1327c.652 0 1.1853.5333 1.1853 1.1853v3.8524c0 .5588-.4572 1.016-1.016 1.016H33.24v-6.0537z" class="fil1"/>
      <path id="_282141408" d="M90.2795 8.4119c0 6.5458-.6371 5.8444 4.1474 5.8444V34.994c0 2.4366 1.9738 1.8853 5.4675 1.8853 1.0369 0 1.8851-.2496 1.8851-1.3197V14.2563c4.7954 0 3.959.9147 3.959-6.4097 0-1.3265-2.3249-.9428-3.959-.9428 0-2.7177.5322-5.7852-1.098-5.736-1.605.0485-3.035 2.6248-3.8566 3.6093-.7259.8693-1.8956 1.57-3.2265 1.8637-1.6778.3701-3.3189-.1505-3.3189 1.7711z" class="fil0"/>
    </g>
  </g>
</svg>
