<?xml version="1.0" encoding="UTF-8"?>
<svg xmlns="http://www.w3.org/2000/svg" fill-rule="evenodd" clip-rule="evenodd" image-rendering="optimizeQuality" shape-rendering="geometricPrecision" text-rendering="geometricPrecision" viewBox="0 0 84.6666 16.9332">
  <defs>
    <style>
      .fil0{fill:#242e54}
    </style>
  </defs>
  <g id="Layer_x0020_1">
    <g id="_397333472">
      <path id="_397330184" d="M63.6903 11.245c0 1.4146.8811 2.4883 2.1564 2.4883.9428 0 1.6162-.0935 2.3886-.6803.1592-.1211.3223-.2972.4729-.398l-.2489.9953h2.1565c.0674-.1404.0861-.2753.1329-.4476.5427-1.9938 1.077-4.1171 1.6328-6.0806.0495-.1748.0755-.2873.1246-.4563.1565-.5389.3302-.3971-1.9733-.3971-.162 0-.246.5201-.2971.7396-.0367.1572-.0032.172-.1175.2557-.0127-.1521-.1532-.3703-.2379-.4671-.1263-.1441-.2351-.2365-.4001-.3464-.9474-.6306-2.3192-.3255-3.2171.193-1.5024.8677-2.5728 2.9414-2.5728 4.6015zm2.6145-1.8738s.4977-1.3686 1.7833-1.5345c0 0 1.2855-.3317 1.5343.9538 0 0 .083 2.82-2.032 3.2762 0 0-1.9076.2903-1.6173-1.6173 0 0 .1244-.5392.3317-1.0782z" class="fil0"/>
      <path id="_397329800" d="M57.926 7.4299c.0719-.3085.3255-.8798.3317-1.1612h-2.032c-.1458 0-.1275.1215-.1627.252-.0308.114-.058.214-.0861.3286-.471 1.9198-1.1115 3.9997-1.5841 5.9219-.1032.4199-.2361.9224-.36 1.3403l-.71 2.6491h2.1979c.0464-.0966.1069-.3426.1415-.4806l.9782-3.6664.111.2208c.1114.2114.3234.4338.5179.5603.5483.3566.9945.3386 1.6105.3386 1.2327 0 2.4044-.9082 2.9451-1.6166 1.0087-1.3218 1.9225-3.9158.6119-5.3409-1.0229-1.1123-3.1557-.7756-4.2731.3941-.0918.096-.1335.1902-.2377.26zm-.3892 1.9413s.4977-1.3686 1.7832-1.5345c0 0 1.2856-.3317 1.5344.9538 0 0 .083 2.82-2.032 3.2762 0 0-1.9076.2903-1.6173-1.6173 0 0 .1244-.5392.3317-1.0782z" class="fil0"/>
      <path id="_397331528" d="M39.9695 11.0792c0 .8979.2059 1.3843.777 1.96.6843.6901 1.6656.6941 2.5821.6941.9162 0 1.9524-.4352 2.6129-.912.2356-.1701.4218-.3615.6321-.5705.7477-.7433 1.4411-2.1914 1.4411-3.2866 0-.9091-.0694-1.598-.8387-2.23-1.0829-.8897-3.1411-.7492-4.3042-.1758-1.0678.5263-1.9572 1.3766-2.4289 2.5059-.2184.5229-.4734 1.3047-.4734 2.0149zm2.5297-1.708s.4977-1.3686 1.7832-1.5345c0 0 1.2855-.3317 1.5344.9538 0 0 .0829 2.82-2.032 3.2762 0 0-1.9076.2903-1.6174-1.6173 0 0 .1244-.5392.3318-1.0782z" class="fil0"/>
      <path id="_397331240" d="M23.5474 11.1206c0 .8359.0869 1.3334.5923 1.9375.5278.631 1.3387.6752 2.0618.6752.703 0 1.4018-.3371 1.9021-.7105.1826-.1362.2988-.3002.4616-.4092-.0644.2764-.2425.7554-.2488 1.0367h2.1565c.3857-1.6559 1.0399-3.786 1.4682-5.4987.0632-.2528.4763-1.677.4808-1.8829h-2.1564c-.0673.2889-.2246.7045-.2488.9953-.1579-.1817-.1858-.4759-.7122-.8223-.9129-.6007-2.3812-.3346-3.2198.2079-.5343.3457-.8316.6065-1.2395 1.0828-.5735.6697-1.2978 2.1647-1.2978 3.3882zm2.5581-1.7557s.4977-1.3685 1.7832-1.5344c0 0 1.2856-.3318 1.5344.9538 0 0 .0829 2.82-2.032 3.2762 0 0-1.9076.2903-1.6174-1.6174 0 0 .1244-.5391.3318-1.0782z" class="fil0"/>
      <path id="_397330928" d="M13.719 13.6503h2.2394l.9538-3.6079c.0405-.1646.1205-.3654.1244-.5391h1.6588c.4344 0 .7629.1728.8638.5048.0871.2868.3178 2.5286.3839 3.0996.0167.1451.0227.1385.0335.2982.0096.1426-.0222.2444.1288.2444h2.1979c.1799 0 .0921-.1596.0491-.5052-.0809-.6508-.2861-2.8234-.4385-3.2109-.1287-.3275-.4054-.6907-.7718-.7212v-.0829c.728-.0606 1.9103-1.0083 2.3355-1.77.108-.1934.1913-.3619.272-.5574.8552-2.07-.2086-3.4768-2.4401-3.4798-1.6177-.0022-3.2358.0014-4.8535.0014-.2008.8619-.4624 1.685-.6805 2.5541-.5889 2.3463-1.3325 4.7964-1.8989 7.1002-.0458.1862-.1528.4579-.1576.6717zm4.4657-8.5568l2.3638-.0415s1.1197 0 1.2441.7465c0 0 .2488 1.7418-1.8661 1.9491h-2.4468l.705-2.6541z" class="fil0"/>
      <path id="_397331120" fill="#5687c5" d="M7.4571 6.9322c.3957-.265 3.5483-2.3257 3.6908-2.3638-.0163.1961-.0912.364-.1412.5638-.0527.2108-.1005.3577-.1491.5559-.2599 1.0593-.6321 2.3402-.9126 3.4003-.2002.7563-.3873 1.4933-.6043 2.2571-.0655.2306-.5808 2.0977-.5981 2.3048h2.4882c.2137-.9172.6601-2.4199.9035-3.3678.1455-.5669.3045-1.0921.4482-1.6668l1.5756-5.889c.0729-.2903.1468-.5705.2294-.8489.0809-.2725.1509-.5489.2268-.8514.0755-.3005.1556-.5582.2244-.8538-.1959.0456-1.8295 1.1702-2.1584 1.3666-.7335.4379-2.4368 1.5551-3.1996 2.067-.3655.2452-.7108.4617-1.0781.7051-.4222.2798-.3681.3386-.5805 1.2027-.0526.2135-.1152.4488-.1845.6864-.0531.1822-.1766.5551-.1805.7318z"/>
      <path id="_397332512" d="M71.9843 16.7606h2.2808c.4077-.6088.9854-1.3666 1.3685-1.9491.1482-.2253.3114-.4245.4649-.6549l1.8512-2.6275c.5991-.8103 1.2399-1.795 1.8373-2.6l1.3867-1.9724c.1487-.2149.4171-.5135.4316-.688h-1.2026c-.2083 0-.4166-.0021-.6246-.0025-.4256-.0009-.346.1556-.9335.9327-.7695 1.0179-1.555 2.219-2.3223 3.2346-.0549.0726-.0729.0948-.1242.166-.0347.0479-.0334.0501-.0686.0974-.0379.051-.0403.0535-.0738.092-.0727-.3119-.2483-1.8382-.2938-2.2359-.0417-.3653-.1051-.7923-.1502-1.1354-.0288-.2193-.0372-.3366-.0661-.5558-.0187-.1413-.0705-.424-.0705-.5931h-2.1979c-.1455 0-.1099.0763-.0808.2395l.1994 1.1763c.0864.5194.1697 1.0171.2547 1.5286l.6436 3.7983c.0426.261-.0316.2876-.264.6039l-.557.7701c-.1436.1926-1.6473 2.2197-1.6888 2.3752z" class="fil0"/>
      <path id="_397333712" d="M33.4587 7.9275h3.6079c-.1121.1674-.201.1831-.3426.3209l-2.3591 2.0367c-.0807.0646-.114.1134-.1912.182l-1.0979.9342c-.1338.1192-.2495.2077-.3737.3313-.556.553-.331.0771-.5374.831-.0422.1537-.0894.338-.1428.5208-.0497.1705-.1245.3914-.139.5659h6.4693l.4561-1.6588h-3.8981l1.0886-.9434c.3728-.355.8821-.7428 1.2852-1.12.085-.0796.1013-.0762.1849-.1469.0731-.0618.0994-.1009.1722-.1595l.5552-.4816c.3081-.2883 1.1951-.9888 1.4749-1.2621.196-.1914.2871-.7387.3642-1.0458.0501-.1996.1251-.367.1415-.5635h-6.262l-.4562 1.6588z" class="fil0"/>
      <path id="_397333592" d="M3.0613 13.6503h5.1008c.0127-.1527.1908-.7712.2399-.9626l1.0545-3.922c.2383-.9282.5714-2.0619.7791-2.9532L4.2543 9.6596c-.3038.1961-.2538.4223-.4198.9902-.1097.3756-.769 2.8087-.7732 3.0005z" class="fil0"/>
      <path id="_397333544" d="M52.0372 7.264c.0388-.1665.0806-.3284.1294-.4927.0373-.1253.1071-.3538.1195-.5026h-2.1564l-1.9906 7.3816h2.1979c.2363-1.0142.6498-2.3328.9041-3.3673.1462-.5949.3021-1.1103.6418-1.5145.5534-.6584 1.6056-.8771 2.3581-.6395.1469.0464.2607.1179.4088.1303.0036-.1582.2858-1.1268.3493-1.351.036-.127.1789-.5782.1603-.6294-.0736-.2023-1.5407-.4013-2.6539.5409-.1744.1476-.2855.3218-.4683.4442z" class="fil0"/>
    </g>
  </g>
</svg>
