<?xml version="1.0" encoding="UTF-8"?>
<svg xmlns="http://www.w3.org/2000/svg" fill-rule="evenodd" clip-rule="evenodd" image-rendering="optimizeQuality" shape-rendering="geometricPrecision" text-rendering="geometricPrecision" viewBox="0 0 42.3332 42.3332">
  <defs>
    <style>
      .fil1,.fil2{fill:#0992a3;fill-rule:nonzero}.fil1{fill:#1b4660}
    </style>
  </defs>
  <g id="Layer_x0020_1">
    <g id="_284158032">
      <path id="_284168616" fill="none" d="M-.065781 8.74643h42.4648v24.8404h-42.4648z"/>
      <path id="_284168712" d="M8.4 20.3595c-.0636 1.0425-.1307 1.9899-.2014 2.8481-.0741.8582-.1413 1.5436-.2013 2.0534l-.6323 5.0972H3.3063l-1.685-12.8411h3.4229l.2614 4.049c.0813 1.3104.1378 2.3874.166 3.2312.0248.8438.0389 1.6444.0389 2.396v.9532h.1766c.0883-1.3592.1802-2.5976.2755-3.7121.0919-1.1116.1837-2.0677.2721-2.8683l.4874-4.049h3.4582l.4875 4.049c.0954.8006.1907 1.7567.2826 2.8683.0953 1.1145.1836 2.3529.2649 3.7121h.1766v-.9532c0-.7516.0141-1.5522.0459-2.396.0318-.8438.0848-1.9208.159-3.2312l.2614-4.049h3.4335l-1.6956 12.8411H9.548l-.6429-5.103c-.06-.5299-.1272-1.2211-.2013-2.0764-.0707-.8553-.1378-1.797-.2014-2.828l-.1024.0087z" class="fil1"/>
      <path id="_284168856" d="M19.9689 17.88c0 .3599-.1518.6249-.4557.7977-.3037.1699-.7735.2563-1.4058.2563-.6359 0-1.1057-.0864-1.4094-.2563-.3038-.1728-.4557-.4378-.4557-.7977 0-.3572.1483-.6163.4486-.7862.3003-.17.7736-.2535 1.4165-.2535.6323 0 1.1021.0835 1.4058.2535.3039.1699.4557.429.4557.7862zm-3.5818 12.4782V19.389c.2473.0835.5122.1468.7913.19.279.0433.5969.0634.9466.0634.3038 0 .6006-.0201.8867-.0634.2861-.0432.5616-.1065.823-.19l.0106 10.9692h-3.4582z" class="fil2"/>
      <path id="_284169000" d="M25.0593 23.703c.6817-.0173 1.1656-.1728 1.4518-.4694.2861-.2938.4309-.7891.4309-1.4803 0-.5011-.1307-.8668-.3921-1.1001-.2649-.2333-.6747-.3513-1.2328-.3513h-.2578v3.4011zm-3.3947 6.6552V17.5171h4.4685c1.36 0 2.3773.3485 3.0484 1.0454.6747.6998 1.0103 1.7509 1.0103 3.1563 0 1.6155-.4027 2.802-1.2116 3.5594-.8054.7603-2.0665 1.1404-3.7761 1.1404h-.0636v3.9396h-3.4759z" class="fil2"/>
      <path id="_284148216" d="M31.6934 30.3582V17.5167h3.2837v9.8723l6.0138.0224-.6495 2.9469z" class="fil1"/>
      <path id="_284148456" fill="#0992a3" d="M24.889 11.6684c11.2787 2.0936 18.0076 8.9565 15.0293 15.3289-.7623 1.6311-2.0878 3.0713-3.8257 4.2773.3465-.3882.6591-.7949.9319-1.2207 3.8828-6.0605-1.4877-13.566-11.9953-16.7641-6.4222-1.9546-13.2768-1.8475-18.5229-.0851 5.0238-2.0746 11.751-2.7673 18.3827-1.5363z"/>
      <path id="_284147376" d="M31.9027 27.4631v-9.9464h3.2838v9.8723l.3044.0009c-.0525.0106-.1048.022-.1567.0343h-2.801c-.2144 0-.425.0133-.6305.0389z" class="fil1"/>
    </g>
  </g>
</svg>
