<?xml version="1.0" encoding="UTF-8"?>
<svg xmlns="http://www.w3.org/2000/svg" fill-rule="evenodd" clip-rule="evenodd" image-rendering="optimizeQuality" shape-rendering="geometricPrecision" text-rendering="geometricPrecision" viewBox="0 0 42.3332 42.3332">
  <defs>
    <style>
      .fil0{fill:#356700}.fil2{fill:#a1d46a}
    </style>
  </defs>
  <g id="Layer_x0020_1">
    <g id="_292827312">
      <path id="_292829088" d="M1.1995 26.4617s2.0702-1.486 4.5529-2.03c0 0 2.5301-.7995 6.2396-.2592 0 0 1.7306.2556 2.4207.4564 0 0 1.3691.3176 2.9756.7777 0 0 2.1979.5047 4.1914.6727 0 0 2.3148.2775 4.1914-.2483 0 0 .8945-.2556 1.1866-.4162 0 0-.4856.4016-1.5225.869 0 0-1.0734.4965-3.0304.6499 0 0-1.7963.1168-4.2791-.3432-2.724-.634-5.5499-1.8137-8.3043-1.9661 0 0-1.3583-.073-2.2564-.0146 0 0-1.6722.1022-2.8989.5112 0 0-.6792.1606-1.3473.4344 0 0-1.0917.4017-1.4787.6098l-.6406.2965z" class="fil0"/>
      <path id="_292828944" fill="#478a00" fill-rule="nonzero" d="M1.7474 23.7764L.4859 17.2787h1.2529l.7935 4.9237.8482-4.9237h1.0037l.9332 5.0216.6912-5.0216h1.24l-1.1809 6.4977H4.6333l-.7502-4.1057-.6927 4.1057h-1.443zm6.1434-5.4853v-1.0124h1.1219v1.0124H7.8908zm0 5.4853v-4.8819h1.1219v4.8819H7.8908zm1.9283-1.6244h1.0167v.1397c0 .2808.0432.481.1282.5991.0864.118.2289.1771.4291.1771.157 0 .2808-.0418.3701-.1267.0907-.085.1354-.2017.1354-.35 0-.1858-.1815-.3989-.5444-.6408-.0921-.0619-.1641-.1109-.2145-.144l-.0504-.0375c-.831-.5688-1.2457-1.1261-1.2457-1.6705 0-.4334.1339-.7647.4032-.9922.2679-.2275.6581-.3413 1.1708-.3413.4954 0 .8655.1253 1.1132.3773.2477.252.3715.6337.3715 1.1463v.1008h-.9951v-.1008c0-.2361-.0446-.4104-.1353-.5199-.0893-.1094-.2319-.1641-.4263-.1641-.1397 0-.2535.0389-.337.1166-.0849.0764-.1267.1786-.1267.3053 0 .1181.0374.2247.1123.3212.0735.095.2405.2304.4997.4046.0591.0389.144.0965.2564.1728.8194.5401 1.2283 1.0815 1.2283 1.6244 0 .4321-.1382.7676-.4161 1.0038-.2765.2362-.6711.3542-1.1823.3542-.5372 0-.9332-.1267-1.1881-.3801-.2549-.2535-.3816-.6481-.3816-1.1852 0-.0202.0014-.0504.0043-.0936.0029-.0418.0043-.0735.0043-.0965zm3.9746 1.6244v-6.4977h1.1218v2.081c.098-.1887.2348-.3341.409-.4393.1743-.1037.373-.1555.5948-.1555.3542 0 .6264.1008.8151.3039.1886.203.2822.4939.2822.8741v3.8335h-1.0887v-3.2733c0-.3067-.0331-.5112-.0993-.6135-.0663-.1022-.1801-.1541-.3442-.1541-.2045 0-.3514.0677-.4378.2045-.0879.1368-.1311.3788-.1311.7273v3.1091h-1.1218zm7.3329 0v-5.4262h-1.3925v-1.0715h3.9962v1.0715h-1.3926v5.4262h-1.2111zm2.6037 0v-4.8819h1.0801v.7921c.1555-.3284.3197-.5631.4954-.7042.1756-.1397.3902-.2117.6437-.2146v1.3709c-.0418-.0057-.085-.01-.1268-.0129-.0417-.0029-.0936-.0043-.1555-.0043-.2419 0-.4335.072-.576.2145-.1426.1441-.2131.337-.2131.5789v2.8615h-1.1478zm2.9018-5.4853v-1.0124h1.1218v1.0124h-1.1218zm0 5.4853v-4.8819h1.1218v4.8819h-1.1218zm3.1984-2.6454c0 .7906.0403 1.2917.1238 1.5049.0836.2116.2362.3182.4623.3182.1987 0 .3355-.0907.409-.2736.0734-.1829.1094-.6365.1094-1.3594 0-.6999-.036-1.1464-.1094-1.3379-.0735-.1915-.2103-.2866-.409-.2866-.2261 0-.3787.0879-.4623.2621-.0835.1743-.1238.5646-.1238 1.1723zm-1.0974 4.2871v-6.5236h1.0714v.5113c.0908-.2146.219-.3745.386-.481.1671-.1066.3687-.1599.6048-.1599.4738 0 .8065.1872.998.5616.193.373.2895 1.0355.2895 1.9859 0 .985-.0936 1.6633-.2809 2.0363-.1871.373-.5141.5587-.9806.5587-.2305 0-.4234-.0446-.5804-.1353-.1555-.0893-.2823-.2261-.3773-.409v2.055h-1.1305z"/>
      <path id="_292828776" d="M30.7763 16.2238l.7636.0552.3735-.8309.3061.9011.7091.0571s-.6303-2.5246-.6375-5.574l-.0845-.0359s-.7908 4.5824-1.4303 5.4274z" class="fil2"/>
      <path id="_292828608" d="M37.4673 22.3613c.222-2.8836-2.1117-5.4149-5.2127-5.6537-1.4949-.1151-2.895.3237-3.9693 1.132.879-.4667 1.9256-.7001 3.0293-.6151 2.8425.2188 4.9874 2.4655 4.7908 5.018-.1965 2.5525-2.66 4.4443-5.5025 4.2254-1.1527-.0888-2.1908-.5111-3.0044-1.152.9433 1.0228 2.3018 1.7151 3.852 1.8345 3.101.2388 5.7947-1.9054 6.0168-4.7891z" class="fil0"/>
      <path id="_292828440" d="M37.731 23.2302l.1371-1.7794s.569.5107 3.9791 1.1083l-.0075.0982s-3.1237.0876-4.1087.5729z" class="fil0"/>
      <path id="_292828272" d="M30.4007 27.5998l1.921.0958s-.6681.8289-1.142 3.8411l-.0959-.0044s-.1805-2.9996-.6831-3.9325z" class="fil0"/>
      <path id="_292827168" d="M35.5342 22.2212c.1717-2.2305-1.6412-4.1889-4.0496-4.3744-.6378-.0491-1.2533.0311-1.8169.2169.3543-.0559.7224-.0719 1.0982-.043 2.4084.1855 4.2213 2.1439 4.0496 4.3744-.1263 1.6398-1.2902 2.97-2.8548 3.4858 1.9162-.3027 3.4285-1.7773 3.5735-3.6597z" class="fil2"/>
    </g>
  </g>
</svg>
