<?xml version="1.0" encoding="UTF-8"?>
<svg xmlns="http://www.w3.org/2000/svg" fill-rule="evenodd" clip-rule="evenodd" image-rendering="optimizeQuality" shape-rendering="geometricPrecision" text-rendering="geometricPrecision" viewBox="0 0 42.3332 25.4">
  <defs>
    <style>
      .fil1,.fil2{fill:#0992a3;fill-rule:nonzero}.fil1{fill:#1b4660}
    </style>
  </defs>
  <g id="Layer_x0020_1">
    <g id="_349030928">
      <path id="_347003496" fill="none" d="M5.63251 2.01962h30.4356v17.8037H5.63251z"/>
      <path id="_347003736" d="M11.7001 10.343c-.0455.7472-.0936 1.4262-.1443 2.0413-.0531.6151-.1012 1.1064-.1443 1.4717l-.4532 3.6533H8.0494L6.8417 8.3058H9.295l.1873 2.902c.0583.9392.0988 1.7111.119 2.3159.0178.6047.0279 1.1785.0279 1.7173v.6831h.1266c.0632-.9742.1291-1.8617.1974-2.6605.0659-.7967.1317-1.482.195-2.0558l.3494-2.902h2.4785l.3494 2.902c.0684.5738.1367 1.2591.2026 2.0558.0683.7988.1316 1.6863.1898 2.6605h.1266v-.6831c0-.5388.0101-1.1126.033-1.7173.0227-.6048.0607-1.3767.1139-2.3159l.1873-2.902h2.4609l-1.2153 9.2035H12.523l-.4608-3.6575c-.0431-.3797-.0912-.8751-.1443-1.4881-.0507-.613-.0988-1.288-.1443-2.0269l-.0735.0062z" class="fil1"/>
      <path id="_347003016" d="M19.9919 8.5658c0 .258-.1088.4479-.3266.5718-.2177.1218-.5544.1837-1.0076.1837-.4557 0-.7925-.0619-1.0102-.1837-.2177-.1239-.3266-.3138-.3266-.5718 0-.2559.1063-.4417.3216-.5634.2152-.1218.5544-.1817 1.0152-.1817.4532 0 .7899.0599 1.0076.1817.2178.1217.3266.3075.3266.5634zm-2.5672 8.9435V9.6474c.1772.0599.3671.1053.5671.1362.2.031.4279.0454.6785.0454.2177 0 .4304-.0144.6355-.0454.2051-.0309.4025-.0763.5899-.1362l.0076 7.8619h-2.4786z" class="fil2"/>
      <path id="_349030328" d="M23.6403 12.7393c.4886-.0123.8354-.1238 1.0405-.3364.2051-.2105.3089-.5655.3089-1.0609 0-.3592-.0937-.6213-.2811-.7885-.1898-.1672-.4835-.2518-.8835-.2518h-.1848v2.4376zm-2.433 4.77V8.3058h3.2026c.9747 0 1.7039.2497 2.1849.7492.4835.5016.7241 1.255.7241 2.2622 0 1.1579-.2886 2.0083-.8684 2.5512-.5772.5449-1.4811.8173-2.7064.8173h-.0456v2.8236h-2.4912z" class="fil2"/>
      <path id="_349032584" d="M28.3951 17.5093V8.3055h2.3536v7.0757l4.3102.0161-.4655 2.1121z" class="fil1"/>
      <path id="_349030376" fill="#0992a3" d="M23.5182 4.1138c8.0838 1.5006 12.9065 6.4194 10.7719 10.9867-.5464 1.169-1.4964 2.2013-2.742 3.0657.2484-.2783.4724-.5698.6679-.875 2.783-4.3437-1.0662-9.7231-8.5972-12.0152-4.6031-1.401-9.5159-1.3242-13.2759-.061 3.6007-1.4869 8.4223-1.9834 13.1753-1.1012z"/>
      <path id="_349030664" d="M28.5451 15.4343V8.3055h2.3536v7.0757l.2182.0007c-.0376.0076-.0751.0158-.1123.0246H28.997c-.1536 0-.3046.0095-.4519.0278z" class="fil1"/>
    </g>
  </g>
</svg>
