<?xml version="1.0" encoding="UTF-8"?>
<svg xmlns="http://www.w3.org/2000/svg" fill-rule="evenodd" clip-rule="evenodd" image-rendering="optimizeQuality" shape-rendering="geometricPrecision" text-rendering="geometricPrecision" viewBox="0 0 42.3332 25.4">
  <defs>
    <style>
      .fil4{fill:#65272d}.fil2{fill:#c63d61}.fil1{fill:#d02452}.fil3,.fil5{fill:#65272d;fill-rule:nonzero}.fil5{fill:#d02452}
    </style>
  </defs>
  <g id="Layer_x0020_1">
    <g id="_350803912">
      <path id="_359210984" fill="#f091af" d="M23.2533 1.9c10.1619 0 18.4027 4.8363 18.4027 10.8 0 5.9637-8.2408 10.8-18.4027 10.8-10.1618 0-18.4026-4.8363-18.4026-10.8 0-5.9637 8.2408-10.8 18.4026-10.8zm1.4354.6492c9.3292 0 16.895 4.54 16.895 10.1383 0 5.5984-7.5658 10.1385-16.895 10.1385-9.3294 0-16.8951-4.5401-16.8951-10.1385 0-5.5983 7.5657-10.1383 16.8951-10.1383z"/>
      <path id="_350806528" d="M32.1848 4.8898l.0919.107-.259.0334-.3427.0754-.4346.1256-.2758.1759-.2674.1675.2925.0754.4179.0921.2841.0837-.1086-.1842.6853-.3518h.4847l.7689.1173.2424-.1843.6686-.0753h1.1366l.3928.1005.5516.2177.468.201-.6101-.0251.443.1675.7104.2931.7104.4187.5348.4271.4597.5108.5516.6867.4513.7202-.1839-.1759-.2674.0754.0502.3182.2674.0335.0752.0838.1421.5527.0585.1926-.2089-.0586-.0251.4019-.4681.4858.1171.4773-.4012.3685-.2173-.7872-.3259.1842.0835 1.03.0251.5946-1.7467 1.2143.4764.7704-.8191.5444-.3176-.6616-.2256.067.1588.7621.6519.4187-.209.2428-.4429-.0753.0585.3266.3677.0251.1755.6197.8191.1842v.2764l-.9862.0084-1.5044-1.6163.677.0168-.209-.5611-.7521-1.6665.0167-.6532-.2925-.0168-.1505.603-1.0781.829-.0167.7705-.794.2093-.5599-1.4236-.3678-.1089.0502-.8709-1.3038-.2428-1.5712-.2848.4012.7453.5014-.1507.5349.603-.5433.6699-1.1533.4103-1.1617-2.5458-.3008.0084-.0251.5192.7271 1.7168.6017.5527.9444-.0251-1.3455 2.2275.2256.2931.0335.1675.1587.4439-.3092.1926.1087.3852-.3009.3433-.4095-.2512-.4262-.4773-.4514-.536-.4262-.6532-.0836-.2763-.1337-.3434-.443-.8039.0419-.0922-.4263-.7453-.1672-.6615-.1214-.7035v-1.1724l.0713-.1256v-.2931l-.0167-.0921.117-.7621.092-.0753.0668-.4355.0836-.1424.0835-.3015v-.134l.1254-.3517-.0953.44.1883-.3379.144-.2552.0279-.1559.1138-.2219.0558-.0519-.02.1339.4729-.3059.0817-.1699.034-.0859.2872-.2539.4848-.3498-.0559-.1199-.5047.3578.016-.2439.4129-.4297-.0738-.068-.5865.7076.0299.1039-.1356.3098-.2314.2599-.1217.1259.0279-.2058-.1716.2019.1477-.2779.0798-.1739.1975-.2679.4229-.5656.2553-.3178.2454-.194.3611-.3298.2214-.1439.3451-.1439.2593-.056.4828-.1079-.4289.4177-.5266.152.2254.2038.6982-.4677.6204-.4038.2274-.1059.2733-.058.5426-.0759.022-.032-.4648-.2859.1615-.0979.2973-.1879.2374-.12.2394-.1039.2314-.068.2733-.0639.4238-.0965zm-1.4784 4.8613l.2627-.0418.0417.4347-.3002.0459-.0042-.4388zm-1.2596.1421l.3128-.2633.1335.1589-.3295.4304.3253.7523-.4379.1421-.0042-1.2204zm-2.6211.42l.4122-.5801.1574.3063.2872-.0743.0046-.2924.2733.0093.2778.5848-1.0281.0324-.3334.3759-.051-.3619zm-.7317.5011l-.1528-.5801.0602-.1438.2362.6172.0092.6033.352.4083v-.8167l.3937.7796.4121-.6683-.037.6451-.1714.2042-.8568.0093-.162-.2553-.2687.3945-.3288-.1996.0093-.2181-.0509-.3016-.2594.1903-.0602.181.0834-.4595.1713-.4547.0232.0649.1806-.3063.1575.297.0046.5894.2547-.5801z" class="fil1"/>
      <path id="_350806432" d="M40.6198 9.6803l.1339.3542-.016.0806.0909.2575-.0963.1127-.1393-.279.1194-.1088.0085-.0908z" class="fil2"/>
      <path id="_350806336" d="M40.3192 10.2563l.3283.429-.0643.479-.0999.4791-.5922.4862-.2426-.3718.6493-.5434z" class="fil2"/>
      <path id="_350806240" d="M40.4548 12.1153l.0999.0786.1855.6292-.1427.2645z" class="fil2"/>
      <path id="_350806144" d="M37.5461 15.9949l.7289-.7098.3387.6275-.503.8538-.6775-.072z" class="fil2"/>
      <path id="_350806048" d="M38.9423 15.8303l.2771.1029-.4619.7715-.2875-.0103z" class="fil2"/>
      <path id="_350805952" d="M39.5479 15.9229l.3696.0515.3491-.0206.1437-.0412-.1232.4012-.0719.1337-.6057.1543h-.1745z" class="fil2"/>
      <path id="_350805856" d="M39.9894 16.7355l-.0616.2469-.308.4423-.3388.4527-.462.4835-.349.3291-.2361.1543-.4415.2983-.503.2984-.2772.1566.3491-.383-.2362-.0205.1233-.1646.1026-.3395.5647-.3909.6261-.4937.5852-.5144.2054-.216.3079.1543.154-.2469z" class="fil2"/>
      <path id="_350805760" d="M33.5148 15.2852l.3441-.2174.3079.3985-.4347.2898z" class="fil2"/>
      <path id="_350805664" d="M28.8778 18.1289l.5796-.3079.2717.1993-.1992 1.0143-.6702-.471z" class="fil2"/>
      <path id="_350805568" d="M.7256 10.5259H2.6116c-.0171.0534-.0343.1068-.0515.1601-.1101.0081-.1904.0392-.2405.0932-.0497.0536-.0793.1428-.0878.2665-.003.0428-.0045.0756-.0052.099-.0006.0238-.0008.0463-.0006.0682.0029.2664.0067.5333.0096.7994.0028.2661.007.5327.0114.7988.1457-.2754.2907-.5513.4339-.827.1431-.2753.2841-.5519.4251-.8275.013-.0252.0321-.0606.0567-.106.0518-.096.0807-.1598.0827-.1929.0024-.0408-.0167-.0761-.0516-.1058-.0351-.0297-.0878-.0514-.1552-.0659.0146-.0533.0292-.1067.0438-.1601h1.6684c-.0115.0534-.0228.1068-.0343.1601-.1108.0081-.189.0403-.2374.0955-.0482.0553-.0745.1453-.0789.2691-.0013.0394-.0021.07-.0019.0909.0004.0205.0022.0399.0032.0576.0174.3002.0347.6004.0528.9003.0181.2999.0369.5999.056.8997.1476-.2995.2942-.599.4384-.8987.144-.2995.2881-.5987.4282-.8987.0444-.0951.0745-.1721.0955-.2274.021-.0555.0319-.0963.0324-.1215.0008-.0408-.0192-.0744-.0592-.1018-.0395-.0272-.1017-.0489-.1864-.065.0064-.0533.0134-.1067.0204-.1601h1.2662c-.0108.0528-.0204.1051-.0299.1575-.1164.0033-.2175.0478-.3048.1335-.087.0852-.1979.2664-.3366.5422-.154.3063-.3113.6117-.4689.9168-.158.3056-.3178.6117-.4811.9162-.0384.0715-.0717.1338-.0942.1896-.022.055-.0325.0977-.0336.1283-.0015.0385.0065.0673.0235.0845.0173.0175.0483.0289.0935.0353-.007.037-.0139.074-.0204.1106H3.0424c.0057-.0366.0114-.0736.0172-.1106.0623-.0096.1072-.0286.1349-.0578.027-.0286.0418-.074.0451-.135.0004-.0065.0004-.0328-.0006-.0804-.0009-.0465-.0021-.1099-.0038-.188-.0047-.2128-.009-.4259-.0121-.6388-.0031-.2127-.0063-.4259-.0096-.639-.1202.225-.2411.4501-.3627.6744-.122.225-.247.4487-.369.6741-.0453.0838-.0741.1458-.091.1826-.0168.0368-.0275.0639-.028.0832-.0008.0315.0075.0574.0217.0765.0144.0194.0388.0354.0725.0482-.0083.037-.0166.074-.0242.1106H.7454c.007-.0366.0146-.0736.0222-.1106.0713-.0186.125-.049.1591-.0909.0339-.0417.0548-.1011.0611-.1797.0019-.0235.0034-.0797.0019-.1671-.001-.0531.0005-.0949 0-.1244-.0052-.3177-.0133-.6353-.0184-.9529-.0051-.3175-.0096-.6354-.0134-.9534-.0001-.0047-.0012-.0138-.0012-.0257-.0012-.2915-.0936-.4506-.2794-.4754.0159-.0447.0318-.0894.0483-.1344z" class="fil3"/>
      <path id="_350805472" d="M8.0214 13.7491l.1716-1.3295h.1704c.0329.334.1716.5936.4173.779.2446.1845.5739.2772.9879.2772.2817 0 .5135-.0464.6968-.139.1831-.0935.2742-.2085.2742-.346 0-.1685-.2679-.3347-.8037-.4985h-.0032l-.4404-.131c-.0223-.0064-.0594-.0176-.1081-.0328-.2922-.0847-.4934-.1805-.6056-.2884-.0678-.0607-.1176-.127-.1504-.1998-.0318-.0727-.0477-.1525-.0477-.2397 0-.3187.162-.5768.4872-.7757.3239-.1989.7507-.2988 1.278-.2988.2128 0 .4659.0231.7581.0703.2923.0471.4776.0703.557.0703.0477 0 .0942-.0064.1408-.0184.0467-.0127.0954-.0327.1472-.0591l-.1609.9875-.1768-.0096c-.0604-.2213-.1832-.3851-.3675-.4897-.1853-.1055-.4426-.1583-.7709-.1583-.1948 0-.3483.0288-.4627.0855-.1133.0568-.1704.1319-.1704.2261 0 .1279.1948.2509.5834.3692.0265.0079.0477.0144.0624.0191l.6947.2062c.2912.0871.503.1941.6342.3219.1314.1271.197.2861.197.4786 0 .354-.2075.648-.6237.882-.4161.2342-.9497.3516-1.601.3516-.306 0-.6216-.0304-.9477-.0919-.3261-.0607-.4987-.0911-.5199-.0911-.0371 0-.0794.0056-.1271.0176-.0476.012-.1037.0304-.1705.0552zm6.4752.0423l.0306-.1334c.125-.0184.214-.0496.2689-.0927.0552-.0424.1049-.143.1505-.3004l.4214-1.4677h-1.1881l-.3939 1.4046c-.0191.0623-.0307.107-.0371.1342-.0063.0271-.0095.0511-.0095.0719 0 .0775.0254.1382.0763.1814.0508.0423.1207.0655.2096.0687l-.0381.1334H12.077l.0307-.1334c.1228-.0184.2118-.0504.2668-.0951.0562-.0439.107-.1438.1525-.298l.5792-2.0813v-.0064c.0297-.1015.0434-.1678.0434-.1997 0-.0775-.0243-.1382-.0741-.1814-.0498-.0423-.1197-.0655-.2107-.0687l.037-.1334h1.9113l-.0306.1334c-.214.0328-.3538.1638-.4226.3931l-.0031.0048-.1027.3371h1.1954l.0837-.2788c.018-.0623.0297-.107.0349-.1342.0053-.0272.0085-.0511.0085-.0719 0-.0775-.0254-.1382-.0752-.1814-.0498-.0423-.1197-.0655-.2108-.0687l.0372-.1334h1.9207l-.0307.1334c-.1228.0184-.2117.0504-.2668.0959-.0561.0455-.108.1462-.1557.302l-.5834 2.0765c-.0021.0064-.0042.0135-.0053.0231-.0255.0903-.0381.151-.0381.183 0 .0775.0254.1382.0752.1814.0497.0423.1196.0655.2107.0687l-.0371.1334h-1.9207z" class="fil3"/>
      <path id="_350805376" d="M22.2681 10.5706l-.0371.1102c-.0953.012-.1663.032-.2139.0583-.0477.0264-.0709.06-.0709.1007 0 .0264.0095.0583.0296.0951.019.036.0476.0751.0847.1158l.7105.791.1864-.6815c.0169-.0623.0275-.1071.0339-.1343.0063-.0271.0096-.0511.0096-.0718 0-.0776-.0244-.1383-.0742-.1814-.0498-.0423-.1207-.0656-.2117-.0687l.0381-.1334h1.2251l-.0371.1334c-.1218.0183-.2107.0503-.2668.0958-.0561.0456-.107.1463-.1525.302l-.5802 2.0765v.0065c-.0286.1014-.0435.1677-.0435.1996 0 .0776.0254.1383.0752.1814.0498.0424.1197.0656.2107.0687l-.0371.1335h-1.2261l.037-.1239c.1408-.0175.2436-.0575.306-.1206.0636-.0632.0943-.1558.0943-.2772 0-.0951-.0752-.2246-.2255-.3868-.034-.0359-.0572-.0622-.0721-.079l-1.4676-1.6339-.5548 2.0317c-.017.0624-.0286.1071-.035.1343-.0053.0271-.0084.0511-.0084.0718 0 .0759.0254.1359.0772.1798.052.044.1229.0672.214.0703l-.0371.1335h-1.2252l.0307-.1335c.1229-.0183.2119-.0503.2669-.095.0562-.044.107-.1438.1525-.298l.5792-2.0813v-.0072c.0297-.1007.0434-.167.0434-.1989 0-.0776-.0244-.1383-.0741-.1814-.0497-.0423-.1197-.0656-.2107-.0687l.037-.1334h2.4196zm1.8678 2.6709l.5792-2.0805v-.0072c.0297-.1015.0435-.1678.0435-.199 0-.0783-.0244-.139-.0741-.1821-.0498-.0423-.1197-.0656-.2107-.0687l.037-.1334h2.5815c.1843 0 .3347-.0033.4512-.0096.1164-.0064.2213-.0152.3144-.028l.0593 1.049h-.1737c-.0497-.2293-.1778-.4019-.3833-.5177-.2054-.1158-.4881-.1734-.8481-.1734-.323 0-.5221.1391-.5993.4171l-.0032.0096-.0774.2644h.4003c.252 0 .4278-.0264.5263-.0783.0974-.0527.1599-.1478.1843-.2868h.1799v1.1657h-.1799c-.0213-.1558-.0996-.2725-.2362-.3499-.1366-.0776-.3325-.1159-.5887-.1159-.0519 0-.1091.0016-.1716.0056-.0613.004-.1334.0104-.2171.02l-.2255.8093c-.0233.0815-.0402.1534-.0529.2165-.0128.0639-.0191.1111-.0191.1422 0 .1047.0413.1798.125.2269.0826.0471.2149.0704.3971.0704.3536 0 .6755-.068.9657-.203.2911-.135.5791-.3515.864-.6495l.1524.0511-.72 1.2248c-.0709-.0216-.1461-.0376-.2265-.0479-.0806-.0104-.1801-.0152-.2976-.0152h-3.0062l.0307-.1335c.1228-.0183.2118-.0503.2669-.095.0561-.044.107-.1438.1524-.298zm5.5464-2.2683c-.3102.0096-.5855.0712-.8237.1862-.2394.115-.431.2764-.5761.4858l-.1641-.0048.5644-1.1377c.054.0231.1048.0407.1535.0511.0487.0111.0963.0168.1419.0168h2.6864c.0561 0 .1197-.0057.1906-.0176.072-.012.1493-.0288.234-.0503l.0191 1.124-.1769-.0071c-.0392-.2045-.1451-.3612-.3176-.4706-.1726-.1094-.4077-.1678-.7032-.1758l-.6109 2.2051c-.0148.048-.0254.0895-.0318.1239-.0053.0344-.0085.0615-.0085.0822 0 .0776.0244.1383.0741.1814.0498.0424.1197.0656.2107.0687l-.037.1335h-1.9176l.0381-.1335c.1218-.0183.2107-.0503.2668-.095.0551-.044.1059-.1438.1514-.298l.6364-2.2683z" class="fil3"/>
      <path id="_350805280" d="M7.3217 10.5426l.1012.0278-1.7897 7.4887-.3467-.1135z" class="fil4"/>
      <path id="_350805184" d="M7.2765 8.5606l-.3424-.4871.6162.1441.3012-.6595.0754.6595.6725-.1372-.5356.4734.3492.5214-.5956-.1441-.3219.6626-.0616-.6626-.6367.1372z" class="fil4"/>
      <path id="_350805088" d="M6.1544 6.2648l.2473.056.0654-.238.0793.2333.2613-.0513-.1913.196.196.2146-.2753-.0606-.0747.2473-.0653-.2613-.2707.0653.1867-.1913z" class="fil1"/>
      <path id="_350804992" d="M8.796 4.8323l.3121.0721.1612-.3402.024.3368.3464-.0825-.2778.2543.2023.2818-.3292-.0893-.1578.3402-.0309-.3505-.3532.0996.2709-.2646z" class="fil1"/>
      <path id="_350804896" d="M8.4415 6.6965l.2408.0433.0731-.2304.0595.2386.2435-.057-.1704.1871.1623.1871-.2435-.0515-.0595.2331-.0596-.2359-.2489.0597.1624-.1898z" class="fil4"/>
      <path id="_350804800" d="M5.4122 8.6382l-.1244-.143.2013.0366.0476-.2053.0768.2163.2086-.0586-.161.165.1574.1687-.2233-.0587-.0512.2274-.0549-.2274-.2342.0624z" class="fil4"/>
      <path id="_350804704" d="M9.4058 8.5108l.2096.0525.0524-.2347.0709.2192.2342-.0432-.1757.1698.1633.1761-.2218-.0464-.0648.2285-.0493-.2285-.2404.0464.1696-.1761z" class="fil1"/>
      <path id="_350803216" d="M38.6584 6.1029H38.57v-.8115h-.1799V5.203h.4482v.0884h-.1799v.8115zm.2761 0V5.203h.1304l.3113.7824.3103-.7824h.1304v.8999h-.0846V5.308l-.3164.7949h-.0798l-.3163-.7949v.7949h-.0853z" class="fil5"/>
      <path id="_350803336" d="M9.0586 14.7322h.0809c.0518 0 .0907-.0014.1166-.0041.0258-.0027.0483-.0077.0647-.0135.0321-.0111.0593-.0261.0777-.0489.0172-.0211.0264-.0475.0291-.0767.0022-.0224 0-.0419-.0097-.0587-.0097-.0169-.0244-.0302-.0469-.0408-.0147-.0069-.0324-.0124-.0534-.0155-.021-.003-.0534-.0046-.0987-.0046h-.0875c-.0129.0439-.0258.0873-.0388.1315-.0128.0434-.0211.0875-.034.1313zm-.2299.4106c.0324-.1257.0673-.2516.0988-.377.0316-.126.068-.2515.102-.3772h.1635c.0906 0 .1537.0034.1909.0103.0373.0069.0684.0178.0955.035.0264.0168.046.0389.0599.0651.0136.0257.0175.0549.0146.0868-.0035.0382-.0152.0731-.0356.1022-.0216.0308-.0532.0558-.089.076-.0306.0173-.068.0292-.1085.0364-.042.0075-.1052.0111-.1926.0111h-.0907c-.0145.0553-.0291.1106-.0437.1658-.0145.0551-.0291.1104-.0437.1655h-.1214zm1.3889-.4179h.0825c.0502 0 .0875-.0012.1133-.0039.0243-.0026.0485-.0077.068-.0141.0307-.0102.0567-.0256.0745-.0468.0177-.0213.0291-.0461.0323-.0743.0049-.0425-.0098-.0723-.0453-.0902-.0341-.0171-.1004-.0262-.2007-.0262h-.0551c-.0129.0427-.0258.0853-.0372.1278-.0113.0425-.0226.0852-.0323.1277zm-.2331.4179c.0323-.1257.0681-.2518.1003-.377.0325-.1261.0696-.2515.1053-.3772h.1618c.0891 0 .1522.0035.1878.0103.0372.007.068.0184.0954.035.0293.0177.048.0401.0616.0656.014.0264.0194.0549.0161.0863-.0064.063-.0406.1128-.1003.1506-.0584.0371-.1375.0564-.2315.0571.0454.0583.0923.1165.1377.1747.0452.0582.0922.1165.1407.1746h-.1472c-.0437-.058-.0907-.116-.1328-.174-.0421-.058-.0874-.1161-.131-.1742h-.0502c-.0179.0581-.0348.116-.0502.1742-.0153.0578-.0292.116-.0453.174h-.1182zm1.1865 0c.034-.1257.0697-.2518.102-.377.0324-.1261.0712-.2515.1068-.3772h.1262c-.0356.1257-.0736.2512-.1068.3772-.0331.1254-.0696.2513-.1036.377h-.1246zm.8368-.7542h.1295c.0211.0942.0413.1883.0632.2826.0217.094.0404.1884.063.2825.0729-.0941.1511-.1881.2251-.2825.0733-.0937.1473-.1884.2234-.2826h.1359c-.1084.1306-.2153.2613-.3205.3919-.1052.1305-.212.2611-.3188.3917-.0324-.1306-.0673-.2614-.1004-.3917-.0332-.1308-.0664-.2613-.1004-.3919zm1.0214.7542c.1117-.1307.2278-.2618.3399-.3921.1128-.131.2282-.2613.3432-.3921.0388.1308.0786.2617.1165.3921.0381.1309.0793.2614.1198.3921h-.1343c-.0162-.0633-.0308-.1267-.047-.1901h-.4419c-.0534.0634-.1068.1268-.1586.1901h-.1376zm.3577-.2678h.3626c-.0162-.0501-.0324-.1003-.0453-.1504-.0129-.0501-.0292-.1003-.0421-.1505-.0469.0502-.0934.1008-.1376.1505-.0448.0505-.0922.1003-.1376.1504zm1.2189.2678c.0324-.112.0639-.2238.0971-.3361.0331-.1118.0648-.2241.0987-.3362h-.2541c.0081-.0272.0162-.0546.0243-.0819h.6393c-.008.0273-.0161.0547-.0242.0819h-.259c-.034.1121-.0696.2242-.102.3362-.0323.112-.0647.2241-.0971.3361h-.123zm1.5086-.0835c-.0097.0279-.0178.0557-.0259.0835h-.5406c.0356-.1257.0746-.2518.11-.377.0358-.1262.0761-.2515.115-.3772h.5244c-.0081.0273-.0178.0547-.0259.0819h-.4031c-.0113.0376-.0211.0755-.0323.1126-.0115.0379-.0243.075-.034.1125h.4014c-.0081.027-.0161.054-.0242.0809h-.4031c-.0146.0472-.0308.0945-.0437.1415-.0129.0471-.0291.0942-.0421.1413h.4241zm1.3856.0835c.0372-.1257.0778-.2518.1149-.377.0374-.1262.0794-.2515.1198-.3772h.1214c-.0356.1118-.0705.2238-.1052.3354-.0348.112-.0696.2236-.1036.3353h.3658c-.0097.0279-.0178.0557-.0259.0835H17.5zm1.0278 0c.0373-.1257.0795-.2518.1166-.377.0374-.1262.0793-.2515.1214-.3772h.1246c-.0405.1257-.0825.2515-.1197.3772-.0373.1256-.0794.2513-.1182.377h-.1247zm.7123 0c.0695-.1307.1386-.2618.2088-.3921.0706-.1309.1424-.2613.2153-.3921.0323.1035.067.2069.1003.3105.0331.1031.0664.2069.0988.3103.0955-.1034.1919-.2061.2881-.3103.0947-.1026.191-.207.2897-.3105-.0129.1308-.0226.2615-.034.3921-.0113.1307-.0243.2614-.034.3921h-.1197c.0097-.0871.017-.1742.0275-.2612.0105-.0871.021-.1741.0324-.2613-.0858.0921-.1732.1841-.2574.276-.0842.0919-.1716.1839-.2558.2759-.0291-.0921-.0568-.1847-.0842-.2764-.0276-.0925-.0582-.1843-.0841-.2765-.0454.0873-.0923.1746-.1343.2618-.0421.0872-.0891.1745-.1328.2617h-.1246zm1.7028 0c.0405-.1257.0828-.2518.1214-.377.039-.1262.0826-.2515.1246-.3772h.1279c-.042.1257-.0842.2515-.1246.3772-.0405.1256-.0825.2513-.1246.377h-.1247zm.9388 0c.0373-.112.0729-.2241.1101-.3361.0373-.112.0745-.2241.1117-.3362h-.2558c.0081-.0272.0178-.0546.026-.0819h.6426c-.0114.0273-.0211.0547-.0308.0819h-.2574c-.0372.1121-.076.2242-.1132.3362-.0372.112-.0729.2241-.1101.3361h-.1231zm1.5135-.0835c-.0129.0279-.021.0557-.0308.0835h-.5406c.0405-.1257.0844-.2519.1246-.377.0407-.1262.0859-.2515.1296-.3772h.5228c-.0081.0273-.0178.0547-.0275.0819h-.4047c-.013.0376-.0236.0753-.0356.1126-.0122.0377-.0259.075-.0389.1125h.4031c-.0097.027-.0194.054-.0291.0809h-.4015c-.0178.0472-.0347.0942-.0502.1415-.0153.0469-.0307.0942-.0453.1413h.4241zm.7155.001h.0663c.102 0 .1749-.0021.2169-.0064.0421-.0043.0778-.0115.1085-.0218.0729-.0246.1335-.063.1781-.1121.046-.0507.0776-.1086.0889-.176.0097-.0566.0039-.1067-.0193-.1491-.0237-.0432-.0637-.0738-.1166-.0966-.0216-.0092-.0518-.018-.0874-.0222-.0388-.0046-.0923-.0067-.1619-.0067h-.0696c-.0339.0986-.068.1971-.102.2955-.0339.0984-.0679.197-.1019.2954zm-.1489.0825c.042-.1257.0858-.2514.1262-.377.0404-.1257.0858-.2515.1311-.3772h.136c.1149 0 .1959.0024.2412.0077.0421.0049.0794.0135.1101.0257.0712.0281.1241.0705.1569.1257.0335.0561.0449.1196.0324.1912-.0118.0678-.0426.1301-.0873.1883-.0443.0575-.1004.1047-.1685.1399-.0532.0274-.1133.0463-.178.0581-.0632.0115-.1683.0176-.3091.0176h-.191z" class="fil5"/>
    </g>
  </g>
</svg>
