<?xml version="1.0" encoding="UTF-8"?>
<svg xmlns="http://www.w3.org/2000/svg" fill-rule="evenodd" clip-rule="evenodd" image-rendering="optimizeQuality" shape-rendering="geometricPrecision" text-rendering="geometricPrecision" viewBox="0 0 297 210">
  <defs>
    <style>
      .fil5{fill:#65272d}.fil3{fill:#c63d61}.fil2{fill:#d02452}.fil4,.fil6{fill:#65272d;fill-rule:nonzero}.fil6{fill:#d02452}
    </style>
  </defs>
  <g id="Layer_x0020_1">
    <path fill="none" d="M80.2374 65.0689h136.525v79.8623H80.2374z"/>
    <g id="_249224128">
      <path id="_247459456" fill="#f091af" d="M154.967 76.154c31.4935 0 57.0333 12.9175 57.0333 28.846 0 15.9286-25.5398 28.8461-57.0333 28.8461-31.4931 0-57.0329-12.9175-57.0329-28.8461 0-15.9285 25.5398-28.846 57.0329-28.846zm4.4485 1.734c28.9131 0 52.3605 12.1261 52.3605 27.0787 0 14.953-23.4474 27.0792-52.3605 27.0792-28.9133 0-52.3608-12.1262-52.3608-27.0792 0-14.9526 23.4475-27.0787 52.3608-27.0787z"/>
      <path id="_247461424" d="M182.647 84.1397l.2849.2856-.803.0894-1.0619.2013-1.3469.3355-.8547.4697-.8288.4474.9064.2013 1.2952.246.8806.2237-.3367-.492 2.124-.9395h1.5022l2.3829.3131.7511-.4921 2.0721-.2013h3.5226l1.2174.2685 1.7095.5815 1.4505.5368-1.8908-.067 1.3727.4473 2.2017.7829 2.2016 1.1183 1.6577 1.1408 1.4246 1.3644 1.7095 1.834 1.3987 1.9236-.5699-.4697-.8288.2014.1555.8499.8287.0894.2331.2237.4404 1.4762.1813.5145-.6475-.1566-.0778 1.0737-1.4505 1.2973.3627 1.2749-1.2433.9842-.6734-2.1025-1.0102.492.259 2.7512.0778 1.5881-5.4135 3.2432 1.4764 2.0578-2.5384 1.4539-.9842-1.767-.6993.1789.4921 2.0354 2.0203 1.1184-.6475.6486-1.3728-.2013.1813.8723 1.1397.0672.5439 1.6551 2.5384.4921v.7381l-3.0564.0224-4.6623-4.3169 2.098.0448-.6475-1.4987-2.331-4.451.0516-1.7447-.9064-.0448-.4662 1.6105-3.3414 2.2143-.0518 2.0578-2.4606.5592-1.7354-3.8024-1.1397-.2907.1554-2.3263-4.0405-.6486-4.8696-.7605 1.2434 1.9907 1.554-.4026 1.6577 1.6104-1.6836 1.7895-3.5744 1.0959-3.6003-6.7997-.9324.0224-.0777 1.3868 2.2533 4.5853 1.865 1.4762 2.9269-.0671-4.1702 5.9497.6994.7829.1036.4473.4921 1.1855-.9584.5145.3368 1.0289-.9325.9169-1.2692-.671-1.3209-1.2748-1.3988-1.4316-1.3208-1.7446-.2591-.7382-.4144-.9171-1.3728-2.1471.1295-.2461-1.321-1.9907-.518-1.767-.3763-1.8788v-3.1314l.2208-.3355v-.783l-.0516-.2459.3625-2.0355.285-.2012.2072-1.1632.2589-.3803.2591-.8052v-.3579l.3884-.9393-.2954 1.1752.5838-.9027.4463-.6816.0864-.4164.3525-.5926.173-.1388-.0618.3577 1.4653-.8169.2535-.4538.1051-.2295.8902-.6781 1.5024-.9343-.1731-.3203-1.5641.9557.0494-.6514 1.2798-1.1478-.2288-.1817-1.8176 1.8901.0927.2776-.4204.8275-.7172.6941-.3771.3363.0865-.5499-.5317.5393.4576-.7421.2473-.4646.612-.7154 1.3108-1.5108.7913-.8489.7604-.5179 1.1191-.881.6862-.3843 1.0696-.3845.8037-.1495 1.4962-.2882-1.3293 1.1158-1.6321.4058.6987.5445 2.1638-1.2493 1.9227-1.0784.7048-.283.8471-.1549 1.6816-.2028.0681-.0855-1.4406-.7634.5007-.2616.9213-.5019.7357-.3203.7418-.2776.7172-.1816.847-.1708 1.3136-.2576zm-4.582 12.9842l.8143-.1117.1293 1.161-.9306.1227-.013-1.172zm-3.9036.3794l.9694-.7032.4137.4243-1.0212 1.1496 1.0083 2.0093-1.3572.3796-.013-3.2596zm-8.1232 1.1217l1.2775-1.5494.4879.8181.8899-.1983.0143-.7809.8469.0248.8612 1.5618-3.1864.0867-1.0334 1.004-.1579-.9668zm-2.2677 1.3386l-.4737-1.5494.1867-.3842.7319 1.6485.0287 1.6113 1.0909 1.0908v-2.1815l1.2199 2.0823 1.2775-1.7849-.1148 1.7228-.5311.5455-2.6554.0247-.5022-.6817-.8326 1.0536-1.019-.533.0287-.5825-.1578-.8057-.8039.5082-.1866.4834.2584-1.227.531-1.2148.0719.1736.5597-.8181.488.7933.0144 1.5741.7894-1.5493z" class="fil2"/>
      <path id="_247461664" d="M208.789 96.9348l.415.946-.05.2151.282.688-.299.301-.431-.7454.37-.2906.026-.2424z" class="fil3"/>
      <path id="_247461832" d="M207.857 98.4732l1.017 1.1458-.199 1.279-.309 1.28-1.836 1.299-.752-.993 2.013-1.452z" class="fil3"/>
      <path id="_247461976" d="M208.277 103.438l.31.21.575 1.681-.442.706z" class="fil3"/>
      <path id="_247462192" d="M199.263 113.801l2.259-1.896 1.05 1.676-1.559 2.28-2.1-.192z" class="fil3"/>
      <path id="_247461088" d="M203.59 113.361l.859.275-1.432 2.06-.891-.027z" class="fil3"/>
      <path id="_247460056" d="M205.467 113.608l1.145.138 1.082-.055.445-.11-.382 1.071-.222.357-1.877.412h-.541z" class="fil3"/>
      <path id="_247462456" d="M206.835 115.779l-.191.659-.955 1.182-1.049 1.208-1.432 1.292-1.082.879-.732.412-1.368.797-1.559.797-.859.418 1.082-1.023-.732-.055.382-.439.318-.907 1.75-1.044 1.941-1.319 1.813-1.374.637-.577.954.413.477-.66z" class="fil3"/>
      <path id="_247461136" d="M186.769 111.905l1.067-.581.954 1.065-1.347.774z" class="fil3"/>
      <path id="_247463272" d="M172.398 119.5l1.797-.822.842.532-.618 2.709-2.077-1.258z" class="fil3"/>
      <path id="_247463008" d="M85.1497 99.1933h5.845c-.0531.1426-.1065.2851-.1597.4275-.3411.0216-.59.1047-.7453.249-.154.1432-.2459.3813-.2722.7118-.0092.1142-.0139.2019-.0159.2644-.0019.0636-.0025.1237-.0019.1821.009.7116.0206 1.4244.0296 2.1353.0088.7106.0218 1.4227.0354 2.1334.4516-.7356.9009-1.4726 1.3448-2.2089.4433-.7352.8803-1.4739 1.3175-2.21.04-.0675.0994-.162.1754-.2833.1606-.2565.2503-.4269.2564-.5152.0076-.1089-.0517-.2033-.1598-.2825-.1087-.0794-.272-.1373-.4811-.1761.0453-.1424.0907-.2849.136-.4275h5.1704c-.0354.1426-.0707.2851-.1063.4275-.3432.0216-.5858.1076-.7356.255-.1496.1477-.231.3881-.2445.7188-.0041.1053-.0068.1871-.0059.2428.001.0549.0067.1066.0098.1539.054.8017.1075 1.6037.1638 2.4046.056.801.1143 1.6023.1734 2.4031.4574-.8001.9118-1.6 1.3588-2.4004.4463-.7999.8928-1.5991 1.3271-2.4005.1374-.2538.2308-.4594.2958-.6071.065-.1483.099-.2575.1005-.3246.0025-.109-.0596-.1987-.1834-.2721-.1226-.0725-.3154-.1305-.5778-.1735.0197-.1424.0415-.2849.0631-.4275h3.9243c-.0336.1409-.0631.2807-.0927.4207-.3608.0086-.6739.1275-.9446.3564-.2697.2277-.6135.7116-1.043 1.4483-.4774.8181-.9649 1.6337-1.4534 2.4486-.4895.8163-.9848 1.6338-1.4909 2.447-.119.1912-.2224.3576-.2919.5065-.0684.1471-.1008.261-.1044.3427-.0044.1029.0203.1798.073.2257.0535.0467.1497.0773.2897.0944-.0218.0987-.0432.1975-.0631.2953h-5.7363c.0177-.0978.0354-.1966.0531-.2953.1932-.0257.3324-.0764.4181-.1545.0838-.0763.1296-.1975.14-.3606.0012-.0172.001-.0876-.002-.2147-.0027-.1243-.0066-.2937-.0118-.5022-.0144-.5683-.0277-1.1376-.0375-1.706-.0096-.5681-.0196-1.1376-.0296-1.7069-.3726.601-.7472 1.2022-1.1241 1.8013-.378.6011-.7656 1.1985-1.1436 1.8005-.1405.2238-.2297.3894-.282.4877-.0522.0982-.0853.1708-.0868.2223-.0024.084.0231.1533.0672.2043.0446.0518.1202.0945.2247.1288-.0256.0987-.0513.1975-.0749.2953H85.211c.0216-.0978.0452-.1966.0689-.2953.2208-.0499.3872-.1311.493-.243.1051-.1112.1697-.2698.1893-.4799.0059-.0628.0107-.213.0059-.4464-.003-.1417.0014-.2533 0-.3322-.016-.8484-.0413-1.6967-.0572-2.545-.0155-.8481-.0297-1.6972-.0414-2.5464-.0001-.0127-.0037-.037-.0039-.0687-.0037-.7785-.2899-1.2036-.8657-1.2698.0493-.1194.0986-.2387.1498-.3589z" class="fil4"/>
      <path id="_247462696" d="M107.761 107.802l.5318-3.5509h.5282c.1018.892.5317 1.5856 1.2931 2.0807.758.4929 1.7786.7404 3.0618.7404.873 0 1.5915-.1238 2.1593-.3714.5677-.2495.8499-.5569.8499-.9239 0-.4503-.8303-.8941-2.4909-1.3316h-.0097l-1.3651-.35c-.0691-.017-.1839-.047-.3349-.0874-.9057-.2263-1.5291-.4823-1.877-.7704-.2101-.1622-.3642-.3393-.466-.5335-.0987-.1942-.1478-.4075-.1478-.6402 0-.8515.5022-1.5407 1.5098-2.072 1.004-.5313 2.3265-.7981 3.9609-.7981.6594 0 1.4439.0619 2.3495.1878.9058.1258 1.4801.1877 1.7263.1877.1476 0 .2919-.017.4363-.0491.1445-.034.2955-.0874.4563-.1579l-.4988 2.6376-.548-.0257c-.1871-.5909-.5679-1.0285-1.1388-1.3079-.5744-.2818-1.3718-.4226-2.3892-.4226-.6038 0-1.0795.0768-1.4341.2283-.3511.1515-.5282.3522-.5282.6039 0 .3414.6038.67 1.8082.986.082.0212.1477.0384.1935.051l2.1529.5507c.9024.2326 1.5588.5185 1.9655.8599.4072.3394.6106.764.6106 1.2783 0 .9454-.6431 1.7306-1.9329 2.3558-1.2897.6253-2.9435.9389-4.9619.9389-.9483 0-1.9264-.081-2.9372-.2453-1.0106-.1621-1.5455-.2433-1.6111-.2433-.1149 0-.2462.015-.3939.047-.1476.032-.3215.081-.5284.1472zm20.0676.1131l.0951-.3564c.3872-.049.6629-.1323.8333-.2475.1709-.1131.3251-.382.4662-.8023l1.3062-3.9202h-3.6822l-1.2208 3.7515c-.0591.1665-.0951.286-.1149.3586-.0195.0725-.0295.1365-.0295.192 0 .207.0788.3692.2364.4844.1575.1131.3742.1751.6496.1835l-.118.3564h-5.9201l.0951-.3564c.3806-.049.6563-.1344.8271-.2539.1739-.1173.3314-.3841.4724-.7959l1.7952-5.559v-.0171c.0918-.271.1344-.4481.1344-.5334 0-.2071-.0753-.3692-.2297-.4844-.1541-.1131-.3708-.1751-.6529-.1836l.1148-.3564h5.9234l-.0951.3564c-.6629.0875-1.0962.4375-1.3095 1.0499l-.0098.0128-.3183.9005h3.705l.2592-.7447c.0559-.1664.092-.2859.1082-.3585.0166-.0725.0265-.1365.0265-.192 0-.2071-.0788-.3692-.2332-.4844-.1541-.1131-.3708-.1751-.6531-.1836l.1151-.3564h5.9527l-.0951.3564c-.3806.0491-.6563.1345-.8269.256-.1739.1217-.3348.3906-.4826.8067l-1.808 5.5461c-.0067.0172-.0131.0363-.0165.0619-.0789.2411-.118.4034-.118.4887 0 .207.0786.3692.233.4844.1541.1131.3708.1751.653.1835l-.115.3564h-5.9527z" class="fil4"/>
      <path id="_247462744" d="M151.914 99.3125l-.115.2945c-.2952.032-.5152.0853-.6628.1557-.1477.0705-.2198.1601-.2198.269 0 .0704.0295.1557.0918.2539.059.0961.1476.2005.2626.3094l2.2019 2.1126.5777-1.8202c.0524-.1665.0853-.286.105-.3586.0196-.0725.0296-.1365.0296-.192 0-.2071-.0755-.3692-.2298-.4844-.1544-.1131-.3741-.1751-.6562-.1835l.118-.3564h3.7968l-.1148.3564c-.3774.049-.653.1344-.8269.2559-.1739.1217-.3315.3906-.4726.8067l-1.7982 5.5462v.0171c-.0887.271-.1348.4481-.1348.5334 0 .2071.0787.3692.2332.4844.1542.1131.3708.1751.653.1835l-.115.3564h-3.8l.1148-.3307c.4363-.0469.7548-.1537.9483-.3222.1971-.1687.2922-.4161.2922-.7405 0-.2539-.2331-.5997-.699-1.0329-.1052-.0959-.1773-.1664-.2232-.2112l-4.5484-4.3639-1.7197 5.4266c-.0525.1664-.0884.2859-.1082.3585-.0164.0725-.0262.1365-.0262.192 0 .2027.0787.3628.2395.4802.1609.1173.3806.1793.6629.1877l-.1148.3564h-3.797l.0951-.3564c.3808-.049.6565-.1344.8272-.2539.174-.1173.3315-.384.4725-.7959l1.795-5.5589v-.0193c.092-.2689.1346-.446.1346-.5313 0-.2071-.0755-.3692-.2297-.4844-.1542-.1131-.3708-.1751-.653-.1835l.1147-.3564h7.4987zm5.7888 7.1338l1.795-5.5569v-.0192c.092-.271.1346-.4481.1346-.5313 0-.2092-.0755-.3713-.2297-.4865-.1541-.1131-.3708-.1751-.6529-.1835l.1146-.3564h8.0007c.5711 0 1.0372-.0086 1.3982-.0256.3609-.0171.6859-.0406.9745-.0747l.1837 2.8018h-.5381c-.1542-.6124-.5512-1.0734-1.188-1.3828-.6366-.3094-1.5128-.463-2.6286-.463-1.0008 0-1.6178.3714-1.8573 1.114l-.0098.0256-.2398.7062h1.2405c.7811 0 1.3259-.0704 1.631-.2091.3019-.1409.4956-.3948.5712-.766h.5576v3.1133h-.5576c-.0658-.416-.3086-.7276-.7318-.9345-.4235-.2071-1.0305-.3096-1.8247-.3096-.1609 0-.338.0044-.5317.015-.1902.0106-.4136.0278-.6728.0534l-.6989 2.1617c-.0722.2177-.1248.4096-.1641.5783-.0395.1707-.0591.2966-.0591.3798 0 .2796.128.4801.3874.606.256.1259.6661.1879 1.2306.1879 1.0959 0 2.0935-.1815 2.9929-.5421.9022-.3606 1.7949-.9389 2.6779-1.7348l.4723.1365-2.2315 3.2713c-.2198-.0575-.4528-.1003-.7021-.128-.2496-.0278-.5581-.0406-.9223-.0406h-9.3166l.095-.3564c.3808-.049.6566-.1344.8273-.2539.1739-.1173.3314-.384.4724-.7959zm17.1893-6.0584c-.9615.0256-1.8148.1901-2.553.4973-.7418.3073-1.3357.7384-1.7854 1.2975l-.5086-.0128 1.7492-3.0388c.1674.0619.3247.1088.4757.1366.151.0298.2985.0448.4399.0448h8.3256c.1739 0 .3708-.015.5905-.047.2232-.032.4628-.0767.7254-.1344l.0591 3.0024-.5481-.0192c-.1216-.5462-.4497-.9646-.9844-1.2568-.535-.2923-1.2636-.4482-2.1792-.4696l-1.8936 5.8898c-.0457.128-.0787.2391-.0984.3307-.0164.0919-.0262.1643-.0262.2198 0 .2071.0755.3692.2297.4844.1543.1131.3708.1751.6529.1835l-.1148.3564h-5.943l.118-.3564c.3776-.049.6532-.1344.8271-.2539.1707-.1173.3283-.384.4693-.7959l1.9723-6.0584z" class="fil4"/>
      <path id="_247463224" d="M105.592 99.2377l.314.0744-5.547 20.0019-1.0745-.303z" class="fil5"/>
      <path id="_247463200" d="M105.452 93.9441l-1.061-1.301 1.91.3848.933-1.7615.234 1.7615 2.084-.3664-1.66 1.2643 1.082 1.3926-1.846-.3849-.997 1.77-.191-1.77-1.973.3666z" class="fil5"/>
      <path id="_249222208" d="M101.975 87.8122l.766.1495.202-.6356.246.6232.81-.1371-.593.5234.607.5733-.853-.162-.231.6605-.203-.6979-.838.1745.578-.511z" class="fil2"/>
      <path id="_249222184" d="M110.161 83.986l.967.1927.5-.9087.074.8995 1.074-.2202-.861.6792.627.7525-1.02-.2386-.489.9087-.096-.9362-1.095.2661.84-.7067z" class="fil2"/>
      <path id="_249224776" d="M109.063 88.9651l.746.1158.226-.6156.185.6373.755-.1521-.529.4997.503.4996-.754-.1375-.185.6227-.184-.63-.772.1594.503-.507z" class="fil5"/>
      <path id="_249221200" d="M99.6743 94.1513l-.3857-.382.6239.0979.1475-.5485.238.5779.647-.1567-.499.4407.487.4506-.692-.1567-.158.6073-.1705-.6073-.7259.1665z" class="fil5"/>
      <path id="_249234784" d="M112.051 93.8109l.65.1403.162-.6269.22.5856.726-.1154-.545.4536.506.4701-.687-.1237-.201.6103-.153-.6103-.745.1237.526-.4701z" class="fil2"/>
      <path id="_249220984" d="M202.71 87.3796h-.2739v-2.1675h-.5576v-.236h1.389v.236h-.5575v2.1675zm.8557 0v-2.4035h.4041l.9649 2.0898.9616-2.0898h.4041v2.4035h-.2622v-2.1229l-.9806 2.1229h-.2472l-.9806-2.1229v2.1229h-.2641z" class="fil6"/>
      <path id="_249220648" d="M110.975 110.428h.2508c.1606 0 .281-.0036.3612-.0109.0802-.0071.1498-.0207.2006-.0359.0996-.0299.1837-.0699.2408-.1307.0533-.0565.0819-.1271.0903-.2049.0066-.0598 0-.1121-.03-.1569-.0303-.045-.0757-.0805-.1456-.1089-.0454-.0183-.1003-.0331-.1655-.0413-.0651-.008-.1654-.0124-.3059-.0124h-.2711c-.04.1172-.0798.2332-.1202.3512-.0398.1158-.0653.2339-.1054.3507zm-.7124 1.0967c.1003-.3357.2084-.672.306-1.007.0979-.3364.2107-.6716.3161-1.0075h.5068c.2808 0 .4765.0093.5918.0276.1153.0184.2119.0476.2958.0936.0818.0448.1427.1039.1858.1739.042.0684.0542.1464.0451.2318-.0108.1019-.047.1952-.1103.2729-.067.0824-.165.149-.2759.203-.0947.0461-.2107.0779-.3362.0972-.1302.02-.3259.0297-.5969.0297h-.281c-.0451.1476-.0902.2954-.1354.4427-.0451.1473-.0902.2948-.1355.4421h-.3762zm4.3043-1.116h.2558c.1555 0 .271-.0032.351-.0107.0753-.0069.1503-.0205.2108-.0377.095-.027.1756-.0682.2308-.125.055-.0567.0903-.1229.1003-.1982.015-.1135-.0306-.1932-.1405-.241-.1055-.0458-.311-.07-.6221-.07h-.1705c-.04.114-.0802.2278-.1153.3414-.0352.1136-.0703.2276-.1003.3412zm-.7224 1.116c.1003-.3357.211-.6725.311-1.007.1007-.3368.2156-.6716.3261-1.0075h.5017c.2759 0 .4714.0096.5818.0276.1154.0187.211.0492.2959.0936.0905.0473.1488.107.1908.1752.0432.0703.0601.1464.05.2305-.0199.1681-.126.3013-.3109.4023-.1812.0991-.4264.1506-.7175.1525.1405.1555.2861.3111.4266.4665.1403.1553.2858.311.4363.4663h-.4564c-.1354-.155-.2812-.3098-.4114-.4648-.1305-.1549-.271-.3101-.4062-.4653h-.1556c-.0553.1552-.1079.3099-.1555.4653-.0474.1544-.0903.3098-.1405.4648h-.3662zm3.6771 0c.1053-.3357.2161-.6725.3161-1.007.1004-.3368.2207-.6716.3311-1.0075h.3912c-.1104.3359-.2283.6711-.3311 1.0075-.1027.335-.2156.6713-.321 1.007h-.3863zm2.5936-2.0145h.4012c.0654.2516.1279.5029.1958.7548.0675.2511.1252.5034.1955.7547.2258-.2513.4682-.5023.6974-.7547.2273-.2503.4566-.5032.6923-.7548h.4213c-.336.349-.6673.6979-.9932 1.0468-.3261.3486-.6572.6975-.9882 1.0461-.1005-.3486-.2085-.6979-.311-1.0461-.103-.3493-.2059-.6978-.3111-1.0468zm3.1653 2.0145c.3463-.349.706-.6993 1.0535-1.0472.3497-.35.7074-.6981 1.0637-1.0474.1202.3493.2435.6991.361 1.0474.1182.3497.2458.6982.3713 1.0472h-.4164c-.0501-.169-.0952-.3383-.1454-.5076h-1.3696c-.1655.1693-.3311.3386-.4916.5076h-.4265zm1.1087-.7153h1.1238c-.0502-.1338-.1005-.2679-.1405-.4018-.04-.1337-.0903-.2679-.1304-.4019-.1455.134-.2895.2692-.4265.4019-.139.1349-.2859.268-.4264.4018zm3.7774.7153c.1005-.2992.1981-.5978.3011-.8976.1027-.2986.2008-.5987.306-.898h-.7876c.0252-.0728.0502-.1459.0753-.2189h1.9814c-.025.073-.05.1461-.0751.2189h-.8026c-.1054.2993-.2158.5988-.3161.898-.1003.2991-.2008.5984-.3011.8976h-.3813zm4.6756-.2229c-.0301.0743-.0552.1485-.0802.2229h-1.6756c.1104-.3357.2311-.6725.3411-1.007.1107-.3369.2357-.6716.3563-1.0075h1.6252c-.0251.073-.0552.1461-.0802.2189h-1.2492c-.0351.1004-.0655.2017-.1003.3006-.0355.1014-.0753.2004-.1054.3005h1.2442c-.0252.0722-.0502.1444-.0752.2163h-1.2492c-.0452.126-.0954.2522-.1354.3779-.04.1257-.0903.2516-.1305.3774h1.3144zm4.2941.2229c.1155-.3357.2413-.6726.3563-1.007.1156-.3369.2458-.6716.3711-1.0075h.3762c-.1102.2987-.2185.5979-.326.896-.1079.299-.2157.5971-.321.8956h1.1337c-.0301.0743-.0552.1485-.0802.2229h-1.5101zm3.1855 0c.1155-.3357.2464-.6726.3614-1.007.1156-.3369.2457-.6716.3762-1.0075h.3862c-.1255.3359-.2559.6717-.3712 1.0075-.1155.3355-.2459.6713-.3662 1.007h-.3864zm2.2073 0c.2157-.349.4296-.6991.6473-1.0472.2186-.3497.4414-.6981.6671-1.0474.1003.2765.2079.5526.3109.8294.1027.2755.2058.5527.3061.8289.2961-.2762.5948-.5507.893-.8289.2936-.274.5918-.5529.898-.8294-.0402.3493-.0703.6986-.1054 1.0474-.0351.349-.0753.6982-.1054 1.0472h-.3711c.03-.2326.0527-.4652.0853-.6975.0324-.2327.0651-.4653.1003-.698-.2658.2458-.5368.4916-.7977.7371-.2608.2455-.5318.4913-.7927.7368-.0901-.2459-.1759-.4933-.2608-.7381-.0857-.2471-.1806-.4923-.2608-.7385-.1406.2331-.286.4664-.4164.6992-.1303.2329-.2759.4662-.4113.699h-.3864zm5.2774 0c.1255-.3357.2565-.6726.3764-1.007.1207-.3371.2558-.6716.3862-1.0075h.3963c-.1304.3359-.2609.6717-.3864 1.0075-.1253.3355-.2556.6713-.3862 1.007h-.3863zm2.9096 0c.1155-.2992.2259-.5984.3413-.8976.1153-.2992.2306-.5987.346-.898h-.7927c.0252-.0728.0553-.1459.0804-.2189h1.9916c-.0352.073-.0652.1461-.0953.2189h-.7977c-.1153.2993-.2357.5988-.351.898-.1154.2992-.2258.5984-.3413.8976h-.3813zm4.6906-.2229c-.0402.0743-.0652.1485-.0954.2229h-1.6754c.1254-.3357.2614-.6728.3861-1.007.126-.3371.266-.6716.4014-1.0075h1.6204c-.0252.073-.0552.1461-.0853.2189h-1.2541c-.0402.1004-.0731.2011-.1104.3006-.0379.1009-.0802.2004-.1204.3005h1.2492c-.0302.0722-.0603.1444-.0903.2163h-1.2442c-.0552.126-.1077.2514-.1555.3779-.0475.1252-.0953.2516-.1405.3774h1.3144zm2.2173.0026h.2057c.3161 0 .5418-.0057.6722-.0172.1303-.0115.2411-.0306.3362-.0582.2259-.0658.4135-.1682.5518-.2994.1425-.1353.2405-.2901.2758-.47.0299-.1512.012-.2851-.0601-.3983-.0733-.1153-.1973-.1971-.3612-.2579-.0669-.0247-.1606-.0482-.2709-.0594-.1204-.0122-.286-.0179-.5017-.0179h-.2158c-.1052.2633-.2107.5264-.3161.7894-.1052.2628-.2105.5261-.3159.7889zm-.4615.2203c.1304-.3357.2659-.6715.3912-1.007.1253-.3358.266-.6716.4065-1.0075h.4213c.3561 0 .607.0065.7475.0206.1304.0133.2461.0361.3411.0686.2209.0752.3847.1884.4865.3359.1037.1497.1392.3194.1005.5106-.0367.1812-.1321.3475-.2709.503-.1371.1535-.3108.2797-.5219.3735-.165.0734-.3512.1239-.5517.1554-.1959.0307-.5218.0469-.9581.0469h-.592z" class="fil6"/>
    </g>
  </g>
</svg>
