<?xml version="1.0" encoding="UTF-8"?>
<svg xmlns="http://www.w3.org/2000/svg" fill-rule="evenodd" clip-rule="evenodd" image-rendering="optimizeQuality" shape-rendering="geometricPrecision" text-rendering="geometricPrecision" viewBox="0 0 297 210">
  <defs>
    <style>
      .fil1{fill:#4a4d4e}.fil2{fill:red}
    </style>
  </defs>
  <g id="Layer_x0020_1">
    <path fill="none" d="M48.5 5h200v200h-200z"/>
    <g id="_256600464">
      <path id="_256604952" d="M131.025 92.236c-30.9634 3.1659-55.0529 27.5609-55.0529 57.1904 0 3.2215.2893 6.3797.8367 9.457h-1.378c-1.2881-5.3259-1.9692-10.8723-1.9692-16.5702 0-32.9606 22.7772-60.8521 54.1698-70.2198l3.3936 20.1426z" class="fil1"/>
      <path id="_256602984" d="M148.5 51.1165c51.0932 0 92.5126 41.0223 92.5126 91.6259 0 5.5074-.4916 10.901-1.4319 16.141h-7.6655c1.3582-5.7882 2.0795-11.8066 2.0795-17.9868 0-45.1665-38.2774-81.7812-85.4947-81.7812-47.2173 0-85.4947 36.6147-85.4947 81.7812 0 6.1802.7213 12.1986 2.0795 17.9868h-7.6655c-.9403-5.24-1.4319-10.6336-1.4319-16.141 0-50.6036 41.4194-91.6259 92.5126-91.6259z" class="fil2"/>
      <path id="_256602144" d="M63.5698 154.15c.5409-.0917 6.0029-1.4245 6.0029-1.4245l-.2035-4.1716-7.8344-.7122 2.035 6.3083z" class="fil2"/>
      <path id="_256602432" d="M69.7561 108.355c.5142.1912 5.9106 1.769 5.9106 1.769l1.9103-3.714-6.4278-4.5353-1.3931 6.4803z" class="fil2"/>
      <path id="_256602624" d="M229.954 115.114c-.5424.0816-6.1476.5196-6.1476.5196l-1.1083-4.0268 7.2211-3.1211.0348 6.6283z" class="fil2"/>
      <path id="_256602768" d="M100.034 73.4015c.3282.4395 4.0053 4.6926 4.0053 4.6926l3.6197-2.0836-2.9391-7.297-4.6859 4.688z" class="fil2"/>
      <path id="_256595448" d="M200.574 75.8733c-.3282.4395-4.0054 4.6927-4.0054 4.6927l-3.6196-2.0836 2.9391-7.297 4.6859 4.6879z" class="fil2"/>
      <path id="_256602888" d="M146.528 58.6143c.0854.5851 1.3861 6.5047 1.3861 6.5047l4.5007-.1157.9621-8.4254-6.8489 2.0364z" class="fil2"/>
      <path id="_256594680" d="M129.517 66.1522l3.362-1.3864 20.673 62.8202-11.926 1.939z" class="fil1"/>
      <path id="_256601952" d="M150.078 125.889c8.9345 0 16.1773 7.2428 16.1773 16.1773 0 8.9344-7.2428 16.1772-16.1773 16.1772-8.9344 0-16.1772-7.2428-16.1772-16.1772 0-8.9345 7.2428-16.1773 16.1772-16.1773zm0 3.2558c7.1365 0 12.9217 5.7851 12.9217 12.9215 0 7.1362-5.7852 12.9213-12.9217 12.9213-7.1364 0-12.9216-5.7851-12.9216-12.9213 0-7.1364 5.7852-12.9215 12.9216-12.9215z" class="fil2"/>
    </g>
  </g>
</svg>
