<?xml version="1.0" encoding="UTF-8"?>
<svg xmlns="http://www.w3.org/2000/svg" fill-rule="evenodd" clip-rule="evenodd" image-rendering="optimizeQuality" shape-rendering="geometricPrecision" text-rendering="geometricPrecision" viewBox="0 0 25.4 25.4">
  <defs>
    <style>
      .fil0{fill:none}
    </style>
  </defs>
  <g id="Layer_x0020_1">
    <g id="_282658768">
      <path class="fil0" id="_282659536" stroke="#e31e24" stroke-width="1.0312" d="M13.4861 21.1674l4.2902-2.8722s5.8525.1091 6.7255-5.6353c.4126-7.4992-13.2527-8.0246-12.8699.9089 0 0 .1115 3.1204 3.1267 4.1083l-1.2725 3.4903z"/>
      <path id="_282659416" fill="#e31e24" fill-rule="nonzero" d="M17.7117 9.2259h1.1726l2.3367 6.0742h-1.2022l-.4749-1.2514h-2.4763l-.496 1.2514h-1.2008l2.3409-6.0742zm.5947 1.6108l-.8103 2.0845h1.6151l-.8048-2.0845z"/>
      <path class="fil0" id="_282658504" stroke="#494d4e" stroke-width=".9717" d="M10.0714 17.6054l-.9474-3.0608h3.3158s1.7088-.3243 1.9476-1.9476l.8946-6.7246s.1093-1.4212-1.6397-1.6398L2.4195 5.18S.889 5.6173.889 7.0748l.5466 6.0123s.0364 1.0111 1.4211 1.4575l3.1974-.0091 4.0173 3.0699z"/>
      <path id="_282658696" fill="#494d4e" fill-rule="nonzero" d="M9.783 11.8106l1.057 1.367H9.4701l-.5369-.6892c-.444.2411-.9372.3623-1.4826.3623-.9105 0-1.6673-.3143-2.2705-.9429-.6032-.6285-.9048-1.3783-.9048-2.2479 0-.5806.1409-1.1148.4214-1.601.2805-.4848.6666-.871 1.1585-1.1571.4904-.2861 1.0189-.4298 1.5827-.4298.8625 0 1.6024.3114 2.2197.933.6187.6229.9273 1.3811.9273 2.2746 0 .8231-.2677 1.5334-.8019 2.131zm-.7216-.933c.2452-.3636.3679-.7653.3679-1.205 0-.5764-.1945-1.0641-.5835-1.4671-.3876-.4017-.8569-.6018-1.4079-.6018-.5666 0-1.0416.1944-1.4235.5863-.3833.3904-.575.8878-.575 1.4896 0 .6723.241 1.2036.723 1.594.3777.3058.8048.458 1.2839.458.2763 0 .5342-.0535.7766-.1606l-1.0852-1.3995H8.516l.5454.7061z"/>
    </g>
  </g>
</svg>
