<?xml version="1.0" encoding="UTF-8"?>
<svg xmlns="http://www.w3.org/2000/svg" fill-rule="evenodd" clip-rule="evenodd" image-rendering="optimizeQuality" shape-rendering="geometricPrecision" text-rendering="geometricPrecision" viewBox="0 0 25.4 25.4">
  <defs>
    <style>
      .str4{stroke:#2b2a29;stroke-width:.2}.str3{stroke:red;stroke-width:.1585}.fil0{fill:none}
    </style>
  </defs>
  <g id="Layer_x0020_1">
    <g id="_453771856">
      <path class="fil0" id="_407873952" stroke="red" stroke-width=".6165" d="M8.3874 23.5524c-1.1842-8.4139 9.6134-9.1869 8.6558-.0393"/>
      <circle class="fil0" id="_407874216" cx="12.7" cy="12.7" r="11.9426" stroke="#2b2a29" stroke-width=".6773"/>
      <circle class="fil0" id="_407873856" cx="12.7" cy="13.5333" r="2.97679" stroke="red" stroke-width=".4051"/>
      <path id="_407873760" d="M11.889 4.4912l.3989.6142.7067-.1921-.4609.569.4011.6128-.6836-.2624-.4587.5708.0383-.7315-.6847-.2597.7074-.1895z" class="fil0 str3"/>
      <path id="_407873664" d="M17.8156 4.0575l.0178.7321.7028.2065-.6908.2433.0208.7321-.4449-.5817-.6898.2459.4159-.6028-.4471-.58.7017.2091z" class="fil0 str3"/>
      <path id="_407873568" d="M17.8218 8.5327l-.1895.7075.6159.3965-.7314.0384-.1867.7081-.2626-.6835-.7311.0412.5691-.4611-.2654-.6825.6144.3987z" class="fil0 str3"/>
      <path id="_407873472" d="M7.6403 6.0771l-.322.6579.5279.5075-.725-.1031-.3194.6591-.1262-.7214-.7254-.1003.6472-.3428-.1291-.7209.5261.5095z" class="fil0 str3"/>
      <path id="_407873352" d="M9.6202 7.8363l.1368.7196.7269.0894-.642.3524.1397.719-.5337-.5016-.6406.3548.3124-.6625-.5357-.4994.7266.0921z" class="fil0 str3"/>
      <path id="_407873280" d="M5.4061 7.4581S3.7819 9.098 8.0668 9.0515" class="fil0 str4"/>
      <path id="_407873208" d="M5.8393 5.8958s.8662-1.4078 4.7954-.8508" class="fil0 str4"/>
      <path id="_407873136" d="M10.4645 5.6947l-1.9954.4486" class="fil0 str4"/>
      <path id="_407873064" d="M13.6668 5.107h2.5215" class="fil0 str4"/>
      <path id="_407872152" d="M19.0965 5.5246s2.7689 1.9337-7.9512 3.3724" class="fil0 str4"/>
      <path id="_407872296" d="M13.6046 5.3854s10.5345 2.3823 5.2441 3.6817" class="fil0 str4"/>
      <path id="_407872104" d="M10.3407 8.1235s1.5623.6806 5.6926 1.0055" class="fil0 str4"/>
    </g>
  </g>
</svg>
