<?xml version="1.0" encoding="UTF-8"?>
<svg xmlns="http://www.w3.org/2000/svg" fill-rule="evenodd" clip-rule="evenodd" image-rendering="optimizeQuality" shape-rendering="geometricPrecision" text-rendering="geometricPrecision" viewBox="0 0 25.4 25.4">
  <defs>
    <style>
      .str1{stroke:#2b2a29;stroke-width:.1604}.fil2{fill:none}.fil0,.fil1{fill:red}.fil0{fill-rule:nonzero}
    </style>
  </defs>
  <g id="Layer_x0020_1">
    <path d="M19.4896 15.2684h-.6052l-.0085-.3406-.0252-.336-.0414-.3309-.0573-.3256-.0727-.3198-.0878-.3137-.1024-.3071-.1166-.3001-.1305-.2928-.1438-.285-.1569-.2768-.1695-.2683-.1815-.2591-.1934-.2497-.2049-.24-.2155-.2295-.2263-.2188-.2364-.2078-.246-.1962-.2553-.1842-.2641-.1719-.2725-.159-.2807-.1458-.2883-.1323-.2954-.1183-.3023-.1038-.3087-.0889-.3148-.0737-.3204-.058-.3257-.0421-.3306-.0255-.3352-.0086v-.608l.366.0094.3614.0279.3563.0459.3506.0636.3444.0807.3379.0973.3309.1136.3234.1293.3153.1447.3069.1596.2981.1738.2887.1879.2789.2012.2688.2144.258.2268.2471.239.2355.2507.2235.2618.2112.2727.1983.2829.1849.2929.1713.3022.157.3112.1425.3198.1274.3277.1118.3355.0958.3425.0795.3492.0625.3554.0452.3611.0274.3662.0093.371zm-7.1158 7.218v-.608l.3352-.0086.3306-.0255.3257-.0421.3204-.058.3148-.0737.3086-.0889.3024-.1039.2955-.1182.2882-.1323.2806-.1458.2726-.1591.2641-.1718.2553-.1843.246-.1962.2364-.2078.2263-.2188.2155-.2295.2049-.24.1934-.2497.1815-.2592.1695-.2682.1569-.2768.1438-.285.1305-.2928.1166-.3002.1024-.307.0878-.3137.0727-.3198.0573-.3256.0414-.3309.0252-.336.0085-.3406h.6052l-.0093.371-.0274.3662-.0452.3611-.0625.3554-.0795.3492-.0958.3425-.1118.3354-.1274.3278-.1425.3198-.157.3112-.1713.3022-.1849.2928-.1983.283-.2112.2727-.2235.2618-.2355.2507-.2471.239-.258.2268-.2688.2144-.2789.2013-.2887.1878-.298.1739-.307.1596-.3154.1447-.3233.1292-.3308.1137-.338.0973-.3444.0807-.3506.0636-.3563.0459-.3614.0279-.366.0094zm-7.1158-7.218h.6052l.0085.3406.0252.336.0414.3309.0573.3256.0727.3198.0878.3137.1024.307.1166.3002.1304.2928.1439.285.1569.2768.1695.2682.1815.2592.1934.2498.2048.2399.2156.2295.2262.2189.2364.2077.246.1962.2552.1843.2643.1718.2726.1591.2806.1458.2882.1323.2955.1182.3023.1039.3087.0889.3148.0737.3204.058.3257.0421.3306.0255.3352.0086v.608l-.366-.0094-.3614-.0279-.3563-.0459-.3506-.0636-.3444-.0807-.3381-.0973-.3307-.1137-.3233-.1292-.3154-.1447-.307-.1596-.298-.1739-.2887-.1878-.279-.2013-.2688-.2144-.258-.2269-.247-.2389-.2356-.2507-.2234-.2619-.2112-.2726-.1983-.283-.1849-.2928-.1713-.3022-.1571-.3112-.1424-.3198-.1274-.3278-.1118-.3354-.0958-.3425-.0795-.3492-.0625-.3554-.0452-.3611-.0274-.3662-.0093-.371zm7.1158-7.2179v.608l-.3352.0086-.3306.0255-.3257.0421-.3204.058-.3148.0737-.3088.0889-.3022.1038-.2954.1183-.2883.1323-.2807.1458-.2725.159-.2643.1719-.2552.1842-.246.1962-.2364.2077-.2262.2189-.2156.2295-.2048.2399-.1934.2498-.1815.2591-.1695.2683-.1569.2768-.1439.285-.1304.2928-.1166.3001-.1024.3071-.0878.3137-.0727.3198-.0573.3256-.0414.3309-.0252.336-.0085.3406H5.258l.0093-.371.0274-.3662.0452-.3611.0625-.3554.0795-.3492.0958-.3425.1118-.3355.1274-.3277.1424-.3198.1571-.3112.1713-.3022.1849-.2929.1983-.2829.2112-.2726.2234-.2619.2356-.2507.247-.2389.258-.2269.2688-.2144.279-.2012.2887-.1879.2981-.1738.3069-.1596.3153-.1447.3234-.1293.3308-.1136.338-.0973.3444-.0807.3506-.0636.3563-.0459.3614-.0279.366-.0094z" class="fil0"/>
    <path d="M17.4719 15.2684h-.5992l-.006-.3453-.0177-.3406-.0293-.3354-.0404-.3301-.0513-.3239-.0619-.3175-.0721-.3107-.0821-.3033-.0917-.2957-.1009-.2874-.11-.2787-.1186-.2698-.127-.2601-.1349-.2503-.1426-.24-.1498-.229-.1568-.2178-.1633-.2063-.1696-.1942-.1753-.1817-.1809-.1691-.1859-.1557-.1908-.1425-.1952-.1286-.1992-.1146-.203-.1001-.2067-.0855-.21-.0706-.2132-.0555-.2163-.0401-.2192-.0243-.2222-.0082v-.6026l.266.0098.2626.0291.2585.0479.254.0661.249.0838.2435.1007.2378.1173.2316.133.225.1484.2184.1629.2113.1771.2041.1907.1965.2037.1888.2164.1809.2283.1728.24.1642.2512.1556.2618.1467.2721.1376.2819.1282.2914.1184.3003.1085.3088.0983.3169.0879.3245.0769.3319.0661.3387.0545.3451.043.3509.0311.3566.0189.3616.0064.3663zm-5.0431 7.2153v-.6026l.2222-.0082.2192-.0243.2163-.0401.2132-.0555.21-.0706.2066-.0855.2031-.1002.1993-.1145.1951-.1286.1908-.1424.1859-.1559.1809-.169.1753-.1818.1696-.1942.1633-.2063.1568-.2178.1498-.229.1426-.24.1349-.2502.127-.2603.1186-.2697.11-.2787.1009-.2874.0917-.2957.0821-.3034.0721-.3106.0619-.3175.0513-.3239.0404-.3301.0293-.3354.0177-.3406.006-.3453h.5992l-.0064.3663-.0189.3616-.0311.3566-.043.3509-.0545.3451-.0661.3387-.0769.3318-.0879.3246-.0983.3169-.1085.3088-.1184.3003-.1282.2913-.1376.2819-.1467.2722-.1556.2618-.1642.2512-.1728.24-.1809.2283-.1888.2164-.1965.2038-.2041.1906-.2113.1771-.2184.163-.2251.1484-.2315.1329-.2377.1174-.2436.1007-.249.0838-.254.0661-.2585.0479-.2626.0291-.266.0098zm-5.0432-7.2153h.5992l.006.3453.0177.3406.0293.3354.0404.3301.0513.3239.0619.3175.0721.3106.0821.3034.0917.2957.1009.2874.11.2787.1186.2697.127.2603.1349.2502.1426.24.1498.229.1568.2178.1633.2063.1696.1942.1754.1818.1808.169.186.1559.1907.1424.1951.1286.1994.1144.2031.1003.2066.0855.21.0706.2132.0555.2163.0401.2192.0243.2222.0082v.6026l-.266-.0098-.2626-.0291-.2585-.0479-.254-.0661-.249-.0838-.2436-.1007-.2377-.1173-.2316-.133-.2251-.1484-.2183-.163-.2114-.1771-.204-.1906-.1966-.2038-.1888-.2164-.1809-.2283-.1728-.24-.1642-.2512-.1556-.2618-.1467-.2722-.1376-.2819-.1282-.2913-.1184-.3003-.1085-.3088-.0983-.3169-.0879-.3246-.0769-.3318-.0661-.3387-.0545-.3451-.043-.3509-.0311-.3566-.0189-.3616-.0064-.3663zm5.0432-7.2152v.6026l-.2222.0082-.2192.0243-.2163.0401-.2132.0555-.21.0706-.2067.0855-.203.1002-.1994.1145-.1951.1286-.1907.1425-.186.1557-.1808.1691-.1754.1817-.1696.1942-.1633.2063-.1568.2178-.1498.229-.1426.24-.1349.2503-.127.2601-.1186.2698-.11.2787-.1009.2874-.0917.2957-.0821.3033-.0721.3107-.0619.3175-.0513.3239-.0404.3301-.0293.3354-.0177.3406-.006.3453h-.5992l.0064-.3663.0189-.3616.0311-.3566.043-.3509.0545-.3451.0661-.3387.0769-.3319.0879-.3245.0983-.3169.1085-.3088.1184-.3003.1282-.2914.1376-.2819.1467-.2721.1556-.2618.1642-.2512.1728-.24.1809-.2283.1888-.2164.1966-.2037.204-.1907.2114-.1771.2183-.1629.2251-.1484.2316-.1331.2378-.1172.2435-.1007.249-.0838.254-.0661.2585-.0479.2626-.0291.266-.0098z" class="fil0"/>
    <path d="M15.3871 15.2684h-.6052l-.0033-.35-.0101-.3453-.0165-.3401-.0228-.3347-.0289-.3285-.0349-.322-.0406-.3152-.0464-.3075-.0517-.3-.0569-.2914-.0619-.2826-.0669-.2734-.0716-.2636-.076-.2535-.08-.2426-.0842-.2314-.088-.2197-.0914-.2075-.0945-.1948-.0973-.1815-.0998-.1678-.1019-.1534-.1034-.1389-.1043-.1237-.1046-.1082-.1042-.0925-.1031-.0767-.1015-.0615-.0992-.0465-.0972-.0324-.0959-.0192-.0958-.0064v-.6028l.1756.0116.1721.0342.1668.0556.1604.0751.1537.0929.1473.1095.1408.1249.135.1394.1293.1533.124.1665.1191.1794.1142.192.1095.2039.1047.2158.1.2271.0952.2381.0906.2488.0856.2592.0806.2689.0756.2784.0703.2878.0651.2964.0595.3048.0539.3126.0482.3203.0422.3274.0363.3342.0299.3405.0236.3463.0171.3519.0103.3569.0035.3616zm-2.94 7.2154v-.6028l.0958-.0064.0959-.0192.0972-.0324.0992-.0465.1015-.0615.1031-.0767.1042-.0926.1047-.1081.1042-.1237.1034-.1388.1019-.1536.0998-.1677.0973-.1815.0945-.1949.0914-.2075.088-.2197.0842-.2314.08-.2426.076-.2535.0716-.2637.0669-.2733.0619-.2826.0569-.2914.0517-.2999.0464-.3077.0406-.3151.0349-.322.0289-.3285.0228-.3347.0165-.3401.0101-.3453.0033-.35h.6052l-.0035.3616-.0103.3569-.0171.3519-.0236.3463-.0299.3405-.0363.3342-.0422.3273-.0482.3203-.0539.3127-.0595.3048-.0651.2964-.0703.2877-.0756.2785-.0806.2689-.0856.2592-.0906.2488-.0952.2381-.1.2271-.1047.2157-.1095.2041-.1142.1919-.1191.1794-.124.1666-.1294.1533-.1349.1393-.1408.125-.1473.1095-.1537.0929-.1604.0751-.1668.0556-.1721.0342-.1756.0116zm-2.94-7.2154h.6052l.0033.35.0101.3453.0165.3401.0228.3347.0289.3285.0349.322.0406.3151.0463.3077.0518.2998.0569.2915.0619.2826.0669.2734.0715.2636.0759.2534.0802.2427.0842.2314.0879.2197.0913.2075.0947.1948.0973.1816.0999.1678.1018.1535.1033.1388.1043.1237.1046.1081.1043.0926.1031.0767.1014.0614.0993.0466.0972.0324.0959.0192.0958.0064v.6028l-.1756-.0116-.1721-.0342-.1668-.0556-.1605-.075-.1538-.093-.1471-.1095-.1409-.125-.1348-.1393-.1295-.1533-.1241-.1666-.119-.1795-.1141-.1918-.1095-.204-.1047-.2158-.1001-.2271-.0953-.2381-.0904-.2488-.0856-.2591-.0807-.269-.0755-.2786-.0703-.2876-.0651-.2964-.0595-.3047-.054-.3128-.0481-.3203-.0422-.3273-.0363-.3342-.0299-.3405-.0236-.3463-.0171-.3519-.0103-.3569-.0035-.3616zm2.94-7.2153v.6028l-.0958.0064-.0959.0192-.0972.0324-.0993.0466-.1014.0614-.1031.0767-.1043.0925-.1045.1082-.1044.1237-.1034.1388-.1017.1534-.0999.1679-.0974.1815-.0946.1948-.0913.2075-.0879.2197-.0842.2314-.0802.2427-.0759.2534-.0715.2635-.0669.2735-.0619.2826-.0569.2915-.0518.2999-.0463.3075-.0406.3152-.0349.322-.0289.3285-.0228.3347-.0165.3401-.0101.3453-.0033.35h-.6052l.0035-.3616.0103-.3569.0171-.3519.0236-.3463.0299-.3405.0363-.3342.0422-.3274.0481-.3203.054-.3127.0595-.3047.0651-.2964.0703-.2877.0755-.2785.0807-.269.0856-.2591.0904-.2488.0953-.2381.1001-.2271.1048-.2158.1094-.2039.1141-.1919.1191-.1794.124-.1666.1294-.1533.1349-.1394.1409-.1249.1471-.1095.1538-.093.1605-.075.1668-.0556.1721-.0342.1756-.0116z" class="fil0"/>
    <path d="M6.603 11.7781l11.4953-.0338-.2302-.4269H6.9061zM6.6384 18.7426l11.4903.0339-.2302.4268H6.9414zM5.5606 15.0258l13.6263.0338-.2729.4269H5.9199z" class="fil1"/>
    <path stroke="#2b2a29" stroke-width=".6416" d="M8.6804 7.5611s.2191-.8327-.5916-.6793c0 0-3.7468 1.468-4.8862 6.4418 0 0-1.6433 7.165 5.7626 10.4078 0 0 5.0834 1.8843 9.1588-1.4023 0 0 4.0317-3.1333 3.3744-8.6549 0 0-.3177-3.681-3.9549-6.2884 0 0-1.5776-1.0955-4.1412-1.5338 0 0-.8272-.2136-.4876-1.0901 0 0 .0439-.3724.7012-.5806l3.2538-.011s1.3694.0548 2.4102.9641h3.0238v-.2519l-.9723.0109v-.378l-.0028-.3451.0024-.3772 1 .0225v-.2657h-.9969l-.0001-.3478-.0055-.3478V2.315l1.0217.0008v-.0722l-3.0485-.011s-.6573.7122-2.476.9642h-3.4729s-1.8515.2081-1.5118 2.5197c0 0 .2739 1.2818 2.1144 1.3476 0 0 5.182.7011 6.4528 6.639 0 0 1.3367 7.669-6.7704 9.4219 0 0-5.7408 1.227-8.7207-4.3822 0 0-2.562-4.6124 1.1832-9.1151 0 0 .756-.9531 2.5801-2.0666z" class="fil2"/>
    <rect width=".219124" height="1.00792" x="19.0969" y="3.10732" class="fil2 str1" rx=".1096" ry=".1096"/>
    <rect width=".219124" height="1.00792" x="19.6449" y="3.10732" class="fil2 str1" rx=".1096" ry=".1096"/>
    <rect width=".219124" height="1.00792" x="20.1643" y="3.10732" class="fil2 str1" rx=".1096" ry=".1096"/>
  </g>
</svg>
