<?xml version="1.0" encoding="UTF-8"?>
<!DOCTYPE svg PUBLIC "-//W3C//DTD SVG 1.1//EN" "http://www.w3.org/Graphics/SVG/1.1/DTD/svg11.dtd">
<!-- Creator: CorelDRAW X5 -->
<svg xmlns="http://www.w3.org/2000/svg" xml:space="preserve" width="25.4mm" height="25.4mm" style="shape-rendering:geometricPrecision; text-rendering:geometricPrecision; image-rendering:optimizeQuality; fill-rule:evenodd; clip-rule:evenodd"
viewBox="0 0 25.4 25.4"
 xmlns:xlink="http://www.w3.org/1999/xlink">
 <defs>
  <style type="text/css">
   <![CDATA[
    .str2 {stroke:#2B2A29;stroke-width:0.2}
    .str4 {stroke:#2B2A29;stroke-width:0.2184}
    .str3 {stroke:#2B2A29;stroke-width:0.3325}
    .str1 {stroke:red;stroke-width:0.5012}
    .str0 {stroke:#2B2A29;stroke-width:0.6773}
    .fil0 {fill:none}
    .fil1 {fill:red;fill-rule:nonzero}
   ]]>
  </style>
 </defs>
 <g id="Layer_x0020_1">
  <metadata id="CorelCorpID_0Corel-Layer"/>
  <circle class="fil0 str0" cx="12.7046" cy="12.7" r="11.9426"/>
  <g id="_356624856">
   <path id="_304160936" class="fil0 str1" d="M6.1308 12.3242l0 -2.1611 0 -0.3172c0,0 -0.6773,-1.3429 -1.5778,-0.0274l0.0001 4.7451c0,0 -0.0313,0.7987 2.3961,2.9441 0,0 0.6891,0.3132 0.5325,1.3938l-0.0001 0.2506 -0.4542 0 0 1.7757"/>
   <path id="_304160768" class="fil0 str1" d="M8.069 15.8791l-1.7696 -1.7696c0,0 -0.5794,-1.1901 0.6891,-1.2058 0,0 0.1566,-0.0313 0.4541,0.2035l2.5213 2.4901c0,0 0.7049,0.5011 0.5326,3.3043l-0.0038 0.2153 0.5638 0 0 1.84"/>
   <g>
    <polygon id="_356624832" class="fil1" points="10.4919,19.3675 7.4692,19.4027 7.4634,18.9015 10.4861,18.8663 "/>
   </g>
  </g>
  <g>
   <path class="fil0 str1" d="M19.6114 12.3242l0 -2.1611 0 -0.3172c0,0 0.6773,-1.3429 1.5777,-0.0274l0 4.7451c0,0 0.0313,0.7987 -2.3961,2.9441 0,0 -0.6891,0.3132 -0.5325,1.3938l0.0001 0.2506 0.4541 0 0 1.7757"/>
   <path class="fil0 str1" d="M17.6732 15.8791l1.7696 -1.7696c0,0 0.5794,-1.1901 -0.6891,-1.2058 0,0 -0.1566,-0.0313 -0.4541,0.2035l-2.5213 2.4901c0,0 -0.7049,0.5011 -0.5326,3.3043l0.0037 0.2153 -0.5638 0 0 1.84"/>
   <g>
    <polygon class="fil1" points="15.2503,19.3675 15.2561,18.8663 18.2788,18.9015 18.273,19.4027 "/>
   </g>
  </g>
  <rect class="fil0 str2" x="6.858" y="10.0753" width="0.5095" height="0.5095"/>
  <rect class="fil0 str2" x="18.2872" y="10.0753" width="0.5095" height="0.5095"/>
  <rect class="fil0 str2" x="6.858" y="11.1329" width="0.5095" height="0.5095"/>
  <rect class="fil0 str2" x="18.2872" y="11.1329" width="0.5095" height="0.5095"/>
  <path class="fil0 str3" d="M15.0604 12.6863c0.5164,-4.9326 -5.4702,-4.5037 -4.6674,-0.0159l4.6674 0.0159z"/>
  <circle class="fil0 str4" cx="12.7175" cy="7.40073" r="1.60515"/>
  <path class="fil1" d="M12.8337 3.5646c1.6353,0 3.116,0.663 4.1878,1.7347 1.0717,1.0718 1.7347,2.5525 1.7347,4.1878l0 0.0022 -0.4234 0 0 -0.0022c0,-1.5186 -0.6156,-2.8936 -1.6105,-3.8886 -0.995,-0.9949 -2.37,-1.6105 -3.8886,-1.6105 -1.5186,0 -2.8936,0.6156 -3.8886,1.6105 -0.9949,0.995 -1.6105,2.37 -1.6105,3.8886l0 0.0022 -0.4234 0 0 -0.0022c0,-1.6353 0.663,-3.116 1.7347,-4.1878 1.0718,-1.0717 2.5525,-1.7347 4.1878,-1.7347z"/>
 </g>
</svg>
