<?xml version="1.0" encoding="UTF-8"?>
<svg xmlns="http://www.w3.org/2000/svg" fill-rule="evenodd" clip-rule="evenodd" image-rendering="optimizeQuality" shape-rendering="geometricPrecision" text-rendering="geometricPrecision" viewBox="0 0 25.4 25.4">
  <defs>
    <style>
      .str0{stroke:red;stroke-width:.6789}.fil0{fill:none}.fil1,.fil2,.fil3{fill:#2b2a29}.fil1,.fil3{fill-rule:nonzero}.fil1{fill:red}
    </style>
  </defs>
  <g id="Layer_x0020_1">
    <g id="_352211592">
      <path id="_352209288" d="M18.2432 5.5853c2.836 1.4617 4.7744 4.4095 4.7744 7.8083 0 4.853-3.9516 8.7872-8.826 8.7872-4.8744 0-8.826-3.9342-8.826-8.7872 0-3.4645 2.0142-6.4602 4.9399-7.8912-.1827.4712-.2831.983-.2831 1.5183 0 2.3294 1.8967 4.2177 4.2363 4.2177s4.2363-1.8883 4.2363-4.2177c0-.504-.0889-.9873-.2518-1.4354z" class="fil0 str0"/>
      <path id="_352217304" d="M23.0063 13.6815H5.4394v-.679h17.5669z" class="fil1"/>
      <path d="M14.5624 12.2705v9.855h-.679v-9.855z" class="fil1"/>
      <path d="M9.1522 9.3214s-3.4996 10.2945 5.0394 12.8594M19.2517 9.4052s3.4996 10.2944-5.0394 12.8593M7.4442 18.7202s6.3012-3.9993 13.5784-.0318" class="fil0 str0"/>
      <path d="M12.8806 4.5785l-.3419.5075s.9159-.0363 1.1911.0594c0 0 .4909.0514.6701.4481l-1.5205-.0246-.3083.5238 1.9058.0083s-.0297.2601-.1887.4775c0 0-.2336.4489-1.1841.4289l-.3745-.02-.008.4793 1.8924 2.3846h.8216l-1.8848-2.4372-.0032-.0146s.6497-.0824.9982-.33c0 0 .3809-.2392.5238-.5816 0 0 .0814-.1753.1074-.3747l.6159-.012.3158-.4933-.9222.0121s.0166-.1524-.1568-.3869c0 0-.0682-.0935-.1257-.1571l.8894-.0015.3256-.5028-3.2384.0068z" class="fil2"/>
      <path d="M18.8336 7.0207h-.677l-.0051-.1997-.0151-.197-.0247-.194-.0342-.1908-.0435-.1875-.0524-.1838-.0612-.18-.0696-.1759-.0781-.1717-.0859-.1671-.0938-.1623-.1013-.1575-.1086-.152-.1157-.1466-.1226-.1408-.129-.1348-.1354-.1284-.1416-.1221-.1472-.1153-.1528-.1082-.1583-.1009-.1632-.0935-.1681-.0857-.1725-.0777-.177-.0694-.181-.061-.1849-.0523-.1886-.0433-.192-.0342-.1952-.0246-.1982-.0151-.201-.005v-.679l.235.006.232.0175.2288.029.2252.04.2214.0509.2171.0613.2126.0716.2078.0816.2027.0913.1973.1005.1916.1097.1855.1185.1794.127.1728.1351.1658.1431.159.1508.1514.1582.1438.1652.1359.1722.1276.1786.1191.1849.1102.1909.1011.1965.0917.2021.082.2071.072.212.0618.2164.0511.2207.0404.2246.0291.2282.0177.2314.0059.2343zm-4.5748 4.5572v-.679l.201-.005.1982-.0151.1952-.0246.192-.0342.1886-.0433.1849-.0523.181-.061.177-.0694.1725-.0777.1681-.0857.1632-.0935.1583-.1009.1528-.1082.1473-.1153.1415-.122.1354-.1285.129-.1348.1226-.1409.1157-.1464.1086-.1521.1014-.1574.0937-.1623.0859-.1672.0781-.1716.0696-.176.0612-.1799.0524-.1839.0435-.1874.0342-.1909.0247-.1939.0151-.197.0051-.1998h.677l-.0059.2344-.0177.2314-.0291.2281-.0404.2247-.0511.2206-.0618.2165-.072.2119-.082.2072-.0917.202-.1011.1966-.1103.1909-.119.1848-.1276.1787-.1359.1722-.1438.1651-.1514.1582-.159.1509-.1659.143-.1727.1351-.1794.127-.1855.1185-.1916.1097-.1973.1005-.2027.0913-.2078.0816-.2126.0716-.2171.0613-.2214.0509-.2252.04-.2288.029-.232.0175-.235.006zM9.6839 7.0207h.677l.0051.1998.0151.197.0247.1939.0342.1909.0435.1874.0524.1839.0612.1799.0696.176.0781.1716.0859.1672.0937.1623.1014.1574.1086.1521.1157.1465.1225.1408.1291.1348.1353.1285.1416.122.1473.1153.1528.1082.1583.1009.1632.0935.168.0857.1726.0777.177.0694.181.061.185.0523.1886.0433.1919.0342.1953.0246.1982.0151.201.005v.679l-.235-.006-.232-.0175-.2289-.029-.2253-.04-.2212-.0509-.2172-.0613-.2126-.0716-.2078-.0816-.2028-.0913-.1972-.1005-.1916-.1097-.1855-.1185-.1794-.127-.1727-.1351-.166-.143-.1589-.1509-.1515-.1582-.1437-.1652-.1359-.1721-.1276-.1787-.119-.1848-.1103-.1909-.1011-.1966-.0917-.202-.082-.2072-.072-.2119-.0618-.2165-.0511-.2206-.0404-.2247-.0291-.2281-.0177-.2314-.0059-.2344zm4.5749-4.5572v.679l-.201.005-.1982.0151-.1953.0246-.1919.0342-.1886.0433-.185.0523-.181.061-.177.0694-.1726.0777-.168.0857-.1632.0935-.1583.1009-.1528.1082-.1473.1153-.1416.1221-.1353.1284-.1291.1348-.1225.1408-.1157.1466-.1086.152-.1013.1575-.0938.1623-.0859.1671-.0781.1717-.0696.1759-.0612.18-.0524.1838-.0435.1875-.0342.1908-.0247.194-.0151.197-.0051.1997h-.677l.0059-.2343.0177-.2314.0291-.2282.0404-.2246.0511-.2207.0618-.2164.072-.212.082-.2071.0917-.2021.1011-.1965.1102-.1909.1191-.1849.1276-.1786.1359-.1722.1437-.1652.1515-.1582.1589-.1508.166-.1431.1727-.1351.1794-.127.1855-.1185.1916-.1097.1972-.1005.2028-.0913.2078-.0816.2126-.0716.2172-.0613.2212-.0509.2253-.04.2289-.029.232-.0175.235-.006z" class="fil3"/>
      <path d="M13.0934.9539c2.2046-.2039 4.3234.213 6.1838 1.1065l.0737.797c-1.8393-.9685-3.9708-1.4331-6.195-1.2275-3.057.2826-5.71 1.7776-7.528 3.9661-1.818 2.1885-2.8012 5.0706-2.5186 8.1275.2827 3.057 1.7776 5.71 3.9661 7.528 2.1885 1.818 5.0706 2.8012 8.1275 2.5186 2.2242-.2057 4.2344-1.0532 5.8649-2.3426l.0737.797c-1.665 1.2195-3.6715 2.0178-5.8761 2.2216-3.2435.2999-6.3017-.7433-8.6238-2.6724-2.3221-1.9291-3.9084-4.7441-4.2083-7.9877-.2999-3.2435.7434-6.3017 2.6724-8.6238C7.0348 2.84 9.8498 1.2538 13.0934.9539z" class="fil3"/>
      <path stroke="#2b2a29" stroke-width=".0481" d="M19.0665 1.6905l.3819-.3074.6577 1.6441h-1.5912v-.3607h.7637z" class="fil2"/>
    </g>
  </g>
</svg>
