<?xml version="1.0" encoding="UTF-8"?>
<svg xmlns="http://www.w3.org/2000/svg" width="96" height="96" viewBox="0 0 25.4 25.4" shape-rendering="geometricPrecision" text-rendering="geometricPrecision" image-rendering="optimizeQuality" fill-rule="evenodd" clip-rule="evenodd">
  <defs>
    <style>
      .str0,.str2{stroke:red;stroke-width:.1693}.str0{stroke-width:.2}.fil0{fill:none}
    </style>
  </defs>
  <g id="Layer_x0020_1">
    <rect class="fil0 str0" x="9.0784" y="5.6703" width="7.2087" height="14.091" rx="1.1877" ry="1.1877"/>
    <circle class="fil0" cx="12.7046" cy="12.7" r="11.9426" stroke="#2b2a29" stroke-width=".6773"/>
    <path class="fil0 str2" d="M14.5418 4.0537c1.4717-.2852 2.8288.3659 3.4375 1.5548.0944.1842.1484.4265.2415.5518l-1.0871.2107c.1698.3798 2.317 2.2494 2.4711 2.5663.2128-.1034.6949-1.4604.7896-1.6869l.5424-1.2903c.1926-.4292.2161-.368-.8681-.1578-.0769-.3967-.5035-.9971-.7224-1.2387-1.4234-1.57-3.5488-1.839-5.4195-.6418-.1403.0899-.1958.1102-.3033.2279-.1053.1153-.1494.2386.0702.2246.0819-.0052.5406-.2611.8481-.3206zM4.4988 20.3233l.924-.179c.2321.3126.2778.6762.7497 1.1981.598.6616 1.3803 1.1489 2.2619 1.3372.9115.1946 1.959.0387 2.7775-.4206l.6896-.4389c.1688-.1596.0976-.1411.0703-.1817-.0654-.0974.1003-.2048-.4086.0525-.9127.4614-2.1179.2768-2.9025-.1857-.9516-.561-1.2666-1.6367-1.3357-1.7295l1.0871-.2107c-.0887-.1984-.428-.5034-.5905-.6644-.2148-.2128-.4132-.3954-.627-.6104-.2202-.2215-.3972-.4086-.6236-.6155-.154-.1408-.5455-.5021-.63-.676-.1674.0814-.1691.1952-.2352.3608-.0625.1569-.1063.2558-.169.4055-.1509.3606-1.0237 2.3532-1.038 2.5583z"/>
    <rect class="fil0 str0" x="11.7408" y="6.495" width="1.9433" height=".4602" rx=".1768" ry=".1768"/>
    <path class="fil0 str0" d="M9.4822 7.7902l6.4324.0084v10.2777H9.4822z"/>
  </g>
</svg>
