<?xml version="1.0" standalone="no"?>
<!DOCTYPE svg PUBLIC "-//W3C//DTD SVG 20010904//EN"
 "http://www.w3.org/TR/2001/REC-SVG-20010904/DTD/svg10.dtd">
<svg version="1.0" xmlns="http://www.w3.org/2000/svg"
 width="700.000000pt" height="700.000000pt" viewBox="0 0 700.000000 700.000000"
 preserveAspectRatio="xMidYMid meet">
<metadata>
Created by potrace 1.11, written by Peter Selinger 2001-2013
</metadata>
<g transform="translate(0.000000,700.000000) scale(0.100000,-0.100000)"
fill="#000000" stroke="none">
<path d="M126 5130 c-14 -36 -26 -68 -26 -71 0 -4 17 -9 38 -13 114 -18 211
-117 251 -258 26 -90 31 -160 36 -538 10 -634 14 -866 21 -1165 4 -165 8 -442
8 -615 1 -303 0 -317 -22 -370 -29 -74 -83 -125 -168 -159 -49 -20 -70 -33
-71 -47 -1 -10 -5 -35 -8 -54 l-7 -35 976 -1 976 0 16 55 c17 59 18 56 -39 87
-28 15 -57 67 -57 102 0 37 102 224 315 577 120 198 225 374 235 390 10 17 68
116 130 220 62 105 122 206 134 226 66 115 171 288 173 286 1 -2 4 -167 7
-367 3 -201 9 -484 12 -630 4 -146 7 -362 8 -480 l1 -215 -30 -45 c-30 -44
-57 -59 -149 -86 -30 -9 -33 -16 -38 -84 l-3 -35 1069 0 c1064 -1 1068 -1
1076 20 4 11 10 37 14 57 6 35 5 38 -21 44 -82 17 -113 55 -107 128 7 81 52
170 254 512 14 23 43 73 65 111 22 37 44 76 50 85 5 9 17 29 26 45 9 15 25 44
36 63 22 38 133 233 264 462 45 79 101 177 124 218 23 41 91 163 152 270 60
107 123 220 140 250 17 30 53 95 82 144 28 49 51 91 51 94 0 10 176 301 228
377 149 218 286 318 465 340 47 6 58 11 62 29 2 11 9 44 15 73 7 29 9 56 6 61
-2 4 -332 8 -733 8 l-727 -1 -7 -40 c-4 -22 -9 -59 -13 -82 l-5 -42 42 -11
c160 -41 220 -76 236 -138 9 -33 7 -50 -13 -108 -34 -100 -106 -253 -241 -509
-29 -55 -83 -158 -120 -230 -37 -71 -85 -161 -105 -200 -35 -65 -64 -120 -185
-350 -26 -49 -60 -112 -75 -140 -15 -27 -53 -99 -85 -160 -32 -60 -65 -123
-75 -140 -25 -44 -74 -135 -140 -260 -32 -60 -70 -130 -84 -155 l-26 -45 -1
40 c-2 64 -11 196 -24 365 -3 30 -7 96 -10 145 -11 180 -23 355 -30 435 -2 25
-7 95 -10 155 -3 61 -8 137 -10 170 -2 33 -7 101 -10 150 -3 50 -7 115 -10
145 -38 506 -22 646 84 747 44 42 152 83 222 85 16 1 33 6 37 12 13 16 43 148
36 155 -11 12 -1919 9 -1927 -3 -15 -23 -48 -149 -40 -156 4 -4 29 -13 56 -20
58 -16 130 -60 152 -94 40 -61 27 -95 -169 -436 -65 -113 -133 -232 -151 -265
-28 -52 -170 -303 -195 -345 -11 -18 -112 -197 -148 -260 -14 -25 -117 -205
-230 -400 -113 -195 -212 -367 -219 -382 -8 -16 -18 -28 -21 -28 -4 0 -8 51
-8 113 -1 61 -5 339 -9 617 -10 640 -11 1091 -3 1155 19 144 77 244 169 291
49 24 161 53 191 48 11 -1 21 12 31 40 22 60 40 120 39 126 -1 3 -492 5 -1091
6 l-1089 0 -26 -66z"/>
</g>
</svg>
